<svg xmlns="http://www.w3.org/2000/svg" width="215.712" height="77.95"><path data-name="Pfad 10171" d="M52.382 23.65l.173.014 3.38-4.286.533.997-.087-.983.464-.126 7.838-.894-.503.37.206.558-.128 2.584.096.228-.697.463.536.174-6.147.72-.846 1.2.191 1.553 8.632 2.194.429.427-.087.111.266-.067.845 6.885-.145.018-3.742 4.398-.876-.44.088.434-.25.202-8.262.78.532-.409-.345-.3.4-1.488.44-.876-.265-.207.25-1.024-.268-.241 6.335-.577 1.45-1.582-.307-2.496-8.623-2.126-.712-.495.14-.257-.258.132zm26.264-7.06l-.026.071 4.446 3.565-1.7.928.536-.1 1.176-.453.576 4.417-.564-.132-.278-.035.766.386-3.023 3.83-.145-.358-.451-.045.29.718-5.885.893.935 8.175-.362-.157-.621.522-3.138.41-.277.2-2.536-21.474.441.528.179-.502 3.209-.12-.041-.337-.16-.182zm-4.778 9.352l3.974-.557 1.154-1.478-.166-1.35-1.924-1.442-3.514.397zM89.65 15.269l7.58-1.032-.544.307.31.886-.102.287.297 1.025-.127.359.206.283-.08.455.094.776-6.5.899.013-.173-.439-.22.465 4.602 4.78-.688.838.137-.262.374.313 1.435.448 1.418.058.747-5.754.843.435 4.366 6.265-.87.303.236.46.115.232 1.616.218.384.486 1.722-7.847 1.1-.114.186-2.265.244-.557.205-.67-.158-.461.434-2.255-21.715 1.236-.253.193.178 1.093-.305 1.417.1-.004-.034zm16.704 19.43l-.334.35-.674-.191-.465.4-1.852.26-.366-.194-.322.45L99.74 13.76l.324.405.33-.383.628.094 2.602-.285.675.191.128 1.046.328-.415 8.537 10.942-1.4-13.051.323.406.229-.371.501.178 1.625-.44 1.265-.017.586-.244 2.243 21.89-.316-.338-.679.05-1.949-.005-.347.244-.594-.099-.451.233-.173-.289-.07-.574-.375.012-8.415-10.785 1.507 12.832zm31.021-9.323l.034-.005-4.863 6.147.004.036-.034.004-5.555.509.004.033-1.76.456-.376-.296-.562.446-1.356.132-.44.328-2.756-22.167.472.216 1.334-.301.252.106 2.531-.31.042.337 6.5-.9-.367.354.096.502-.216.472.41-.29.14-.497 5.126 4.646-.245.232.413.017zm-4.912-.39l.173.012-.961-7.829-2.939-2.448-3.872.544 1.541 12.554 3.724-.357 2.233-2.773zm10.199-16.223l7.58-1.031-.544.307.31.886-.101.287.297 1.025-.127.359.206.283-.082.455.096.776-6.501.899.013-.173-.438-.22.464 4.602 4.78-.688.839.137-.262.374.313 1.435.448 1.418.057.746-5.75.842.435 4.365 6.265-.87.307.234.46.115.232 1.616.218.384.486 1.722-7.85 1.1-.115.186-2.265.244-.557.205-.67-.157-.461.433-2.255-21.715 1.236-.252.193.177 1.093-.305 1.417.1-.004-.034zM21.316 69.851l.034-.004-4.863 6.147.004.035-.035.005-5.555.51.004.034-1.757.456-.379-.296-.562.446-1.354.131-.44.328-2.757-22.169.471.216 1.334-.3.252.106 2.531-.311.042.337 6.5-.899-.367.354.096.502-.216.472.41-.29.14-.497 5.127 4.646-.246.231.413.018zm-4.912-.39l.173.013-.961-7.83-2.94-2.447-3.872.544 1.541 12.553 3.725-.356 2.228-2.774zm10.2-16.222l7.58-1.031-.545.306.31.887-.101.287.297 1.025-.127.358.206.283-.081.455.095.777-6.501.899.013-.173-.438-.22.464 4.601 4.78-.687.839.136-.262.375.313 1.435.448 1.418.057.746-5.754.844.436 4.365 6.264-.87.303.237.46.115.232 1.616.219.384.485 1.721-7.843 1.096-.114.186-2.265.244-.557.205-.67-.157-.461.433-2.255-21.715 1.236-.253.193.178 1.093-.305 1.417.1-.004-.032zm15.274 19.774l-.278-.308-.363.387-1.181.145-.444.294-2.64-21.497.418.05.814-.34 2.36-.598.509.246.469-.366 2.619 21.33-.46.157-.406.324zm10.202-1.424l-.334.35-.674-.192-.465.4-1.852.261-.366-.194-.322.45-2.602-22.015.324.406.33-.383.628.094 2.603-.286.674.192.128 1.046.326-.417 8.537 10.941-1.401-13.05.324.405.228-.37.502.178 1.624-.44 1.266-.018.586-.243 2.243 21.89-.316-.338-.679.049H61.44l-.347.244-.595-.098-.451.226-.173-.287-.07-.573-.375.011-8.416-10.784 1.508 12.831zm17.891-23.675l7.581-1.031-.544.306.31.887-.102.287.297 1.025-.127.358.206.283-.081.455.095.777-6.5.899.012-.173-.438-.22.464 4.601 4.78-.687.84.136-.263.375.313 1.435.448 1.418.058.746-5.754.844L72 65l6.265-.87.303.237.46.115.232 1.616.218.384.486 1.722-7.847 1.096-.115.185-2.265.244-.557.206-.67-.158-.46.433-2.256-21.715 1.237-.252.193.178 1.093-.306 1.416.1-.004-.031zm16.705 19.427l-.334.35-.675-.192-.464.4-1.852.262-.367-.195-.321.45-2.603-22.015.324.406.33-.383.628.094 2.603-.285.674.191.128 1.046.326-.417 8.537 10.941-1.4-13.05.323.405.229-.37.501.178 1.625-.44 1.265-.018.587-.243 2.242 21.89-.316-.338-.679.05h-1.952l-.347.243-.594-.098-.452.227-.172-.288-.07-.573-.376.012-8.415-10.785 1.507 12.832zm22.666-24.638l.311.305 1.148-.141 1.441.024.823-.272-.05-.131 7.112-.938v.274l3.981 3.139.63 5.129-.907.146.383.33.41-.017-1.303 1.702 1.86 1.484.055.165.063-.042.018.143.567 4.897.008.067-.067.009-2.559 3.431-.719.5-.783-.52.084.4.273.275-5.605.688-.304.311-1.915.304-.417-.326-.322.45-1.046.13-.435.361zm5.885 10.548l.758 6.175 4.324-.496.884-1.17-.198-1.89-1.414-1.197-3.712.455zm-.286-2.329l4.219-.518.896-1.069-.303-2.19-1.22-1.014-4.106.605zm16.45-10.55l7.58-1.03-.545.306.31.887-.101.286.297 1.026-.127.358.206.283-.081.455.095.776-6.5.9.012-.174-.438-.22.464 4.602 4.78-.688.839.137-.262.375.313 1.434.448 1.418.057.747-5.754.843.436 4.366 6.264-.87.303.237.46.115.232 1.615.219.385.485 1.721-7.847 1.097-.114.185-2.265.244-.557.205-.67-.157-.46.433-2.256-21.715 1.236-.252.193.177 1.093-.305 1.417.1-.004-.032zm10.596 4.25l.021-.104-.18-.079 4.99-5.952.066.266.456.08.091.19-.079-.644 6.849-.841-.225.404.399 2.966-.293.687.489.35-5.26.647-2.816 3.325.98 6.594 3.587 2.951 5.438-.907-.33.383.677 3 .28.89-7.45 1.257-.057-1.02-.258.408-.12.426-5.905-4.859-.165.055-1.512-10.365.19-.092zm14.966-7.25l.49-.198.383.33.254-.442 2.729-.37.336.507.351-.488 1.024 8.337 5.096-.626-.968-8.995.404.499.738-.125.362.157 1.063-.268 1.304.012.488.35.229-.37.899 8.145.911-.112-.275.274.278 3.905-.451.227.994 8.921-.438-.22-.911.112-1.944.067-.79.268-.455-.08-.945-8.517-5.058.655 1.049 8.536-.988.323-.831-.07-1.48.25-.52.236-.37-.503-.33.657zm22.354-2.883l7.581-1.031-.545.307.31.886-.101.287.297 1.025-.127.358.206.283-.081.456.095.776-6.5.899.012-.173-.438-.22.464 4.601 4.78-.687.84.137-.263.374.313 1.435.448 1.418.058.746-5.755.844.436 4.365 6.264-.87.304.237.459.115.233 1.616.218.384.486 1.722-7.844 1.096-.115.185-2.265.244-.557.205-.67-.157-.46.433-2.256-21.715 1.236-.252.194.178 1.093-.306 1.416.1-.004-.032zm20.792-2.518l-.021.103 4.26 3.45.1-.012.008.068.075.06-.063.041.668 5.157-.088.112-3.005 3.418.046.095-.558.48-.466.099.32.371 6.083 7.132-.696-.086-.288.447-1.94.101-.975.428-.868-.373-.115.46-5.82-7.507.182-.16 2.464-.576-3.906.548 1.036 8.437-.32-.372-1.022.327-1.877.299-.777.095-.49.197-2.739-21.754.725.048 3.294.04.118-.15-.201-.25zm-.947 9.022l1.2-1.38-.269-2.194-.266.067-1.284-.973-4.12.472.898 7.323.123-.116-.134-2.484.174-.223zm15.766 4.815l-1.203.248-.438-.22-1.185.385-.804.1-.56-.377-.318.484-1.91-15.557.513.553.36-.695 2.704-.297.523.072.389-.458zm-4.232 2.917l.632.124.247-.268 2.616-.458.712.22.317-.21.489 3.983-.413-.292-.308.278-.68.049-1.417.174-.347.244-1.121-.205-.25.202z" fill="#fff"/></svg>