<svg xmlns="http://www.w3.org/2000/svg" width="852.099" height="653.793"><g data-name="Gruppe 1327"><g data-name="Gruppe 727"><path data-name="Pfad 5253" d="M830.797 362.959a7.441 7.441 0 01-1.48 2.421 6.294 6.294 0 011.48-2.421z"/><path data-name="Pfad 5254" d="M829.308 365.4l-.015.009.022-.03z"/><path data-name="Pfad 5255" d="M683.417 434.474c.121.419-.123.776-.33 1.13a1.226 1.226 0 01.33-1.13z"/><path data-name="Pfad 5256" d="M683.087 435.615l-.007.003.006-.014z"/><path data-name="Pfad 5257" d="M695.82 481.688l.096-.454c-.568-.352-.229.214-.821-.009-.148.349.38.6.86.795-.454-.1-.977.021-1.031-.432-.46.016-.094.453-.641.445-.32-.218-.674-.72-1.151-.639l-.013.066c-1.109.052-1.342-1.032-2.362-.954l.064.15c-.39.105-.929-.376-1.577-.34.188-.02.415-.233.082-.387-.738.013-1.117-.359-1.691-.236l-.354-.502c-2.333-.674-11.3-4.106-13.605-4.906l.071.085c-1.74-.655-4.426-1.561-7.117-2.507l-5.814-2.04c-2.266-.802-4.285-1.55-5.816-2.177a20.448 20.448 0 01-3.86-.895c.764.099.842-.149.377-.29-3.221-1.04.065-.246-2.883-1.402-.395-.177-.96-.4-1.655-.656l-.547-.197c-.15-.082-.533-.084-.267-.322.24-.377.493-.777.76-1.192a293.73 293.73 0 003.365-5.5c2.27-3.824 4.606-7.729 5.462-9.274a7.967 7.967 0 001.034-1.102l.326-.404.266-.364a5.863 5.863 0 011.103-1.33l-.163.014c.79-.822 4.071-6.325 5.025-7.257l-.042.187c.941-.725.378-.948.766-1.78.41.454 1.27-.13 1.53-.403l-.114-.067a25.524 25.524 0 002.224-1.785l-.283-.17a8.918 8.918 0 001.889-2.06c.669-1.086 1.435-2.988 2.84-4.043l-.039-1.445.173-.069s2.478 1.435 5.008 3.287 5.114 4.11 5.379 5.703l.276.18-.304.307c-.193.498-.639.444-.362.621l.411-.569c-.247.46.113.29.38.253a1.644 1.644 0 00-.236.568c-.162-.001-.061-.144-.064-.25-.266.143-.745.249-.831.605-.302.43.395.357.039.86-1.801 2.682-3.39 5.383-5.38 7.949.064.14.113.067.217.028-.699.7-1.165 1.437-1.809 2.072a.833.833 0 00.103.476l1.022.028c1.402-.37 3.774-1.217 6.69-2.122 2.902-.944 6.355-1.932 9.715-3.214l5.008-1.8c1.624-.598 3.21-1.11 4.617-1.716l6.522-2.67-.233.037 3.46-1.417c1.256-.539 2.587-1.187 3.996-1.837s2.884-1.343 4.393-2.047 3.077-1.395 4.581-2.205a775.878 775.878 0 018.899-4.531c2.79-1.455 5.284-2.87 7.347-3.905a29.888 29.888 0 014.014-2.778c-.639.545-.257.623.293.284 3.794-2.473.389.052 4.333-2.287 1.158-.642 3.077-1.822 5.365-3.278 1.159-.71 2.34-1.583 3.588-2.459s2.524-1.807 3.805-2.724l3.763-2.73c1.174-.942 2.3-1.846 3.33-2.667 2.05-1.657 3.702-3.02 4.585-3.795 2.368-1.057 4.475-3.455 6.603-4.748l-.272.061c.542-.383 1.65-1.293 3.046-2.47l2.273-1.936c.779-.725 1.591-1.483 2.406-2.245 1.638-1.518 3.28-3.047 4.656-4.326l1.849-1.676c.525-.477.93-.88 1.224-1.127l-.243.344c2.145-1.64 1.478-1.807 2.858-3.417.22.625 2.101-.742 2.763-1.327l-.116-.069a60.707 60.707 0 005.079-4.143l-.296-.165a48.004 48.004 0 004.664-4.632c2.015-2.235 4.546-6.159 7.494-8.911l.973-2.564.318-.227a31.448 31.448 0 015.53 2.708c2.665 1.695 5.149 4.079 4.266 6.953l.31.142-.746.805c-.73 1.1-1.42 1.314-1.112 1.46l1.148-1.393c-.788 1.063-.054.476.416.212a9.847 9.847 0 00-.864 1.27c-.267.114.022-.233.1-.436a7.966 7.966 0 00-1.876 1.775c-.86 1.047.346.412-.657 1.636-2.564 3.297-5.329 6.333-8.044 9.438l-2.061 2.313-1.037 1.154-1.086 1.114a259.928 259.928 0 01-4.461 4.41c-.042.235.116.069.333-.058-.957.841-1.83 1.664-2.683 2.468a32.775 32.775 0 01-2.603 2.301 2.071 2.071 0 00-.419 1.032 45.896 45.896 0 00-4.83 4.022 3395.185 3395.185 0 00-3.396 3.025c-.963.804-1.621 1.366-1.65 1.413l-.508-.349c-1.933 1.592-.126.984-1.998 2.348-1.23-.066-2.9 2.522-3.8 2.688.056.04-.799.782-.58.94-.553-.134-.96.667-1.59 1.023-.285.057.07-.22.133-.457-.456.302-.928.581-1.392.874-.417.503-.375.811.206.426l-4.477 3.614c-2.042 1.61-4.436 3.61-7 5.397a676.118 676.118 0 01-7.237 5.183c-1.068.78-2.098 1.393-2.95 1.938s-1.562.968-2.064 1.255c.313-.608 1.638-1.18 1.793-1.923-1.19.401-1.452 1.05-2.074 1.077.042.925-2.146 1.602-2.49 2.787l-.536-.196-.362.563c-2.385 1.241-2.673 1.352-2.857 1.493a13.522 13.522 0 01-2.285 1.55c-2.411 1.327-3.857 1.44-5.059 2.409.194-.117.576-.663-.096-.407.095.41-1.775.705-1.87 1.229-.63.308-2.549 1.486-2.158.625a5.058 5.058 0 01-.869.881c-.31.268-.448.44.14.267a7.956 7.956 0 01-1.623.834l.696-.542c-2.062 1.002-2.967 1.96-4.517 2.224l.646-.59c-1.226.612-2.256 1.11-2.48 1.841l1.32-.511a34.22 34.22 0 01-5.048 2.29l.591-.329c-.297.082-.735.239-1.276.45-.553.193-1.211.437-1.942.716l-4.94 1.935c-1.736.682-3.465 1.362-4.905 1.885a19.375 19.375 0 01-3.2.88l.765-.785-1.885.423c.204-.092 1.393.888 1.512.687l-5.298 2.195-3.936 1.632c-1.407.548-2.891 1.074-4.362 1.626l-8.293 3.106c-2.448.822-4.365 1.497-5.237 1.862-1.37.702-.049.72-.01.777-1.808.441-.9-.17-2.383.36-.385.207.187.284.438.264-.672.17-1.235.512-1.346.342.774-.418.266-.798.507-1.235l-1.916.68.185.285c-.428.14-1.348-.471-3.192.268-.32.106-.654.206-.979.307a86.456 86.456 0 008.51 2.737c.648-.036.309-.601.323-.666.654.375.167.52.774.679.186-.02.067-.324-.007-.411.247.132.534.07.494.265-.372.04-.394.58-.636.858l.783.203.065-.324c.174.045.16.996.968 1.07 1.313.275 2.665.825 3.973 1.164.04-.194-.193-.39-.427-.587.175.044.42.178.622.094-.416.23.467.393.179.455.692 1.066 2.13.758 2.792 1.543-.148.715-2.029 12.395-2.292 13.213a1.5 1.5 0 00.623.093c-.13.174-.667.104-.9-.093z"/></g><g data-name="Gruppe 1281"><path data-name="Pfad 4984" d="M216.401 371.693s-38.19-61.063-42.202-66.815-17.677-17.403-17.677-17.403l-8.411 26.959-121.466-32.926s-12.207 36.899-9.578 38.769 119.807 35.462 119.807 35.462l-3.082 19.458 32.081 5.081z" fill="#fff"/><g data-name="Gruppe 729"><path data-name="Pfad 5160" d="M177.914 305.756c-.009-.05-.053-.045 0 0z"/><path data-name="Pfad 5161" d="M198.786 333.612c.007.012.014.014.021.026.111-.049.207-.089.283-.115z"/><path data-name="Pfad 5162" d="M201.431 338.599l-.006.045c.056-.043.117-.078.006-.045z"/><path data-name="Pfad 5163" d="M190.314 323.695a.206.206 0 01.1.044.085.085 0 00-.1-.044z"/><path data-name="Pfad 5164" d="M171.457 297.764l.022.012c.009-.029.012-.055.027-.09z"/><path data-name="Pfad 5165" d="M171.685 297.737c.003.152-.154.07-.21.038a.3.3 0 00.161.394c.149-.106-.025-.304.05-.432z"/><path data-name="Pfad 5166" d="M183.459 329.361c-.03-.009-.054-.033-.084-.044a.077.077 0 00.084.044z"/><path data-name="Pfad 5167" d="M161.06 285.442l.234-.175a.969.969 0 00-.233.175z"/><path data-name="Pfad 5168" d="M204.277 342.922a1.029 1.029 0 00-.164.148l.01.014z"/><path data-name="Pfad 5169" d="M215.73 366.746l-.227.035a.193.193 0 00.143.044.829.829 0 00.084-.079z"/><path data-name="Pfad 5170" d="M207.369 349.427a.89.89 0 00.096-.038c.008-.155-.16-.43-.407-.752l-.304.184z"/><path data-name="Pfad 5171" d="M209.035 353.01l.02.038.191-.333z"/><path data-name="Pfad 5172" d="M213.933 359.683a.449.449 0 00.27.24c-.161-.362-.22-.34-.27-.24z"/><path data-name="Pfad 5173" d="M215.811 367.588l.202-.064c-.11-.07-.168-.023-.202.064z"/><path data-name="Pfad 5174" d="M163.828 383.073c-.01-.001-.015.003-.028.006a5.04 5.04 0 01-.017.302z"/><path data-name="Pfad 5175" d="M158.919 383.062l-.033-.027c.013.069.017.14.033.027z"/><path data-name="Pfad 5176" d="M174.845 380.405a.223.223 0 01-.075.067c.042.002.063-.028.075-.067z"/><path data-name="Pfad 5177" d="M202.505 377.139l-.02.01a.672.672 0 01.058.067z"/><path data-name="Pfad 5178" d="M202.425 377.347c-.114-.075.015-.167.06-.197-.131-.145-.25-.15-.364-.066.015.18.24.133.304.263z"/><path data-name="Pfad 5179" d="M173.16 371.678c.021-.02.047-.03.069-.052a.07.07 0 00-.069.052z"/><path data-name="Pfad 5180" d="M216.042 375.449l-.01.29a1.335 1.335 0 00.01-.29z"/><path data-name="Pfad 5181" d="M154.454 383.57a1.094 1.094 0 00-.057-.211l-.013-.004z"/><path data-name="Pfad 5182" d="M131.327 383.125l.05-.22a.188.188 0 00-.084.11.734.734 0 00.034.11z"/><path data-name="Pfad 5183" d="M148.169 383.337a.66.66 0 00-.005.102 1.269 1.269 0 00.747-.017l-.036-.352z"/><path data-name="Pfad 5184" d="M131.36 383.238a.845.845 0 00-.033-.114l-.018.06a.237.237 0 01-.014-.168c-.022-.088-.018-.162.096-.158l-.015.048a1.255 1.255 0 01.585-.08l.07.35c.168-.722 2.178.625 2.576.578.48.367.87-.274 1.405-.148.81-.035.493.438.947.664.537.127-.177-.39.018-.45l.688.374c-.337.105-.111.28-.02.406.523-.037 1.451.455 1.48-.273.753.206.806.484 1.113.466-.123-.109-.34-.189-.369-.328.334.256.119-.1-.006-.149.369-.386 2.426.882 2.374.099l.026.14c-.005-.588-.26-1.114-.02-1.482l.246.22.253-.297c.232.149.161.319.174.39.437-.35 1.169-.156 1.769-.182l-.895-1.447c.56.275 1.58.843 1.592.325l.382.468c1.165.83.62-.551 1.068-.32l.596.489-.498.072a5.119 5.119 0 011.235.664l.005-.015a.128.128 0 01-.062-.078l.067-.024a.614.614 0 01.593-.573c.51-.003.828-.489 1.72-.018l.104-.617.656.248.077.466c-.587.07-1.657.435-2.4.58l.021.217c.441-.075.914-.367 1.215-.37.16.068.605.491.39.852l.2-.501a5.642 5.642 0 013.114-.042l-.172-.211c.283-.186.57-.368.715-.004a4.13 4.13 0 012.645.563l.047-.57c.2 0 .622.781.599-.002l.38-.302c.275.002.392-.336.746-.066.023.019.046.035.069.057l-.01-.044c.643.152-.083-.491.662-.28.283.357.142-.734.5-.66l.459.736c.68.36.668-.446 1.557-.583a1.252 1.252 0 01.571 1.488c.283-.78.11-.497.574-.92.122.285.076.356 0 .64.51.28.244-.31.593-.341a5.858 5.858 0 01.114-1.534l-.162-.154a.951.951 0 011.174-.327l.024.285.432-.208.08.356.633-.204-.102-.084a1.292 1.292 0 01.939-.115l.02.2c.888.512 1.44-.404 2.377-.595l-.068.424c.376.363.002-.64.414-.488l.087.5c.249-.705.455.082.721.3l-.196-.642.458.08c.51.156.406.792.382 1.144l.258-.562.139.572c.15-.708.253.078.627-.34.064.214-.026.354.129.43l.584-.913-.37.42-.06-.856c.35-.7.602.016.882-.262l-.181.28c.48-.271.555.085.87.235-.11-.146-.276-.36-.085-.499.145-.068.122.286.276.361-.036-.567.286-.918.652-.692a.739.739 0 01-.006.214c.072-.102.097-.254.261-.136l-.006.639.207-.634c.21.15.428-.34.457.087l-.092.14 1.447-.024.082.5c.057-.714.81.167.657-.69.326.437 1.02-.465.98.53.945-.037 1.34-1.045 2.538-.698.503.782 1.584.386 2.327.39 1.39-.509 2.28-.934 3.717-1.35 1.005 1.065 2.155-.63 3.171-.075l.213-.487c.705.663 1.578-.329 2.533.301a1.276 1.276 0 01.355-.317c-.043-.02-.112-.1-.16-.39.273.181.76-.125.779.461l-.058.067c.019.587.74-.347 1.071.131l-.215-.61.488.06-.115.132c1.95-1.593 3.072.312 4.914-1.128-.201.705.354-.392.444.351.575.896.895-.282 1.28-.568a.38.38 0 01.016-.14l.716.028c-.343.98.444-.827.122.01 1.903.555 4.253-.356 6.414-.194l-.112-.237c.545.008 1.199-.332 1.638.027s.856-.68 1.013-.73c.422-.451.89.352.693.324.475-.148.87-1.044 1.564-.721.285.78 1.778-.902 1.857-.002v-.078c.897.588 1.64-.544 2.6-.03a.768.768 0 01-.04.132l1.728-2.86-.713-2.983-1.792-2.348-2.027.372a.526.526 0 01.021-.071l-.166.054c-.134-.474.213-.72.176-.978a.828.828 0 00-.09.077l.065-.008a.2.2 0 01-.149.084c-.07.057-.14.083-.198-.036l.052-.008a1.646 1.646 0 01-.363-.57l.288-.207c-.75.111-.496-2.482-.747-2.871.09-.64-.695-.783-.846-1.386-.444-.818.154-.677.135-1.232-.154-.602-.27.336-.424.16l.002-.851c.268.304.313 0 .385-.139-.298-.521-.316-1.671-1-1.41-.191-.857.037-1.022-.134-1.325-.038.17 0 .426-.115.51.067-.446-.153-.082-.133.064-.539-.224-.433-2.839-1.126-2.472l.115-.083c-.54.244-.89.719-1.351.625l.077-.338-.404-.139a.332.332 0 01.27-.335c-.546-.306-.743-1.133-1.076-1.735l-.868 1.507c-.037-.683-.037-1.961-.519-1.76l.233-.59c.155-1.533-.828-.403-.846-.957l.135-.808.327.477a5.868 5.868 0 01-.037-1.535l-.016.006a.125.125 0 01-.038.093l-.057-.057a.709.709 0 01-.83-.364c-.27-.52-.879-.64-.916-1.745l-.617.164-.116-.767.384-.273c.371.57 1.26 1.51 1.785 2.206l.183-.112c-.3-.422-.813-.78-.972-1.087-.02-.19.13-.822.569-.753l-.56.006a7.552 7.552 0 01-1.682-3.155l-.102.264c-.32-.21-.637-.423-.384-.725a5.244 5.244 0 01-.895-2.934l-.54.196c-.108-.203.375-.97-.322-.61l-.485-.252c-.145-.279-.515-.252-.462-.726.003-.03.007-.06.014-.093l-.036.03c-.21-.718-.404.296-.612-.55.172-.44-.739.173-.866-.222l.418-.785c-.042-.85-.763-.484-1.371-1.328a1.158 1.158 0 011.039-1.242c-.853.053-.507.108-1.142-.178.192-.249.281-.235.578-.283-.023-.634-.412-.111-.63-.45-.529.232-1.34.644-1.446.56l-.054.228a1.217 1.217 0 01-.937-1.04l.242-.149-.422-.346.282-.236-.53-.55-.019.142a1.7 1.7 0 01-.618-.898l.172-.107c-.03-1.13-1.15-1.281-1.843-2.132l.42-.122c.117-.542-.576.285-.671-.198l.399-.313c-.77.066-.18-.495-.13-.86l-.463.485-.18-.495c-.145-.584.483-.765.815-.901l-.648-.009.436-.399c-.716.167-.072-.29-.653-.477.154-.162.332-.135.308-.324l-1.14-.178.58.185-.731.447c-.825-.036-.323-.614-.727-.769l.352.056c-.515-.367-.236-.595-.272-.98-.07.178-.171.443-.4.313-.14-.114.192-.255.171-.44-.488.298-.98.128-.983-.34a.613.613 0 01.195-.092c-.132-.026-.282.018-.268-.2l.574-.286-.68.082c.014-.279-.545-.27-.18-.497l.176.028-.837-1.439.399-.313c-.663.272-.306-.888-.985-.34.207-.53-.986-.808-.078-1.228-.57-.931-1.683-.863-2.059-2.219.406-.867-.563-1.763-.982-2.506-1.247-1.15-2.123-1.844-3.327-3.072.356-1.507-1.802-1.843-1.903-3.118l-.551.023c.177-1.022-1.204-1.409-1.212-2.66a1.484 1.484 0 01-.486-.195c.009.051-.023.16-.248.347-.001-.359-.553-.692-.052-.997l.09.028c.503-.305-.737-.565-.511-1.126l-.41.511-.235-.512.185.051c-2.53-1.154-1.533-3.194-3.885-4.298.732-.152-.55-.155.043-.614.437-1.01-.78-.742-1.255-.977a.311.311 0 01-.13.054l-.4-.718c1.055-.152-.981-.025-.066-.125-.66-2.14-2.841-4.006-4.11-6.24l-.128.235c-.346-.546-1.073-1.008-1.068-1.636s-1.152-.473-1.306-.595c-.666-.159-.329-1.07-.217-.861-.468-.382-1.473-.241-1.723-1.095.425-.755-2.07-1.12-1.431-1.746l-.061.046c-.27-1.216-1.75-1.144-2.193-2.338a.71.71 0 01.131-.054 38.487 38.487 0 00-3.514.6c-.097.189-.201.37-.3.558l-.893-.097-2.502.103.299 1.443-1.129.922-.13 2.685.64.3c-1.264.313-.03 1.212-.967 1.62l.576.115c.005.163-.349.089-.457.11-.13 1.48.365 3.124-.605 4.302-.403.057-.252.482-.673.507a1.119 1.119 0 01.384 1.42l-.06-.028.072.221a.626.626 0 01-.16-.026c.467.32-.104.583-.365.822l-.06-.03c-.409 1.596.375 3.308-.745 4.751-1.086.56.038 1.685-.915 2.38-.603.041-.525 1.851-.287 2.06l.739-.057c.184.69-.525.857-.148 1.483l-3.946-.85-4.776-2.416-12.398-3.267-1.065.406c-2.095-1.835-5.572-1.41-7.955-2.955l-.21.55c-.747-.171-.599-.509-.753-.657-6.885-1.803-14.155-2.956-20.146-5.323-.496-.537-2.372-.794-2.736-1.314a17.424 17.424 0 01-6.316-1l.093-.042-.977-.138a.135.135 0 01.027-.16c-1.202.226-2.76-.705-4.02-1.246l.093-.043c-7.627-2.074-15.008-2.779-22.43-5.421-3.316-1.786-7.746-1.491-11.632-3.216-.613-.757-8.959-2.223-9.747-2.121l.798.915c-3.138-.39-4.416-1.399-7.17-1.428l.18-.118c-.348-.245-.908 1.264-4.713-1.583l.016-.07c-.15-.02-.179.12-.432-.133l.637.587a4.547 4.547 0 01-1.528.247.439.439 0 01-.104-.37l-1.459-.196-.34-.547c-.492.148-.499 1.141-1.556.361.298.754-.668.266-.596.633-.041-.093-.149-.244-.231-.384a5.742 5.742 0 00-2.46.085 23.933 23.933 0 013 2.846c-.94-.392-.274.02-.131.288l.101-.148c.551.288.46.703.728.882a.527.527 0 00.008-.118l-.048.047a.163.163 0 01.055-.16c.013-.091.055-.157.209-.097l-.04.037a2.75 2.75 0 01.844.22l-.073.35c.58-.566 2.699 1.643 3.274 1.797.489.568 1.334.185 2.016.567 1.141.373.47.636.987 1.066.68.38-.058-.436.24-.394l.766.678c-.516-.072-.288.198-.225.35.744.227 1.79 1.13 2.177.49.945.561.884.838 1.312.97-.118-.16-.381-.339-.352-.48.338.398.212-.03.06-.137.692-.163 2.945 2 3.242 1.268l-.031.14c.273-.532.167-1.135.672-1.347l.233.319.49-.142c.252.252.073.368.059.436a6.9 6.9 0 012.532.715l-.555-1.75c.644.523 1.788 1.545 2.047 1.083l.317.62c1.224 1.328 1.114-.192 1.626.242l.6.736-.725-.18a7.977 7.977 0 011.406 1.213l.01-.014a.128.128 0 01-.052-.1l.102.008c.154-.26.577-.363 1.086-.224.707.25 1.37-.033 2.395.837l.427-.508.79.548-.11.457c-.847-.226-2.493-.43-3.597-.664l-.068.206c.65.152 1.438.126 1.857.267.187.142.61.743.15.963l.508-.355a12.1 12.1 0 014.34 1.507l-.142-.277c.482-.028.958-.053.997.351a8.076 8.076 0 013.417 1.82l.323-.492c.284.1.512 1.017.834.297l.672-.088c.381.138.696-.111 1.067.308a.9.9 0 01.069.084.347.347 0 00.005-.047c.826.462.11-.484 1.049.075.232.464.527-.596.992-.35l.306.893c.786.664 1.132-.072 2.43.244a1.025 1.025 0 01.136 1.646c.742-.57.372-.398 1.209-.553.043.319-.052.36-.283.583.578.503.477-.162.975-.016.282-.512.669-1.342.842-1.336l-.152-.221a1.929 1.929 0 011.775.282l-.092.27.694.027-.047.362.97.128-.106-.127a2.832 2.832 0 011.36.36l-.066.188c1.018.908 2.186.347 3.571.633l-.282.352c.365.516.283-.583.792-.24l-.097.493c.654-.518.598.301.874.631l.006-.682.6.298c.646.394.222.922.034 1.233l.607-.384-.054.591c.519-.573.321.196 1.022 0-.005.226-.19.31-.008.455l1.211-.542-.697.199.287-.81c.795-.468.833.31 1.345.195l-.375.167c.788-.012.737.35 1.106.641-.089-.188-.228-.467.099-.5.23.011.042.327.226.467a.726.726 0 011.21-.311.492.492 0 01-.101.192c.145-.06.245-.183.423.006l-.282.58.563-.473c.23.238.743-.102.599.303l-.188.081 2.028.692-.1.498c.38-.616 1.057.552 1.211-.308.269.562 1.62.077 1.14.968 1.337.432 2.315-.295 3.839.611.373.964 2.05 1.133 3.084 1.502 2.158.22 3.578.268 5.757.592.962 1.471 3.272.477 4.46 1.489l.497-.345c.713.956 2.337.473 3.416 1.523a2.157 2.157 0 01.625-.123c-.051-.037-.115-.146-.065-.438.309.303 1.113.257.904.806l-.108.033c-.21.55 1.174.045 1.443.65l-.053-.666.66.294-.217.066c3.367-.51 4.173 1.793 7.32 1.368-.56.553.651-.189.483.54.446 1.109 1.364.178 2.014.103a.252.252 0 01.077-.12l.99.375c-.868.735.947-.547.168.068 2.442 1.444 6.084 1.756 9.046 2.957l-.065-.273c.76.274 1.805.276 2.283.824s1.458-.214 1.697-.182c.762-.211 1.11.758.85.639.72.092 1.614-.545 2.462.095.096.865 2.828.027 2.6.899l.032-.069c1.035.978 2.5.289 3.647 1.237a.557.557 0 01-.106.102l3.476-1.818.117-3.12-.53-.998a.914.914 0 00.225-.004l-.115-.023.054.017a.672.672 0 01-.165-.04l-.024-.007-.01-.014c.014.004.018.015.034.02l.112.02-.153-.055-.048-.09a.3.3 0 01.077-.099l.349.074c-.644-.23 1.14-.405 1.187-.524.464-.033-.05-.3.2-.41.164-.224.535-.018.861-.08.25-.11-.412-.052-.422-.12l.52-.084c.02.118.243.1.385.11.092-.147.783-.268.098-.46.377-.15.655-.092.71-.178a1.589 1.589 0 01-.402.016c.32-.025-.067-.058-.143-.036-.274-.195 1.407-.426.65-.61l.14.027a9.19 9.19 0 01-1.415-.36l.268-.01-.227-.142a1.043 1.043 0 01.414.052c-.231-.204.125-.352.238-.52l-1.589-.12c.39-.081 1.172-.213.68-.345l.54.014c1.056-.108-.388-.304-.064-.367l.6-.042-.043.155a4.735 4.735 0 01.911-.171l-.015-.005a.26.26 0 01-.087-.002l-.01-.024c-.279-.076-.455-.196-.416-.302.112-.139-.282-.344.367-.471l-.572-.182.384-.115.46.092c-.062.176.04.554.02.794l.21.047c.027-.14-.145-.338-.081-.422a1.822 1.822 0 01.899.1l-.436-.176c.041-.475.02-.481.64-.862l-.24-.004c-.117-.123-.231-.245.15-.198.133-.273.485-.52 1.108-.595l-.537-.147c.042-.056.883.013.13-.17l-.216-.177c.057-.077-.244-.19.089-.222l.07-.005-.047-.009c.278-.142-.49-.093-.133-.25.4.004-.677-.212-.536-.297l.801.047c.486-.105-.291-.292-.238-.57a3.278 3.278 0 011.558.188c-.693-.261-.457-.145-.768-.373a2.135 2.135 0 01.617.148c.372-.078-.25-.14-.212-.245-.548-.14-1.425-.346-1.45-.387l-.18.009c-.277-.172-.388-.328-.087-.403l.278.059-.115-.17.358.06-.07-.223-.108.007c-.039-.057-.136-.237.073-.292l.196.042c.669-.135-.105-.499-.113-.806l.397.116c.426-.023-.617-.145-.394-.225l.496.088c-.634-.231.163-.11.425-.136l-.658-.09.164-.112a2.605 2.605 0 011.177.151l-.494-.2.578.089c-.657-.201.121-.055-.213-.255a1.561 1.561 0 00.441.06l-.771-.37.334.199-.838-.176c-.612-.256.128-.17-.09-.309l.237.113c-.174-.197.187-.137.39-.194a.948.948 0 01-.497-.086c-.037-.057.304.031.401.002-.558-.116-.832-.287-.55-.34a2.02 2.02 0 01.205.05c-.086-.043-.227-.084-.084-.104l.618.143-.576-.2c.181-.027-.253-.197.165-.11l.117.057.233-.419.497.086c-.68-.174.307-.194-.552-.339.482.001-.268-.395.687-.165.129-.275-.77-.61-.235-.88.469.012.611-.105.671-.246 1.629 2.04 3.256 4.208 4.908 6.362l.965.18c.154 2.273 2.715 3.51 3.236 5.706l.502-.303c.37.46.049.642.052.816 3.287 4.396 7.196 8.545 9.456 12.995-.04.616.987 1.661.867 2.203a10.524 10.524 0 013.363 3.63l-.087-.012.53.55a.169.169 0 01-.126.104c.918.394 1.277 1.786 1.71 2.76l-.085-.013c3.444 5.026 7.614 9.002 10.452 14.402.847 2.844 3.82 4.742 5.037 7.83-.132.82 4.005 5.883 4.562 6.192l.142-1.028c1.674 1.788 1.75 3.125 3.422 4.483l-.193-.005c.042.343 1.444-.445 1.788 3.41l-.058.042c.04.046.09.047.126.076l-.61-.117q-4.328.476-8.652 1.007l-.56.734c-1.808-1.035-3.869.514-5.78-.149l.016.589c-.511.085-.512-.28-.65-.37-4.8.58-9.65 1.908-14.049 1.67-.461-.339-1.701.043-2.077-.32a8.256 8.256 0 01-4.208 1.159l.044-.072-.645.199a.186.186 0 01-.032-.162c-.679.614-1.916.26-2.857.173l.046-.071c-5.34.593-10.104 2.398-15.48 2.407-2.596-.56-5.229 1.198-8.156.891-.616-.501-6.202.928-6.65 1.288l.109.084-.064-.025-.001.005.077.029.136.101c-.1-.045-.233-.097-.213-.13-.532-.192-1.382-.487-1.41-.522l-.177-.024c-.262-.168-.37-.297-.071-.3l.269.087-.107-.138.348.107-.064-.171-.102-.01c-.035-.047-.121-.191.078-.194l.192.058c.656.02-.087-.371-.087-.59l.385.148c.411.055-.6-.21-.38-.229l.485.149c-.612-.272.165-.055.42-.024l-.64-.177.163-.054a3.673 3.673 0 011.147.309l-.477-.227.563.163c-.634-.255.12-.02-.2-.22a2.213 2.213 0 00.428.12l-.742-.395.322.198-.813-.267c-.59-.286.134-.096-.078-.233l.228.121c-.164-.17.185-.064.385-.07a1.336 1.336 0 01-.485-.147c-.035-.047.291.072.396.072-.541-.18-.804-.35-.525-.336.078.023.152.051.2.072-.083-.046-.22-.1-.077-.09l.6.21-.554-.24c.178.011-.242-.185.166-.054l.112.06.242-.256.484.148c-.658-.241.305-.085-.524-.336.47.085-.25-.325.677.004.135-.176-.733-.57-.2-.667.822.166.638-.152.77-.28a8.768 8.768 0 01-.63-1.088c1.169.163-.238-.587.458-.592l-.424-.194c.744.086-.05-.386.694-.358a1.368 1.368 0 01-.246-.165 1.887 1.887 0 01-.389-.096c.213.008.002-.176.559.007l.054.031c.556.185-.21-.244.292-.151l-.608-.156.132-.07.106.064c-1.19-.859.774-.457-.312-1.254.637.26-.317-.19.4.03.93.18-.133-.25-.345-.42-.036-.01-.077-.023-.13-.046l.133-.123c.875.373-.716-.342.027-.02.798-.174.27-.9.724-1.252l-.24-.052c.08-.101-.156-.331.242-.3s-.532-.372-.557-.422c-.37-.218.454-.055.4-.027-.08-.137-.875-.492-.476-.522.778.193-.631-.62.232-.347l-.072-.022c.664.011-.317-.485.295-.506 0 0 .061.024.117.05l-2.492-1.222-2.917-.796-2.447-.396.214 1.089-1.149.453-.26 1.902.608.334c-1.247-.004-.084.864-1.016.988l.558.186c0 .118-.344-.001-.452-.004-.191 1.042.229 2.308-.762 2.986-.395-.029-.263.304-.676.25.592.507.489.816.325 1.087l-.058-.03.063.17a.969.969 0 01-.156-.047c.447.311-.122.4-.381.53l-.059-.031c-.452 1.08.266 2.442-.862 3.3-1.076.224-.004 1.22-.95 1.567-.59-.068-.549 1.255-.319 1.443l.723.076c.173.542-.575.534-.145 1.086l-.14-.067c-.175.006 1.341.515-.715.54l-.068-.022c.006.025.14.067-.054.053l.45.024a2.344 2.344 0 01.464.351l-.027.01a2.154 2.154 0 01-.293-.068l.035.172-.11.05-.334-.054a1.9 1.9 0 00.206.113 1.77 1.77 0 00-.858.656 16.5 16.5 0 012.765 1.64c-.701-.05-.16.117.015.312l.012-.172c.427.08.509.498.73.574zm79.071-16.222a3.1 3.1 0 011.107.574.329.329 0 01-.05.143l-1.07-.21zm-71.448 10.197l.068.011-.045-.014c.274-.055-.478-.146-.125-.199.397.072-.651-.263-.512-.298l.785.168c.477.006-.278-.257-.22-.446a4.631 4.631 0 011.516.397 2.147 2.147 0 01-.739-.396 3.033 3.033 0 01.597.21.213.213 0 00.108-.01l.43.321a8.5 8.5 0 01-1.953.397c.045-.046-.23-.17.09-.141z"/><path data-name="Pfad 5185" d="M144.714 383.199h-.037l.197.32z"/><path data-name="Pfad 5186" d="M137.356 384.734c.346.014.352-.046.287-.135a.348.348 0 00-.287.135z"/><path data-name="Pfad 5187" d="M130.615 382.835l-.016.204c.094-.066.08-.136.016-.204z"/><path data-name="Pfad 5188" d="M158.738 303.031l-.003.009.29.076z"/><path data-name="Pfad 5189" d="M157.722 304.397l-.032.003c.069.013.136.029.032-.003z"/><path data-name="Pfad 5190" d="M158.268 299.314a.17.17 0 01.053.038c.004-.014-.015-.026-.053-.038z"/><path data-name="Pfad 5191" d="M149.518 297.85a.28.28 0 00-.038-.03c-.007.011.012.022.038.03z"/><path data-name="Pfad 5192" d="M157.265 305.75l-.219-.031z"/><path data-name="Pfad 5193" d="M155.658 307.411l.095.03c.104-.018.14-.098.153-.21l-.346-.077z"/><path data-name="Pfad 5194" d="M154.743 308.309l-.008.01.35.026z"/><path data-name="Pfad 5195" d="M154.47 310.66c.098-.089.04-.104-.06-.11-.022.035-.01.071.06.11z"/><path data-name="Pfad 5196" d="M112.223 308.482c.05.037.088.006 0 0z"/><path data-name="Pfad 5197" d="M68.636 297.873c-.017-.006-.026-.002-.043-.007a3.258 3.258 0 01-.16.265z"/><path data-name="Pfad 5198" d="M61.807 295.432l-.035-.04c-.013.068-.04.136.035.04z"/><path data-name="Pfad 5199" d="M85.151 300.885a.307.307 0 01-.133.025.114.114 0 00.133-.025z"/><path data-name="Pfad 5200" d="M125.122 311.475l-.033.001c.018.03.038.055.055.09z"/><path data-name="Pfad 5201" d="M124.891 311.583c-.035-.086.133-.102.198-.106a.465.465 0 00-.483-.24c-.044.155.2.227.285.346z"/><path data-name="Pfad 5202" d="M124.926 311.63c-.004-.017-.021-.031-.035-.047a.174.174 0 00.035.046z"/><path data-name="Pfad 5203" d="M86.575 292.092c.038-.008.08-.006.116-.016a.113.113 0 00-.116.016z"/><path data-name="Pfad 5204" d="M144.71 316.52l-.124.263a.849.849 0 00.124-.264z"/><path data-name="Pfad 5205" d="M55.372 293.681a.811.811 0 00.017-.221l-.019-.006z"/><path data-name="Pfad 5206" d="M23.593 281.685a.708.708 0 00-.007.114l.176-.173a.273.273 0 00-.17.059z"/><path data-name="Pfad 5207" d="M46.757 290.352a.5.5 0 00-.051.089 2.673 2.673 0 001.04.357l.113-.337z"/><path data-name="Pfad 5208" d="M26.524 278.094l.032.004c.051-.243-.017-.16-.032-.004z"/><path data-name="Pfad 5209" d="M42.036 288.513l-.053-.016.124.384z"/><path data-name="Pfad 5210" d="M31.589 286.263a.706.706 0 00-.459-.02c.47.185.507.132.459.02z"/><path data-name="Pfad 5211" d="M22.411 277.676c-.252-.075-.186.089-.07.284l.456.053c-.131-.089-.248-.247-.386-.337z"/><path data-name="Pfad 5212" d="M22.748 281.183l-.121.178c.161-.014.171-.087.121-.178z"/><path data-name="Pfad 5213" d="M104.344 350.591c.043.035.08.003 0 0z"/><path data-name="Pfad 5214" d="M65.017 340.757a.266.266 0 00-.038-.011c-.057.105-.107.198-.151.267z"/><path data-name="Pfad 5215" d="M58.87 338.467l-.03-.042c-.015.071-.04.137.03.042z"/><path data-name="Pfad 5216" d="M79.956 343.44a.245.245 0 01-.121.027.1.1 0 00.121-.028z"/><path data-name="Pfad 5217" d="M115.977 353.416l-.03.002a.619.619 0 01.046.087z"/><path data-name="Pfad 5218" d="M115.795 353.572c-.114-.127.084-.15.151-.154a.389.389 0 00-.428-.236c-.053.178.246.238.277.39z"/><path data-name="Pfad 5219" d="M81.516 334.675a1 1 0 00.11-.015.1.1 0 00-.11.015z"/><path data-name="Pfad 5220" d="M133.613 358.256l-.126.264a.9.9 0 00.126-.264z"/><path data-name="Pfad 5221" d="M53.057 336.863a.9.9 0 00.02-.22.055.055 0 01-.016-.005z"/><path data-name="Pfad 5222" d="M24.359 325.828l.158-.177a.232.232 0 00-.152.058.678.678 0 00-.006.119z"/><path data-name="Pfad 5223" d="M45.295 333.75a.469.469 0 00-.05.092 2.212 2.212 0 00.946.328l.104-.34z"/><path data-name="Pfad 5224" d="M63.25 340.771c.689-.58.349-.403 1.117-.573.03.317-.056.361-.273.585.517.49.437-.169.89-.041.27-.514.642-1.348.799-1.345l-.133-.216a1.6 1.6 0 011.608.247l-.092.27.632.012-.052.362.88.108-.093-.123a2.322 2.322 0 011.228.33l-.063.19c.901.883 1.98.302 3.236.562l-.267.355c.318.508.274-.583.726-.253l-.11.506c.608-.528.539.288.776.61l.025-.677.54.287c.575.379.175.912-.007 1.223l.564-.392-.064.584c.49-.576.285.192.93-.019-.01.227-.183.313-.02.453l1.118-.56-.64.212.286-.811c.737-.478.747.292 1.217.169l-.345.172c.718-.027.66.336.987.615-.074-.184-.192-.46.106-.498.207.007.028.323.192.46.19-.537.747-.707 1.11-.33a.556.556 0 01-.1.193c.136-.063.23-.187.387-.002l-.277.582.524-.483c.202.235.68-.113.538.292l-.174.084 1.825.653-.107.498c.366-.62.945.53 1.112-.327.228.554 1.472.052 1.007.943 1.202.408 2.116-.331 3.475.547.307.952 1.827 1.095 2.756 1.446 1.956.186 3.247.212 5.219.505.823 1.448 2.962.433 4.01 1.418l.467-.347c.612.939 2.111.436 3.054 1.466a1.8 1.8 0 01.573-.125c-.047-.038-.1-.145-.043-.432.269.292 1.003.241.79.789l-.1.033c-.213.55 1.07.031 1.292.626l-.023-.662.59.285-.201.069c3.09-.55 3.73 1.732 6.616 1.275-.534.555.6-.193.418.534.361 1.093 1.237.161 1.832.078a.261.261 0 01.076-.119l.886.361c-.82.74.886-.552.151.067 2.164 1.41 5.471 1.68 8.122 2.852l-.047-.271c.68.266 1.633.26 2.042.799s1.34-.218 1.557-.193c.705-.216.977.746.742.626.654.087 1.5-.552 2.243.075.053.853 2.579.008 2.326.878l.03-.07c.9.963 2.269.275 3.27 1.21a.718.718 0 01-.104.099l3.266-1.825.26-3.093-1.328-3.013-5.856-1.344-4.257-2.363q-5.588-1.604-11.194-3.139l-.992.411c-1.839-1.799-5.033-1.344-7.152-2.846l-.215.55c-.673-.164-.526-.5-.661-.645-6.221-1.717-12.82-2.761-18.21-5.028-.434-.528-2.137-.753-2.454-1.264a14.389 14.389 0 01-5.733-.896l.086-.043-.888-.12a.149.149 0 01.029-.161c-1.105.246-2.498-.651-3.632-1.17l.084-.043c-6.902-1.934-13.616-2.49-20.321-4.958-2.989-1.706-7.032-1.313-10.543-2.942-.543-.743-8.127-2-8.846-1.877l.712.89c-2.851-.313-4-1.282-6.508-1.24l.165-.124c-.314-.235-.843 1.281-4.271-1.454l.014-.07c-.135-.017-.165.123-.391-.119l.572.565a3.916 3.916 0 01-1.383.283.455.455 0 01-.097-.367l-1.327-.152-.304-.533c-.448.16-.465 1.15-1.418.397.262.744-.61.284-.548.648-.038-.092-.136-.24-.207-.377a4.816 4.816 0 00-2.242.15 21.317 21.317 0 012.7 2.753c-.851-.364-.251.028-.123.291l.094-.153c.497.274.409.69.651.861a.65.65 0 00.01-.119l-.046.05a.179.179 0 01.05-.165c.013-.09.048-.156.19-.1l-.036.038a2.2 2.2 0 01.765.197l-.069.348c.534-.578 2.434 1.562 2.954 1.7.437.551 1.21.15 1.825.513 1.03.34.42.622.883 1.036.613.362-.048-.433.226-.4l.687.657c-.47-.059-.266.205-.213.353.67.205 1.61 1.08 1.973.433.85.532.79.81 1.18.93-.105-.155-.343-.327-.313-.468.3.385.193-.037.055-.137.633-.183 2.64 1.914 2.929 1.18l-.031.14c.256-.537.17-1.133.632-1.357l.207.312.449-.155c.224.243.06.366.045.432a5.686 5.686 0 012.291.648l-.477-1.726c.578.503 1.599 1.494 1.845 1.028l.276.607c1.09 1.293 1.017-.212 1.475.203l.532.719-.653-.149a6.838 6.838 0 011.251 1.174l.01-.014a.127.127 0 01-.045-.1l.095.007c.144-.263.533-.374.991-.25.64.233 1.252-.064 2.162.777l.396-.514.706.53-.106.458c-.768-.206-2.262-.37-3.26-.578l-.063.207c.586.137 1.306.086 1.684.224.167.136.541.726.117.954l.47-.364a9.915 9.915 0 013.914 1.393l-.126-.273c.44-.038.875-.07.899.327a6.771 6.771 0 013.065 1.736l.306-.497c.253.092.442 1 .752.275l.612-.1c.343.13.637-.126.96.283.02.027.04.052.06.082.005-.015.005-.031.007-.045.742.436.111-.489.951.052.199.454.498-.603.91-.37l.258.883c.7.645 1.028-.096 2.204.192a1.069 1.069 0 01.085 1.637z"/><path data-name="Pfad 5225" d="M27.071 322.057l.03.004c.05-.242-.014-.16-.03-.004z"/><path data-name="Pfad 5226" d="M41.034 332.033l-.048-.014.106.378z"/><path data-name="Pfad 5227" d="M31.573 330.058a.583.583 0 00-.416-.007c.425.17.458.117.416.007z"/><path data-name="Pfad 5228" d="M23.332 321.753c-.23-.068-.169.095-.066.286l.414.04c-.119-.085-.223-.24-.348-.326z"/><path data-name="Pfad 5229" d="M23.602 325.238l-.11.181c.144-.021.153-.094.11-.181z"/><path data-name="Pfad 5230" d="M139.082 377.224l-.03-.004c.067.02.135.041.03.004z"/><path data-name="Pfad 5231" d="M139.751 373.704a.2.2 0 01.052.035c.008-.007-.016-.02-.052-.035z"/><path data-name="Pfad 5232" d="M141.278 367.75l.008.007c.023.007.042.006.072.01z"/><path data-name="Pfad 5233" d="M141.286 367.757c-.16-.023-.179-.002-.116.045.173.053.162-.002.295.028a.3.3 0 01-.179-.073z"/><path data-name="Pfad 5234" d="M131.255 371.154c-.014-.01-.019-.019-.036-.03s.01.022.036.03z"/><path data-name="Pfad 5235" d="M141.527 364.684l.274.091a6.876 6.876 0 00-.274-.09z"/><path data-name="Pfad 5236" d="M128.88 379.952l.002-.006c-.238-.074-.151-.04-.002.006z"/><path data-name="Pfad 5237" d="M25.757 306.126l-.003.01.292.07z"/><path data-name="Pfad 5238" d="M24.715 308.011l-.034.007c.07.012.141.024.034-.007z"/><path data-name="Pfad 5239" d="M25.273 301.31a.127.127 0 01.053.043c.005-.017-.016-.029-.053-.042z"/><path data-name="Pfad 5240" d="M26.182 289.787l.01.008.073-.015z"/><path data-name="Pfad 5241" d="M26.38 289.843a.18.18 0 01-.188-.048c-.165.037-.18.084-.112.14.182.015.162-.082.3-.092z"/><path data-name="Pfad 5242" d="M16.452 300.368a.391.391 0 00-.04-.035c-.006.015.013.026.04.035z"/><path data-name="Pfad 5243" d="M25.903 284.115l.287.029a2.6 2.6 0 00-.287-.029z"/><path data-name="Pfad 5244" d="M24.226 309.825a2.678 2.678 0 00-.219-.028l-.003.005z"/><path data-name="Pfad 5245" d="M18.095 318.149l-.191-.078a.19.19 0 00.081.059z"/><path data-name="Pfad 5246" d="M22.556 312.125l.095.029c.103-.027.146-.135.16-.283l-.347-.072z"/><path data-name="Pfad 5247" d="M17.63 318.315l-.16-.049c.194-.127.61-.038.743-.095l-.118-.019.055.019a.532.532 0 01-.165-.041c-.09-.016-.158-.04-.125-.078l.044.018c-.047-.08.042-.183.083-.227l.348.07c-.638-.255 1.181-.592 1.234-.75.472-.074-.036-.386.224-.542.177-.301.541-.06.875-.162.258-.16-.415-.041-.422-.129l.535-.15c.015.149.24.114.383.117.101-.198.805-.404.124-.607.39-.218.67-.165.728-.28a1.308 1.308 0 01-.408.048c.33-.054-.064-.068-.142-.036-.274-.228 1.435-.655.678-.838l.14.026a7.161 7.161 0 01-1.42-.375l.271-.033-.223-.167a.774.774 0 01.415.035c-.226-.25.142-.465.262-.692l-1.6-.036c.395-.134 1.193-.367.7-.497l.546-.027c1.071-.224-.382-.363-.053-.47l.606-.101-.046.2a4.2 4.2 0 01.926-.293l-.015-.005a.243.243 0 01-.09.005l-.007-.032c-.28-.074-.456-.217-.413-.358.117-.19-.273-.424.388-.644l-.57-.184.391-.184.465.08a8.312 8.312 0 00-.003 1.034l.21.043c.032-.182-.135-.43-.068-.543a1.415 1.415 0 01.907.055l-.433-.192c.06-.623.033-.63.668-1.182l-.243.017c-.115-.15-.223-.299.156-.273a1.515 1.515 0 011.13-.87l-.539-.146c.045-.077.893-.063.132-.228l-.214-.215c.06-.103-.245-.223.092-.3l.068-.015-.045-.004c.282-.214-.492-.077-.131-.315.404-.03-.68-.214-.534-.334l.81-.017c.49-.183-.29-.353-.236-.722a2.547 2.547 0 011.573.094c-.694-.274-.458-.145-.77-.415a1.636 1.636 0 01.62.132c.377-.137-.25-.158-.21-.3a13.173 13.173 0 01-1.465-.361l-.183.028c-.278-.197-.391-.384-.084-.517l.279.05-.114-.21.361.041-.07-.283-.101.022c-.037-.07-.13-.295.074-.384l.2.032c.672-.244-.103-.639-.114-1.037l.402.109c.425-.08-.624-.127-.398-.256l.504.063c-.64-.232.164-.158.428-.223l-.665-.047.163-.16c.246-.17.847-.006 1.188.07l-.499-.21.58.05c-.661-.195.122-.086-.217-.312.221.018.342.078.442.03l-.777-.4.339.224-.845-.137c-.62-.268.125-.232-.09-.393l.24.123c-.175-.24.185-.202.392-.299-.163.017-.405.04-.505-.06-.037-.07.303.007.405-.041-.564-.09-.841-.28-.557-.38a1.92 1.92 0 01.206.042c-.09-.049-.23-.084-.085-.131l.625.12-.585-.198c.182-.055-.258-.228.163-.16l.12.062.228-.574.506.058c-.687-.149.304-.292-.563-.381.485-.053-.278-.483.69-.294.124-.38-.784-.708-.256-1.124.847-.069.634-.567.758-.86a16.717 16.717 0 01-.742-1.699c1.196-.24-.3-.957.396-1.28l-.449-.157c.762-.185-.094-.68.656-.975a1.023 1.023 0 01-.267-.186 1 1 0 01-.405.009c.216-.083-.02-.32.56-.247l.055.03c.581.072-.241-.346.275-.413l-.629.004.125-.19.115.065c-1.302-.995.715-1.203-.483-2.128.675.167-.344-.192.402-.137.958-.125-.17-.397-.405-.585a.777.777 0 01-.135-.024l.114-.286c.93.254-.763-.274.026-.048.765-.707.121-1.765.516-2.624l-.245.02c.062-.22-.216-.522.185-.665s-.592-.415-.626-.484c-.405-.214.438-.327.39-.25-.103-.21-.953-.45-.565-.705.81-.043-.74-.801.163-.754l-.076-.009c.656-.317-.408-.715.192-1.062 0 0 .066.01.125.027l-2.696-.922-3.03.058-2.487.522.427 1.797-1.051 1.341.056 3.439.658.306c-1.247.567.049 1.552-.874 2.195l.581.073c.015.208-.346.159-.453.2-.048 1.906.505 3.95-.433 5.567-.404.118-.24.644-.663.722a1.61 1.61 0 01.414 1.77l-.06-.028.079.272a.427.427 0 01-.162-.017c.473.362-.1.757-.359 1.087l-.06-.03c-.393 2.076.392 4.19-.76 6.133-1.102.8.01 2.143-.977 3.105-.604.1-.592 2.394-.36 2.645l.751-.127c.167.888-.615 1.14-.192 1.96l-.144-.07c-.182.07 1.377.45-.769 1.197l-.07-.014c.003.042.143.07-.059.112l.469-.11c.152.15.463.325.477.493a1.12 1.12 0 01-.343-.02l.036.411-.475.023c.22.172 1.182.315.586.518.684.02.362.24.704.273-.084 0-.212.01-.332.014a1.047 1.047 0 00.467.76 16.465 16.465 0 012.29-.497c-.235.23.066.088.3.082z"/><path data-name="Pfad 5248" d="M14.054 316.731l.003-.008c-.244-.053-.158-.018-.003.008z"/><path data-name="Pfad 5249" d="M21.598 313.367l-.009.014.354.004z"/><path data-name="Pfad 5250" d="M21.212 316.441c.103-.122.043-.14-.055-.14-.023.047-.016.095.055.14z"/><path data-name="Pfad 5251" d="M14.288 317.907c-.03.067.116.071.286.062a1.36 1.36 0 01-.02-.129c-.065.027-.2.04-.266.067z"/><path data-name="Pfad 5252" d="M17.631 318.316l.19.064a.223.223 0 00-.19-.064z"/></g></g><g data-name="Gruppe 1312"><path data-name="Pfad 10156" d="M630.87 74.684l-51.788 59.998 6.647 24.477-60.313-2.75-2.351-57.832s9.194-5.07 9.944-4.003 18.028 7.439 18.028 7.439l48.434-54.776 14.975 4.442z" fill="#fff"/><path data-name="Pfad 10155" d="M523.139 155.446a1.965 1.965 0 01-.16-.56c-.655-4.863-.431-9.896-.57-14.796-.148-5.043-.382-10.082-.605-15.123-.422-9.518-1.343-19.08-1.256-28.615a3.417 3.417 0 011.146-3.915 4.885 4.885 0 014.126-.824c2.537-.07 5.107.102 7.627.203l4.55.184a29.13 29.13 0 014.838.297 1.918 1.918 0 011.092.672 2.31 2.31 0 011.087.385 31.645 31.645 0 016.282 5.316c.81-.939 1.62-1.875 2.42-2.817l10.597-12.45c7.066-8.302 14.158-16.6 21.402-24.747 4.001-4.503 7.88-9.405 12.567-13.22a.872.872 0 01.812-.203 1.317 1.317 0 01.419-.098 48.828 48.828 0 0113.365.151 12.147 12.147 0 015.605 1.821c1.854 1.282 3.218 3.255 4.668 4.949a105.238 105.238 0 0020.805 18.653 2.175 2.175 0 01.424 3.017l-5.562 7.049a1.951 1.951 0 01-1.433 1.815l-1.186 1.506a2.011 2.011 0 01-1.95 2.471l-9.705 12.306a1.906 1.906 0 01-.48.608l-.698.887-2.116 2.688a1.784 1.784 0 01-.379.481l-2.212 2.808a1.745 1.745 0 01-.93 1.177c-5.06 6.407-10.157 12.785-15.466 18.988-3.65 4.262-7.41 8.44-11.311 12.477q8.347 7.209 16.128 15.033a1.663 1.663 0 01.459.963 2.281 2.281 0 01.297.587c1.182 3.608-4.562 5.776-7.04 6.477a34.022 34.022 0 01-11.707 1.054c-2.4-.172-4.806-.41-7.187-.784-3.957-.233-7.908-.63-11.842-.918q-9.1-.667-18.199-1.34c-6.066-.45-12.137-.841-18.2-1.297-.972-.08-1.95-.166-2.927-.256l-.128-.005a19.046 19.046 0 01-4.92-.41 3.486 3.486 0 01-2.547-2.645zm91.36-98.256q-.663-.336-1.33-.666c.152.114.296.235.445.352.25.196.506.389.758.583a2.408 2.408 0 01.128-.269zm9.777 35.077l.334-.426-1.055-.082.721.508zm-17.2 21.759l-.618-.01a2.436 2.436 0 01.367.323zm-14.128 14.253c.058.031.115.066.173.102.064-.047.127-.097.19-.145l-.538-.05.175.093zM585.185 123l-.252-.126a2.076 2.076 0 01-.536-.382l-.346.397 1.134.111zm-57.017 31.107c1.394-.022 2.798.067 4.193.114 2.636.088 5.27.27 7.901.428q5.839.348 11.676.718a1.123 1.123 0 01.571-.183 142.016 142.016 0 0114.397.272c2.474.111 4.946.211 7.422.146a15.335 15.335 0 003.365-.251 1.953 1.953 0 001.33-.99 10.488 10.488 0 00-1.275-1.336c-1.785-1.768-3.563-3.538-5.285-5.368a51.829 51.829 0 01-4.862-5.542c-1.026-1.463-1.816-3.293-.313-4.706a.9.9 0 01.228-.155c.172-.254.345-.491.491-.706a1.186 1.186 0 01.1-.12 2.331 2.331 0 01.12-.2c12.937-18.477 30.157-33.308 44.75-50.386a244.223 244.223 0 0011.896-15.112 1.321 1.321 0 01.46-.405 2.089 2.089 0 01.121-.21 113.637 113.637 0 01-14.235-10.571c-3.152-2.604-6.299-5.247-9.242-8.091q-.645-.36-1.285-.73a1.672 1.672 0 01-.877-1.443c-.336-.35-.673-.7-1.001-1.058a123.189 123.189 0 01-8.953 11.626c-3.436 4.227-6.925 8.406-10.42 12.584q-10.481 12.541-21.058 25.004c-3.972 4.686-7.814 9.526-12.187 13.855a1.878 1.878 0 01-.462.34 1.263 1.263 0 01-1.68 1.453 24.075 24.075 0 01-5.787-3.494 201.327 201.327 0 01-5.61-4.175c-3.034-2.356-6.476-4.63-9.247-7.381 1.62 8.847 2.13 17.976 2.666 26.926.291 4.93.506 9.874.68 14.813.168 4.755.582 9.663.136 14.414a9.958 9.958 0 011.276-.08z"/></g><g data-name="Gruppe 728"><path data-name="Pfad 5363" d="M180.522 560.936l.2-.292a1.43 1.43 0 00-.043-.15l-.125.085z"/><path data-name="Pfad 5364" d="M206.521 486.187a8.527 8.527 0 00-7.12-2.513 12.681 12.681 0 01-3.651-.16c-6.698-1.12-13.372-2.357-20.072-3.443-9.458-1.535-18.838-3.56-28.43-4.234a73.875 73.875 0 01-7.697-1.387 4.71 4.71 0 00-2.043-.14c-.544.166-1.418 1.031-1.332 1.215.874 1.912.008 3.597-.4 5.386-.552 2.442.294 3.466 2.979 3.765 2.08.235 4.183.24 6.26.463a11.43 11.43 0 012.452.765.454.454 0 01.185.388c-.02.155-.151.41-.258.422a26.958 26.958 0 01-4.13.386c-2.612-.106-5.22-.407-7.827-.632-.933-.074-1.788.05-1.992 1.157a2.345 2.345 0 001.068 2.712 4.166 4.166 0 001.991.405A136.615 136.615 0 01162.47 493c2.223.38 4.507.42 6.75.727 4.14.568 8.286 1.132 12.401 1.872.076.014.15.037.23.051-1.073.446-2.146.878-3.216 1.326-1.124.475-2.17 1.114-3.272 1.639-1.714.823-3.414 1.674-5.168 2.401-1.929.796-3.953 1.381-5.872 2.203q-7.218 3.075-14.38 6.3c-6.03 2.713-12.14 5.243-18.036 8.283-5.738 2.953-11.672 5.536-17.577 8.167-3.026 1.348-6.32 2.15-9.204 3.73-3.844 2.108-7.942 3.572-11.885 5.41-5.062 2.358-9.944 5.149-15.11 7.23-12.153 4.887-23.661 11.252-36.041 15.606-8.208 2.879-15.701 7.673-24.446 9.144a2.381 2.381 0 00-1.38.657c-.401.49-.851 1.244-.737 1.754.101.433.955.879 1.525.953a5.06 5.06 0 002.039-.364c3.495-1.045 7.225-1.361 10.42-3.355.293-.186.796-.039 1.202-.046a4.7 4.7 0 01-.801.65c-4.234 2.06-8.457 4.136-12.718 6.138-2.355 1.102-4.073 2.705-3.39 3.354 1.355 1.297 3.204 1.106 4.897 1.065a6.9 6.9 0 002.461-.848c2.703-1.222 5.387-2.487 8.078-3.736l.174.374c3.009-1.396 6.01-2.798 9.032-4.165.189-.085.515.114.782.188-.054.154-.065.357-.17.451-.258.235-.598.374-.838.623-1.63 1.729-4.186 1.743-5.906 3.018a15.924 15.924 0 01-6.483 3.155 2.524 2.524 0 00-2.192 2.562c-.081 2.51-1.71 3.648-3.887 4.23a13.647 13.647 0 00-2.024.373c-.297.133-.468.792-.486 1.218a1.013 1.013 0 00.62.745 2.686 2.686 0 001.518.011c4.74-1.75 9.618-3.08 14.175-5.392 7.764-3.945 15.66-7.63 23.53-11.36 4.88-2.312 9.83-4.486 14.72-6.772 1.724-.806 3.274-2.071 5.062-2.615 7.519-2.315 14.337-6.323 21.84-8.735 5.294-1.695 10.263-4.41 15.367-6.689 10.048-4.471 19.699-9.741 29.468-14.776 3.101-1.6 6.315-2.987 9.458-4.507 10.977-5.317 21.956-10.645 33.354-14.99q-2.691 8.108-5.397 16.208c-.443 1.308-1.122 2.543-1.698 3.81-2.753 6.034-5.368 12.121-6.66 18.675-.224 1.145-1.003 2.765.314 3.359 1.865.838 1.809-1.51 2.732-2.313.126-.113.167-.343.306-.417a6.363 6.363 0 01.876-.349c.033.298.159.618.086.884-.556 2.014-1.18 4.004-1.718 6.024-.17.63-.413 1.492.609 1.631a1.781 1.781 0 001.378-.522c1.331-1.604 2.582-3.168 2.453-5.56a11.252 11.252 0 011.063-4.5c1.02-2.59 2.2-5.127 3.4-7.643 1.275-2.677 2.638-5.31 3.992-7.951a2.57 2.57 0 01.717-.6c.08.278.303.614.22.832-1.452 3.927-2.696 7.953-4.476 11.72-2.353 4.976-2.447 10.473-4.119 15.58-.128.39.12.895.248 1.37.536-.362 1.073-.725 1.605-1.092.616-.428 1.24-.8 1.392.378.144 1.115-.44 2.869 1.307 2.775.757-.042 1.552-1.676 2.078-2.712a4.744 4.744 0 00.411-2.535c-.386-3.465.876-6.488 2.193-9.562 2.537-5.926 5.189-11.822 7.35-17.886 3.04-8.552 5.676-17.238 8.508-25.859.433-1.312.626-3.013 1.551-3.788 1.824-1.52 2.297-3.351 2.525-5.488.185-1.71 1.18-3.628.667-5.043-.516-1.425-2.45-2.336-3.745-3.497zM45.513 567.365a5.58 5.58 0 01-1.426.138c.214-.397.427-.79.684-1.258.546.142.96.252 1.373.357-.205.263-.363.67-.63.763zm32.413-17.302c-2.157 1.072-4.36 2.055-6.548 3.07-.048-.1-.095-.202-.143-.305-2.184 1.012-4.366 2.037-6.557 3.035a4.537 4.537 0 01-.976.184c.242-.306.417-.746.732-.906a799.557 799.557 0 0112.986-6.332c.38-.18.96.064 1.447.114a3.783 3.783 0 01-.94 1.139zm12.156-6.158l-.416-.036.329-.28zm6.444-2.75a14.7 14.7 0 01-1.834.82c-.21.059-.498-.152-.753-.243.076-.15.113-.365.237-.436a6.115 6.115 0 011.37-.691c.886-.256 1.798-.412 2.702-.609-.707.473-1.408.944-1.725 1.161zm15.996-7.47c-1.178.711-2.4 1.354-3.954 2.213-1.088.405-2.535.956-3.99 1.477a4.222 4.222 0 01-.936.115 3.8 3.8 0 01.718-1.194 22.459 22.459 0 017.934-3.426 5.755 5.755 0 01.978-.078 3.671 3.671 0 01-.753.896zm82.55-31.185l-.056.019c-.043.01-.1-.007-.145 0 .065-.005.124-.015.197-.018zm-15.623-13.255l.885.055a2.639 2.639 0 01-.19.627c-.037.062-.359.07-.403.008a4.044 4.044 0 01-.292-.692zm6.053 2.231c-.172-.09-.189-.55-.193-.846-.004-.1.232-.211.561-.48a14.755 14.755 0 016.433 1.2c-1.066.431-2.121.876-3.185 1.31a11.138 11.138 0 01-3.615-1.186zm-4.032 11.188a16.833 16.833 0 01-2.585 1.726c-4.727 2.244-9.484 4.425-14.235 6.628l.01.012c-4.433 2.055-8.845 4.159-13.309 6.144-2.06.915-4.257 1.518-6.333 2.402-8.643 3.688-17.266 7.428-25.895 11.147a1.159 1.159 0 01-.495.154 3.7 3.7 0 01-.736-.201c.078-.14.119-.33.24-.405 1.026-.64 2.047-1.285 3.103-1.87 2.414-1.356 4.844-2.68 7.27-4.013a20.82 20.82 0 011.856-.967c4.48-1.89 9.02-3.65 13.44-5.67 3.956-1.808 7.732-4.017 11.684-5.836 4.431-2.044 8.982-3.845 13.468-5.758 3.051-1.298 6.075-2.667 9.161-3.868a9.927 9.927 0 013.053-.315c.097-.004.351.65.304.688zm4.431 26.04c-1.563 3.683-3.216 7.333-4.847 10.985a4.864 4.864 0 01-.812 1.332 1.078 1.078 0 01-.913.242.909.909 0 01-.545-.693 23.181 23.181 0 011.214-5.017c2.242-4.896 4.85-9.632 7.017-14.561 1.86-4.218 3.456-8.546 5.125-12.844.39-.134.776-.28 1.167-.413a13.33 13.33 0 001.27-.546 19.381 19.381 0 01-.663 2.243c-2.564 6.467-5.293 12.87-8.013 19.272zm20.483-38.575a4.959 4.959 0 01-1.68-.056c-.127-.036-.042-.808-.053-1.243.594.048 1.186.1 1.764.148-.017.574 0 1.145-.031 1.15z"/></g><g data-name="Gruppe 1282"><path data-name="Pfad 4985" d="M689.126 532.922l-37.872 3.682-22.8 5.933 34.078 35.576 10.586 4.632v-17.988l75.617 34.543 23.741 10.37-17.693-31.557 37.431-18.31v-5.927l-110.453-7.046z" fill="#fff"/><g data-name="Gruppe 755"><path data-name="Pfad 5266" d="M672.97 530.28c.029-.02.047.008 0 0z"/><path data-name="Pfad 5267" d="M649.961 532.685c-.007.003-.013 0-.021.002a2.219 2.219 0 00-.078-.21z"/><path data-name="Pfad 5268" d="M646.36 533.76l-.02.028c-.008-.054-.016-.103.02-.027z"/><path data-name="Pfad 5269" d="M658.628 532.329a.146.146 0 00-.068-.033c.032-.01.053.006.068.033z"/><path data-name="Pfad 5270" d="M679.79 529.952l-.017-.006c.008-.022.024-.034.034-.057z"/><path data-name="Pfad 5271" d="M679.7 529.812c-.075.073.037.119.074.131-.074.131-.169.154-.264.106-.014-.133.16-.133.19-.237z"/><path data-name="Pfad 5272" d="M659.084 538.854a.511.511 0 01.061.02.053.053 0 01-.061-.02z"/><path data-name="Pfad 5273" d="M690.187 529.342l-.042-.209a.857.857 0 01.042.209z"/><path data-name="Pfad 5274" d="M642.983 534.408a1 1 0 01.006.163l-.008.004z"/><path data-name="Pfad 5275" d="M626.452 540.417l.093.138a.144.144 0 01-.087-.054.824.824 0 01-.006-.084z"/><path data-name="Pfad 5276" d="M638.47 536.038a.684.684 0 01-.029-.069c.07-.084.277-.131.547-.165l.057.254z"/><path data-name="Pfad 5277" d="M636.005 536.965l-.027.01.064-.271z"/><path data-name="Pfad 5278" d="M630.571 537.761a.277.277 0 01-.24-.02c.246-.098.265-.057.24.02z"/><path data-name="Pfad 5279" d="M626.026 540.805l-.066-.139c.084.023.09.077.066.14z"/><path data-name="Pfad 5280" d="M651.907 572.774c.008.003.008.01.015.015-.047.08-.085.14-.111.193z"/><path data-name="Pfad 5281" d="M654.875 574.634l.034-.004c-.036.039-.068.083-.034.004z"/><path data-name="Pfad 5282" d="M646.498 566.775a.134.134 0 00.015.07c-.026-.016-.025-.04-.015-.07z"/><path data-name="Pfad 5283" d="M632.48 552.803l.005.017a.3.3 0 00-.064.01z"/><path data-name="Pfad 5284" d="M632.485 552.82c.144-.023.209.032.23.13-.098.093-.2-.038-.292.005.1.013.073-.099.062-.134z"/><path data-name="Pfad 5285" d="M651.2 562.233a.4.4 0 01-.015-.057.047.047 0 01.016.057z"/><path data-name="Pfad 5286" d="M626.206 545.437l-.142.158a.876.876 0 01.142-.158z"/><path data-name="Pfad 5287" d="M657.4 576.6a.98.98 0 01.117-.112l.009.003z"/><path data-name="Pfad 5288" d="M661.35 578.697a.46.46 0 01-.035.066.862.862 0 01-.453-.273l.153-.21z"/><path data-name="Pfad 5289" d="M663.537 579.803l.024.009-.24.141z"/><path data-name="Pfad 5290" d="M667.593 583.236c-.222-.106-.204-.144-.133-.181a.244.244 0 01.133.181z"/><path data-name="Pfad 5291" d="M680.457 539.034l-.005-.002-.138-.168z"/><path data-name="Pfad 5292" d="M679.791 540.149l.008.024c-.028-.044-.059-.085-.008-.024z"/><path data-name="Pfad 5293" d="M683.192 538.144a.1.1 0 00-.041-.023c.004-.011.02 0 .04.023z"/><path data-name="Pfad 5294" d="M678.966 540.878l.086.135z"/><path data-name="Pfad 5295" d="M678.23 542.482l-.045-.06c-.019-.072.03-.122.107-.164l.149.214z"/><path data-name="Pfad 5296" d="M677.833 543.38l-.003.009-.115-.233z"/><path data-name="Pfad 5297" d="M676.21 544.259c.038-.093.065-.06.094.01-.018.024-.048.027-.094-.01z"/><path data-name="Pfad 5298" d="M710.712 552.165c-.055.013-.078-.017 0 0z"/><path data-name="Pfad 5299" d="M750.987 555.004c.017-.002.025 0 .04.005a2.087 2.087 0 00.065.223z"/><path data-name="Pfad 5300" d="M757.5 554.892l.042-.02c-.006.051-.002.104-.042.02z"/><path data-name="Pfad 5301" d="M735.992 553.243a.3.3 0 00.108.048.117.117 0 01-.108-.048z"/><path data-name="Pfad 5302" d="M698.84 551.193l.028.01a.806.806 0 00-.073.049z"/><path data-name="Pfad 5303" d="M699.013 551.312c.026-.047-.096-.092-.145-.11a.484.484 0 01.478-.052c-.005.113-.221.109-.333.162z"/><path data-name="Pfad 5304" d="M699.013 551.312a.09.09 0 01-.05.036.15.15 0 01.05-.036z"/><path data-name="Pfad 5305" d="M737.11 546.77l-.094-.033a.113.113 0 01.095.033z"/><path data-name="Pfad 5306" d="M680.68 550.042l.032.213a.514.514 0 01-.032-.213z"/><path data-name="Pfad 5307" d="M763.496 555.167a.52.52 0 01.042-.16h.019z"/><path data-name="Pfad 5308" d="M793.914 554.203l-.107-.161a.245.245 0 01.13.08.429.429 0 01-.023.081z"/><path data-name="Pfad 5309" d="M771.774 554.838c.006.025.024.05.023.076a2.955 2.955 0 01-.991.006l-.01-.262z"/><path data-name="Pfad 5310" d="M792.318 550.934l-.028-.01c.015-.176.053-.104.028.01z"/><path data-name="Pfad 5311" d="M776.312 554.646h.05l-.205.24z"/><path data-name="Pfad 5312" d="M786.29 555.577c-.456.02-.47-.025-.402-.092a.759.759 0 01.402.092z"/><path data-name="Pfad 5313" d="M795.96 551.587c.238.005.14.105-.01.214l-.407-.063c.138-.036.277-.116.417-.151z"/><path data-name="Pfad 5314" d="M794.79 553.964l.062.153c-.136-.047-.126-.1-.062-.153z"/><path data-name="Pfad 5315" d="M766.054 565.778c-.005.004-.01.003-.016.004-.05-.076-.086-.139-.117-.187z"/><path data-name="Pfad 5316" d="M763.906 567.308l-.01.027c-.016-.047-.039-.094.01-.027z"/><path data-name="Pfad 5317" d="M771.88 564.136a.1.1 0 00-.058-.021c.018-.014.038 0 .057.02z"/><path data-name="Pfad 5318" d="M785.473 558.296l-.012-.004a.361.361 0 00.002-.056z"/><path data-name="Pfad 5319" d="M785.364 558.183c-.028.082.069.107.096.112-.007.13-.062.167-.142.144-.056-.121.063-.153.046-.256z"/><path data-name="Pfad 5320" d="M774.254 570.22l.047.015c-.017.014-.033.004-.047-.016z"/><path data-name="Pfad 5321" d="M792.257 555.745l-.101-.187a1.1 1.1 0 01.101.187z"/><path data-name="Pfad 5322" d="M761.775 568.389a1.187 1.187 0 01.053.152l-.002.006z"/><path data-name="Pfad 5323" d="M752.027 576.172l.104.12a.113.113 0 01-.077-.04z"/><path data-name="Pfad 5324" d="M759.138 570.536a.533.533 0 01-.039-.064c.023-.086.152-.161.328-.229l.115.236z"/><path data-name="Pfad 5325" d="M757.702 571.732l-.017.012-.034-.265z"/><path data-name="Pfad 5326" d="M754.154 573.16a.152.152 0 01-.172.008c.141-.123.165-.086.172-.009z"/><path data-name="Pfad 5327" d="M752.45 579.013c-.08.05-.09-.064-.087-.199l.163-.032c-.032.06-.043.169-.076.23z"/><path data-name="Pfad 5328" d="M751.837 576.59l-.084-.125c.064.012.083.064.084.125z"/><path data-name="Pfad 5329" d="M763.146 599.024a.112.112 0 00-.02.057c-.011-.016.002-.035.02-.057z"/><path data-name="Pfad 5330" d="M756.3 586.951l-.005.013c-.017.002-.033 0-.057.004z"/><path data-name="Pfad 5331" d="M756.194 587.067c.083.015.1-.073.102-.103.132-.008.17.04.152.117-.115.067-.155-.038-.254-.014z"/><path data-name="Pfad 5332" d="M768.883 595.902c.005-.018.002-.032.008-.048.013.014.006.031-.008.048z"/><path data-name="Pfad 5333" d="M753.349 580.826l-.177.118a1.277 1.277 0 01.177-.118z"/><path data-name="Pfad 5334" d="M777.094 615.718l.104-.12a.122.122 0 01-.028.081z"/><path data-name="Pfad 5335" d="M773.924 614.423c-.138-.112-.105-.142-.032-.16a.138.138 0 01.032.16z"/><path data-name="Pfad 5336" d="M779.803 614.802c.06.067-.05.097-.178.118l-.055-.146c.063.018.17.006.233.028z"/><path data-name="Pfad 5337" d="M777.525 615.819l-.114.1c.007-.061.053-.088.114-.1z"/><path data-name="Pfad 5338" d="M668.339 574.043a.112.112 0 00-.045.024c-.003-.011.016-.018.045-.024z"/><path data-name="Pfad 5339" d="M668.561 565.918l-.008.005-.052-.018z"/><path data-name="Pfad 5340" d="M668.411 565.942a.138.138 0 00.142-.019c.116.04.124.073.069.107-.134-.004-.111-.07-.211-.088z"/><path data-name="Pfad 5341" d="M674.866 573.97c.012-.007.018-.015.032-.022.005.01-.011.017-.032.022z"/><path data-name="Pfad 5342" d="M672.502 586.212l.145-.046a.129.129 0 01-.063.038z"/><path data-name="Pfad 5343" d="M672.954 586.32l-.116.031c.17.014.38.126.226-.043a12.626 12.626 0 011.645.443.741.741 0 00.385-.502c-.086-.008-.18-.022-.242-.025.252-.006.03-.174.532-.157-.424-.169.29-.227.46-.335l-.347-.037.05-.283a.86.86 0 01-.253 0c.021-.116.26-.22.38-.32l.337.097c-.146-.038-.041-.05-.037-.08l-.051.007c-1.525-.617-.364-.808-.494-.864l-.108.041c.355-.547-.193-.757-.02-1.367l.542.123c.18-.162.342-1.745-.104-1.847-.655-.716.24-1.583-.512-2.197-.715-1.41.005-2.824-.134-4.277l-.046.016c-.166-.244-.56-.554-.184-.773a.352.352 0 01-.12.002l.078-.185-.046.017a1.071 1.071 0 01.432-1.193c-.304-.082-.144-.434-.431-.542-.572-1.18-.001-2.553.11-3.868-.076-.035-.343-.03-.315-.17l.431-.005c-.62-.514.4-1.092-.463-1.58l.506-.156.136-1.01a1.733 1.733 0 00.202.028l-.019.054c.324-.583 1.696 1.416 2.232 1.026.918.157 1.17.996 1.706 1.36-.246-.084.518-.39.916.155.177.121.424 1.073 1.043 1.064s1.32.587 1.98.882l-.193.104c2.65 1.063 5.276 2.98 7.705 3.615-.196-.762.34.935.15.06l.872.365a.166.166 0 01-.01.103c.398.408.522 1.413 1.423 1.09.279-.478.7.595.62-.01 1.906 2.008 3.689 1.263 5.705 3.425l-.112-.157.606.219-.393.32c.505-.166 1.177.882 1.329.475l-.057-.078c.15-.407.675.07 1.043.084-.12.182-.222.203-.278.193a2.071 2.071 0 01.362.414c1.292.06 2.144 1.229 3.14 1.124l.158.46c1.35.137 2.404 1.956 3.84 1.72 1.661 1.056 2.663 1.818 4.26 2.907.904.382 2.147 1.229 2.906.925 1.523.371 1.816 1.298 2.964 1.812.133-.74.813.267 1.291.117-.344.545.735.295.675.837l.191-.32 1.76.758-.089-.148c.112-.297.29.171.576.172l.138.567.106-.468c.22-.002.225.12.295.233a.309.309 0 01.032-.16.662.662 0 01.673.836c.203.024.234-.246.4-.125.21.198-.032.27-.19.323.406.048.558-.175 1.096.272l-.173-.297c.294.345.725-.052 1.031.639l-.222.593-.38-.492.557.96c.203.024.117-.122.231-.247.383.492.644-.027.708.56l.271-.345.22.542c.03-.27.013-.789.663-.643l.575.172-.35.37c.362-.024.745-.496.93.146l.191-.323c.526.097-.099.643.422.568l-.012-.345c1.109.613 1.632 1.555 2.806 1.627l.053-.14a3.044 3.044 0 011.13.554l-.14.012.74.466.154-.222.498.368.075-.196a2.05 2.05 0 011.378.823l-.224.035c.123.091-.035.753-.102 1.186.421.197.004.5.67.548-.047-.246-.093-.322.102-.472.504.542.337.249.56.962-.14-.568.331-.889.938-.818 1.067.539.93 1.127 1.818 1.198l.673-.318c.448.122.114.859.511.734.942.21-.04.328.768.534a.288.288 0 00-.018.029.757.757 0 01.09-.008c.473-.026.565.282.902.416l.422.415c-.142.568.488.195.735.293l-.026.445a8.465 8.465 0 013.32.87c.23-.202.552.072.875.35l-.237.074a13.356 13.356 0 013.807 1.537l.177.469c-.214-.37.386-.471.59-.446.372.148.906.59 1.44.857l.052-.15c-.896-.47-2.15-1.248-2.861-1.583l.156-.31.83.128.043.509a4.783 4.783 0 012.103.838c.427.199.672.484.65.71l.078.05c-.016.022-.046.03-.086.028l-.005.012a7.714 7.714 0 011.595.093l-.6-.293.79-.079c.578.038-.263.815 1.262.752l.534-.17c-.05.394 1.269.446 1.983.506l-1.269.663a7.448 7.448 0 012.142.97c.024-.046-.043-.206.26-.21l.275.344.321-.053c.25.39-.123.665-.198 1.105l.046-.09c-.152.565 2.51.585 2.919 1.044-.16-.022-.462.147-.025.109-.049.089-.326.05-.49.076.37.156.465-.03 1.412.168-.045.562 1.144.623 1.782.894.123-.05.417-.08.015-.312l.879.035c.23.135-.696.194-.027.348.578.038.237-.466 1.225-.063a4.174 4.174 0 011.105.604l-.073.054.08-.05c-.44.337 1.015.474.937.773-.074-.025-.357.069-.087.065-.09.056-.217.016-.326.025.102.113.28.003.677.166-.399.345.223.436.4.632.101-.027.286-.03.22-.195l.467.061c.039.094-.517.088-.247.213.3.05.445-.276.728.017.274.124.058.549.445.548.12.16 1.64.208 1.296.6l.221-.136c.051.04.17.138.177.232l.021-.025c.046.034.006.072-.051.107a.273.273 0 01-.102.07l.029-.033-.077.04c.128.039.392-.128.6-.023l-.09.084c.175-.032.472.071.179-.14a10.531 10.531 0 011.957.153c.157-.23.036-.68-.042-.912-.092.015-.192.025-.255.04.243-.091-.115-.28.385-.419-.549-.123.091-.447.167-.672l-.366.056-.14-.341c.983.011 2.008.082 2.008.082a5.946 5.946 0 00-1.697-1.359c-.125.032-.275.059-.348.092.23-.167-.691-.408-.109-.672-1.132-.123-.649-.68-.923-1.023l-.51.122-.093-.054a3.279 3.279 0 01-.694-1.106h.616c.04-.316-1.17-2.864-1.661-2.854-1.23-.87-1.139-2.576-2.37-3.236-1.874-1.9-2.452-4.399-3.87-6.6l-.027.047c-.364-.305-.986-.606-.849-1.116a.206.206 0 01-.104.057l-.1-.323-.028.048a2.843 2.843 0 01-.682-2.05c-.34.016-.516-.602-.866-.634-1.553-1.546-2.299-3.929-3.407-6.012-.1-.018-.318.135-.425-.098l.364-.234c-.997-.459-.664-1.893-1.842-2.173l.282-.513-1.92-3.796-1.482-1.163-.705-2.024a2.707 2.707 0 01.4-.11l-.115.62c.326.081 3.229-.819 3.312-1.323 1.138-1.131 2.914-.843 3.828-2.01 2.324-1.672 5.046-1.988 7.598-3.201l-.045-.033c.38-.337.794-.935 1.314-.745a.188.188 0 01-.044-.112l.355-.066-.048-.032a3.247 3.247 0 012.267-.497c.035-.345.716-.465.801-.817 1.867-1.429 4.488-1.973 6.844-2.931.032-.095-.097-.332.163-.421l.195.384c.626-.967 2.093-.527 2.549-1.698l.506.322 4.265-1.684 1.415-1.427 2.305-.632.032-1.999-.675-2.136-1.754-1.422a.7.7 0 01.062.075c-.268.59-.993.047-1.21.664l-.028-.049c.269.609-.991-.098-.855.488-.21.399-.695-.08-.964-.05.082-.073.138.576-.208.396-.09.009-.635-.555-.714-.204s-.497.304-.744.456l-.029-.184c-.936.691-2.323.74-3 1.623.434.454-.546-.505-.053.04l-.315.216a.334.334 0 01-.055-.086c-.273-.079-.826-.754-.78-.014.216.508-.414-.05-.08.352-1.335-.422-1.188 1.121-2.624.644l.1.052-.2.176-.116-.455c.016.403-.635.003-.439.387l.05.027c.195.384-.133.323-.193.518-.08-.202-.076-.273-.064-.297a.741.741 0 01-.27-.105c-.214.675-.955.283-1.04.911l-.265-.253c-.264.65-1.378-.112-1.46.861-.79.142-1.342.133-2.146.213-.332.22-.956.282-.905.93-.414.57-.945.046-1.38.3.37.626-.259.253-.249.632-.236-.597-.26.19-.538-.248l.142.344-.652.41.091.062c.14.283-.133.033-.171.19l-.316-.338.232.408c-.031.124-.097.035-.165-.01a.632.632 0 01.08.134c-.082.252-.35.128-.536-.249-.042.092.095.314.006.32-.135-.03-.137-.219-.143-.345-.083.19.011.44-.299.41l.18.126c-.222-.094-.077.44-.484.096l-.28-.564.314.156-.586-.405c-.041.092.052.158.098.313-.315-.155-.08.379-.4-.032l.143.408-.316-.28c.137.218.413.596.242.848l-.17.19-.144-.473c-.04.22.153.785-.21.41l.14.345c-.128.22-.323-.535-.36-.186l.184.25c-.479.162-1.052-.257-1.262.347l.06.133c-.083.189-.367.213-.455.213l.015-.086-.351.065.093.25-.265.001.091.188c-.125.285-.364.276-.633.151l.015-.147a5.738 5.738 0 01-.607-.942c-.165.087-.262-.37-.384-.035a.715.715 0 01.232.408c-.359-.124-.18 0-.584-.413a1.167 1.167 0 01.29 1.131c-.44.19-.727-.325-.895.115l.067.61c-.129.158-.465-.576-.459-.263-.248.365-.165-.269-.391.028l-.013-.031-.009.056c-.056.282-.23.104-.35.19l-.278-.074c-.276-.505-.174.124-.262.187l-.227-.346a1.914 1.914 0 01-.947 1.19c.071.278-.12.252-.313.225l-.001-.189a2.307 2.307 0 01-1.367.96l-.27-.251c.223.158.185.566.143.66-.131.095-.443.06-.662.158l.07.141c.377-.144.972-.257 1.25-.4l.138.317-.191.366-.272-.357c-.21.583-.527.378-.749.539a.354.354 0 01-.469-.173l-.04.004a.1.1 0 010-.069l-.006-.01a3.05 3.05 0 01-.288.814l.243-.113-.08.502c-.105.291-.382-.756-.577.141l.007.426c-.198-.323-.423.367-.565.719l-.155-1.2c-.272.176-.508.537-.823.456a.347.347 0 01.069.3l-.219-.105-.021.217c-.24-.154-.327-.568-.543-.94l.04.097c-.27-.508-.681.954-.982.835.037-.07-.005-.366-.05-.096-.042-.098.022-.218.034-.326-.136.087-.056.279-.3.656-.284-.446-.496.166-.734.316.009.109-.022.29.161.247l-.15.46c-.106.026.003-.528-.178-.273-.108.292.206.482-.154.727-.18.255-.587-.017-.656.371-.191.1-.534 1.614-.875 1.217l.101.24c-.052.047-.174.151-.276.146l.023.026c-.046.04-.077-.005-.1-.067a.231.231 0 01-.057-.112l.03.033a1.217 1.217 0 00-.029-.082c-.066.12.057.408-.09.603l-.07-.105c0 .182-.166.465.11.2a10.493 10.493 0 01-.546 1.944c.208.188.705.127.961.08.003-.095.013-.197.01-.261.049.252.315-.076.362.442.153-.341.294-.185.434 0l-.565.792a.811.811 0 01.07-.068c.597.19.1.935.723 1.074l-.047.032c.583-.323-.039.952.531.756.403.153-.036.666.01.917-.075-.068.559-.196.403.152.016.084-.505.665-.154.7s.33.431.493.654l-.177.045c.741.803.885 2.112 1.799 2.648.414-.465-.453.577.043.045l.235.27a.32.32 0 01-.081.064c-.057.268-.68.873.043.738.483-.266-.02.4.351.033-.317 1.318 1.185.985.828 2.4l.044-.1.188.17-.438.166c.394-.066.051.6.415.368l.018-.052c.362-.234.329.083.524.115-.191.1-.264.108-.287.098a.736.736 0 01-.083.27c.678.115.352.868.98.866l-.227.285c.658.162.003 1.318.966 1.263.203.732.244 1.248.391 1.998.243.284.36.865.99.727.597.312.129.89.42 1.264.573-.438.272.208.64.145-.562.31.21.22-.194.545l.325-.184.465.557.054-.093c.262-.173.043.12.202.135l-.308.35.377-.278c.124.011.043.086.007.157a.694.694 0 01.124-.094c.256.04.16.311-.187.544.097.026.298-.135.307-.054-.016.131-.2.163-.323.185.193.053.43-.075.43.223l.105-.19c-.07.226.439.01.143.444l-.526.347.122-.32-.34.613c.096.026.149-.068.297-.137-.121.32.376.023.01.38l.384-.195-.243.34c.2-.165.541-.48.806-.358l.202.135-.446.206c.218.005.753-.26.42.138l.325-.184c.228.087-.49.384-.148.366l.227-.21c.204.432-.144 1.031.465 1.14l.124-.082c.195.05.246.313.256.398l-.084-.001.1.322.238-.13.027.25.175-.115c.292.075.306.301.212.575l-.146.009a1.374 1.374 0 01-.334.307c-2.07-1.22-6.052-3.347-6.666-3.288-3.585-1.146-6.518-3.709-9.73-4.535-6.498-2.594-11.965-6.244-18.281-9.332l.041.074c-1.147-.403-2.7-.76-3.408-1.544a.087.087 0 01-.066.1l-.742-.467.041.074a18.649 18.649 0 01-4.847-2.96c-.52.075-1.937-.825-2.554-.816-5.332-2.072-10.9-5.514-16.506-8.442-.185-.007-.263.252-.86-.077l.15-.407c-2.438-.522-4.552-2.717-6.947-2.94l-.5-.812-10.08-5.317-4.501-1.473-5.069-2.987-2.745.64-.88.897q-.484.319-.966.655l-.938.68a6.73 6.73 0 01-1.177 1.245l.071-.052c.222-.077.195.02.153.103s-.091.157.152.115l-.052.023c.304-.129.22-.022.113.079s-.23.191.062.127c.28.027-.275.202-.383.275.09-.02.53-.041.268.064-.023.035-.753.17-.465.209s.078.176.111.27l-.178-.017c.12.134.028.531-.019.84a1 1 0 00.19.91c.594-.095-.684.14.013.036l.06.21a1.007 1.007 0 01-.102.005c-.188.112-1.034.213-.341.377.55.021-.224.191.283.127-.953.555.51.857-.523 1.451l.088-.036.075.142-.457-.05c.371.087-.264.318.168.31l.044-.017c.431-.006.24.142.39.218a.774.774 0 01-.297-.038.692.692 0 01-.21.11c.528.265-.134.544.406.731l-.343.075c.483.277-.67.67.19.926a10.851 10.851 0 01-.673 1.136c.068.216-.124.55.493.658.359.329-.335.493-.273.77.721-.069.13.184.483.253-.636.006.073.173-.438.23l.373-.007.127.42.091-.036c.315-.017-.025.072.11.126l-.442.1.465-.043c.103.036-.006.058-.072.082a1.165 1.165 0 01.155-.016c.201.09-.018.205-.437.23.071.04.327.007.298.056-.08.065-.256.03-.374.008.143.08.41.079.264.234l.184-.071c-.17.099.38.123-.093.27l-.63.04.264-.134-.602.228c.07.039.164.004.327.007-.265.136.317.11-.177.206h.431l-.38.114c.256-.033.707-.107.876.027l.109.126-.49-.012c.189.066.784.06.298.186l.372-.013c.156.107-.616.074-.31.155l.302-.051c-.04.28-.632.506-.157.72l.148-.011c.144.076.06.232.028.275l-.073-.025-.028.08c-.705-.81-2.87-2.795-3.333-2.715-1.887-.786-2.774-2.807-4.526-3.37-3.18-1.921-5.236-4.787-8.016-7.209l-.004.06c-.572-.31-1.432-.58-1.556-1.208a.143.143 0 01-.087.083l-.28-.37-.007.06a5.358 5.358 0 01-1.86-2.366c-.371.065-.899-.653-1.302-.647-2.547-1.664-4.627-4.448-6.903-6.871-.116-.009-.287.198-.521-.074l.286-.325c-1.348-.448-1.682-2.24-3.131-2.464l.058-.655q-2.004-2.226-3.967-4.486l-2.202-1.32-.047-.067c1.31.123 1.972-.468 3.53-.483l-.41.6c.407.14 4.703-.229 5.023-.709 2.007-.913 4.289-.277 6.015-1.25 3.854-1.188 7.665-.93 11.632-1.554l-.046-.042c.66-.247 1.489-.744 2.097-.441a.134.134 0 01-.007-.12l.505.016-.047-.042a6.3 6.3 0 013.267.035c.205-.332 1.173-.292 1.447-.613 3.16-.956 6.932-.857 10.537-1.184.086-.085.029-.348.418-.369l.078.425c1.298-.788 3.046.03 4.219-.988l.52.446 5.505-.402a1.3 1.3 0 00.049.135 8.075 8.075 0 01-1.16.006c-.106.16-.443.158-.16.712-.02.449-.53-.04-.684.14.457.563-.05.194.102.516-.367-.527-.079.14-.407-.257l.213.305-.22.295.076.061c.189.252-.065.017-.028.147l-.313-.32.29.367c.029.103-.042.022-.099-.021a1.362 1.362 0 01.097.121c.05.209-.153.08-.403-.256.012.077.177.272.125.27-.092-.04-.164-.199-.212-.307.025.156.174.378-.016.326l.152.122c-.166-.098.121.369-.243.042l-.376-.506.24.159-.491-.396c.012.077.088.136.176.272-.24-.161.098.314-.24-.06l.236.36-.29-.267c.163.199.463.543.46.744l-.028.145-.26-.413c.06.183.383.683.034.329l.211.307c.01.178-.386-.483-.276-.191l.2.23c-.219.096-.7-.307-.594.188l.09.119c.02.155-.134.15-.184.142l-.024-.07-.179.023.148.222-.153-.023.123.17c.034.23-.108.203-.309.072l-.048-.122c-.038-.006-.44-.533-.697-.86-.063.058-.289-.343-.233-.065a1.514 1.514 0 01.284.37c-.25-.139-.101-.014-.487-.403a2.308 2.308 0 01.586.997c-.182.125-.537-.346-.47.017l.262.53c-.017.124-.48-.538-.361-.268-.008.29-.193-.246-.214-.012l-.02-.03.016.048c.071.236-.096.067-.133.13l-.186-.09c-.343-.459-.053.087-.082.138l-.257-.32a.975.975 0 01-.11.935c.142.245.022.205-.098.162l-.07-.162c-.097.539-.108.526-.434.697l-.243-.245a1.275 1.275 0 01.319.586c-.042.068-.231.01-.323.07l.09.13c.165-.088.468-.128.572-.226l.194.286.022.3-.283-.334c.087.483-.168.275-.241.393-.064.06-.203-.027-.328-.194l-.02.002a.2.2 0 01-.025-.06l-.007-.01a3.3 3.3 0 01.125.677l.097-.072.133.424c.043.243-.485-.696-.28.067l.152.37c-.144-.194-.15-.02-.122.207l-.127-.013-.328-.68c-.091.127-.103.415-.31.316a.729.729 0 01.145.27l-.162-.113.063.185a6.323 6.323 0 01-.638-.868l.057.088c-.332-.468-.05.761-.268.628-.006-.059-.131-.318-.063-.088a1.144 1.144 0 01-.095-.281c-.047.062.068.235.059.54-.317-.416-.226.096-.31.202.042.094.089.251.177.232l.079.386c-.052.013-.182-.46-.197-.256a2.389 2.389 0 00.175.415l-.943.733-.781 2.2 2.451 2.095a.421.421 0 01-.062-.096c1.248-.386 2.305.444 3.466.011l.007.058c.05-.666 2.148.569 2.474-.008.904-.243 1.49.413 2.13.522-.26.021.31-.572.903-.244.212.035.84.798 1.403.532s1.456-.019 2.181-.028l-.13.175c2.868-.136 6.07.516 8.56.092-.497-.613.706.713.163-.009l.952-.026a.168.168 0 01.033.103c.536.207 1.064 1.072 1.753.407.057-.55.889.254.562-.263 2.58 1.045 3.906-.37 6.651.782l-.168-.097.646-.049-.228.45c.396-.356 1.446.325 1.412-.109l-.084-.048c-.03-.433.648-.211.994-.348-.036.214-.122.275-.175.289a2.154 2.154 0 01.501.232c1.213-.476 2.474.245 3.345-.253l.332.356c1.296-.42 3.009.813 4.233.016 1.957.29 3.19.59 5.1.944.986-.015 2.473.262 3.051-.324 1.554-.273 2.198.461 3.461.475-.17-.732.859-.08 1.24-.408-.098.637.795-.023.957.5l.048-.372 1.926-.005-.14-.102c-.014-.315.336.042.597-.07l.355.464-.09-.473c.204-.088.256.022.366.096a.32.32 0 01-.036-.158.668.668 0 01.956.5c.195-.058.118-.318.318-.272.274.095.079.262-.047.372.395-.117.449-.381 1.122-.188l-.28-.202c.41.2.65-.332 1.209.178l.031.634-.547-.302.897.662c.196-.059.055-.161.11-.32.551.3.585-.28.88.24l.11-.426.42.411c-.08-.262-.304-.73.355-.854l.595-.066-.174.478c.324-.167.493-.751.917-.235l.05-.372c.525-.12.163.63.618.354l-.148-.312c1.27.12 2.125.789 3.24.393l-.005-.149a3.06 3.06 0 011.263.067l-.127.062.867.137.056-.264.604.143-.008-.214a2.08 2.08 0 011.6.218l-.189.119c.15.035.264.706.373 1.13.467.016.2.457.835.24-.14-.207-.212-.26-.09-.473.678.303.404.098.896.668-.354-.468-.043-.948.547-1.12 1.2.082 1.303.678 2.154.398l.498-.555c.463-.063.441.747.763.474.955-.173.09.319.921.193a.146.146 0 00-.006.033c.027-.016.055-.03.08-.042.427-.206.633.041.998.034l.554.217c.09.579.532-.009.795-.012l.15.419a8.591 8.591 0 013.417-.478c.133-.271.54-.145.948-.014l-.194.16a13.294 13.294 0 014.127-.044l.346.365c-.342-.26.179-.582.377-.637.399-.005 1.07.197 1.67.242l-.007-.159c-1.01-.092-2.48-.332-3.269-.37l.026-.345.821-.199.236.456c1.102-.373 1.603-.022 2.277-.03.473.02.812.19.878.407l.093.018a.107.107 0 01-.07.059l.004.01a7.834 7.834 0 011.518-.521l-.67-.042.704-.376c.553-.185.068.854 1.464.207l.43-.359c.106.384 1.351-.063 2.041-.285l-.927 1.095a7.588 7.588 0 012.365.087c.004-.052-.12-.175.16-.292l.387.213.282-.17c.38.267.136.662.235 1.099l.008-.103c.076.58 2.564-.412 3.115-.139-.158.04-.376.309.015.111-.008.103-.282.17-.425.256.403.006.42-.202 1.376-.373.173.538 1.304.148 2 .16.094-.093.36-.23-.108-.3l.832-.299c.266.04-.576.442.107.333.555-.18.044-.522 1.12-.52.684-.11 1.317.354 1.88.068.535.026 2.917-1.034 3.276-.505l.025-.26a2.965 2.965 0 01.783.04l-.007-.036c.147-.006.167.048.156.115a.1.1 0 01.008.126l-.03-.044a.427.427 0 00-.024.083c.276-.062.302-.376.85-.448l.048.128c.192-.151.869-.29-.04-.231a22.952 22.952 0 013.301-1.31 6.11 6.11 0 00-2.097-.632c-.107.076-.238.157-.298.215.154-.241-.803-.124-.353-.582-1.107.306-.863-.39-1.249-.608l-.429.304-1.307-.197a.317.317 0 01-.186.234 4.685 4.685 0 01-1.25-.52l.696-.264c-.28.115-.271.012-.405-.008l-.004.051c-3.992 1.118-4.094-.067-4.45.025l.124.123c-2.377-.614-3.731-.201-6.529-.656l.918-.454c-.652-.255-8.2-1.157-8.92-.77-3.784.305-7.507-.928-10.825-.45-7.057.122-13.579-1.107-20.663-1.445l.07.051c-1.224.083-2.807.368-3.776-.071a.087.087 0 01-.022.118l-.873-.133.068.05a18.966 18.966 0 01-5.678-.783c-.45.277-2.12.017-2.692.275-5.766.242-12.301-.666-18.68-1.038-.172.067-.138.336-.822.28l-.031-.433c-2.46.512-5.314-.61-7.609.17l-.8-.534-11.486-.676-2.422.277a3.5 3.5 0 00.36-.25l-.037-.03c.097-.259.116-.74.49-.536a.446.446 0 01-.071-.1l.183-.03-.038-.03a.951.951 0 011.144-.25c-.111-.292.243-.34.16-.635.555-1.079 1.885-1.35 2.903-2-.02-.08-.189-.289-.07-.342l.267.337c-.015-.775 1.033-.304.836-1.26l.425.3 1.857-1.145.258-1.106.48-.167 3.862-1.342-4.563-4.52-.473-.47-.339.438.028-.327-1.628-1.867a.476.476 0 01.047.089c-.66.494-1.356-.239-1.96.295l-.002-.06c.051.664-1.283-.38-1.397.229-.48.325-.891-.272-1.266-.318.143-.047-.1.6-.48.325-.124-.016-.573-.713-.855-.4s-.82.155-1.23.233l.053-.186c-1.603.415-3.496.09-4.844.764.363.555-.49-.63-.091.026l-.53.127a.256.256 0 01-.034-.098c-.328-.149-.744-.95-1.041-.218.043.551-.536-.158-.28.32-1.599-.762-2.149.777-3.855-.05l.109.076-.36.121.065-.473c-.171.397-.86-.158-.78.268l.055.038c.078.424-.334.282-.509.459-.012-.216.027-.286.056-.305a1.024 1.024 0 01-.315-.173c-.614.605-1.43.036-1.843.634l-.24-.314c-.664.57-1.812-.447-2.379.485-1.143-.057-1.88-.193-3.007-.308-.553.137-1.43.05-1.66.697-.827.456-1.305-.176-2.016-.025.216.7-.468.19-.627.564-.05-.64-.441.127-.614-.366l.035.371-1.077.258.095.081c.06.31-.195.003-.322.148l-.275-.412.129.454c-.1.115-.146.012-.221-.047a.442.442 0 01.045.151c-.225.23-.533.05-.615-.364-.099.085-.009.333-.132.313-.17-.058-.087-.247-.036-.372-.2.168-.185.437-.593.339l.189.162c-.262-.14-.305.417-.704-.01l-.125-.618.356.222-.613-.528c-.1.084-.006.165-.009.332-.359-.223-.278.355-.531-.118l.011.434-.304-.346c.091.243.296.678-.052.89l-.322.147.018-.496c-.153.21-.147.808-.473.358l.037.372c-.276.188-.2-.598-.404-.264l.137.287c-.727.052-1.317-.475-1.873.07l.03.147a1.035 1.035 0 01-.715.114l.06-.085-.507-.013.013.268-.361-.056.042.206a.746.746 0 01-.929.016l.084-.144c-.09-.014-.275-.657-.41-1.058-.263.052-.194-.422-.508-.115.116.184.164.224.135.45-.432-.195-.243-.034-.618-.52a.9.9 0 01-.104 1.179c-.68.098-.847-.47-1.268-.069l-.175.618c-.245.127-.383-.667-.512-.355-.498.31-.109-.3-.547-.052l-.002-.035c-.012.02-.026.038-.037.054-.197.267-.359.055-.56.116l-.348-.131c-.158-.554-.292.09-.44.136l-.16-.389a3.254 3.254 0 01-1.804.997c-.023.29-.272.224-.523.161l.074-.186a4.617 4.617 0 01-2.275.691l-.263-.302c.24.2.014.6-.083.685-.22.069-.627-.022-.969.03l.034.156c.575-.073 1.435-.074 1.877-.164l.053.342-.415.328-.218-.406c-.537.54-.882.277-1.251.395a.47.47 0 01-.565-.26l-.055-.002a.093.093 0 01.024-.07l-.004-.01a3.865 3.865 0 01-.735.755l.377-.067-.314.481c-.267.27-.207-.824-.847.032l-.166.423c-.134-.357-.73.291-1.065.617l.285-1.22c-.439.128-.918.444-1.319.31a.263.263 0 01-.027.308l-.257-.145-.12.213c-.264-.197-.208-.624-.353-1.033l.017.102c-.16-.553-1.328.826-1.687.658.079-.065.143-.366-.033-.104-.015-.105.122-.215.182-.322-.223.063-.19.27-.679.605-.206-.494-.746.08-1.131.19-.032.107-.149.286.117.272l-.395.434c-.155.008.226-.53-.127-.306-.265.274.085.516-.504.701-.352.225-.797-.117-1.041.258-.3.067-1.372 1.528-1.682 1.075l.042.258a.983.983 0 01-.436.102l.021.03c-.08.032-.1-.017-.11-.084a.168.168 0 01-.033-.117l.026.036a.645.645 0 00-.005-.086c-.138.111-.084.42-.367.592l-.055-.117c-.072.187-.41.438.073.22a4.857 4.857 0 01-.566.795l-.049.031-.013.04c-.418.507-.883.99-.883.99a1.054 1.054 0 00.586.2l-.284 1.109a.6.6 0 01.045-.09c.756.198.553 1.159 1.311 1.297l-.039.043c.5-.441.403 1.191.952.906.525.162.279.828.454 1.14-.117-.08.53-.285.523.16.057.101-.246.866.164.88s.578.516.867.775l-.176.075c1.223.936 2.028 2.543 3.315 3.127.232-.61-.218.751.071.051l.4.313a.265.265 0 01-.059.086c.069.335-.322 1.139.42.905.405-.373.18.494.408.01.31 1.655 1.819 1.105 2.148 2.873l-.003-.128.297.186-.403.25c.406-.122.367.733.653.408v-.064c.286-.325.41.068.644.088-.161.145-.238.16-.27.15a.929.929 0 01.046.34c.822.07.844 1.03 1.548.955l-.105.372c.823.127.696 1.615 1.745 1.436.612.876.939 1.495 1.504 2.388.426.316.87 1.012 1.5.767.834.309.627 1.061 1.159 1.478.41-.607.42.215.798.092-.46.447.356.238.082.684l.265-.265.825.615.009-.126c.202-.248.116.14.302.137l-.152.465.27-.386c.145-.002.095.099.093.19a.522.522 0 01.088-.13c.311.016.351.352.083.679.122.017.26-.205.315-.103.051.158-.137.222-.263.265.247.036.442-.15.61.21l.012-.242c.047.28.496-.049.407.514l-.398.49-.04-.401-.04.785c.124.018.128-.103.256-.206.044.403.433-.03.226.458l.324-.289-.083.444c.133-.224.34-.651.704-.539l.303.135-.386.31c.248-.021.698-.418.55.108l.26-.268c.303.072-.334.533.038.462l.137-.286c.466.49.425 1.257 1.166 1.297l.093-.117a.9.9 0 01.51.437l-.094.012.294.372.193-.187.174.295.13-.166a.66.66 0 01.564.656l-.158.033a4.443 4.443 0 01-.551.988c.195.155-.203.419.219.439a.546.546 0 01.257-.393c.112.438.12.196-.021.785a.945.945 0 01.947-.703c.483.42.156.915.71.949l.569-.282c.244.09-.271.713.04.598.53.15-.16.274.29.425l-.023.024a.444.444 0 01.061-.01c.32-.034.257.221.425.323l.11.336c-.318.479.244.147.367.22l-.193.372a2.921 2.921 0 011.835.617c.229-.175.332.044.438.264l-.186.072a4.092 4.092 0 011.893 1.146l-.063.387c-.002-.302.434-.411.56-.399.185.109.37.46.617.664l.093-.129c-.405-.358-.927-.96-1.263-1.21l.221-.266.496.072-.169.426c.726.016.741.434 1.057.616a.437.437 0 01.152.571l.032.04a.093.093 0 01-.067.026l-.004.012a3.678 3.678 0 011.005.01l-.279-.221.546-.101c.362.006-.482.699.542.575l.416-.175c-.182.335.66.314 1.104.328l-1.078.623c.363.22.887.342 1.035.713.033-.041.05-.174.247-.191l.051.276.232-.06c.018.318-.33.57-.538.948l.067-.083c-.308.485 1.418.37 1.518.734-.097-.01-.357.15-.057.093-.067.083-.233.062-.35.091.184.112.315-.05.861.06-.235.48.521.465.839.657.098-.05.3-.092.127-.273l.559-.02c.1.104-.527.208-.145.298.363-.002.324-.41.821-.126.381.09.405.632.831.549a.316.316 0 00.11.038l-.123.018.105-.012c-.567.09.663.477.45.625-.054-.027-.344-.036-.106.018a.984.984 0 01-.298-.055c.036.083.242.06.514.233-.514.108-.008.287.056.432.103.006.265.042.284-.063l.379.13c-.01.062-.497-.056-.317.068.24.089.52-.063.632.155.181.123-.208.318.132.39.03.117 1.342.435.858.581l.26-.033c.026.032.087.108.05.162l.031-.01c.024.03-.028.041-.095.048a.4.4 0 01-.122.02l.04-.012-.086.009c.079.037.388-.005.524.092zm93.56 18.391a.743.743 0 01-.021.291c-.14-.08-.284-.166-.434-.255zm.686.679l-.207-.11.258-.07c.055.034.014.104-.047.182zm-98.4-28.523c-.017-.024-.043-.055-.067-.084l.127-.001zm-.057.359a1.645 1.645 0 01-.368.07 7.23 7.23 0 01-.202-.211l.685-.122a.376.376 0 00-.03-.05l.144-.012c.215.113.118.236-.098.356z"/><path data-name="Pfad 5344" d="M668.743 563.506l-.017.008c0-.002.002-.006.017-.008z"/><path data-name="Pfad 5345" d="M675.544 585.408l.002-.006c.182-.023.116-.01-.002.006z"/><path data-name="Pfad 5346" d="M670.318 584.873c-.069-.091-.025-.1.048-.095.019.035.008.067-.048.095z"/><path data-name="Pfad 5347" d="M675.306 586.212c.022.049-.088.045-.213.033a.706.706 0 00.021-.09c.048.022.144.04.192.057z"/><path data-name="Pfad 5348" d="M672.834 586.35l-.143.035a.169.169 0 01.143-.035z"/><path data-name="Pfad 5349" d="M701.648 579.65c-.053-.009-.063-.046 0 0z"/><path data-name="Pfad 5350" d="M737.225 598.25a.387.387 0 01.033.02c-.014.092-.023.17-.026.23z"/><path data-name="Pfad 5351" d="M743.235 600.666l.046-.002c-.027.046-.042.091-.046.002z"/><path data-name="Pfad 5352" d="M724.217 590.758a.317.317 0 00.076.086.115.115 0 01-.076-.086z"/><path data-name="Pfad 5353" d="M691.286 573.922l.02.02a.782.782 0 00-.084.015z"/><path data-name="Pfad 5354" d="M691.394 574.101c.043-.031-.05-.123-.087-.159a.485.485 0 01.457.148c-.053.1-.245.008-.37.011z"/><path data-name="Pfad 5355" d="M691.335 574.113a.128.128 0 01.06-.013.091.091 0 01-.06.013z"/><path data-name="Pfad 5356" d="M727.813 585.26c-.023-.025-.052-.046-.073-.072a.109.109 0 01.073.073z"/><path data-name="Pfad 5357" d="M675.364 565.353l-.063.205a.5.5 0 01.063-.205z"/><path data-name="Pfad 5358" d="M748.626 603.225a.473.473 0 01.101-.13l.016.005z"/><path data-name="Pfad 5359" d="M756.351 606.077c-.008.024.003.054-.008.078a2.853 2.853 0 01-.913-.37l.092-.245z"/><path data-name="Pfad 5360" d="M760.592 607.619l.046.016-.28.148z"/><path data-name="Pfad 5361" d="M769.081 611.989a.745.745 0 01.336.235c-.425-.15-.423-.199-.336-.235z"/><path data-name="Pfad 5362" d="M779.817 612.112c.217.092.087.148-.09.195-.204-.127-.35-.212-.35-.212.14.019.299-.006.44.017z"/></g></g><g data-name="Gruppe 726"><path data-name="Pfad 5258" d="M184.267 20.077c-.7.51-1.49 1.037-2.258 1.552a16.024 16.024 0 014.058-2.846 15.255 15.255 0 01-1.8 1.294z"/><path data-name="Pfad 5259" d="M181.981 21.656l-.025.011.053-.037z"/><path data-name="Pfad 5260" d="M210.475 72.543a1.663 1.663 0 01-.078-.01z"/><path data-name="Pfad 5261" d="M236.907 79.652l-.323-.695-.588-1.243c-.308-.67-.674-1.192-.947-1.687-.294-.48-.519-.92-.775-1.25l-1.03-1.5a5.276 5.276 0 01-.555-.86 3.292 3.292 0 00-.587-.803 13.975 13.975 0 00-1.203-1.316l-1.02-1.006c-.391-.387-.888-.765-1.423-1.228-.31-.257-.57-.49-.76-.669a1.752 1.752 0 01-.35-.354c-.067-.11.283-.016 1.11.619l-.556-.449c-.198-.14-.399-.282-.602-.428l-1.252-.882c-.422-.307-.889-.558-1.34-.84s-.908-.564-1.386-.806a28.307 28.307 0 00-2.856-1.334c-.474-.186-.942-.362-1.396-.525s-.913-.268-1.342-.387a22.186 22.186 0 00-2.114-.7l-1.123-.31a10.6 10.6 0 00-1.166-.272c-.793-.142-1.623-.337-2.444-.427s-1.668-.214-2.526-.25a39.4 39.4 0 00-10.86.865 45.248 45.248 0 00-10.961 3.936 51.862 51.862 0 00-9.972 6.581 48.834 48.834 0 00-8.287 8.737 40.368 40.368 0 00-2.215 3.43 22.433 22.433 0 01-1.21-2.963 5.085 5.085 0 01-.983-1.5 48.667 48.667 0 01-2.69-12.031c-.014.423.021.817-.108.497a47.141 47.141 0 01.058-10.78 52.2 52.2 0 01.905-5.302l.693-2.608c.228-.868.564-1.708.838-2.562a50.448 50.448 0 0111.303-18.46c1.98-1.96.078-.708 1.817-2.367a16.681 16.681 0 011.827-1.527 8.254 8.254 0 01.955-.636c.312-.192.605-.373.873-.54-.256.262-.89.743-.462.548a26.268 26.268 0 012.09-1.697c-.817.377-2.197 1.265-.358-.195l-2.552 1.93c-.283-.105.76-.522 2.569-2.005l1.655-1.017-.269-.134c.462-.424.833-.873 1.18-1.249a7.68 7.68 0 00.853-1.115 4.7 4.7 0 00.74-2.08 4.182 4.182 0 00-1.372-3.369 9.858 9.858 0 00-3.134-2.011 12.863 12.863 0 00-1.822-.623l-.8.356c-1.532 1.292-3.107 2.488-4.492 3.896a48.358 48.358 0 00-10.232 9.472 66.64 66.64 0 00-6.715 10.172c-.378.626-.815 1.568-1.365 2.63-.258.54-.58 1.095-.832 1.712l-.81 1.894c-.588 1.271-1.052 2.635-1.524 3.894-.503 1.249-.852 2.453-1.196 3.425l.3-.119-.547 1.839-.477 1.971c-.164.669-.327 1.342-.49 2.014-.124.68-.245 1.358-.364 2.024l-.342 1.936c-.085.628-.138 1.233-.201 1.8-.103 1.141-.246 2.128-.25 2.883l.104-.073c-.004.498-.018 1.201-.044 1.966s-.102 1.593-.079 2.334c-.006 1.486-.086 2.665-.35 2.367a17.694 17.694 0 00.497 2.734l.451 1.77c.128.568.3 1.165.504 1.998.1.417.205.894.32 1.455s.223 1.214.428 1.947c-.103-.298-.23-.588-.314-.892.205.853.588 2.099 1.048 3.65.218.779.571 1.599.891 2.495.342.89.67 1.855 1.139 2.818a60.471 60.471 0 007.258 12.464c.148.196.3.385.448.579-.06.849-.102 1.687-.122 2.495a57.3 57.3 0 00.55 8.737l-.03-.525a82.288 82.288 0 001.16 6.536c.541 2.638 1.456 5.564 2.383 8.817a121.261 121.261 0 008.734 20.803 131.072 131.072 0 0012.438 18.782c1.053 1.312 2.133 2.507 3.115 3.663 1.003 1.138 1.89 2.256 2.836 3.173 1.835 1.882 3.354 3.456 4.494 4.576l1.71 1.947c1.073.82 2.041 1.685 3.101 2.635s2.304 1.876 3.785 2.967c1.476 1.233.73.903-.022.379.652.466 1.304.962 1.935 1.462s1.295.941 1.89 1.392c1.215.882 2.28 1.655 3.053 2.098l-.384-.394c2.1 1.371 3.76 2.453 5.43 3.642a87.246 87.246 0 002.637 1.8c.472.275.97.548 1.5.827-2.37-.404-4.441-.76-5.285-.899.348.115.222.303-.132.346l-.814-.309c.124-.082.356-.037.245-.165-.346-.174-.826 0-.926-.389-.007.21-.593.096-.591.148-.33-.437-2-.068-2.314-.824-1.155-.398-.374.345-1.652.031l.028-.472c-.128.062-6.818-1.694-6.563-1.866a1.034 1.034 0 01-.61.232c-1.146-.422-2.297-.717-3.554-1.18.112.081.227.11.102.184-4.248-1.283-8.394-2.258-12.625-3.464-.798-.238-.29.348-.976.143-.473-.03-.887-.435-1.213-.643.122-.018.352.053.251-.084a3.479 3.479 0 01-.805-.14c.204.227.62.517-.06.356l.91.284c-.039.258-.246-.13-.944-.237l-.538-.224-.04.26c-1.696.413-2.752 2.897-3.371 5.286a29.962 29.962 0 00-.792 4.683l.182.138 1.649-.206a28.565 28.565 0 006.4 1.897 22.175 22.175 0 013.537 1.305l.03-.262c1.177.434 2.714 1.31 3.42 1.598l.013-.104c.471.179 1.671.804 1.387 1.21 1.214.193 1.135-.31 2.552.361l-.246-.006c.833.314 3.36.939 5.866 1.515s4.99 1.102 5.712 1.36l-.117-.128c1.326.57 3.154.68 4.484 1.387 1.347.167 4.878.79 8.455 1.375l5.12.86c1.235.212 2.37.405 3.337.572.524.095 1.003.176 1.434.252.422.062.743.033 1.044.06 4.102.065.437.353 4.495.243.14-.01.283.01.372.008a.336.336 0 01.186.027c.036.024.043.062.006.113a.423.423 0 01-.086.085 1.448 1.448 0 01-.208.054 1.278 1.278 0 00.541-.138l.508-.22a5.788 5.788 0 001.177-.732 3.9 3.9 0 00.94-1.086 7.4 7.4 0 001.648-2.63 3.225 3.225 0 00.235-.836l.058-1.01.108-2.129q.03-.548.055-1.107a4.179 4.179 0 00-.025-1.166l-.38-2.53-.395-2.594c-.122-.59-.241-1.06-.364-1.597a81.982 81.982 0 00-3.33-10.591l.006.146c-.302-.838-.88-2.222-1.56-3.918-.704-1.666-1.54-3.61-2.399-5.5-1.722-3.796-3.419-7.434-4.134-8.876l-.02-.711c-.492-.507-.586-1.151-1.14-1.9-.173-.45.105-.36.256-.18-.508-.649-.632-1.519-.97-1.846l-.038.16c-.776-1.004-.377-1.952-1.151-3.052l-.043.029a3.327 3.327 0 01-.433-1.588c-.346-.567-.358.086-.663-.38.22-.337-.18-.796-.418-1.33.199.613.395 1.319.104 1.386-.256-.755-.357-.049-.524-.861l.318-.182c-.039-.363-.344-.96-.526-.99a2.889 2.889 0 01.351.705c-.318.114-2.439 1.48-4.515 2.926s-4.116 2.96-4.354 3.11c.077 1.29 1.272 2.75 1.268 4.251-.25-.278.34.824-.096.52a2.471 2.471 0 01.425.765c-.08-.402-.155-.8-.025-.888l1.214 2.62c.41.876.822 1.758 1.274 2.555.598.92.12 1.574.235 1.793l.212-.157.512.976c-.324-.061-.606.295-.919-.072-.125.092.129.354.26.706-.015-.137.038-.477.196-.295.401.754-.053.342.28 1.298.041-.03.05-.788.577-.126.552.879 2.032 3.898 3.411 6.925a114.692 114.692 0 012.817 6.767c-.736-.4-1.489-.8-2.255-1.21l-.874-.47-.843-.528a91.534 91.534 0 01-1.66-1.077 36.256 36.256 0 01-3.033-2.22c1.058.604-2.466-1.78-1.04-1.109a28.333 28.333 0 01-2.467-1.657 11.223 11.223 0 012.095 1.903c-1.32-.927-2.665-1.878-4.024-2.83l-3.91-3.143c-1.335-1.018-2.553-2.171-3.787-3.278l-1.843-1.647c-.306-.275-.617-.539-.91-.816l-.86-.853a21.94 21.94 0 01-3.755-4.695l-.079.303-2.563-2.898c.657.354.513-.438 1.677.72a13.163 13.163 0 00-1.66-2.03c.264.376.759 1.248.178.67-1.976-2.245-.545-.84-2.595-3.692-.022.055 1.159 2.15-.75-.033-.563-.7-1.47-1.794-2.555-3.24l-3.656-5.345-1.98-3.328c-.682-1.161-1.437-2.338-2.053-3.628l-1.994-3.887c-.355-.649-.647-1.334-.941-2.017l-.894-2.055c-1.277-2.715-2.206-5.559-3.197-8.248-.118-.34-.252-.67-.357-1.01l-.293-1.014-.574-1.983c-.368-1.3-.763-2.554-1.07-3.752a76.997 76.997 0 01-1.091-5.106l1.81 1.286c1.23.915 2.273 1.518 2.912 1.93l-.437-.378a42.279 42.279 0 008.21 4.35 81.677 81.677 0 008.998 3c.67.14 1.494.264 2.442.393.945.155 2.032.228 3.218.343a44.948 44.948 0 008.39-.218 37.494 37.494 0 009.988-2.643 34.367 34.367 0 009.61-6.17 33.755 33.755 0 007.058-9.04 29.65 29.65 0 003.342-10.409 27.1 27.1 0 00-.531-9.43l-.518-1.92c-.204-.593-.42-1.15-.615-1.682zm-7.185 105.95l.106 1.018-.501-.368a1.582 1.582 0 00.005.181l-.215-.115c.198-.236.638-.636.605-.716zm-57.077-79.879a.278.278 0 01.009.115zm53.808-20.118c.18.467.293.93.466 1.294.09.18.155.348.217.486a.877.877 0 00.239.307 5.985 5.985 0 00.088 1.259 5.658 5.658 0 01-.04 1.965 2.168 2.168 0 01-.187-.753c-.043-.298-.118-.626-.153-.959a4.924 4.924 0 00-.423-1.688 15.066 15.066 0 01.213 3.184l-.018.518a2.521 2.521 0 01-.045.542c-.055.368-.103.752-.152 1.153q-.14.597-.286 1.231c-.082.427-.277.853-.4 1.297a20.033 20.033 0 01-2.966 5.458 22.647 22.647 0 01-5.015 4.833c-.48.344-.991.627-1.479.953-.511.275-1.023.546-1.53.82-.523.222-1.044.447-1.563.668-.559.183-1.105.389-1.659.562a27.487 27.487 0 01-6.573 1.1 35.192 35.192 0 01-5.644-.245 40.627 40.627 0 01-3.798-.687c.562.178.774.263.703.327a1.861 1.861 0 01-.96-.02c-.443-.144-.887-.272-1.332-.421l-1.316-.481c.349-.005 1.082.218.69-.009a9.293 9.293 0 00-.883-.292l-.862-.284a2.511 2.511 0 01-1.212-.657c.041.234-1.764-.48-1.751-.44a7 7 0 00-1.41-.773c-.61-.322-1.356-.634-2.072-1.031s-1.429-.813-2.029-1.207l-.425-.293a7.002 7.002 0 01-.351-.315 3.16 3.16 0 01-.495-.581c-1.6-1.193-1.852-1.243-2.127-1.334s-.611-.183-2.305-1.562l.1-.537a25.046 25.046 0 01-.81-.74l-.858-.798-.522-.484c-.18-.174-.352-.373-.54-.573-.373-.399-.775-.83-1.198-1.286-.05-.055-.104-.11-.155-.165a24.74 24.74 0 011.1-2.986 26.829 26.829 0 014.903-7.156 29.373 29.373 0 014.406-3.905c-.292.26-.593.507-.878.777l1.856-1.412c.616-.42 1.178-.88 1.806-1.281.614-.421 1.242-.855 1.94-1.279.684-.457 1.453-.872 2.291-1.366-.706.38-1.444.706-2.135 1.126.546-.866 2.286-1.874 4.433-2.83-.415.255-.834.498-1.235.783 1.23-.404 2.293-.863 3.519-1.366.608-.271 1.274-.48 2.002-.761.368-.121.756-.227 1.169-.348l.633-.18.677-.14-.69.212-.681.256c.406-.071.86-.19 1.36-.291s1.03-.276 1.577-.35c-1.972.159 1.267-.533 1.88-.75-.6.272.023.318.921.27.9.004 2.088-.043 2.637.023a1.836 1.836 0 01.771-.081 10.437 10.437 0 011.145.163c.806.106 1.472.33 1.6.182.978.253.223.324-.156.289.26.025.515.057.77.095.277.057.551.144.829.224s.558.17.846.267l.872.378a30.609 30.609 0 014.346 2.383 23.168 23.168 0 012.705 1.896 8.547 8.547 0 01.688.532c.126.117.261.268.709.75a12.8 12.8 0 01.867 1.063 7.043 7.043 0 01.602.826c.2.328.468.668.704 1.088l.632.623c-.019.204-.026.4-.053.6a4.034 4.034 0 01.815.968 13.223 13.223 0 01.645 1.366z"/><path data-name="Pfad 5262" d="M184.159 185.672a2.387 2.387 0 01-1.52-.152 2.837 2.837 0 011.52.152z"/><path data-name="Pfad 5263" d="M184.17 185.67l.007.006-.02-.005z"/><path data-name="Pfad 5264" d="M226.437 152.489a1.719 1.719 0 01-.134-.41z"/></g></g></svg>