<svg xmlns="http://www.w3.org/2000/svg" width="521.397" height="450.383"><g data-name="Gruppe 1324"><g data-name="Gruppe 1322"><path data-name="Pfad 10148" d="M11.005 220.148l227.976-26.951-2.367 13.035-230.54 26.172z" fill="#1878d8"/><path data-name="Differenzmenge 3" d="M279.279 375.061L38.952 350.655l-.064-.208a8849.32 8849.32 0 01-17.562-58.3c-5.064-17.056-9.038-30.73-11.81-40.64-3.464-12.388-5.053-18.896-4.721-19.346a.055.055 0 01.045-.025h.045c3.975.002 228.427-26.507 230.693-26.775zm-147.077-111a40.354 40.354 0 00-9.878 1.219 39.519 39.519 0 00-22.287 15.1A42.86 42.86 0 0093 295.865a47.637 47.637 0 00-.77 17.61 51.558 51.558 0 0023.9 36.531 44.924 44.924 0 0023.251 6.68 40.372 40.372 0 009.879-1.219 39.518 39.518 0 0022.283-15.106 42.86 42.86 0 007.037-15.485 47.639 47.639 0 00.77-17.61 51.553 51.553 0 00-23.9-36.53 44.922 44.922 0 00-23.248-6.675z" fill="#60acf8" stroke="#141412" stroke-linejoin="round" stroke-width="7"/><path data-name="Pfad 10150" d="M4.751 232.51l6.677-12.189 227.088-28.15-2.609 14.212" fill="none" stroke="#000" stroke-linecap="round" stroke-linejoin="round" stroke-width="7"/><path data-name="Schnittmenge 2" d="M228.216 334.112l-55.185 4.063a43.226 43.226 0 005.549-13.3 47.638 47.638 0 00.77-17.61 51.554 51.554 0 00-23.9-36.53 46.745 46.745 0 00-11.192-4.941l92.405-56.225 42.1 163.5zm-194.59-.993l59.088-35.955a47.788 47.788 0 00-.484 16.313 51.068 51.068 0 005.969 17.733 51.676 51.676 0 008.968 11.816l-68.99 5.08c-.957-3.137-2.558-8.403-4.551-14.987z" fill="#0a6b91" opacity=".145" style="mix-blend-mode:multiply;isolation:isolate"/><path data-name="Pfad 10154" d="M238.516 192.171l42.128 182.919" fill="none" stroke="#000" stroke-linecap="round" stroke-width="7"/></g><g data-name="Gruppe 1323"><path data-name="Pfad 10153" d="M348.49 37.417a200.345 200.345 0 01-55.357-2.448c-3.997-.72-7.554-1.418-9.134-1.56-1.856-.166-2.808 3.1-.464 3.793 4.847 1.43 11.357 4.634 19.763 34.729 7.185 25.693-5.91 55.438-12.815 70.37-4.285 9.266-12.948 14.979-16.8 17.632-.912.63-1.21 4.026 2.004 2.875s36.453-10.695 63.59-9.027c11.999.736 33.877 1.349 52.636 12.28 18.657 10.878 35.184 23.277 49.119 27.673 18.291 5.77 35.168 4.53 35.735 3.591.519-.854-1.253-1.74-3.097-5.42a51.371 51.371 0 01-4.677-20.11c-.622-20.388.796-31.832 14.193-62.182 2.858-6.48 5.461-17.022 5.002-17.917s-18.17-5.084-25.869-10.25c-12.927-8.67-22.833-18.32-43.075-29.25-24.787-13.38-51.87-16.377-70.755-14.779z" fill="#fff" stroke="#000" stroke-linecap="round" stroke-linejoin="round" stroke-width="5.0013"/><g data-name="Gruppe 1269"><path data-name="Pfad 10102" d="M278.659 27.892c-.03.333.557 16.641-.658 38.164-1.29 22.913-3.598 45.833-5.975 65.509-3.932 32.567-54.334 312.603-54.373 312.755-.526 1.86-.974 4.609 1.245 5.075 3.115.658 3.68-.687 4.2-2.545.037-.137 47.46-260.995 48.97-268.53 2.121-10.564 6.397-39.396 10.828-76.857a421.91 421.91 0 002.026-73.332c-.114-2.45-1.353-4.716-3.94-4.488-2.88.254-2.149 2.165-2.323 4.25z"/></g><g data-name="Gruppe 1270"><g data-name="Gruppe 13"><path data-name="Pfad 13" d="M361.005 120.24c.108.177.177.306.26.423a21.646 21.646 0 004.715 4.8 28.306 28.306 0 0010.545 4.812 32.66 32.66 0 0012.758.423 26.15 26.15 0 008.88-3.157 20.128 20.128 0 007.303-7.137 23.823 23.823 0 002.92-8.149 24.5 24.5 0 00.304-6.178 28.858 28.858 0 00-4.637-13.4 42.585 42.585 0 00-9.762-10.593 57.84 57.84 0 00-11.349-6.924.742.742 0 00-.442-.155 1.53 1.53 0 00-.007.154 7.372 7.372 0 01-.9 4.066.628.628 0 00-.1.274c-.033.378-.08.753-.122 1.129a92.36 92.36 0 01-.565 4.33c-.146.922-.27 1.842-.445 2.755a22.145 22.145 0 01-.761 3.326.575.575 0 00-.033.215c.038.59-.122.792-.717.886-.796.135-1.59.274-2.377.453a10.022 10.022 0 00-3.2 1.254 14.031 14.031 0 00-1.725 1.305.882.882 0 01-.633.24 1.523 1.523 0 01-1.297-1.594 2.01 2.01 0 01.473-1.055 6.565 6.565 0 011.514-1.27c.517-.333 1.052-.627 1.588-.924a3.642 3.642 0 001.04-1.067.614.614 0 00-.41.026 4.864 4.864 0 01-1.027.276c-.432.092-.864.187-1.294.272a2.66 2.66 0 00-1.99 1.629c-.098.222-.22.434-.34.648a.813.813 0 01-.544.401 1.42 1.42 0 01-1.289-.092 1.079 1.079 0 00.152.74.61.61 0 01.01.629 9.79 9.79 0 01-.643 1.111c-.23.347-.466.686-.665 1.054a1.516 1.516 0 00-.198.808c.008.272.024.54.033.808a2.644 2.644 0 01-.812 1.982.728.728 0 01-1.163-.098c-.115-.161-.21-.332-.33-.487a.85.85 0 00-.471-.357 1.12 1.12 0 01-.89.978c-.299.108-.599.226-.895.32-.74.223-1.482.437-2.226.648a.473.473 0 00-.371.338 21.393 21.393 0 00-.861 3.604 16.633 16.633 0 00-.19 1.606c-.01.145.029.222.176.26a6.666 6.666 0 001.661.27c.482.002.594-.089.749-.538a.793.793 0 011.056-.577 6.435 6.435 0 01.736.234 3.904 3.904 0 011.268.642.615.615 0 00.618.155c.117-.03.238-.048.356-.084a27.343 27.343 0 003.065-1.02 13.995 13.995 0 013.655-.923 4.85 4.85 0 011.823.078 1.746 1.746 0 011.367 1.547 2.918 2.918 0 01-.01.766c-.07.437-.156.87-.255 1.301a1.3 1.3 0 00.473 1.443 3.827 3.827 0 011.036 1.388 14.326 14.326 0 01.85 2.35 1.883 1.883 0 01-.291 1.637c-.217.325-.482.615-.726.923-.431.534-.458.407-.186 1.14a14.73 14.73 0 00.92 1.878 4.747 4.747 0 01.51 1.452 1.37 1.37 0 01.022.688c-.125.343.047.503.301.643.076.04.151.084.226.123a.827.827 0 01.273 1.332c-.066.087-.197.149-.202.307.154.071.308.139.459.208a1 1 0 01.646 1.278 1.084 1.084 0 00-.068.448 3.364 3.364 0 011.349.17c.691.21 1.385.408 2.076.621a1.385 1.385 0 00.685.042 1.49 1.49 0 01.8 0 .544.544 0 01.285.88.983.983 0 01-.396.32 3.929 3.929 0 01-.765.258 10.978 10.978 0 01-2.84.26 5.021 5.021 0 01-2.879-.86 4.847 4.847 0 00-.975-.5c-.87-.337-1.78-.536-2.665-.829a11.231 11.231 0 01-2.597-1.19 75.807 75.807 0 01-4.116-2.888 63.05 63.05 0 01-2.773-2.18c-.231-.192-.243-.191-.425.032a1.419 1.419 0 01-1.052.526 4.279 4.279 0 01-1.043-.1m17.77-51.943a1.982 1.982 0 00.696.295 60.999 60.999 0 0112.79 6.287 54.054 54.054 0 0112.301 10.78 40.942 40.942 0 017.044 11.887 30.883 30.883 0 012.034 11.353 28.422 28.422 0 01-.379 4.165 27.125 27.125 0 01-.927 3.89 24.93 24.93 0 01-9.102 12.885 29.965 29.965 0 01-10.714 4.936 38.119 38.119 0 01-11.143 1.047 39.83 39.83 0 01-8.37-1.289 35.532 35.532 0 01-11.516-5.285 26.482 26.482 0 01-7.538-7.979 24.547 24.547 0 01-2.5-18.846 23.919 23.919 0 013.62-7.46 34.939 34.939 0 016.287-6.556 73.868 73.868 0 016.397-4.626c1.89-1.25 3.813-2.452 5.663-3.762a23.992 23.992 0 002.496-1.989c.303-.287.585-.59.86-.906a3.885 3.885 0 00.979-2.582 10.58 10.58 0 00-.863-4.32 1.77 1.77 0 01-.173-.635 1.3 1.3 0 011.064-1.385c.093-.02.202.012.278-.07z" fill="#008fc3"/></g><g data-name="Gruppe 25"><path data-name="Pfad 25" d="M398.994 103.48a2.989 2.989 0 00.25.196 7.52 7.52 0 012.226 2.207 8.346 8.346 0 001.724 1.843 6.998 6.998 0 011.234 1.202c.157.21.201.201.458.07a1.288 1.288 0 01.268-.116.475.475 0 01.606.335 1.234 1.234 0 01.048.433 19.44 19.44 0 01-.953 5.813 20.13 20.13 0 01-3.596 6.682 17.769 17.769 0 01-6.084 4.818 1.308 1.308 0 01-.957.098c-.18-.052-.356-.095-.53-.157a.48.48 0 01-.359-.533 4.498 4.498 0 00-.144-1.778c-.06-.262-.108-.528-.165-.789a.622.622 0 01.26-.677 2.715 2.715 0 00.395-.38 1.407 1.407 0 00.309-1.364 3.549 3.549 0 00-.387-.872 12.309 12.309 0 00-1.06-1.453.739.739 0 01-.14-.807c.35-.945.046-1.467-.942-1.695a6.13 6.13 0 00-2.008-.074 8.497 8.497 0 00-2.526.592 1.468 1.468 0 01-.612.103c-1.15-.05-2.297-.106-3.447-.141a2.344 2.344 0 01-1.3-.41 28.999 28.999 0 01-2.654-2.09.717.717 0 01-.27-.611 1.442 1.442 0 00-.046-.472.546.546 0 00-.326-.407c-.346-.144-.428-.326-.331-.669a13.895 13.895 0 00.379-2.762 6.657 6.657 0 01.343-2.056 2.648 2.648 0 011.31-1.467 7.921 7.921 0 01.778-.334 1.092 1.092 0 00.708-.78c.097-.315.19-.633.296-.945a1.538 1.538 0 011.032-1.05c1.793-.589 3.614-1.07 5.447-1.512.42-.101.84-.185 1.259-.269a2.148 2.148 0 01.439-.044.5.5 0 01.547.668 1.947 1.947 0 00-.065.544.36.36 0 00.299.36 4.135 4.135 0 001.272.13 1.561 1.561 0 011.07.301 2.122 2.122 0 00.56.271 1.156 1.156 0 001.462-.493 2.5 2.5 0 00.13-.26.605.605 0 01.773-.385 5.142 5.142 0 001.532.113 2.304 2.304 0 001.46-.618 1.506 1.506 0 00.482-1.259.92.92 0 00-1.195-.85 2.43 2.43 0 00-.7.317.7.7 0 01-.94-.068c-.3-.25-.594-.513-.889-.765a.7.7 0 00-.206-.15.337.337 0 00-.35.011c-.085.076-.026.19 0 .276a5.052 5.052 0 00.181.52.49.49 0 01-.066.58.544.544 0 01-.584.092 1.074 1.074 0 01-.417-.294c-.634-.628-1.254-1.27-1.938-1.854a7.054 7.054 0 00-1.758-1.182 1.052 1.052 0 00-.494-.114c-.148.012-.239.07-.183.237a.415.415 0 01.025.109.686.686 0 01-.842.81.934.934 0 01-.484-.247.379.379 0 00-.398-.092 2.751 2.751 0 00-2.006 1.513c-.24.508-.518 1-.767 1.501a.744.744 0 01-.707.44c-.827.025-1.662.051-2.494.064a.675.675 0 01-.771-.659 3.204 3.204 0 01.286-1.862.692.692 0 01.781-.342c.462.053.924.11 1.386.16.583.067.62.04.704-.534.017-.071.016-.146.025-.218.08-.436-.167-.686-.506-.874-.194-.109-.423-.19-.415-.454s.223-.36.427-.454a2.875 2.875 0 00.75-.456 1.624 1.624 0 00.564-.923.655.655 0 01.455-.525 2.62 2.62 0 00.591-.292.258.258 0 00.11-.37c-.182-.39-.133-.524.216-.765.092-.06.186-.116.272-.185.148-.12.127-.26-.057-.32a1.844 1.844 0 00-.544-.083 3.699 3.699 0 01-.938-.17 1.5 1.5 0 01-.68-.42.442.442 0 01.116-.776c.135-.078.282-.147.412-.237.244-.167.265-.197.15-.479a1.322 1.322 0 01.354-1.507.85.85 0 01.69-.276c.676.053 1.34.118 2.012.177a5.098 5.098 0 00.626.003.559.559 0 00.548-.394 12.706 12.706 0 011.05-1.986 3.29 3.29 0 01.528-.657.39.39 0 01.467-.08 25.423 25.423 0 018.66 6.122 25.532 25.532 0 013.574 5.584c.433.882.837 1.772 1.215 2.677a.533.533 0 01-.289.808c-.14.077-.283.14-.425.22a.819.819 0 01-.958-.086c-.116-.084-.234-.274-.367-.188-.154.102-.017.29.025.43a2.3 2.3 0 00.84 1.175c.187.145.275.145.423-.05a.64.64 0 011.085.038 2.991 2.991 0 01.581 2.145 8.87 8.87 0 01-.818 2.728 3.492 3.492 0 01-.216.463.536.536 0 01-.94.073 2.007 2.007 0 01-.195-.308 18.923 18.923 0 00-1.968-2.787 6.127 6.127 0 00-1.184-1.095 1.028 1.028 0 00-1.066-.165c-.247.106-.511.161-.829.262" fill="#008fc3"/></g></g></g></g></svg>