<svg xmlns="http://www.w3.org/2000/svg" width="852.099" height="653.793" viewBox="0 0 852.099 653.793">
  <g id="Gruppe_1327" data-name="Gruppe 1327" transform="translate(-557.833 -3610.855)">
    <g id="Gruppe_727" data-name="Gruppe 727" transform="matrix(0.921, -0.391, 0.391, 0.921, 1190.995, 4044.476)">
      <path id="Pfad_5253" data-name="Pfad 5253" d="M2.308,0A7.437,7.437,0,0,1,0,1.649,6.29,6.29,0,0,1,2.308,0Z" transform="translate(207.108 12.182)"/>
      <path id="Pfad_5254" data-name="Pfad 5254" d="M.018.016,0,.018.032,0Z" transform="translate(207.075 13.83)"/>
      <path id="Pfad_5255" data-name="Pfad 5255" d="M.745,0C.693.433.329.666,0,.911A1.225,1.225,0,0,1,.745,0Z" transform="translate(45.155 20.412)"/>
      <path id="Pfad_5256" data-name="Pfad 5256" d="M.008.01H0L.011,0Z" transform="translate(45.143 21.323)"/>
      <path id="Pfad_5257" data-name="Pfad 5257" d="M38.871,68.692l.265-.38c-.385-.546-.294.107-.752-.329-.272.263.116.7.48,1.067-.378-.269-.906-.362-.779-.8-.43-.165-.263.38-.764.159-.209-.326-.338-.926-.809-1.037l-.038.055c-1.04-.385-.831-1.473-1.8-1.8l0,.163c-.4-.056-.707-.709-1.318-.929.181.055.473-.052.227-.324-.684-.276-.888-.766-1.464-.877l-.129-.6c-1.883-1.531-8.792-8.191-10.6-9.827l.032.106c-1.345-1.282-3.462-3.165-5.568-5.086-1.556-1.418-3.117-2.84-4.553-4.147-1.771-1.624-3.336-3.1-4.5-4.275A20.437,20.437,0,0,1,3.6,37.5c.664.389.833.192.46-.12-2.557-2.215.156-.2-2.105-2.415-.294-.317-.727-.743-1.266-1.25L.263,33.32c-.106-.134-.458-.286-.12-.4.367-.254.757-.523,1.164-.8,1.615-1.122,3.437-2.428,5.244-3.745,3.583-2.632,7.256-5.312,8.647-6.4a7.963,7.963,0,0,0,1.382-.609l.458-.245.387-.231a5.86,5.86,0,0,1,1.534-.793l-.156-.05c1.047-.448,6.216-4.229,7.457-4.714l-.111.156c1.149-.3.718-.725,1.4-1.339.2.578,1.219.376,1.565.227l-.079-.106a25.51,25.51,0,0,0,2.743-.773l-.194-.267a8.913,8.913,0,0,0,2.542-1.158c1.04-.738,2.487-2.188,4.193-2.61l.528-1.345.186.005s1.719,2.288,3.323,4.979,3.1,5.779,2.721,7.348l.184.274-.4.163c-.372.383-.761.159-.575.43l.6-.363c-.407.326-.009.31.251.381a1.643,1.643,0,0,0-.439.43c-.149-.064,0-.156.038-.254-.3.027-.782-.063-1,.231-.446.277.224.483-.3.806-2.705,1.765-5.222,3.629-8.055,5.212.005.154.079.106.19.111-.917.371-1.633.867-2.474,1.2a.833.833,0,0,0-.091.478l.929.424c1.434.208,3.948.355,6.984.661,3.038.265,6.6.705,10.192.838l5.31.3c1.728.084,3.387.233,4.918.224l7.043.091-.229-.057,3.737.048c1.366-.005,2.843-.082,4.393-.129s3.178-.109,4.841-.168S84.5,31.7,86.2,31.542c3.4-.254,6.816-.5,9.956-.693,3.135-.249,5.983-.577,8.284-.723a29.871,29.871,0,0,1,4.778-.988c-.8.252-.48.473.159.376,4.456-.793.337.2,4.879-.412,1.316-.138,3.543-.474,6.216-.92,1.343-.2,2.771-.543,4.261-.861s3.028-.677,4.565-1.02l4.528-1.042c1.448-.408,2.836-.8,4.105-1.153,2.533-.723,4.585-1.332,5.7-1.7,2.592-.048,5.466-1.431,7.929-1.789l-.274-.05c.648-.141,2.023-.546,3.767-1.083l2.847-.893c1-.363,2.043-.743,3.09-1.126,2.1-.757,4.207-1.522,5.973-2.161.886-.308,1.687-.586,2.356-.82s1.2-.446,1.566-.559l-.358.222c2.614-.671,2.066-1.085,3.964-2.028-.041.662,2.223.138,3.06-.141l-.08-.109a60.673,60.673,0,0,0,6.291-1.828l-.208-.267a47.977,47.977,0,0,0,6.1-2.44c2.727-1.269,6.588-3.89,10.375-5.271L201.925.084,202.306,0a31.43,31.43,0,0,1,4.03,4.651c1.79,2.6,3.144,5.763,1.209,8.062l.229.252-1,.449c-1.1.727-1.819.655-1.593.91l1.6-.834c-1.14.67-.236.417.3.358a9.841,9.841,0,0,0-1.291.831c-.29,0,.111-.206.263-.362a7.962,7.962,0,0,0-2.42.9c-1.2.627.158.514-1.243,1.248-3.647,2.032-7.376,3.745-11.086,5.541q-1.4.661-2.8,1.323l-1.405.657-1.434.6c-1.919.788-3.856,1.561-5.826,2.315-.131.2.08.109.329.077-1.209.4-2.333.816-3.432,1.223a32.757,32.757,0,0,1-3.294,1.1,2.07,2.07,0,0,0-.788.786A45.87,45.87,0,0,0,166.64,31.9c-1.549.523-3.115,1.053-4.306,1.457-1.2.363-2.025.623-2.07.655l-.331-.519c-2.4.709-.5.856-2.755,1.38-1.106-.542-3.654,1.187-4.546.988.036.059-1.04.408-.9.639-.457-.34-1.144.238-1.862.32-.285-.059.149-.175.3-.369-.537.1-1.081.172-1.622.26-.58.3-.662.6.023.473l-5.53,1.576c-2.507.684-5.491,1.588-8.547,2.232-3.044.7-6.1,1.384-8.683,1.941-1.287.3-2.474.462-3.471.63s-1.815.281-2.388.349c.525-.437,1.967-.446,2.4-1.069-1.251-.095-1.746.4-2.329.181-.322.868-2.6.636-3.378,1.592l-.417-.39-.553.376c-2.679.211-2.987.2-3.212.258a13.514,13.514,0,0,1-2.707.534c-2.737.279-4.111-.183-5.595.24.224-.032.789-.385.07-.412-.072.414-1.908-.045-2.2.4-.7.038-2.925.372-2.229-.267a5.055,5.055,0,0,1-1.144.471c-.39.125-.584.229.025.3a7.952,7.952,0,0,1-1.819.133l.852-.226c-2.288.116-3.495.644-5.024.281l.824-.29c-1.366.084-2.508.14-3,.725l1.414.045a34.2,34.2,0,0,1-5.539.136l.673-.072c-.306-.041-.77-.068-1.35-.084-.584-.039-1.285-.072-2.066-.1l-5.3-.15c-1.864-.05-3.72-.1-5.249-.181a19.364,19.364,0,0,1-3.287-.44l1.01-.424-1.9-.347c.224-.005.935,1.361,1.123,1.223l-5.731-.05-4.259-.036c-1.508-.046-3.079-.141-4.648-.208l-8.842-.381c-2.573-.2-4.6-.328-5.545-.333-1.534.111-.326.643-.313.711-1.835-.3-.761-.508-2.333-.6-.435.041.061.335.3.414-.684-.106-1.336-.011-1.372-.211.876-.082.557-.63.949-.938L36.223,44.6l.059.335c-.449-.039-1.056-.96-3.042-1-.335-.027-.682-.066-1.02-.1a86.408,86.408,0,0,0,6.76,5.842c.61.22.519-.433.557-.487.455.6-.05.544.447.927.179.054.188-.272.154-.381.176.218.464.274.351.437-.358-.109-.589.38-.92.541l.641.492.186-.272c.143.109-.242.978.473,1.362,1.1.766,2.129,1.8,3.2,2.623.113-.163-.025-.435-.163-.707.143.109.317.328.535.329-.473.05.276.544-.013.489.22,1.251,1.663,1.529,1.966,2.51-.415.6-6.707,10.61-7.269,11.26a1.5,1.5,0,0,0,.537.329C39.474,69.238,39.008,68.964,38.871,68.692Z" transform="translate(0 0)"/>
    </g>
    <g id="Gruppe_1281" data-name="Gruppe 1281" transform="translate(553.992 359.622) rotate(9)">
      <path id="Pfad_4984" data-name="Pfad 4984" d="M1517.277,2651.03s-47.272-54.337-52.135-59.39-20.182-14.424-20.182-14.424l-4.09,27.943-125.121-13.519s-6.284,38.354-3.395,39.79,123.879,16.284,123.879,16.284v19.7h32.481Z" transform="translate(-732.996 892.838)" fill="#fff"/>
      <g id="Gruppe_729" data-name="Gruppe 729" transform="translate(783.264 3580.015) rotate(-172)">
        <path id="Pfad_5160" data-name="Pfad 5160" d="M0,0C.023.045.064.027,0,0Z" transform="translate(60.107 87.74)"/>
        <path id="Pfad_5161" data-name="Pfad 5161" d="M.265.018C.255.009.247.009.237,0,.145.079.065.145,0,.192Z" transform="translate(31.738 67.185)"/>
        <path id="Pfad_5162" data-name="Pfad 5162" d="M.056.045.049,0C.008.057-.04.109.056.045Z" transform="translate(27.959 63.163)"/>
        <path id="Pfad_5163" data-name="Pfad 5163" d="M.109.013A.206.206,0,0,1,0,0,.085.085,0,0,0,.109.013Z" transform="translate(42.895 74.197)"/>
        <path id="Pfad_5164" data-name="Pfad 5164" d="M.025.005,0,0C0,.03.005.056,0,.093Z" transform="translate(68.594 93.49)"/>
        <path id="Pfad_5165" data-name="Pfad 5165" d="M.11.427C.063.283.237.316.3.33A.3.3,0,0,0,.031,0C-.08.145.144.283.11.427Z" transform="translate(68.298 93.16)"/>
        <path id="Pfad_5166" data-name="Pfad 5166" d="M0,.008c.032,0,.061.016.093.018A.077.077,0,0,0,0,.008Z" transform="translate(47.903 66.779)"/>
        <path id="Pfad_5167" data-name="Pfad 5167" d="M.172,0,0,.235A.969.969,0,0,0,.172,0Z" transform="translate(81.991 102.239)"/>
        <path id="Pfad_5168" data-name="Pfad 5168" d="M0,.2A1.029,1.029,0,0,0,.113.011L.1,0Z" transform="translate(24.03 59.705)"/>
        <path id="Pfad_5169" data-name="Pfad 5169" d="M0,.112l.206-.1a.193.193,0,0,0-.149,0A.829.829,0,0,0,0,.112Z" transform="translate(6.112 40.359)"/>
        <path id="Pfad_5170" data-name="Pfad 5170" d="M.081,0A.89.89,0,0,0,0,.064c.038.151.278.364.609.6L.846.4Z" transform="translate(19.09 54.589)"/>
        <path id="Pfad_5171" data-name="Pfad 5171" d="M.116.031.086,0,0,.374Z" transform="translate(16.414 51.619)"/>
        <path id="Pfad_5172" data-name="Pfad 5172" d="M.328.151A.449.449,0,0,0,0,0C.26.3.31.262.328.151Z" transform="translate(9.567 46.549)"/>
        <path id="Pfad_5173" data-name="Pfad 5173" d="M.174,0,0,.12C.125.154.167.093.174,0Z" transform="translate(5.614 39.69)"/>
        <path id="Pfad_5174" data-name="Pfad 5174" d="M.047.308C.057.306.061.3.072.294.041.179.016.079,0,0Z" transform="translate(50.925 9.375)"/>
        <path id="Pfad_5175" data-name="Pfad 5175" d="M.006.061.045.077C.013.015-.012-.052.006.061Z" transform="translate(55.664 8.197)"/>
        <path id="Pfad_5176" data-name="Pfad 5176" d="M0,.086A.223.223,0,0,1,.052,0C.011.011,0,.045,0,.086Z" transform="translate(41.217 15.369)"/>
        <path id="Pfad_5177" data-name="Pfad 5177" d="M.059.063.075.047A.672.672,0,0,1,0,0Z" transform="translate(15.661 26.603)"/>
        <path id="Pfad_5178" data-name="Pfad 5178" d="M0,0C.131.039.034.165,0,.206c.168.1.283.07.367-.043C.3-.005.1.106,0,0Z" transform="translate(15.736 26.443)"/>
        <path id="Pfad_5179" data-name="Pfad 5179" d="M.05,0C.036.025.014.043,0,.07A.07.07,0,0,0,.05,0Z" transform="translate(45.329 23.308)"/>
        <path id="Pfad_5180" data-name="Pfad 5180" d="M.075.28,0,0A1.335,1.335,0,0,0,.075.28Z" transform="translate(3.194 31.96)"/>
        <path id="Pfad_5181" data-name="Pfad 5181" d="M0,0A1.094,1.094,0,0,0,.117.186l.013,0Z" transform="translate(59.791 6.466)"/>
        <path id="Pfad_5182" data-name="Pfad 5182" d="M0,0,.016.224A.188.188,0,0,0,.065.095.734.734,0,0,0,0,0Z" transform="translate(82.038 0.131)"/>
        <path id="Pfad_5183" data-name="Pfad 5183" d="M.735.107A.66.66,0,0,0,.71.008,1.269,1.269,0,0,0,0,.243L.138.569Z" transform="translate(65.135 4.745)"/>
        <path id="Pfad_5184" data-name="Pfad 5184" d="M81.973,0a.845.845,0,0,0,.065.1l0-.063A.237.237,0,0,1,82.1.194c.047.077.065.149-.045.179l0-.05a1.255,1.255,0,0,1-.536.247L81.35.256c.05.739-2.266.039-2.633.2-.566-.21-.751.516-1.3.552-.765.271-.6-.274-1.1-.358-.55.036.283.321.115.436L75.664.93c.292-.2.025-.3-.1-.394-.489.188-1.52-.011-1.335.693-.78.023-.912-.227-1.2-.12.149.068.38.081.448.206-.394-.147-.084.131.05.14-.24.477-2.578-.134-2.3.6l-.065-.126c.176.561.575.989.453,1.411l-.3-.138-.156.358c-.265-.075-.247-.258-.28-.323-.316.463-1.072.491-1.638.692l1.278,1.122c-.615-.1-1.757-.344-1.617.154L68.4,4.87c-1.357-.453-.432.708-.928.617l-.713-.292.455-.215a5.119,5.119,0,0,1-1.375-.274l0,.016a.128.128,0,0,1,.082.056l-.057.043a.614.614,0,0,1-.4.721c-.486.152-.649.71-1.64.521l.082.62-.7-.046-.21-.423c.541-.238,1.457-.9,2.126-1.257l-.084-.2c-.4.2-.767.618-1.054.708-.172-.018-.722-.292-.622-.7l-.045.538a5.642,5.642,0,0,1-2.965.95l.226.152c-.217.26-.437.518-.683.212a4.13,4.13,0,0,1-2.694.235l.122.559c-.192.059-.823-.565-.572.177l-.276.4c-.263.079-.276.436-.694.281h0c-.027-.011-.054-.02-.082-.034l.023.039c-.66.043.222.446-.552.461-.375-.258.079.744-.285.778l-.654-.57c-.756-.145-.509.622-1.319,1.013A1.252,1.252,0,0,1,51.931,8.7c-.043.828.041.507-.28,1.048-.2-.237-.177-.319-.188-.613-.568-.118-.142.368-.466.5a5.858,5.858,0,0,1,.339,1.5l.2.1a.951.951,0,0,1-1.027.656l-.106-.265-.353.325-.181-.317-.545.38.122.05a1.292,1.292,0,0,1-.864.385l-.077-.186c-1-.229-1.26.808-2.1,1.265l-.059-.426c-.466-.237.185.613-.253.588l-.229-.452c-.032.746-.459.054-.778-.077l.376.557L45,13.775c-.534,0-.62-.638-.7-.982l-.082.613-.3-.507c.063.721-.265,0-.5.509-.124-.186-.079-.346-.249-.373l-.292,1.043.231-.509.308.8c-.131.773-.581.161-.767.509l.091-.321c-.38.4-.556.081-.9.029.147.108.369.265.226.453-.118.107-.2-.238-.369-.265.2.532-.005.962-.421.853a.739.739,0,0,1-.057-.206c-.039.118-.018.271-.21.206l-.181-.613-.013.667c-.244-.082-.31.45-.462.05l.047-.16-1.377.446-.224-.455c.154.7-.823.077-.427.853-.439-.323-.839.742-1.092-.221-.893.312-.975,1.391-2.223,1.409-.71-.6-1.628.095-2.339.308-1.181.893-1.907,1.559-3.16,2.377-1.273-.724-1.877,1.233-3.011,1l-.061.527c-.868-.427-1.413.776-2.511.453a1.276,1.276,0,0,1-.246.407c.047.006.136.063.267.326-.314-.093-.69.342-.88-.213l.036-.081c-.19-.556-.606.548-1.063.188l.384.52-.484.086.072-.16c-1.4,2.094-3.029.6-4.37,2.515-.014-.733-.224.479-.527-.206-.812-.688-.774.532-1.058.918a.38.38,0,0,1,.025.138l-.692.183c.041-1.038-.183.921-.12.027-1.982.025-3.963,1.583-6.077,2.06l.176.194c-.523.151-1.049.668-1.574.453s-.62.9-.755.995c-.272.554-.955-.077-.758-.108-.411.281-.527,1.253-1.285,1.147-.5-.663-1.436,1.382-1.775.545l.022.074c-1.029-.3-1.409,1-2.477.789a.768.768,0,0,1,0-.138L0,36.168l1.554,2.644,2.4,1.721,1.83-.948a.526.526,0,0,1,0,.074l.143-.1c.267.414.007.751.118.986a.828.828,0,0,0,.063-.1l-.059.027a.2.2,0,0,1,.117-.124c.05-.075.111-.12.2-.023l-.047.022a1.646,1.646,0,0,1,.514.439l-.215.283c.685-.326,1.2,2.228,1.554,2.527.1.638.893.545,1.214,1.078.663.652.05.692.231,1.217.323.531.16-.4.359-.276l.247.814c-.346-.212-.3.091-.328.245.437.412.791,1.506,1.368,1.056.434.764.264.989.516,1.228-.013-.174-.124-.407-.039-.521.066.446.17.034.108-.1.581.057,1.244,2.588,1.8,2.035l-.086.113c.445-.391.642-.948,1.11-.993l.025.346.427.014a.332.332,0,0,1-.16.4c.611.133,1.041.866,1.536,1.344l.389-1.694c.235.642.609,1.864,1.011,1.531l-.05.633c.3,1.51.909.143,1.088.667l.108.812-.452-.36a5.868,5.868,0,0,1,.484,1.457l.013-.011a.125.125,0,0,1,.009-.1l.072.038a.709.709,0,0,1,.9.106c.409.418,1.027.355,1.386,1.4L22,55.738l.335.7-.287.373c-.522-.437-1.646-1.075-2.352-1.588l-.143.161c.41.316,1.006.509,1.248.755.075.176.115.825-.324.887l.534-.17a7.552,7.552,0,0,1,2.531,2.526l.02-.283c.367.107.733.219.579.582a5.244,5.244,0,0,1,1.714,2.544l.459-.346c.163.163-.075,1.038.486.489l.538.1c.22.224.566.09.654.559v0c.005.029.011.059.014.093l.025-.04c.41.626.3-.4.746.348-.036.471.656-.382.893-.041l-.17.873c.289.8.871.24,1.7.869a1.158,1.158,0,0,1-.631,1.491c.8-.3.453-.251,1.144-.163-.111.294-.2.307-.47.439.208.6.427-.014.735.246.437-.376,1.093-1.007,1.219-.957l-.016-.235a1.217,1.217,0,0,1,1.2.721l-.188.213.505.208-.2.308.667.371-.023-.141a1.7,1.7,0,0,1,.853.678l-.133.152c.359,1.072,1.475.889,2.386,1.5l-.366.24c.047.552.468-.441.7-.007l-.29.416c.717-.289.316.421.376.785l.3-.6.317.421c.31.516-.238.873-.516,1.1l.622-.181-.3.509c.636-.369.154.256.764.265-.1.2-.278.226-.2.4l1.142-.163-.608-.007.568-.642c.8-.206.488.493.92.523l-.353.05c.6.2.4.5.547.857.014-.19.034-.473.29-.416.169.068-.108.3-.034.471.38-.428.9-.409,1.04.038a.613.613,0,0,1-.16.145c.134-.014.264-.1.315.113l-.466.441.627-.278c.068.271.6.1.317.423l-.176.025,1.221,1.131-.29.416c.554-.454.552.76,1.041.038-.043.566,1.179.484.434,1.151.817.724,1.861.333,2.617,1.52-.134.948,1.054,1.522,1.672,2.11,1.529.735,2.57,1.142,4.08,1.965.1,1.545,2.262,1.235,2.732,2.425l.52-.183c.129,1.029,1.563.995,1.936,2.189a1.484,1.484,0,0,1,.522.045c-.023-.047-.025-.16.136-.405.106.343.731.5.341.938l-.095,0c-.391.439.871.325.819.927l.242-.608.375.421-.192.005c2.757.364,2.4,2.606,4.972,2.974-.656.36.572-.012.138.6-.122,1.094.963.482,1.486.568a.311.311,0,0,1,.109-.09l.592.57c-.964.453.946-.263.1.1,1.257,1.853,3.888,3,5.754,4.766l.054-.263c.491.421,1.321.651,1.5,1.253s1.24.115,1.423.187c.683-.043.627.927.459.76.559.228,1.479-.2,1.968.543-.186.846,2.307.466,1.879,1.251l.045-.061c.613,1.084,2.008.582,2.78,1.594a.71.71,0,0,1-.109.09c1.1-.491,2.167-1.027,3.185-1.6.038-.21.084-.414.124-.622l.882-.169,2.363-.83-.708-1.292.81-1.212-.66-2.606-.7-.1c1.117-.668-.326-1.167.45-1.832l-.584.059c-.052-.154.308-.187.405-.239-.308-1.454-1.262-2.881-.679-4.291.369-.172.1-.534.495-.681a1.119,1.119,0,0,1-.782-1.246l.066.009-.134-.19a.626.626,0,0,1,.161-.022c-.541-.17-.072-.588.108-.893l.066.011c-.075-1.645-1.325-3.053-.676-4.761.875-.852-.529-1.6.179-2.544.565-.215-.039-1.923-.328-2.054l-.69.271c-.378-.606.251-.973-.292-1.461l4.022-.341,5.274.914,12.811-.5.9-.7c2.54,1.142,5.741-.281,8.471.5l.041-.588c.764-.054.721.312.912.409,7.111-.289,14.4-1.312,20.822-.8.631.369,2.5.066,3,.457a17.424,17.424,0,0,1,6.333-.891l-.077.068.975-.154a.135.135,0,0,1,.021.161c1.083-.568,2.845-.133,4.209.016l-.077.068c7.9-.246,15.165-1.73,23.034-1.373,3.694.738,7.844-.839,12.065-.326.807.545,9.217-.493,9.941-.821l-1.031-.642c3.115-.545,4.632.047,7.274-.73l-.138.165c.405.133.5-1.474,4.971.136l.005.072c.149-.025.136-.167.452,0l-.781-.375a4.547,4.547,0,0,1,1.389-.683.439.439,0,0,1,.208.323l1.452-.238.486.423c.427-.285.143-1.237,1.382-.8-.506-.634.561-.45.385-.78.066.077.213.19.333.3a5.742,5.742,0,0,0,2.327-.8,23.933,23.933,0,0,1-3.7-1.845c1.013.1.256-.1.041-.314l-.054.172c-.611-.115-.645-.538-.954-.631a.527.527,0,0,0,.027.115l.032-.059a.163.163,0,0,1-.005.17c.014.09-.007.165-.172.153l.027-.047a2.75,2.75,0,0,1-.871.036l-.032-.355c-.389.71-3.062-.783-3.657-.762-.633-.4-1.33.213-2.094.047-1.2-.023-.635-.471-1.255-.731-.762-.165.183.4-.115.448l-.93-.425c.514-.082.217-.274.113-.4-.778,0-2.042-.559-2.226.167-1.067-.26-1.09-.543-1.538-.543.16.118.464.212.477.355-.439-.281-.194.091-.018.149-.613.358-3.4-1.052-3.47-.265l-.011-.142c-.106.588.172,1.133-.249,1.484l-.316-.237-.428.279c-.314-.167-.177-.33-.183-.4a6.9,6.9,0,0,1-2.631.057l1.043,1.511c-.769-.312-2.162-.955-2.275-.437l-.484-.5c-1.559-.912-1.009.509-1.626.244l-.789-.529.747-.039a7.977,7.977,0,0,1-1.7-.749l-.005.016a.128.128,0,0,1,.079.081l-.1.021c-.072.294-.446.516-.973.532-.749-.032-1.3.432-2.535-.1l-.26.61-.916-.292-.029-.47c.877-.031,2.511-.317,3.635-.416l.005-.217c-.667.045-1.412.3-1.855.287-.22-.081-.8-.532-.425-.877l-.382.488a12.1,12.1,0,0,1-4.591-.172l.217.224c-.453.167-.9.33-1.056-.045a8.076,8.076,0,0,1-3.8-.742l-.165.566c-.3-.013-.787-.823-.884-.04l-.617.28c-.405-.02-.633.31-1.11.018h0l0,0a.9.9,0,0,1-.091-.061.347.347,0,0,0,.009.047c-.925-.2.036.495-1.025.235-.357-.376-.33.724-.846.625l-.554-.765c-.946-.405-1.061.4-2.395.477a1.025,1.025,0,0,1-.611-1.534c-.543.762-.24.489-.995.882-.134-.292-.056-.36.1-.64-.7-.312-.409.294-.928.3-.12.572-.247,1.479-.414,1.524l.21.167a1.929,1.929,0,0,1-1.78.249l.009-.285-.672.177-.061-.36-.964.161.138.091a2.832,2.832,0,0,1-1.405.054l.007-.2c-1.239-.57-2.192.308-3.6.439l.167-.419c-.5-.387-.1.64-.687.461l-.052-.5c-.473.687-.66-.113-1.02-.348l.194.654-.661-.109c-.733-.188-.482-.817-.393-1.17l-.468.545-.122-.581c-.328.7-.364-.093-.977.3-.061-.219.091-.353-.125-.439l-1,.873.609-.394-.038.859c-.624.679-.887-.054-1.343.206l.31-.269c-.751.242-.808-.12-1.246-.29.14.154.355.38.052.507-.224.057-.136-.3-.353-.38a.726.726,0,0,1-1.066.651.492.492,0,0,1,.041-.213c-.122.1-.181.246-.407.118l.1-.638-.4.618c-.289-.161-.681.314-.661-.115l.156-.133-2.142-.068-.05-.506c-.183.7-1.172-.219-1.068.649-.421-.459-1.572.4-1.373-.593-1.405-.022-2.128.959-3.85.538-.638-.812-2.291-.484-3.388-.534-2.128.421-3.5.789-5.679,1.117-1.35-1.126-3.268.5-4.7-.12l-.375.475c-.961-.706-2.373.231-3.712-.457a2.157,2.157,0,0,1-.561.3c.059.02.152.106.19.4-.384-.2-1.14.079-1.1-.507l.093-.063c.041-.588-1.136.3-1.57-.2l.246.622-.717-.089.188-.126c-3.071,1.473-4.515-.495-7.4.832.373-.692-.568.371-.62-.376-.751-.929-1.357.229-1.956.491a.252.252,0,0,1-.039.138l-1.056-.07c.615-.957-.746.8-.181-.016-2.757-.667-6.331.1-9.515-.183l.142.242c-.807-.039-1.807.264-2.424-.12s-1.332.631-1.57.67c-.667.425-1.283-.4-1-.362-.715.122-1.384.993-2.382.629-.344-.8-2.712.8-2.748-.1l-.011.075c-1.276-.633-2.475.455-3.85-.116a.557.557,0,0,1,.072-.129l-2.793,2.755.8,3.017.8.8a.914.914,0,0,0-.215.07l.117-.012-.057,0a.672.672,0,0,1,.17-.011l.025,0,.013.011c-.014,0-.021-.009-.038-.009l-.113.014.163.007.072.072a.3.3,0,0,1-.045.117l-.355.032c.683.032-.972.72-.982.848-.434.167.136.272-.072.45-.091.262-.506.174-.8.328-.206.178.41-.07.439-.009l-.473.233c-.054-.106-.262-.025-.4.007-.045.168-.67.486.041.469-.317.253-.6.28-.627.378a1.589,1.589,0,0,1,.38-.133c-.3.118.081.036.147-.007.319.106-1.221.819-.443.774l-.142.014A9.19,9.19,0,0,1,82,77.684l-.253.088.258.07a1.043,1.043,0,0,1-.411.072c.281.127-.016.373-.075.566l1.554-.35c-.348.192-1.058.547-.549.529l-.52.145c-.979.412.459.177.168.332l-.561.215-.005-.16a4.735,4.735,0,0,1-.821.43h.016a.26.26,0,0,1,.084-.023l.016.02c.289-.009.493.054.486.167-.066.165.371.246-.213.558l.6.006-.333.222-.468.047c.009-.186-.2-.518-.251-.753l-.213.016c.014.142.237.281.2.38a1.822,1.822,0,0,1-.889.167l.468.041c.1.466.122.466-.359,1.011l.231-.066c.147.084.292.167-.086.233-.048.3-.312.64-.886.893l.556-.016c-.023.066-.848.246-.074.2l.258.107c-.032.09.289.109-.02.238h0v0l-.065.025.047-.005c-.224.217.495-.054.2.2-.384.113.71.005.6.127l-.78.19c-.434.242.364.194.394.475a3.278,3.278,0,0,1-1.545.276c.739.047.48.005.844.132a2.135,2.135,0,0,1-.633.039c-.333.183.28.061.274.172.565-.027,1.464-.086,1.5-.054l.17-.061c.314.084.466.2.2.36l-.283.025.16.129-.36.048.133.192.1-.038c.054.043.2.187.016.3l-.2.018c-.6.324.246.446.344.737l-.414.005c-.4.147.633-.041.443.1l-.5.061c.674.036-.124.154-.367.255l.656-.106-.124.154a2.605,2.605,0,0,1-1.17.2l.531.047-.579.084c.687,0-.1.088.278.181a1.561,1.561,0,0,0-.439.072l.846.129-.378-.093.853-.077c.66.066-.073.2.176.269l-.26-.039c.224.138-.138.186-.315.3a.948.948,0,0,1,.5-.063c.052.043-.3.059-.385.115.568-.052.88.031.626.165a2.02,2.02,0,0,1-.211.012c.095.016.242.014.111.075l-.633.043.609.023c-.165.079.3.115-.125.154l-.129-.02-.1.468-.5.063c.7-.032-.237.276.627.163-.462.14.371.3-.609.359-.043.3.914.358.482.772-.452.126-.554.28-.57.432C77.8,89.185,75.61,87.587,73.4,86.01l-.975.109c-.812-2.128-3.623-2.562-4.763-4.51l-.391.437c-.489-.332-.235-.6-.289-.765-4.428-3.243-9.38-6.068-12.842-9.663-.142-.6-1.429-1.3-1.473-1.853a10.524,10.524,0,0,1-4.277-2.488l.086-.014-.667-.371a.169.169,0,0,1,.09-.136c-.993-.109-1.744-1.335-2.443-2.14l.086-.012c-4.763-3.8-9.914-6.383-14.206-10.717-1.642-2.472-5.039-3.418-7.107-6.016-.113-.823-5.55-4.454-6.173-4.587l.165,1.025c-2.124-1.221-2.587-2.477-4.583-3.287l.186-.052c-.14-.315-1.251.848-2.707-2.737l.043-.058c-.052-.032-.1-.018-.143-.036l.618-.066q4-1.721,7.98-3.493l.321-.866c2.031.462,3.549-1.622,5.571-1.547l-.188-.558c.464-.231.572.118.73.163,4.42-1.957,8.67-4.646,12.946-5.705.541.19,1.615-.538,2.081-.3a8.256,8.256,0,0,1,3.685-2.339l-.021.081.559-.378a.186.186,0,0,1,.077.145c.47-.785,1.757-.808,2.682-1l-.023.081c4.933-2.129,8.961-5.247,14.1-6.828,2.646-.224,4.65-2.674,7.539-3.237.735.3,5.659-2.7,5.983-3.176l-.129-.048.068.005,0-.005-.082-.005-.16-.057c.109.014.251.025.242.063.565.027,1.464.061,1.5.086l.177-.029c.3.084.441.176.156.267l-.283-.005.143.1-.364,0,.111.145.1-.02c.047.034.172.147-.018.208l-.2,0c-.633.174.192.33.256.54l-.412-.03c-.409.068.635.025.43.108h-.507c.665.081-.142.1-.394.145l.663-.018-.14.1a3.673,3.673,0,0,1-1.187.04l.522.077-.586.009c.681.059-.109.054.256.151a2.213,2.213,0,0,0-.445.011l.826.161-.366-.095.855.018c.649.1-.1.131.143.2l-.253-.05c.206.115-.158.116-.348.179a1.336,1.336,0,0,1,.507,0c.047.034-.3.016-.4.047.57.013.871.1.6.168-.081,0-.16-.005-.212-.011.093.02.24.031.1.063l-.635-.025.6.068c-.174.041.285.106-.143.1l-.125-.025-.156.316h-.507c.7.038-.267.17.6.168-.475.056.333.238-.649.194-.077.208.868.33.387.579-.835.082-.566.332-.656.493a8.768,8.768,0,0,1,.921.857c-1.165.185.4.491-.264.7l.462.061c-.737.135.161.355-.559.545a1.368,1.368,0,0,1,.283.086,1.887,1.887,0,0,1,.4-.021c-.206.054.05.168-.536.156l-.061-.014c-.586-.014.272.172-.235.23l.627-.029-.106.106-.12-.03c1.389.473-.606.663.665,1.108-.685-.063.359.088-.391.088-.943.1.2.2.452.3.038,0,.081,0,.138.007l-.091.156c-.946-.1.785.118-.02.027-.712.4.005.939-.326,1.409l.244-.02c-.047.12.247.271-.143.358s.617.2.656.24c.418.1-.418.186-.375.143.117.108.981.215.608.36-.8.043.785.409-.12.4l.075,0c-.638.183.445.371-.134.57,0,0-.066-.005-.127-.013l2.741.439,3.022-.091,2.456-.337-.523-.979.966-.769-.308-1.895-.679-.142c1.194-.36-.172-.85.683-1.242l-.588-.014c-.034-.113.33-.1.434-.129-.122-1.052-.894-2.14-.145-3.078.387-.088.163-.368.574-.436-.715-.312-.706-.638-.629-.945l.065.012-.111-.145a.969.969,0,0,1,.163,0c-.518-.167,0-.419.21-.618l.065.012c.117-1.165-.968-2.258-.14-3.408.963-.529-.353-1.167.45-1.776.584-.108.158-1.361-.117-1.473l-.713.138c-.324-.468.393-.678-.179-1.081l.154.023c.165-.056-1.434-.1.525-.724h.072c-.013-.022-.154-.023.036-.066l-.437.108a2.344,2.344,0,0,1-.547-.2l.023-.018a2.154,2.154,0,0,1,.3-.02l-.084-.154.091-.081.335-.045A1.9,1.9,0,0,0,85.4,2.1a1.77,1.77,0,0,0,.629-.878,16.5,16.5,0,0,1-3.124-.76c.685-.158.118-.158-.106-.294l.039.168C82.407.385,82.206.009,81.973,0ZM11.1,38.632a3.1,3.1,0,0,1-1.226-.226.329.329,0,0,1,.005-.151l1.086-.113ZM76.445,7.991h0L76.377,8h.047c-.246.133.5,0,.177.154-.4.047.7.061.577.136l-.8.068c-.457.134.341.165.342.362a4.631,4.631,0,0,1-1.567.064,2.147,2.147,0,0,1,.823.163,3.033,3.033,0,0,1-.633-.027.213.213,0,0,0-.1.041l-.505-.181A8.5,8.5,0,0,1,76.49,7.83C76.46,7.887,76.759,7.926,76.445,7.991Z" transform="translate(0 0.032)"/>
        <path id="Pfad_5185" data-name="Pfad 5185" d="M.246.259.282.248,0,0Z" transform="translate(68.968 3.715)"/>
        <path id="Pfad_5186" data-name="Pfad 5186" d="M.288,0C-.047.088-.035.147.053.213A.348.348,0,0,0,.288,0Z" transform="translate(75.514 0.355)"/>
        <path id="Pfad_5187" data-name="Pfad 5187" d="M.082.2.037,0C-.033.091,0,.154.082.2Z" transform="translate(82.722 0)"/>
        <path id="Pfad_5188" data-name="Pfad 5188" d="M.3.009.3,0,0,.012Z" transform="translate(78.942 84.73)"/>
        <path id="Pfad_5189" data-name="Pfad 5189" d="M.057.012.087,0C.017.007-.052.012.057.012Z" transform="translate(79.757 83.124)"/>
        <path id="Pfad_5190" data-name="Pfad 5190" d="M.062.02A.17.17,0,0,1,0,0C0,.014.022.02.062.02Z" transform="translate(80.716 88.136)"/>
        <path id="Pfad_5191" data-name="Pfad 5191" d="M0,0A.28.28,0,0,0,.045.018C.048.005.027,0,0,0Z" transform="translate(89.574 86.998)"/>
        <path id="Pfad_5192" data-name="Pfad 5192" d="M0,.034.219,0l0,0Z" transform="translate(79.855 81.674)"/>
        <path id="Pfad_5193" data-name="Pfad 5193" d="M.194,0l-.1,0C0,.047-.012.134.009.245L.362.217Z" transform="translate(80.713 79.65)"/>
        <path id="Pfad_5194" data-name="Pfad 5194" d="M.338.012.343,0,0,.077Z" transform="translate(81.181 78.512)"/>
        <path id="Pfad_5195" data-name="Pfad 5195" d="M.029,0C-.039.113.022.111.119.088.129.048.108.016.029,0Z" transform="translate(81.064 76.196)"/>
        <path id="Pfad_5196" data-name="Pfad 5196" d="M.055.006c-.059-.021-.086.02,0,0Z" transform="translate(122.076 65.921)"/>
        <path id="Pfad_5197" data-name="Pfad 5197" d="M0,.306C.018.306.025.3.043.3.068.181.093.079.118,0Z" transform="translate(166.915 63.023)"/>
        <path id="Pfad_5198" data-name="Pfad 5198" d="M0,.059.045.088C.038.018.043-.054,0,.059Z" transform="translate(174.159 63.607)"/>
        <path id="Pfad_5199" data-name="Pfad 5199" d="M0,.063A.307.307,0,0,1,.12,0,.114.114,0,0,0,0,.063Z" transform="translate(150.241 65.214)"/>
        <path id="Pfad_5200" data-name="Pfad 5200" d="M.048.081.079.07C.054.047.027.029,0,0Z" transform="translate(108.872 66.755)"/>
        <path id="Pfad_5201" data-name="Pfad 5201" d="M.158,0C.217.072.061.136,0,.159A.465.465,0,0,0,.532.247C.529.086.274.089.158,0Z" transform="translate(108.951 66.665)"/>
        <path id="Pfad_5202" data-name="Pfad 5202" d="M0,0C.009.014.03.023.047.034A.174.174,0,0,0,0,0Z" transform="translate(109.062 66.631)"/>
        <path id="Pfad_5203" data-name="Pfad 5203" d="M.106,0C.072.018.032.029,0,.049A.113.113,0,0,0,.106,0Z" transform="translate(151.344 74.102)"/>
        <path id="Pfad_5204" data-name="Pfad 5204" d="M0,.289.042,0A.849.849,0,0,0,0,.289Z" transform="translate(88.713 67.45)"/>
        <path id="Pfad_5205" data-name="Pfad 5205" d="M0,0A.811.811,0,0,0,.048.217h.02Z" transform="translate(180.825 63.459)"/>
        <path id="Pfad_5206" data-name="Pfad 5206" d="M.145.111A.708.708,0,0,0,.118,0L0,.217A.273.273,0,0,0,.145.111Z" transform="translate(214.578 65.529)"/>
        <path id="Pfad_5207" data-name="Pfad 5207" d="M1.086.17a.5.5,0,0,0,.023-.1A2.673,2.673,0,0,0,.009.033L0,.388Z" transform="translate(188.951 63.954)"/>
        <path id="Pfad_5208" data-name="Pfad 5208" d="M.032,0,0,.005C.022.253.063.154.032,0Z" transform="translate(212.938 69.931)"/>
        <path id="Pfad_5209" data-name="Pfad 5209" d="M.175.331l.055,0L0,0Z" transform="translate(194.914 64.171)"/>
        <path id="Pfad_5210" data-name="Pfad 5210" d="M.035.128A.706.706,0,0,0,.479.012C-.024-.027-.044.035.035.128Z" transform="translate(205.703 63.472)"/>
        <path id="Pfad_5211" data-name="Pfad 5211" d="M.468.292C.731.29.62.153.452,0L0,.083C.152.129.31.246.468.292Z" transform="translate(216.557 68.836)"/>
        <path id="Pfad_5212" data-name="Pfad 5212" d="M.053.206.117,0C-.033.061-.021.134.053.206Z" transform="translate(215.624 65.667)"/>
        <path id="Pfad_5213" data-name="Pfad 5213" d="M.049.006c-.052-.021-.077.02,0,0Z" transform="translate(117.305 23.348)"/>
        <path id="Pfad_5214" data-name="Pfad 5214" d="M0,.3A.266.266,0,0,0,.039.3C.063.183.084.079.106,0Z" transform="translate(157.838 20.96)"/>
        <path id="Pfad_5215" data-name="Pfad 5215" d="M0,.058.041.089C.034.017.039-.053,0,.058Z" transform="translate(164.386 21.595)"/>
        <path id="Pfad_5216" data-name="Pfad 5216" d="M0,.062A.245.245,0,0,1,.108,0,.1.1,0,0,0,0,.062Z" transform="translate(142.767 23.001)"/>
        <path id="Pfad_5217" data-name="Pfad 5217" d="M.041.081.07.07A.619.619,0,0,1,0,0Z" transform="translate(105.362 23.973)"/>
        <path id="Pfad_5218" data-name="Pfad 5218" d="M.1,0C.246.088.063.168,0,.192a.389.389,0,0,0,.479.1C.477.107.174.136.1,0Z" transform="translate(105.432 23.851)"/>
        <path id="Pfad_5219" data-name="Pfad 5219" d="M.1,0A1,1,0,0,0,0,.047.1.1,0,0,0,.1,0Z" transform="translate(143.738 31.9)"/>
        <path id="Pfad_5220" data-name="Pfad 5220" d="M0,.289.043,0A.9.9,0,0,0,0,.289Z" transform="translate(87.123 24.292)"/>
        <path id="Pfad_5221" data-name="Pfad 5221" d="M0,0A.9.9,0,0,0,.045.217a.055.055,0,0,1,.018,0Z" transform="translate(170.413 21.487)"/>
        <path id="Pfad_5222" data-name="Pfad 5222" d="M.1,0,0,.215a.232.232,0,0,0,.129-.1A.678.678,0,0,0,.1,0Z" transform="translate(200.984 23.65)"/>
        <path id="Pfad_5223" data-name="Pfad 5223" d="M.98.171A.469.469,0,0,0,1,.069a2.212,2.212,0,0,0-1-.038L0,.386Z" transform="translate(177.767 22.024)"/>
        <path id="Pfad_5224" data-name="Pfad 5224" d="M78.412,0c-.489.756-.215.488-.9.875-.122-.294-.052-.362.09-.64-.638-.317-.369.29-.839.3-.108.57-.22,1.477-.371,1.52l.19.168a1.6,1.6,0,0,1-1.61.233l.009-.285-.608.174-.056-.362-.873.154.125.091a2.322,2.322,0,0,1-1.271.043l.005-.2c-1.12-.581-1.982.29-3.259.409l.151-.418c-.452-.393-.091.638-.62.454L68.533,2c-.428.683-.6-.118-.921-.357l.174.656-.6-.117c-.661-.194-.434-.821-.351-1.172l-.425.54L66.3.973c-.3.694-.328-.1-.884.29-.056-.22.084-.353-.113-.439l-.905.862.55-.389-.036.859c-.565.672-.8-.061-1.214.194l.28-.265c-.679.235-.73-.129-1.124-.3.125.154.319.384.045.507-.2.054-.122-.3-.319-.384-.025.57-.507.895-.964.64a.556.556,0,0,1,.038-.213c-.111.1-.165.246-.369.115l.095-.638-.36.615c-.262-.165-.617.307-.6-.122l.142-.131-1.936-.091-.043-.507c-.169.7-1.059-.231-.968.638-.38-.464-1.423.38-1.239-.608-1.269-.038-1.927.936-3.483.493-.572-.821-2.067-.513-3.058-.577-1.925.394-3.167.747-5.139,1.043-1.21-1.144-2.959.452-4.25-.183l-.344.468c-.86-.719-2.147.2-3.35-.509a1.8,1.8,0,0,1-.511.287c.056.022.138.109.167.4-.342-.2-1.029.063-.986-.523l.086-.061c.043-.588-1.032.283-1.418-.221l.215.626-.647-.1.172-.124c-2.795,1.429-4.074-.566-6.7.715.348-.687-.518.36-.556-.389-.665-.939-1.23.208-1.775.461a.261.261,0,0,1-.038.136l-.952-.086c.568-.948-.686.787-.165-.02-2.481-.715-5.723-.007-8.6-.353l.124.246c-.728-.056-1.638.229-2.187-.167s-1.217.6-1.432.64c-.611.412-1.153-.428-.893-.382-.651.108-1.273.966-2.167.584-.3-.8-2.468.746-2.481-.159L6,3.926c-1.142-.658-2.25.4-3.481-.2A.718.718,0,0,1,2.59,3.6L0,6.3.656,9.334l2.151,2.493L8.8,11.4l4.761,1.015q5.813-.1,11.623-.271l.828-.683c2.285,1.183,5.207-.186,7.672.631l.045-.588c.692-.041.649.323.821.423,6.451-.177,13.066-1.108,18.884-.516.57.378,2.264.095,2.716.491a14.389,14.389,0,0,1,5.745-.819l-.07.066.884-.145a.149.149,0,0,1,.02.163c.984-.559,2.579-.108,3.815.056l-.068.066c7.166-.168,13.749-1.6,20.883-1.2,3.357.758,7.109-.8,10.942-.269.737.552,8.357-.463,9.009-.791l-.941-.643c2.818-.534,4.2.056,6.586-.717l-.122.167c.369.133.432-1.472,4.51.142l.007.07c.134-.023.122-.165.409,0l-.713-.373A3.916,3.916,0,0,1,118.286,7a.455.455,0,0,1,.2.323L119.8,7.08l.446.421c.382-.285.109-1.235,1.24-.794-.468-.635.5-.45.335-.78.063.077.2.19.308.3a4.816,4.816,0,0,0,2.1-.8,21.317,21.317,0,0,1-3.386-1.843c.92.1.231-.1.032-.314l-.045.174c-.556-.117-.593-.54-.875-.633a.65.65,0,0,0,.025.117l.03-.061a.179.179,0,0,1,0,.172c.014.09,0,.163-.152.151l.023-.047a2.2,2.2,0,0,1-.789.036l-.036-.353c-.341.708-2.784-.783-3.322-.762-.579-.4-1.2.21-1.895.043-1.084-.025-.583-.473-1.147-.733-.692-.167.172.4-.1.448l-.848-.427c.466-.081.194-.274.1-.4-.7,0-1.855-.561-2.013.163-.968-.26-.993-.543-1.4-.545.145.118.423.213.436.357-.4-.281-.174.091-.013.147-.552.36-3.085-1.059-3.146-.273l-.011-.142c-.088.588.169,1.133-.208,1.482l-.289-.238-.384.28c-.285-.167-.165-.332-.17-.4a5.686,5.686,0,0,1-2.38.05l.961,1.511c-.7-.312-1.966-.961-2.065-.443l-.441-.5c-1.421-.918-.911.5-1.47.237l-.719-.532L99.2,2.1a6.838,6.838,0,0,1-1.54-.756l-.005.016a.127.127,0,0,1,.072.083l-.093.02c-.061.294-.4.514-.875.529-.679-.036-1.178.427-2.294-.111l-.229.608-.83-.3-.032-.47c.794-.027,2.271-.307,3.286-.4l0-.217c-.6.041-1.274.3-1.676.278-.2-.081-.73-.536-.391-.878l-.342.486A9.915,9.915,0,0,1,90.1.8l.2.224c-.409.165-.816.324-.955-.05A6.771,6.771,0,0,1,85.906.21l-.147.565c-.269-.014-.715-.826-.8-.043l-.556.274c-.366-.023-.572.307-1,.011v0h0c-.027-.02-.054-.038-.082-.061,0,.016.005.031.007.045-.837-.2.036.5-.925.228-.323-.376-.3.722-.762.62l-.505-.769c-.857-.412-.955.393-2.164.461A1.069,1.069,0,0,1,78.412,0Z" transform="translate(81.111 20.73)"/>
        <path id="Pfad_5225" data-name="Pfad 5225" d="M.029,0,0,.005C.023.251.059.154.029,0Z" transform="translate(199.564 28.049)"/>
        <path id="Pfad_5226" data-name="Pfad 5226" d="M.162.331l.05,0L0,0Z" transform="translate(183.161 22.26)"/>
        <path id="Pfad_5227" data-name="Pfad 5227" d="M.032.127a.583.583,0,0,0,.4-.115C-.024-.027-.04.034.032.127Z" transform="translate(192.916 21.587)"/>
        <path id="Pfad_5228" data-name="Pfad 5228" d="M.427.292C.667.29.561.152.407,0L0,.083C.138.129.283.246.427.292Z" transform="translate(202.83 26.954)"/>
        <path id="Pfad_5229" data-name="Pfad 5229" d="M.048.206.1,0C-.031.063-.018.135.048.206Z" transform="translate(201.932 23.787)"/>
        <path id="Pfad_5230" data-name="Pfad 5230" d="M.058.005.088,0C.018,0-.053,0,.058.005Z" transform="translate(76.289 8.036)"/>
        <path id="Pfad_5231" data-name="Pfad 5231" d="M.059.018A.2.2,0,0,1,0,0C-.006.009.021.014.059.018Z" transform="translate(76.677 11.585)"/>
        <path id="Pfad_5232" data-name="Pfad 5232" d="M.082.005.072,0C.048,0,.03.007,0,.011Z" transform="translate(76.935 17.739)"/>
        <path id="Pfad_5233" data-name="Pfad 5233" d="M.192.077C.351.052.364.027.29,0,.109,0,.136.049,0,.059A.3.3,0,0,1,.192.077Z" transform="translate(76.815 17.662)"/>
        <path id="Pfad_5234" data-name="Pfad 5234" d="M0,0C.016.005.023.012.043.018S.027,0,0,0Z" transform="translate(85.607 11.558)"/>
        <path id="Pfad_5235" data-name="Pfad 5235" d="M.289.007,0,0C.12.005.21.007.289.007Z" transform="translate(77.386 20.741)"/>
        <path id="Pfad_5236" data-name="Pfad 5236" d="M0,0,0,.006C.249.007.156,0,0,0Z" transform="translate(85.306 2.45)"/>
        <path id="Pfad_5237" data-name="Pfad 5237" d="M.3.011.3,0,0,.018Z" transform="translate(205.207 42.889)"/>
        <path id="Pfad_5238" data-name="Pfad 5238" d="M.058.016.088,0C.018.009-.054.018.058.016Z" transform="translate(205.895 40.776)"/>
        <path id="Pfad_5239" data-name="Pfad 5239" d="M.063.025A.127.127,0,0,1,0,0C0,.018.024.023.063.025Z" transform="translate(207.315 47.338)"/>
        <path id="Pfad_5240" data-name="Pfad 5240" d="M.077.005.065,0,0,.036Z" transform="translate(209.801 58.644)"/>
        <path id="Pfad_5241" data-name="Pfad 5241" d="M0,.176A.18.18,0,0,1,.194.167C.341.084.342.034.26,0,.082.039.129.126,0,.176Z" transform="translate(209.672 58.477)"/>
        <path id="Pfad_5242" data-name="Pfad 5242" d="M0,0A.391.391,0,0,0,.048.021C.05.005.029,0,0,0Z" transform="translate(216.089 45.686)"/>
        <path id="Pfad_5243" data-name="Pfad 5243" d="M.283,0,0,.057A2.6,2.6,0,0,0,.283,0Z" transform="translate(211.52 63.991)"/>
        <path id="Pfad_5244" data-name="Pfad 5244" d="M0,.043C.088.031.158.018.217.005L.219,0Z" transform="translate(205.89 38.872)"/>
        <path id="Pfad_5245" data-name="Pfad 5245" d="M0,.014.206.032A.19.19,0,0,0,.111,0Z" transform="translate(209.319 29.148)"/>
        <path id="Pfad_5246" data-name="Pfad 5246" d="M.185,0l-.1,0c-.09.056-.1.172-.07.317L.368.285Z" transform="translate(206.63 36.227)"/>
        <path id="Pfad_5247" data-name="Pfad 5247" d="M4.725,1.153l.168,0c-.149.178-.572.215-.683.308l.118-.016L4.27,1.443a.532.532,0,0,1,.17-.009c.09-.011.163-.009.142.038l-.047-.005c.068.063.013.188-.013.242l-.353.034c.685.058-.957.912-.961,1.079-.43.208.147.358-.056.584-.081.339-.5.215-.789.41-.2.228.409-.082.441,0l-.468.3c-.057-.138-.262-.039-.4,0-.039.219-.652.622.059.617-.31.323-.592.353-.615.48a1.308,1.308,0,0,1,.376-.165c-.3.149.082.047.147-.007C2.232,5.179.722,6.087,1.5,6.041l-.142.016A7.161,7.161,0,0,1,2.825,6l-.249.111.262.095a.774.774,0,0,1-.407.088c.289.172,0,.486-.048.738l1.541-.434c-.339.244-1.034.7-.525.681l-.514.185c-.959.527.471.235.188.434l-.55.274-.014-.206a4.2,4.2,0,0,1-.8.552h.016a.243.243,0,0,1,.084-.031l.016.029c.29-.011.5.074.5.221-.056.217.385.326-.183.73l.6.009-.321.29-.468.059a8.312,8.312,0,0,0-.3-.989l-.213.02c.023.184.255.371.224.5a1.415,1.415,0,0,1-.884.212l.471.057c.125.613.152.613-.294,1.326l.228-.088c.154.111.3.221-.07.307A1.515,1.515,0,0,1,.29,12.333l.557-.018c-.02.086-.835.321-.059.256l.267.143c-.027.116.3.142,0,.314h0l-.061.034.045-.009c-.208.287.493-.07.217.263-.378.147.712.006.608.163l-.769.253c-.416.319.38.253.436.622A2.547,2.547,0,0,1,0,14.724c.744.059.48.005.857.172a1.636,1.636,0,0,1-.631.054c-.321.242.285.079.289.226a13.173,13.173,0,0,1,1.506-.083l.167-.081c.323.108.486.253.231.471l-.281.034.17.167-.357.066L2.1,16l.091-.05c.056.056.211.244.041.389l-.2.027c-.572.43.285.581.412.959l-.416.013c-.384.2.633-.061.455.129l-.5.086c.679.036-.111.2-.344.339l.649-.149-.109.2c-.185.235-.808.254-1.156.281l.538.054L.991,18.4c.69-.007-.091.118.3.235-.217.048-.35.025-.432.1l.86.156-.389-.115.848-.116c.67.075-.052.258.2.35l-.265-.048c.238.178-.118.247-.287.4.151-.063.375-.156.5-.09.056.056-.292.082-.375.158.565-.079.886.022.644.2a1.92,1.92,0,0,1-.21.021c.1.02.244.013.12.1l-.633.068.617.018c-.158.106.314.143-.109.2l-.133-.023-.05.615-.5.093c.7-.059-.206.368.649.2-.448.192.407.38-.574.482-.007.4.957.448.574,1-.79.314-.441.728-.473,1.045a16.717,16.717,0,0,1,1.206,1.407c-1.074.579.566.828-.005,1.341l.475.018c-.674.4.289.622-.342,1.124a1.023,1.023,0,0,1,.31.1,1,1,0,0,1,.385-.127c-.183.143.113.3-.464.4L3.377,27.7c-.577.1.332.26-.142.475l.6-.188-.064.219-.129-.029c1.536.57-.332,1.359,1.084,1.893-.694.038.385.083-.344.249-.88.4.278.33.558.441a.777.777,0,0,1,.136-.016l-.025.306c-.963.029.81.039-.011.054-.525.9.4,1.723.274,2.66l.228-.091c.005.229.359.436.018.69s.687.224.74.28c.45.086-.323.441-.3.353.16.17,1.043.152.746.509-.762.278.943.55.065.769l.075-.014c-.534.495.6.565.127,1.072,0,0-.066.009-.127.011l2.847.093,2.881-.941,2.226-1.226-.934-1.594.613-1.59L13.46,28.813l-.719-.1c1.027-.907-.5-1.47.194-2.355l-.577.1c-.075-.194.285-.253.375-.323-.511-1.837-1.637-3.63-1.213-5.451.351-.231.041-.686.423-.884a1.61,1.61,0,0,1-.914-1.572l.066.009L10.94,18a.427.427,0,0,1,.16-.031c-.559-.208-.126-.753.025-1.144l.066.011c-.231-2.1-1.6-3.893-1.067-6.087.821-1.088-.635-2.047.027-3.255.549-.272-.134-2.463-.428-2.635L9.041,5.2c-.419-.8.255-1.269-.389-1.931l.158.025c.154-.12-1.448-.027.385-1.369l.072-.007c-.016-.039-.158-.025.023-.124l-.416.242c-.19-.1-.538-.176-.6-.332a1.12,1.12,0,0,1,.333-.081L8.453,1.24,8.9,1.079c-.26-.1-1.222.045-.712-.324C7.529.936,7.772.631,7.435.7c.081-.025.2-.072.314-.111A1.047,1.047,0,0,0,7.08,0,16.465,16.465,0,0,1,5.035,1.144C5.193.855,4.946,1.079,4.725,1.153Z" transform="translate(204.99 27.714)"/>
        <path id="Pfad_5248" data-name="Pfad 5248" d="M0,.012,0,.021C.249,0,.156-.008,0,.012Z" transform="translate(213.598 29.324)"/>
        <path id="Pfad_5249" data-name="Pfad 5249" d="M.336.016.34,0,0,.1Z" transform="translate(207.032 34.743)"/>
        <path id="Pfad_5250" data-name="Pfad 5250" d="M.026,0c-.063.147,0,.147.093.118C.128.066.107.023.026,0Z" transform="translate(206.812 31.706)"/>
        <path id="Pfad_5251" data-name="Pfad 5251" d="M.292.04C.3-.033.16.006,0,.064.036.132.056.182.056.182.111.137.237.085.292.04Z" transform="translate(212.739 28.24)"/>
        <path id="Pfad_5252" data-name="Pfad 5252" d="M.2.005,0,0A.223.223,0,0,0,.2.005Z" transform="translate(209.514 28.861)"/>
      </g>
    </g>
    <g id="Gruppe_1312" data-name="Gruppe 1312" transform="translate(1042.59 3797.085) rotate(-83)">
      <path id="Pfad_10156" data-name="Pfad 10156" d="M93.968,104.09,28.106,60,4.622,69.58,0,9.382,57.115,0S63.267,8.508,62.3,9.382s-5.186,18.8-5.186,18.8L117.384,69.58,114.8,84.985Z" transform="translate(34.553 27.34)" fill="#fff"/>
      <path id="Pfad_10155" data-name="Pfad 10155" d="M.837,39.174a1.965,1.965,0,0,1,.351-.465c3.49-3.45,7.644-6.3,11.473-9.36,3.939-3.153,7.823-6.372,11.714-9.584C31.723,13.7,38.805,7.21,46.473,1.541A3.417,3.417,0,0,1,50.289.1,4.885,4.885,0,0,1,53.43,2.9c1.582,1.984,2.992,4.139,4.428,6.213l2.591,3.744A29.13,29.13,0,0,1,63.124,16.9a1.918,1.918,0,0,1,.12,1.276,2.31,2.31,0,0,1,.347,1.1,31.645,31.645,0,0,1-.465,8.216c1.237.082,2.472.165,3.706.238l16.321.97c10.882.647,21.777,1.318,32.643,2.2,6.005.485,12.254.633,18.122,2.08a.872.872,0,0,1,.65.527,1.317,1.317,0,0,1,.33.275,48.828,48.828,0,0,1,7.923,10.765,12.147,12.147,0,0,1,1.919,5.572c.092,2.252-.663,4.529-1.143,6.706a105.238,105.238,0,0,0-2.376,27.842,2.175,2.175,0,0,1-2.154,2.154l-8.977-.2a1.951,1.951,0,0,1-2.312-.052l-1.917-.041a2.011,2.011,0,0,1-3.147-.07l-15.668-.345a1.906,1.906,0,0,1-.775-.017l-1.128-.024L101.722,86a1.784,1.784,0,0,1-.612-.013l-3.573-.077a1.745,1.745,0,0,1-1.5-.034c-8.162-.185-16.324-.418-24.473-.925-5.6-.35-11.2-.839-16.771-1.525q-.734,11.005-2.3,21.928A1.663,1.663,0,0,1,52,106.3a2.281,2.281,0,0,1-.29.591c-2.17,3.115-7.358-.168-9.409-1.725a34.022,34.022,0,0,1-7.887-8.715c-1.307-2.02-2.565-4.085-3.7-6.212-2.195-3.3-4.255-6.695-6.393-10.01q-4.944-7.669-9.883-15.34c-3.291-5.115-6.632-10.2-9.916-15.316C4,48.749,3.48,47.915,2.964,47.081l-.073-.105A19.046,19.046,0,0,1,.258,42.8,3.486,3.486,0,0,1,.837,39.174ZM134.29,53.006q-.131-.732-.268-1.463c0,.189-.01.377-.014.566-.006.319-.006.639-.009.957A2.408,2.408,0,0,1,134.29,53.006ZM112.16,81.924l.541.01-.569-.892Q112.146,81.482,112.16,81.924Zm-27.728-.642c-.121-.167-.245-.334-.364-.5a2.436,2.436,0,0,1-.038.488ZM64.546,78.576c.01.066.017.132.023.2.076.023.153.043.23.065-.095-.153-.189-.308-.284-.461C64.525,78.443,64.535,78.51,64.546,78.576ZM64.089,69.2l-.051-.277a2.076,2.076,0,0,1-.017-.658l-.526-.037Q63.793,68.715,64.089,69.2ZM4.932,42.385c.857,1.1,1.631,2.275,2.433,3.417,1.516,2.158,2.955,4.371,4.413,6.568q3.236,4.872,6.453,9.757a1.123,1.123,0,0,1,.49.346,142.016,142.016,0,0,1,8.447,11.661c1.4,2.043,2.808,4.078,4.35,6.016a15.335,15.335,0,0,0,2.226,2.536,1.953,1.953,0,0,0,1.59.466,10.488,10.488,0,0,0,.3-1.822c.338-2.489.682-4.975,1.107-7.451a51.829,51.829,0,0,1,1.5-7.218c.551-1.7,1.537-3.433,3.57-3.082a.9.9,0,0,1,.261.088c.307-.015.6-.02.859-.032a1.186,1.186,0,0,1,.156.008,2.331,2.331,0,0,1,.233-.025c22.542-.788,44.749,4.039,67.171,5.416,6.4.393,12.821.518,19.228.406a1.321,1.321,0,0,1,.6.123,2.089,2.089,0,0,1,.24-.029,113.637,113.637,0,0,1-.124-17.731c.183-4.084.4-8.188.9-12.25q-.1-.732-.19-1.466a1.672,1.672,0,0,1,.624-1.569c.078-.479.154-.958.243-1.436a123.189,123.189,0,0,1-14.673-.153c-5.444-.2-10.881-.472-16.321-.748q-16.324-.824-32.642-1.771c-6.133-.352-12.311-.507-18.4-1.394a1.878,1.878,0,0,1-.549-.165,1.263,1.263,0,0,1-2.172-.467,24.075,24.075,0,0,1-.692-6.724c-.046-2.329-.077-4.665-.042-6.994.056-3.84-.2-7.958.33-11.827-6.091,6.619-13.075,12.52-19.9,18.334-3.762,3.2-7.581,6.347-11.421,9.458C11.834,35.627,8.163,38.911,4.1,41.414A9.958,9.958,0,0,1,4.932,42.385Z" transform="translate(54.094 0) rotate(30)"/>
    </g>
    <g id="Gruppe_728" data-name="Gruppe 728" transform="translate(565.977 4185.146) rotate(-39)">
      <path id="Pfad_5363" data-name="Pfad 5363" d="M0,.257l.34-.1A1.43,1.43,0,0,0,.4.013L.25,0Z" transform="translate(142.367 97.845)"/>
      <path id="Pfad_5364" data-name="Pfad 5364" d="M209.614,56.373a8.527,8.527,0,0,0-3.952-6.434,12.681,12.681,0,0,1-2.737-2.422c-4.5-5.086-8.909-10.247-13.432-15.307-6.384-7.145-12.4-14.622-19.43-21.182a73.875,73.875,0,0,1-5.108-5.922,4.71,4.71,0,0,0-1.5-1.394c-.527-.214-1.751-.091-1.8.106-.524,2.036-2.258,2.8-3.7,3.934-1.966,1.55-1.953,2.878-.055,4.8,1.469,1.492,3.1,2.82,4.574,4.3a11.43,11.43,0,0,1,1.424,2.137.454.454,0,0,1-.1.418c-.113.108-.376.224-.466.166a26.958,26.958,0,0,1-3.453-2.3c-1.963-1.726-3.8-3.6-5.685-5.416-.678-.645-1.421-1.086-2.276-.355a2.345,2.345,0,0,0-.877,2.78,4.166,4.166,0,0,0,1.293,1.568,136.615,136.615,0,0,1,18.757,18.095c1.489,1.694,3.238,3.163,4.788,4.813,2.86,3.047,5.728,6.094,8.46,9.259.05.058.093.123.146.184-1.114-.328-2.22-.668-3.334-.993-1.172-.338-2.387-.5-3.574-.786-1.85-.439-3.707-.847-5.527-1.386-2-.595-3.941-1.414-5.95-1.983Q158.556,40.9,150.96,38.9c-6.394-1.688-12.734-3.566-19.229-4.914-6.318-1.316-12.555-3.044-18.8-4.715-3.2-.857-6.265-2.306-9.5-2.893-4.314-.781-8.42-2.223-12.641-3.276-5.418-1.353-10.968-2.256-16.293-3.889-12.52-3.851-25.469-6.147-37.83-10.554C28.477,5.731,19.636,4.741,11.914.381A2.381,2.381,0,0,0,10.428.023c-.62.129-1.444.431-1.676.9-.194.4.189,1.283.585,1.7a5.06,5.06,0,0,0,1.814,1C14.525,5.01,17.623,7.112,21.36,7.573c.345.04.643.471.963.721a4.7,4.7,0,0,1-1.031,0C16.705,7.231,12.116,6.187,7.545,5.061,5.022,4.436,2.678,4.6,2.8,5.535c.237,1.86,1.794,2.875,3.135,3.909a6.9,6.9,0,0,0,2.447.89c2.87.751,5.751,1.457,8.629,2.18-.035.136-.068.267-.1.4,3.216.809,6.431,1.608,9.64,2.447.2.053.328.413.489.638-.139.086-.275.237-.416.244-.348.02-.7-.086-1.043-.043-2.354.318-4.35-1.28-6.489-1.371A15.924,15.924,0,0,1,12.068,13.2a2.524,2.524,0,0,0-3.316.612c-1.643,1.9-3.624,1.759-5.683.842a13.647,13.647,0,0,0-1.807-.985C.947,13.586.4,13.99.118,14.31a1.013,1.013,0,0,0,.013.97,2.686,2.686,0,0,0,1.172.963c4.786,1.623,9.413,3.659,14.41,4.73,8.516,1.82,16.971,3.926,25.436,5.98,5.247,1.275,10.461,2.7,15.7,4,1.847.459,3.848.451,5.58,1.154,7.3,2.933,15.121,4.108,22.47,6.956,5.181,2.014,10.751,3.032,16.152,4.473,10.622,2.848,21.439,4.826,32.2,7.061,3.417.708,6.787,1.653,10.186,2.45,11.877,2.775,23.762,5.544,35.355,9.34q-7.194,4.608-14.395,9.2c-1.167.738-2.472,1.27-3.717,1.893-5.937,2.956-11.8,6.041-16.928,10.322-.895.748-2.52,1.517-1.87,2.807.922,1.825,2.356-.035,3.579-.078.169-.008.345-.161.5-.131a6.363,6.363,0,0,1,.9.28c-.161.252-.265.58-.489.741-1.7,1.215-3.437,2.369-5.126,3.6-.529.383-1.26.9-.554,1.651a1.781,1.781,0,0,0,1.4.461c2.044-.408,4-.837,5.406-2.777a11.252,11.252,0,0,1,3.657-2.828c2.424-1.371,4.937-2.6,7.452-3.8,2.676-1.278,5.393-2.467,8.107-3.667a2.57,2.57,0,0,1,.935-.015c-.113.267-.151.668-.353.786-3.6,2.137-7.1,4.483-10.854,6.29-4.96,2.387-8.493,6.6-13.006,9.516-.345.222-.471.771-.67,1.222.645.055,1.29.111,1.935.161.748.055,1.467.159.844,1.169-.59.958-2.147,1.953-.731,2.979.615.444,2.261-.325,3.322-.8a4.744,4.744,0,0,0,1.915-1.711c1.88-2.936,4.763-4.491,7.722-6.051,5.7-3.009,11.472-5.922,16.968-9.274C182.485,79.6,190,74.508,197.626,69.591c1.162-.748,2.382-1.948,3.589-1.968,2.374-.033,3.894-1.159,5.416-2.676,1.22-1.212,3.2-2.077,3.692-3.5C210.819,60.015,209.889,58.09,209.614,56.373ZM33.4,18.135a5.58,5.58,0,0,1-1.195-.791c.416-.174.829-.345,1.323-.547.335.454.587.8.842,1.142C34.046,18.014,33.666,18.231,33.4,18.135Zm36.078,6.951c-2.351-.524-4.682-1.147-7.021-1.734.025-.108.053-.217.081-.328-2.334-.587-4.675-1.164-7.006-1.767a4.537,4.537,0,0,1-.874-.471c.381-.086.794-.318,1.139-.244,4.7,1.048,9.4,2.119,14.077,3.251.408.1.706.655,1.053,1A3.783,3.783,0,0,1,69.479,25.086ZM82.8,27.951l-.3-.29.431-.01Zm6.739,1.918a14.7,14.7,0,0,1-1.941-.517c-.2-.086-.292-.431-.433-.663.154-.068.318-.212.459-.189a6.115,6.115,0,0,1,1.5.325c.849.358,1.656.811,2.482,1.227C90.759,29.975,89.918,29.9,89.535,29.869Zm17.132,4.262c-1.363-.189-2.717-.459-4.466-.769-1.1-.37-2.571-.852-4.03-1.363a4.222,4.222,0,0,1-.8-.5,3.8,3.8,0,0,1,1.31-.476,22.459,22.459,0,0,1,8.322,2.331,5.755,5.755,0,0,1,.809.554A3.671,3.671,0,0,1,106.667,34.131Zm83.779,27.714-.055-.02c-.04-.02-.073-.068-.113-.091C190.335,61.771,190.388,61.8,190.446,61.844Zm-3.8-20.133.653.6a2.639,2.639,0,0,1-.542.368c-.068.025-.323-.171-.318-.247A4.044,4.044,0,0,1,186.651,41.711Zm3.3,5.544c-.076-.179.2-.547.383-.779.06-.081.313-.018.738-.02a14.755,14.755,0,0,1,4.244,4.98c-1.1-.335-2.2-.653-3.3-.985A11.138,11.138,0,0,1,189.952,47.255Zm-10.174,6.157a16.833,16.833,0,0,1-3.095-.285c-5.086-1.232-10.156-2.53-15.234-3.808l0,.015c-4.738-1.192-9.491-2.334-14.209-3.6-2.177-.585-4.264-1.5-6.434-2.119-9.037-2.573-18.092-5.093-27.139-7.633a1.159,1.159,0,0,1-.481-.192,3.7,3.7,0,0,1-.446-.62c.149-.06.3-.181.441-.164,1.2.149,2.4.29,3.589.5,2.729.466,5.451.965,8.175,1.457a20.82,20.82,0,0,1,2.051.416c4.672,1.351,9.307,2.84,14.014,4.052,4.211,1.084,8.536,1.744,12.752,2.818,4.73,1.2,9.4,2.664,14.09,4,3.188.912,6.4,1.751,9.554,2.76a9.927,9.927,0,0,1,2.571,1.676C180.053,52.744,179.839,53.412,179.778,53.412ZM166.832,76.439c-3.533,1.878-7.114,3.674-10.68,5.486a4.864,4.864,0,0,1-1.469.524,1.078,1.078,0,0,1-.862-.386.909.909,0,0,1,.013-.882,23.181,23.181,0,0,1,4.1-3.135c4.824-2.394,9.831-4.433,14.617-6.9,4.1-2.107,8.064-4.466,12.066-6.756.388.141.779.27,1.167.413a13.33,13.33,0,0,0,1.331.375,19.381,19.381,0,0,1-1.928,1.326C179.125,69.916,172.974,73.175,166.832,76.439ZM207.026,59.35a4.959,4.959,0,0,1-1.27-1.1c-.076-.108.476-.655.741-1,.431.411.859.824,1.278,1.225C207.4,58.911,207.054,59.365,207.026,59.35Z" transform="translate(0 0)"/>
    </g>
    <g id="Gruppe_1282" data-name="Gruppe 1282" transform="translate(-41 448.733)">
      <path id="Pfad_4985" data-name="Pfad 4985" d="M1629.983,2666.84l-37.872,3.682-22.8,5.933,34.078,35.576,10.586,4.632v-17.988l75.617,34.543,23.741,10.37-17.693-31.557,37.431-18.31v-5.927l-110.453-7.046Z" transform="translate(-342.024 1028.204)" fill="#fff"/>
      <g id="Gruppe_755" data-name="Gruppe 755" transform="translate(1238.935 3659.939) rotate(19)">
        <path id="Pfad_5266" data-name="Pfad 5266" d="M0,.014c.02-.028.046-.008,0,0Z" transform="translate(41.647 19.98)"/>
        <path id="Pfad_5267" data-name="Pfad 5267" d="M.162.165C.156.17.15.169.142.173.087.1.04.043,0,0Z" transform="translate(20.512 29.594)"/>
        <path id="Pfad_5268" data-name="Pfad 5268" d="M.036.029.026.061C0,.013-.024-.031.036.029Z" transform="translate(17.584 31.919)"/>
        <path id="Pfad_5269" data-name="Pfad 5269" d="M.075.02A.146.146,0,0,0,0,.011C.027-.009.052,0,.075.02Z" transform="translate(28.678 26.58)"/>
        <path id="Pfad_5270" data-name="Pfad 5270" d="M.018.065H0C0,.042.011.025.013,0Z" transform="translate(47.97 17.398)"/>
        <path id="Pfad_5271" data-name="Pfad 5271" d="M.114,0C.067.093.188.1.227.1.2.248.117.3.012.286-.045.165.12.108.114,0Z" transform="translate(47.743 17.36)"/>
        <path id="Pfad_5272" data-name="Pfad 5272" d="M0,0A.511.511,0,0,1,.065,0,.053.053,0,0,1,0,0Z" transform="translate(31.308 32.621)"/>
        <path id="Pfad_5273" data-name="Pfad 5273" d="M.108.183,0,0A.857.857,0,0,1,.108.183Z" transform="translate(57.512 13.318)"/>
        <path id="Pfad_5274" data-name="Pfad 5274" d="M0,0A1,1,0,0,1,.059.152L.052.158Z" transform="translate(14.637 33.66)"/>
        <path id="Pfad_5275" data-name="Pfad 5275" d="M0,0,.133.1a.144.144,0,0,1-.1-.022A.824.824,0,0,1,0,0Z" transform="translate(0.963 44.723)"/>
        <path id="Pfad_5276" data-name="Pfad 5276" d="M.049.39A.684.684,0,0,1,0,.334C.038.232.219.12.463,0L.6.222Z" transform="translate(10.851 36.28)"/>
        <path id="Pfad_5277" data-name="Pfad 5277" d="M.05.259.027.277,0,0Z" transform="translate(8.822 38.09)"/>
        <path id="Pfad_5278" data-name="Pfad 5278" d="M.233.066A.277.277,0,0,1,0,.125C.2-.048.231-.015.233.066Z" transform="translate(3.76 40.805)"/>
        <path id="Pfad_5279" data-name="Pfad 5279" d="M.107.11,0,0C.087-.006.11.043.107.11Z" transform="translate(0.579 45.119)"/>
        <path id="Pfad_5280" data-name="Pfad 5280" d="M.024,0c.008,0,.01.007.018.009C.024.1.008.17,0,.228Z" transform="translate(35.542 67.03)"/>
        <path id="Pfad_5281" data-name="Pfad 5281" d="M0,.014.031,0C.01.048-.006.1,0,.014Z" transform="translate(38.977 67.808)"/>
        <path id="Pfad_5282" data-name="Pfad 5282" d="M0,0A.134.134,0,0,0,.037.062C.007.054,0,.031,0,0Z" transform="translate(28.498 63.119)"/>
        <path id="Pfad_5283" data-name="Pfad 5283" d="M.047,0,.057.014A.3.3,0,0,0,0,.045Z" transform="translate(10.648 54.472)"/>
        <path id="Pfad_5284" data-name="Pfad 5284" d="M.015.038C.144-.031.223,0,.274.085c-.061.12-.2.029-.274.1C.1.165.037.068.015.038Z" transform="translate(10.69 54.449)"/>
        <path id="Pfad_5285" data-name="Pfad 5285" d="M.034.049A.4.4,0,0,1,0,0,.047.047,0,0,1,.034.049Z" transform="translate(31.432 57.244)"/>
        <path id="Pfad_5286" data-name="Pfad 5286" d="M.083,0,0,.195A.876.876,0,0,1,.083,0Z" transform="translate(2.282 49.55)"/>
        <path id="Pfad_5287" data-name="Pfad 5287" d="M0,.145A.98.98,0,0,1,.074,0L.083,0Z" transform="translate(42.005 68.715)"/>
        <path id="Pfad_5288" data-name="Pfad 5288" d="M.53.286A.46.46,0,0,1,.518.36.862.862,0,0,1,0,.249L.077,0Z" transform="translate(45.893 69.27)"/>
        <path id="Pfad_5289" data-name="Pfad 5289" d="M.155,0,.181,0,0,.212Z" transform="translate(48.695 69.89)"/>
        <path id="Pfad_5290" data-name="Pfad 5290" d="M.216.128C-.028.1-.024.058.031,0A.244.244,0,0,1,.216.128Z" transform="translate(53.587 71.687)"/>
        <path id="Pfad_5291" data-name="Pfad 5291" d="M.19.114l-.005,0L0,0Z" transform="translate(51.385 25.719)"/>
        <path id="Pfad_5292" data-name="Pfad 5292" d="M.036.02.051.04C.01.008-.032-.021.036.02Z" transform="translate(51.273 27.084)"/>
        <path id="Pfad_5293" data-name="Pfad 5293" d="M.046.014A.1.1,0,0,0,0,.006C0-.006.02,0,.046.014Z" transform="translate(53.825 24.087)"/>
        <path id="Pfad_5294" data-name="Pfad 5294" d="M0,0,.125.1v0Z" transform="translate(50.766 28.062)"/>
        <path id="Pfad_5295" data-name="Pfad 5295" d="M.081.232.019.191C-.022.128.007.065.067,0l.21.154Z" transform="translate(50.511 29.586)"/>
        <path id="Pfad_5296" data-name="Pfad 5296" d="M.184.173l0,.01L0,0Z" transform="translate(50.325 30.623)"/>
        <path id="Pfad_5297" data-name="Pfad 5297" d="M0,.069c.005-.1.042-.077.092-.022C.083.077.055.089,0,.069Z" transform="translate(49.261 32.087)"/>
        <path id="Pfad_5298" data-name="Pfad 5298" d="M.048,0C0,.03-.031.009.048,0Z" transform="translate(84.409 28.399)"/>
        <path id="Pfad_5299" data-name="Pfad 5299" d="M0,.008C.015,0,.024,0,.039,0A2.087,2.087,0,0,0,.174.189Z" transform="translate(123.462 17.963)"/>
        <path id="Pfad_5300" data-name="Pfad 5300" d="M0,.033.033,0C.044.051.065.1,0,.033Z" transform="translate(129.584 15.711)"/>
        <path id="Pfad_5301" data-name="Pfad 5301" d="M0,0A.3.3,0,0,0,.117.01.117.117,0,0,1,0,0Z" transform="translate(108.711 21.188)"/>
        <path id="Pfad_5302" data-name="Pfad 5302" d="M.023,0h.03A.806.806,0,0,0,0,.07Z" transform="translate(72.892 31.345)"/>
        <path id="Pfad_5303" data-name="Pfad 5303" d="M.173.262C.182.209.052.206,0,.206A.484.484,0,0,1,.435,0C.467.109.261.175.173.262Z" transform="translate(72.945 31.139)"/>
        <path id="Pfad_5304" data-name="Pfad 5304" d="M.036,0A.09.09,0,0,1,0,.05.15.15,0,0,1,.036,0Z" transform="translate(73.082 31.401)"/>
        <path id="Pfad_5305" data-name="Pfad 5305" d="M.1.014c-.034,0-.071,0-.1,0A.113.113,0,0,1,.1.014Z" transform="translate(107.561 14.689)"/>
        <path id="Pfad_5306" data-name="Pfad 5306" d="M0,0,.1.191A.514.514,0,0,1,0,0Z" transform="translate(55.37 36.169)"/>
        <path id="Pfad_5307" data-name="Pfad 5307" d="M.013.17A.52.52,0,0,1,0,.005L.018,0Z" transform="translate(135.33 13.882)"/>
        <path id="Pfad_5308" data-name="Pfad 5308" d="M.154.118,0,0A.245.245,0,0,1,.149.033.429.429,0,0,1,.154.118Z" transform="translate(163.636 3.12)"/>
        <path id="Pfad_5309" data-name="Pfad 5309" d="M.984,0c.013.022.038.039.046.065A2.955,2.955,0,0,1,.095.393L0,.148Z" transform="translate(142.079 11.046)"/>
        <path id="Pfad_5310" data-name="Pfad 5310" d="M.045.108l-.029,0C-.028-.063.032-.008.045.108Z" transform="translate(161.171 0.558)"/>
        <path id="Pfad_5311" data-name="Pfad 5311" d="M.068.017.115,0,0,.295Z" transform="translate(147.223 9.37)"/>
        <path id="Pfad_5312" data-name="Pfad 5312" d="M.424.013C0,.181-.028.142.014.057A.759.759,0,0,1,.424.013Z" transform="translate(156.604 7.006)"/>
        <path id="Pfad_5313" data-name="Pfad 5313" d="M.345.021C.572-.052.512.075.406.227L0,.3C.119.221.224.1.345.021Z" transform="translate(164.527 0.077)"/>
        <path id="Pfad_5314" data-name="Pfad 5314" d="M.023,0,.131.124C-.012.124-.02.07.023,0Z" transform="translate(164.517 2.727)"/>
        <path id="Pfad_5315" data-name="Pfad 5315" d="M.185.129C.181.135.177.135.171.138.1.083.045.035,0,0Z" transform="translate(141.031 23.123)"/>
        <path id="Pfad_5316" data-name="Pfad 5316" d="M.038.022l0,.029C.007.012-.03-.025.038.022Z" transform="translate(139.645 25.376)"/>
        <path id="Pfad_5317" data-name="Pfad 5317" d="M.061.013A.1.1,0,0,0,0,.012C.013-.007.036,0,.061.013Z" transform="translate(146.128 19.79)"/>
        <path id="Pfad_5318" data-name="Pfad 5318" d="M.029.054l-.013,0A.361.361,0,0,0,0,0Z" transform="translate(157.112 9.802)"/>
        <path id="Pfad_5319" data-name="Pfad 5319" d="M0,0C0,.086.1.078.127.074.163.2.123.252.04.257-.052.16.05.091,0,0Z" transform="translate(157.001 9.785)"/>
        <path id="Pfad_5320" data-name="Pfad 5320" d="M0,0C.018,0,.033,0,.05,0,.038.018.02.014,0,0Z" transform="translate(150.415 24.782)"/>
        <path id="Pfad_5321" data-name="Pfad 5321" d="M.157.144,0,0A1.1,1.1,0,0,1,.157.144Z" transform="translate(162.568 5.091)"/>
        <path id="Pfad_5322" data-name="Pfad 5322" d="M0,0A1.187,1.187,0,0,1,.1.127L.1.133Z" transform="translate(138.02 27.114)"/>
        <path id="Pfad_5323" data-name="Pfad 5323" d="M0,0,.137.079A.113.113,0,0,1,.051.066Z" transform="translate(131.337 37.647)"/>
        <path id="Pfad_5324" data-name="Pfad 5324" d="M.058.371A.533.533,0,0,1,0,.323C-.006.234.091.121.236,0L.421.185Z" transform="translate(136.168 29.632)"/>
        <path id="Pfad_5325" data-name="Pfad 5325" d="M.13.222.118.239,0,0Z" transform="translate(135.127 31.379)"/>
        <path id="Pfad_5326" data-name="Pfad 5326" d="M.16.056A.152.152,0,0,1,0,.12C.094-.042.129-.015.16.056Z" transform="translate(132.207 34.05)"/>
        <path id="Pfad_5327" data-name="Pfad 5327" d="M.147.243C.087.317.041.212,0,.084L.144,0C.133.067.158.174.147.243Z" transform="translate(132.515 39.952)"/>
        <path id="Pfad_5328" data-name="Pfad 5328" d="M.12.091,0,0C.065-.009.1.033.12.091Z" transform="translate(131.173 38.013)"/>
        <path id="Pfad_5329" data-name="Pfad 5329" d="M.01,0a.112.112,0,0,0,0,.06C-.006.049,0,.027.01,0Z" transform="translate(149.28 55.634)"/>
        <path id="Pfad_5330" data-name="Pfad 5330" d="M.052,0l0,.013C.037.021.021.025,0,.036Z" transform="translate(138.834 46.448)"/>
        <path id="Pfad_5331" data-name="Pfad 5331" d="M0,.155C.083.142.07.053.063.024.185-.026.236.006.245.085.158.186.086.1,0,.155Z" transform="translate(138.824 46.437)"/>
        <path id="Pfad_5332" data-name="Pfad 5332" d="M.008.048C.007.03,0,.017,0,0,.017.009.016.028.008.048Z" transform="translate(153.69 50.766)"/>
        <path id="Pfad_5333" data-name="Pfad 5333" d="M.129,0,0,.169A1.277,1.277,0,0,1,.129,0Z" transform="translate(133.973 41.617)"/>
        <path id="Pfad_5334" data-name="Pfad 5334" d="M0,.147.06,0a.122.122,0,0,1,0,.086Z" transform="translate(167.913 66.73)"/>
        <path id="Pfad_5335" data-name="Pfad 5335" d="M.129.141C-.038.08-.016.041.047,0A.138.138,0,0,1,.129.141Z" transform="translate(164.365 66.544)"/>
        <path id="Pfad_5336" data-name="Pfad 5336" d="M.229,0C.307.044.214.108.1.17L0,.05C.065.046.163,0,.229,0Z" transform="translate(169.947 65.129)"/>
        <path id="Pfad_5337" data-name="Pfad 5337" d="M.076,0,0,.132C-.013.072.022.032.076,0Z" transform="translate(168.278 66.832)"/>
        <path id="Pfad_5338" data-name="Pfad 5338" d="M.034,0A.112.112,0,0,0,0,.037C-.007.028.009.015.034,0Z" transform="translate(51.481 62.88)"/>
        <path id="Pfad_5339" data-name="Pfad 5339" d="M.061,0,.055.008H0Z" transform="translate(49.019 55.125)"/>
        <path id="Pfad_5340" data-name="Pfad 5340" d="M0,.064A.138.138,0,0,0,.128,0c.123,0,.141.028.1.078C.1.118.1.048,0,.064Z" transform="translate(48.946 55.133)"/>
        <path id="Pfad_5341" data-name="Pfad 5341" d="M0,.031C.009.02.012.011.023,0,.031.008.018.02,0,.031Z" transform="translate(57.663 60.655)"/>
        <path id="Pfad_5342" data-name="Pfad 5342" d="M0,.091.123,0A.129.129,0,0,1,.075.057Z" transform="translate(59.413 72.94)"/>
        <path id="Pfad_5343" data-name="Pfad 5343" d="M59.876,72.986l-.1.067c.166-.042.4-.005.2-.115a12.626,12.626,0,0,1,1.7-.116.741.741,0,0,0,.2-.6c-.084.02-.178.038-.237.055.237-.088-.028-.174.452-.322-.456-.021.2-.309.326-.466l-.34.078-.045-.284a.86.86,0,0,1-.239.082c-.018-.116.173-.293.255-.426l.35-.018c-.15.012-.055-.034-.061-.063l-.046.023c-1.643-.087-.607-.646-.748-.656l-.089.074c.158-.633-.429-.653-.464-1.286l.553-.061c.117-.211-.245-1.761-.7-1.712-.853-.464-.289-1.575-1.2-1.911-1.134-1.1-.914-2.672-1.519-4l-.038.03c-.236-.177-.71-.342-.425-.671a.352.352,0,0,1-.113.041l.013-.2-.038.031a1.071,1.071,0,0,1,.02-1.269c-.314.021-.277-.364-.584-.372-.925-.93-.832-2.414-1.155-3.693-.083-.009-.334.084-.353-.059l.406-.145c-.754-.284.022-1.162-.952-1.342l.427-.313-.2-1a1.733,1.733,0,0,0,.2-.038l0,.057c.116-.657,2.064.787,2.444.243.919-.15,1.431.561,2.056.731-.26,0,.363-.538.917-.152.206.057.75.877,1.332.667s1.44.125,2.159.189l-.148.161c2.852.142,5.958,1.1,8.462.91-.433-.657.626.773.162.007l.943.062a.166.166,0,0,1,.024.1c.509.256.953,1.166,1.7.567.108-.542.856.335.582-.211,2.457,1.278,3.9-.006,6.51,1.381l-.157-.111.644.009-.267.43c.423-.321,1.4.451,1.411.017l-.079-.055c.009-.434.661-.154,1.014-.26-.054.211-.144.264-.2.273a2.071,2.071,0,0,1,.477.273c1.241-.364,2.427.464,3.334.041l.3.383c1.32-.309,2.909,1.067,4.191.376,1.914.458,3.109.852,4.973,1.362.98.067,2.431.463,3.05-.071,1.56-.145,2.139.636,3.392.748-.115-.744.856-.012,1.259-.31-.148.628.791.04.91.572l.077-.365,1.91.144-.131-.111c.009-.317.33.067.6-.025l.315.491-.052-.477c.208-.074.252.041.355.124a.309.309,0,0,1-.022-.161.662.662,0,0,1,.908.571c.2-.043.142-.309.338-.248.263.118.058.266-.075.367.4-.087.471-.347,1.125-.1l-.26-.224c.39.23.669-.285,1.183.268l-.017.633-.52-.341.84.727c.2-.044.071-.154.138-.31.522.341.6-.235.852.3l.144-.415.384.441c-.059-.266-.245-.75.417-.824l.6-.024-.21.464c.334-.141.543-.712.927-.166l.075-.367c.529-.08.116.64.584.4l-.124-.323c1.248.219,2.05.939,3.183.625l.005-.149a3.044,3.044,0,0,1,1.248.156l-.128.056.851.2.074-.26.59.186.007-.21a2.05,2.05,0,0,1,1.571.33l-.2.106c.146.046.212.723.29,1.154.462.049.166.472.812.3-.125-.217-.193-.274-.058-.479.653.348.4.125.843.727-.318-.491.024-.948.621-1.079,1.184.162,1.246.763,2.109.541l.532-.52c.464-.03.388.775.723.528.959-.108.069.323.9.255a.288.288,0,0,0-.008.033.757.757,0,0,1,.083-.037h0c.438-.178.625.083.988.1l.534.255c.05.583.525.025.79.038l.121.429a8.465,8.465,0,0,1,3.421-.259c.152-.265.546-.111.942.046l-.2.148a13.356,13.356,0,0,1,4.1.214l.32.385c-.323-.28.212-.571.413-.613.4.018,1.048.262,1.641.341l0-.158c-1-.153-2.44-.481-3.221-.566l.047-.343.827-.15.206.467a4.783,4.783,0,0,1,2.261.108c.468.049.793.239.846.46l.09.022c-.008.025-.034.042-.073.054l0,.013a7.714,7.714,0,0,1,1.538-.431l-.662-.082.721-.332c.558-.152.016.856,1.438.3l.449-.335c.082.389,1.345.009,2.04-.167l-.984,1.04a7.448,7.448,0,0,1,2.341.221c.008-.052-.108-.182.177-.284l.372.236.287-.155c.364.288.1.669.172,1.109l.014-.1c.041.584,2.565-.264,3.1.037-.158.031-.389.289.012.111-.017.1-.292.154-.438.231.4.028.43-.179,1.389-.3.141.546,1.285.216,1.976.265.1-.088.369-.211-.087-.3l.842-.253c.262.053-.595.41.088.338.559-.153.073-.518,1.138-.459a4.174,4.174,0,0,1,1.241.212c-.017.025-.036.05-.051.075l.059-.074h0c-.306.462,1.114.118,1.138.426-.078,0-.315.181-.061.09-.067.082-.2.086-.3.129.133.074.265-.088.694-.063-.265.456.353.34.583.468.088-.059.261-.122.145-.256l.462-.095c.067.076-.46.252-.164.282.3-.05.33-.406.693-.221.3.028.234.5.6.373.166.113,1.617-.337,1.42.145l.165-.2c.062.022.206.075.243.162l.012-.031c.054.018.029.066-.014.118a.273.273,0,0,1-.073.1l.016-.041-.059.063c.133-.005.328-.249.56-.218l-.059.11c.156-.088.47-.087.124-.191a10.531,10.531,0,0,1,1.9-.493c.074-.268-.187-.655-.336-.848-.082.044-.174.086-.228.121.2-.166-.2-.228.227-.522-.559.062-.059-.452-.061-.69l-.327.172-.243-.277c.932-.309,1.924-.576,1.924-.576a5.946,5.946,0,0,0-2.046-.732c-.108.071-.241.145-.3.2.163-.233-.786-.161-.321-.6-1.111.252-.835-.431-1.206-.667l-.442.282-.106-.021a3.279,3.279,0,0,1-1.017-.82l.583-.2c-.066-.312-2.038-2.328-2.5-2.158-1.446-.422-1.915-2.065-3.295-2.288-2.39-1.187-3.75-3.361-5.807-4.98l-.01.052c-.444-.169-1.13-.251-1.166-.778a.206.206,0,0,1-.08.088l-.2-.273-.011.054a2.843,2.843,0,0,1-1.312-1.717c-.317.127-.684-.4-1.025-.317-1.972-.956-3.453-2.966-5.179-4.575-.1.016-.257.231-.434.046l.268-.34c-1.092-.109-1.244-1.573-2.449-1.455l.1-.577-3.052-2.964-1.779-.617L137.23,36.52a2.707,2.707,0,0,1,.343-.234l.093.623c.334-.029,2.786-1.825,2.7-2.329.708-1.44,2.481-1.746,2.965-3.147,1.654-2.337,4.125-3.522,6.142-5.5l-.053-.016c.249-.443.447-1.143,1-1.133a.188.188,0,0,1-.078-.091l.314-.178L150.6,24.5a3.247,3.247,0,0,1,1.982-1.208c-.079-.338.526-.673.492-1.033,1.3-1.959,3.6-3.327,5.516-5,0-.1-.2-.282.017-.451l.31.3c.277-1.118,1.807-1.18,1.857-2.435l.583.139,3.485-2.981.873-1.81,1.974-1.348-.621-1.9-1.333-1.8L163.613,4.2a.7.7,0,0,1,.083.05c-.061.646-.923.368-.928,1.022l-.042-.037c.452.488-.969.23-.65.74-.069.445-.683.151-.928.266.054-.095.319.5-.067.442-.082.038-.781-.318-.742.04s-.371.449-.555.673l-.087-.164c-.66.958-1.955,1.456-2.308,2.511.558.288-.681-.3-.037.055l-.228.307a.334.334,0,0,1-.08-.063c-.284.014-1.026-.445-.741.24.369.41-.409.087.038.359-1.4.036-.758,1.447-2.271,1.463l.111.017-.132.232-.257-.393c.146.376-.6.21-.289.509l.055.009c.31.3-.02.349-.013.553-.141-.165-.161-.234-.157-.26a.741.741,0,0,1-.29-.012c.017.708-.811.579-.686,1.2l-.334-.153c-.038.7-1.339.343-1.1,1.29-.7.391-1.225.562-1.959.9-.243.315-.813.578-.553,1.174-.206.674-.879.351-1.208.733.555.471-.162.323-.029.678-.418-.487-.185.264-.59-.059l.247.279-.483.6.106.029c.224.222-.115.074-.1.236L146,19.449l.352.31c.011.127-.08.065-.159.045a.632.632,0,0,1,.119.1c.005.265-.289.235-.588-.061-.009.1.193.266.11.3-.137.015-.2-.162-.247-.279-.017.206.154.413-.149.485l.211.06c-.241-.016.07.442-.427.249l-.448-.442.348.045-.686-.192c-.009.1.1.132.194.264-.348-.044.048.384-.388.1l.268.339-.39-.162c.2.162.584.429.505.723l-.1.235-.289-.4c.034.22.4.692-.066.456l.245.28c-.049.25-.479-.4-.4-.059l.255.177c-.4.309-1.079.1-1.081.739l.1.106c-.017.206-.277.321-.36.35l-.014-.086-.311.175.17.207-.251.087.148.148c-.026.31-.255.379-.55.349l-.034-.144a5.738,5.738,0,0,1-.88-.693c-.128.136-.369-.265-.375.092a.715.715,0,0,1,.352.31c-.379,0-.169.058-.686-.2a1.167,1.167,0,0,1,.642.975c-.353.323-.793-.071-.808.4l.262.555c-.071.191-.628-.394-.52-.1-.116.426-.244-.2-.361.154l-.022-.025.01.056h0c.038.285-.185.173-.27.293l-.287.021c-.425-.387-.124.174-.186.262l-.328-.253a1.914,1.914,0,0,1-.507,1.434c.157.239-.032.277-.223.314l-.063-.178a2.307,2.307,0,0,1-.979,1.353l-.338-.15c.263.077.36.475.351.578-.094.132-.4.2-.575.364l.112.111c.31-.259.835-.559,1.052-.786l.233.256-.061.408-.373-.249c-.01.62-.376.529-.533.753a.354.354,0,0,1-.5-.011l-.036.017a.1.1,0,0,1-.022-.065l-.01-.007a3.05,3.05,0,0,1-.007.863l.193-.186.088.5c-.005.31-.608-.59-.5.322l.145.4c-.292-.241-.28.485-.3.864l-.537-1.085c-.2.256-.306.674-.63.7a.347.347,0,0,1,.163.261l-.241-.028.05.212c-.277-.067-.493-.43-.819-.711l.07.078c-.421-.392-.334,1.124-.657,1.109.012-.079-.124-.344-.079-.074-.071-.079-.05-.214-.074-.32-.1.127.038.282-.07.718-.414-.329-.415.319-.591.538.044.1.074.282.233.181l.007.484c-.091.059-.168-.5-.256-.2-.007.311.351.389.091.737-.087.3-.561.175-.5.565-.148.156.021,1.7-.431,1.435l.174.194c-.034.062-.116.2-.214.228l.03.017c-.03.053-.074.021-.116-.03a.231.231,0,0,1-.09-.088l.038.022c-.018-.025-.037-.05-.053-.069-.023.136.187.368.11.6l-.1-.076c.059.172-.005.493.17.153a10.493,10.493,0,0,1,.116,2.016c.258.11.708-.11.935-.238-.028-.09-.052-.19-.076-.25.129.223.274-.174.487.3.033-.372.218-.27.41-.141l-.276.933a.811.811,0,0,1,.043-.087c.627-.014.4.851,1.034.78l-.034.045c.446-.495.273.913.748.542.431.014.183.642.309.864-.094-.04.464-.367.43.013.042.074-.261.793.082.712s.452.3.679.458l-.153.1c.963.518,1.525,1.708,2.563,1.918.24-.575-.24.693.056.028l.31.18a.32.32,0,0,1-.056.086c.033.272-.359,1.047.281.684.37-.409.112.384.343-.083.129,1.349,1.441.545,1.564,2l.009-.11.233.1-.36.3c.351-.191.244.551.512.213l0-.056c.266-.339.338-.028.533-.061-.148.157-.214.187-.239.186a.736.736,0,0,1,.009.282c.679-.112.616.706,1.208.5l-.121.343c.675-.061.432,1.245,1.324.88.431.626.637,1.1,1.021,1.762.322.189.621.7,1.173.365.665.1.411.8.807,1.058.4-.6.326.108.654-.071-.431.475.27.139-.007.578l.248-.28.621.376.02-.106c.192-.249.08.1.235.062l-.177.431.266-.385c.121-.03.069.067.058.146a.694.694,0,0,1,.087-.129c.255-.045.252.242,0,.575.1-.007.238-.225.273-.151.027.129-.137.219-.246.28.2-.013.383-.211.48.071l.037-.214c.008.236.418-.133.28.373l-.385.5.012-.342-.123.69c.1-.007.119-.113.237-.227-.011.342.363-.1.133.357l.3-.31-.12.4c.136-.22.356-.629.646-.6l.235.062-.355.34c.208-.067.628-.491.443-.007l.247-.279c.244.008-.338.522-.021.394l.146-.272c.334.341.2,1.021.811.925l.091-.117c.2-.016.334.216.371.293l-.08.026.2.272.183-.2.107.228.128-.166c.3-.024.387.185.387.474l-.135.056a1.374,1.374,0,0,1-.216.4c-2.355-.48-6.812-1.195-7.373-.939-3.763.083-7.37-1.385-10.676-1.121-6.989-.336-13.347-2.008-20.324-2.871l.063.056c-1.215-.007-2.8.161-3.725-.35a.087.087,0,0,1-.03.116l-.853-.2.063.057a18.649,18.649,0,0,1-5.547-1.221c-.467.24-2.1-.149-2.681.06-5.716-.223-12.1-1.665-18.355-2.608-.177.053-.166.324-.837.207l.009-.434c-2.476.3-5.189-1.087-7.526-.518l-.738-.605L63.639,47.214l-4.736.073-5.765-1.174-2.387,1.5-.54,1.134q-.354.459-.7.933l-.666.949a6.73,6.73,0,0,1-.707,1.56l.05-.072c.185-.145.191-.045.178.048s-.035.178.181.059l-.041.038c.245-.22.2-.092.132.038s-.155.256.1.1c.274-.065-.194.281-.272.385.078-.049.488-.212.274-.027-.011.041-.657.407-.372.349s.131.141.193.219l-.174.042c.157.088.2.493.256.8a1,1,0,0,0,.475.8c.531-.284-.6.355.025.029l.125.178a1.007,1.007,0,0,1-.095.039c-.141.167-.908.538-.2.468.528-.16-.149.253.309.028-.72.834.761.644-.022,1.542l.072-.063.117.11L49,57.4c.38-.038-.146.387.26.239l.036-.031c.406-.146.273.057.44.079a.774.774,0,0,1-.293.061.692.692,0,0,1-.162.173c.584.078.049.558.621.559l-.3.182c.547.105-.415.852.481.814a10.851,10.851,0,0,1-.266,1.293c.134.182.062.561.68.462.446.194-.156.575-.007.817.659-.3.183.131.539.082-.6.212.125.139-.34.359l.351-.127.256.355.075-.063c.292-.119,0,.076.144.083l-.385.238.426-.191c.109,0,.013.056-.041.1a1.165,1.165,0,0,1,.141-.065c.22.02.05.2-.338.36.08.014.311-.1.3-.044-.055.087-.232.112-.351.129.161.029.413-.059.326.135l.15-.127c-.129.149.4-.007,0,.286l-.582.242.206-.212L50.872,64c.079.013.156-.05.311-.1-.206.215.336,0-.1.252l.408-.14-.322.231c.231-.114.633-.331.836-.259l.144.083-.467.149c.2,0,.761-.2.342.078l.348-.133c.182.05-.558.27-.243.247l.269-.146c.054.277-.432.684.086.731l.137-.058c.161.025.132.2.116.251l-.078,0v.084c-.93-.536-3.623-1.708-4.035-1.481-2.04-.129-3.537-1.751-5.377-1.713-3.632-.781-6.509-2.821-9.926-4.206l.016.058c-.642-.107-1.543-.082-1.865-.636a.143.143,0,0,1-.055.107l-.386-.258.014.058a5.358,5.358,0,0,1-2.529-1.632c-.33.183-1.063-.324-1.442-.187-2.95-.744-5.823-2.7-8.764-4.25-.112.03-.207.281-.517.1l.165-.4c-1.42.015-2.319-1.57-3.763-1.311l-.158-.638q-2.62-1.452-5.211-2.95L6.314,45.4l-.066-.048c1.278-.31,1.712-1.085,3.179-1.606l-.191.7c.43,0,4.372-1.747,4.518-2.305,1.6-1.517,3.965-1.658,5.28-3.14,3.258-2.378,6.945-3.374,10.493-5.257l-.057-.024c.543-.449,1.165-1.188,1.839-1.1a.134.134,0,0,1-.046-.111l.483-.149-.058-.025a6.3,6.3,0,0,1,3.1-1.03c.086-.381,1.014-.658,1.169-1.051,2.677-1.933,6.275-3.067,9.577-4.55.054-.109-.086-.339.275-.485l.212.376c.971-1.167,2.89-.963,3.668-2.307l.636.252L55.4,21.368a1.3,1.3,0,0,0,.09.111,8.075,8.075,0,0,1-1.094.384c-.049.185-.368.293.079.725.128.431-.514.135-.6.355.615.384.016.2.264.455-.518-.379-.029.157-.468-.111l.3.219-.111.351.091.033c.261.177-.056.037.022.148l-.4-.2.393.252c.061.088-.033.034-.1.012a1.362,1.362,0,0,1,.131.083c.115.181-.119.125-.465-.111.037.069.256.2.206.214-.1-.007-.219-.134-.3-.22.074.139.288.3.091.313l.183.066c-.189-.039.235.309-.216.119l-.52-.356.278.072-.593-.215c.037.069.128.1.256.2-.28-.074.194.265-.248.021l.341.264-.36-.158c.218.135.614.363.677.554l.02.146-.38-.306c.116.154.584.521.139.3l.3.222c.067.165-.522-.331-.324-.091l.264.153c-.175.161-.762-.063-.5.37l.123.084c.071.14-.077.185-.127.194l-.046-.059-.161.08.212.162-.152.028.172.121c.107.207-.036.227-.269.169l-.085-.1c-.038.007-.589-.361-.94-.587-.04.076-.384-.23-.241.015a1.514,1.514,0,0,1,.389.257c-.282-.049-.1.02-.591-.222a2.308,2.308,0,0,1,.878.752c-.131.177-.62-.152-.439.169l.421.416c.024.123-.629-.353-.429-.136.087.277-.262-.17-.206.058l-.028-.021.03.04h0c.144.2-.069.094-.083.166l-.206-.025c-.473-.322-.021.1-.032.157l-.347-.218a.975.975,0,0,1,.2.919c.214.186.088.187-.04.186l-.119-.131c.084.541.069.533-.183.8l-.31-.152a1.275,1.275,0,0,1,.492.45c-.017.078-.215.084-.282.171l.128.094c.127-.137.4-.273.467-.4l.276.208.119.276-.377-.224c.24.429-.069.315-.1.45-.041.078-.2.041-.373-.076l-.018.008a.2.2,0,0,1-.044-.049l-.009-.007a3.3,3.3,0,0,1,.338.6l.069-.1.264.358c.119.215-.686-.5-.244.154l.265.3c-.2-.136-.148.03-.048.236l-.125.029-.531-.536c-.045.15.038.426-.191.4a.729.729,0,0,1,.226.207l-.19-.054.12.155a6.323,6.323,0,0,1-.886-.613l.082.065c-.466-.335.2.736-.049.681-.024-.054-.227-.258-.088-.063a1.144,1.144,0,0,1-.181-.235c-.025.074.14.2.231.492-.435-.29-.182.164-.227.292.07.075.166.208.243.161l.2.34c-.045.029-.322-.377-.269-.179a2.389,2.389,0,0,0,.3.336l-.653,1-.022,2.335,3,1.182a.421.421,0,0,1-.09-.07c1.054-.771,2.324-.331,3.281-1.118l.025.052c-.17-.645,2.216-.161,2.336-.813.776-.524,1.543-.094,2.185-.2-.239.105.107-.642.774-.524.212-.036,1.054.481,1.5.046s1.37-.492,2.053-.737l-.067.208c2.668-1.062,5.909-1.488,8.124-2.7-.669-.418.9.445.152-.061l.891-.335a.168.168,0,0,1,.065.087c.574.021,1.355.667,1.79-.186-.125-.538.923-.049.446-.432,2.78.148,3.572-1.621,6.543-1.426l-.191-.037.595-.256-.069.5c.259-.466,1.473-.164,1.3-.563l-.095-.018c-.17-.4.544-.411.826-.653.036.214-.025.3-.071.33a2.154,2.154,0,0,1,.549.056c.992-.844,2.419-.573,3.081-1.328l.43.229c1.088-.82,3.109-.211,4.007-1.363,1.945-.364,3.208-.481,5.129-.768.928-.335,2.424-.558,2.78-1.3,1.38-.764,2.228-.279,3.427-.677-.4-.637.786-.355,1.039-.79.115.634.745-.281,1.068.161l-.076-.367,1.82-.632-.165-.051c-.117-.293.331-.069.541-.261l.487.324-.239-.418c.164-.15.249-.063.377-.028a.32.32,0,0,1-.086-.138.668.668,0,0,1,1.067.162c.166-.119.008-.34.212-.361.29,0,.16.222.077.367.335-.239.3-.507,1-.543l-.33-.1c.452.056.505-.526,1.2-.225l.236.589-.616-.107,1.064.333c.166-.119,0-.17,0-.339.619.106.462-.455.909-.059l-.033-.438.53.252c-.161-.222-.525-.592.058-.923l.541-.257-.009.509c.252-.263.222-.871.791-.521l-.075-.367c.458-.285.36.541.7.133l-.241-.247c1.24-.3,2.266.054,3.191-.683l-.053-.139a3.06,3.06,0,0,1,1.216-.348l-.1.1.865-.153-.034-.268.618-.061-.077-.2a2.08,2.08,0,0,1,1.584-.315l-.14.174c.153-.016.479.582.72.947.447-.137.339.367.868-.045-.2-.15-.285-.177-.239-.418.74.066.414-.039,1.064.34-.487-.327-.349-.882.153-1.236,1.162-.314,1.453.216,2.166-.326l.29-.687c.418-.21.661.563.876.2.847-.474.189.272.934-.117a.146.146,0,0,0,.005.033c.02-.024.042-.046.062-.066l0,0h0c.336-.334.612-.167.955-.293l.594.025c.274.518.5-.181.748-.27l.279.347a8.591,8.591,0,0,1,3.074-1.564c.038-.3.464-.313.892-.322l-.131.215a13.294,13.294,0,0,1,3.888-1.386l.446.233c-.408-.134-.021-.609.149-.725.375-.135,1.075-.162,1.657-.315l-.058-.148c-.984.241-2.453.493-3.211.715l-.088-.335.712-.456.371.354c.921-.711,1.509-.542,2.143-.77.454-.135.83-.084.963.1l.094-.014a.107.107,0,0,1-.048.079l.008.009a7.834,7.834,0,0,1,1.265-.988l-.646.178.543-.584c.462-.355.342.785,1.451-.281l.29-.479c.225.328,1.257-.5,1.837-.934l-.52,1.337a7.588,7.588,0,0,1,2.264-.688c-.013-.05-.17-.126.057-.328l.435.075.211-.252c.447.128.344.582.58.962l-.026-.1c.261.525,2.29-1.224,2.9-1.145-.136.089-.255.414.051.1.025.1-.212.253-.319.38.383-.125.332-.328,1.18-.8.338.452,1.281-.285,1.943-.5.058-.119.265-.335-.2-.249l.689-.553c.265-.05-.4.605.21.28.466-.352-.128-.508.89-.856.611-.327,1.36-.095,1.8-.549.514-.149,2.421-1.927,2.932-1.543l-.061-.254a2.965,2.965,0,0,1,.753-.218L163.6,3.1c.137-.054.174-.009.185.058a.1.1,0,0,1,.049.116l-.043-.032a.427.427,0,0,0,.005.087c.24-.149.163-.454.657-.7l.088.105c.132-.206.726-.558-.113-.206A22.952,22.952,0,0,1,167.122.215,6.11,6.11,0,0,0,164.933.3c-.076.107-.173.226-.211.3.067-.278-.8.145-.524-.435-.946.65-.943-.088-1.378-.168l-.307.427-1.3.239a.317.317,0,0,1-.1.282A4.685,4.685,0,0,1,159.762.86l.572-.476c-.227.2-.252.1-.385.124l.013.05c-3.411,2.357-3.893,1.269-4.2,1.472l.157.076c-2.447.194-3.593,1.025-6.386,1.506l.72-.729c-.7-.028-8.13,1.576-8.685,2.176-3.478,1.521-7.4,1.567-10.381,3.1-6.634,2.412-13.2,3.373-20.008,5.36l.082.026c-1.13.477-2.534,1.262-3.593,1.162a.087.087,0,0,1,.018.119l-.869.158.081.026a18.966,18.966,0,0,1-5.624,1.108c-.335.408-2,.706-2.456,1.136-5.373,2.106-11.848,3.375-18,5.1-.141.12-.021.363-.686.533l-.171-.4c-2.159,1.285-5.223,1.153-7.138,2.639l-.931-.245-11.08,3.1-2.2,1.05a3.5,3.5,0,0,0,.26-.353l-.046-.017c.008-.276-.131-.736.289-.666a.446.446,0,0,1-.1-.072l.164-.087-.046-.016a.951.951,0,0,1,1-.609c-.2-.24.119-.4-.055-.653.173-1.2,1.343-1.889,2.093-2.836-.045-.069-.272-.211-.178-.3l.363.232c-.266-.728.878-.624.38-1.464l.5.146,1.383-1.688-.116-1.13.4-.314,3.214-2.526-5.786-2.789-.6-.289-.178.524-.08-.319-2.147-1.235a.476.476,0,0,1,.073.069c-.463.682-1.36.216-1.758.917L57.62,13.5c.265.611-1.336.059-1.246.671-.348.464-.931.033-1.3.112.12-.091.1.6-.348.463-.123.026-.774-.487-.939-.1s-.725.414-1.087.621l-.011-.193c-1.38.914-3.276,1.223-4.331,2.3.524.406-.669-.437-.078.054l-.46.293a.256.256,0,0,1-.063-.082c-.359-.034-1.013-.656-1.056.133.22.507-.558.025-.161.394-1.759-.2-1.778,1.434-3.661,1.207l.128.037-.3.231-.093-.468c-.033.431-.865.131-.651.507l.065.018c.212.376-.224.376-.332.6-.082-.2-.067-.279-.046-.307a1.024,1.024,0,0,1-.355-.061c-.383.772-1.339.5-1.536,1.2l-.328-.219c-.443.755-1.86.167-2.092,1.233-1.1.318-1.84.43-2.944.688-.478.309-1.335.512-1.343,1.2-.633.7-1.291.258-1.914.632.433.592-.38.332-.409.737-.255-.589-.376.264-.7-.146l.154.34-.934.594.116.046c.157.273-.183.066-.256.245l-.394-.3.269.387c-.057.141-.134.059-.224.028a.442.442,0,0,1,.092.128c-.138.29-.488.22-.7-.144-.066.112.1.317-.023.339-.179,0-.163-.206-.155-.34-.135.224-.033.473-.451.513l.232.092c-.294-.048-.153.493-.669.219l-.319-.543.409.094-.752-.3c-.067.112.048.158.1.317-.412-.094-.148.426-.541.062l.152.406-.4-.228c.165.2.5.545.24.858l-.256.244-.145-.474c-.076.247.124.811-.33.492l.156.339c-.2.268-.384-.5-.468-.118l.223.227c-.671.286-1.4-.02-1.748.677l.075.129a1.035,1.035,0,0,1-.638.34l.028-.1-.483.153.1.249-.36.065.107.181a.746.746,0,0,1-.873.317l.033-.163c-.091.016-.474-.532-.732-.867-.232.135-.322-.336-.518.057.169.136.228.158.274.382-.472-.045-.241.046-.754-.292a.9.9,0,0,1,.286,1.149c-.612.315-.954-.169-1.222.348l.036.641c-.19.2-.579-.506-.6-.169-.369.456-.2-.248-.534.129l-.013-.032c-.005.023-.012.044-.017.063h0c-.1.316-.322.169-.492.292l-.372-.011c-.33-.472-.247.181-.371.272l-.279-.315a3.254,3.254,0,0,1-1.381,1.53c.073.281-.184.3-.442.322l.01-.2a4.617,4.617,0,0,1-1.926,1.394l-.347-.2c.291.111.208.562.144.675-.185.136-.6.183-.906.344l.083.136c.52-.256,1.332-.537,1.721-.766l.161.306-.285.445-.339-.313c-.331.686-.743.549-1.054.781a.47.47,0,0,1-.619-.062l-.052.016a.093.093,0,0,1,0-.073l-.008-.009a3.865,3.865,0,0,1-.449.953l.335-.186-.14.557c-.165.342-.464-.712-.791.306l-.019.454c-.243-.294-.595.513-.806.93L8.85,38.367c-.373.264-.723.719-1.146.722a.263.263,0,0,1,.075.3l-.29-.053-.044.24c-.314-.1-.4-.522-.671-.861l.05.091c-.332-.471-.987,1.213-1.381,1.171.053-.087.016-.393-.065-.088-.049-.094.045-.243.067-.363-.19.132-.092.317-.445.793-.356-.4-.679.319-1.008.547.005.112-.047.32.2.22l-.232.539c-.144.058.04-.575-.22-.248-.162.345.248.46-.249.827-.259.327-.791.148-.9.583-.262.161-.8,1.891-1.24,1.563l.124.231a.983.983,0,0,1-.38.238l.03.021c-.065.057-.1.017-.132-.043a.168.168,0,0,1-.069-.1l.037.026a.645.645,0,0,0-.033-.08c-.094.15.057.425-.154.679l-.09-.092c-.008.2-.245.547.14.183a4.857,4.857,0,0,1-.276.937l-.036.045,0,.042C.282,47.053,0,47.66,0,47.66a1.054,1.054,0,0,0,.619,0L.711,48.8a.6.6,0,0,1,.014-.1c.779-.059.9.916,1.662.8l-.023.053c.329-.58.769.995,1.195.547.549-.018.533.692.8.93-.136-.037.409-.442.547-.02.087.078.049.9.441.779s.715.3,1.072.451l-.142.128c1.461.487,2.746,1.744,4.153,1.878.021-.653.038.781.084.025l.48.166a.265.265,0,0,1-.028.1c.174.294.066,1.182.691.719.262-.484.331.409.39-.124.832,1.464,2.079.453,2.966,2.018l-.044-.12.341.079-.3.368c.344-.248.586.573.751.173l-.022-.061c.165-.4.41-.069.638-.126-.105.189-.173.228-.206.229a.929.929,0,0,1,.154.306c.8-.2,1.133.7,1.775.4l.022.386c.819-.148,1.183,1.3,2.117.789.864.629,1.374,1.108,2.2,1.769.505.16,1.151.674,1.668.236.888.021.938.8,1.576,1.021.19-.707.467.067.785-.173-.29.572.414.109.3.62l.164-.337.981.313L27.88,62.9c.111-.3.156.095.33.031l.008.489.129-.452c.137-.05.123.062.15.149a.522.522,0,0,1,.041-.152c.3-.086.447.219.3.615.121-.024.178-.278.264-.2.1.133-.057.255-.162.336.245-.046.369-.285.644,0l-.067-.232c.136.249.454-.208.552.353l-.216.594-.169-.367.218.755c.123-.023.088-.139.175-.278.173.367.4-.169.363.36l.212-.379.066.447c.053-.255.11-.727.491-.739l.33.029-.264.418c.227-.1.524-.622.555-.076l.158-.338c.311-.031-.142.612.187.424l.036-.315c.6.311.811,1.05,1.525.847l.05-.141a.9.9,0,0,1,.625.247l-.086.042.4.256.121-.24.261.223.069-.2a.66.66,0,0,1,.747.437l-.139.083a4.443,4.443,0,0,1-.2,1.113c.235.083-.055.462.35.344a.546.546,0,0,1,.116-.455c.248.377.177.146.235.749a.945.945,0,0,1,.667-.973c.593.24.445.814.98.666l.446-.452c.26.005-.024.762.232.553.551-.032-.061.311.413.307l-.014.03a.444.444,0,0,1,.055-.029h0c.291-.136.315.125.507.167l.214.281c-.146.557.278.06.418.09l-.061.414a2.921,2.921,0,0,1,1.936-.014c.159-.24.328-.067.5.107l-.153.128a4.092,4.092,0,0,1,2.163.468l.066.386c-.1-.285.277-.53.4-.559.21.042.5.314.8.426l.046-.152c-.5-.206-1.19-.606-1.589-.733l.123-.323.492-.094-.021.458c.692-.221.842.169,1.2.239a.437.437,0,0,1,.33.49l.043.027a.093.093,0,0,1-.055.047v.012a3.678,3.678,0,0,1,.954-.318l-.336-.118.483-.273c.344-.112-.228.818.7.367l.336-.3c-.063.376.727.082,1.151-.05l-.817.94c.415.09.951.035,1.211.338.018-.05-.009-.181.172-.262l.138.245.2-.132c.12.294-.127.646-.2,1.071l.036-.1c-.133.559,1.461-.111,1.674.2-.095.021-.289.257-.024.106-.036.1-.2.135-.3.2.21.046.281-.15.833-.223-.066.53.644.269,1.007.348.076-.08.254-.185.031-.3l.522-.2c.128.065-.43.367-.04.328.343-.12.173-.493.736-.386.389-.039.588.466.964.248a.316.316,0,0,0,.116,0l-.11.057.095-.045c-.507.269.782.235.63.444-.061-.008-.338.078-.095.052a.984.984,0,0,1-.3.045c.061.067.249-.022.562.053-.451.269.086.274.193.39.1-.028.265-.047.249-.152l.4,0c.011.061-.488.109-.277.167.255.006.471-.229.648-.059.211.057-.094.368.252.326.066.1,1.41-.026,1,.27l.235-.116c.035.022.117.074.1.137l.026-.02c.032.02-.013.048-.074.076a.4.4,0,0,1-.109.06l.034-.025-.079.036C59.437,73.079,59.716,72.938,59.876,72.986Zm94.45-13.071a.743.743,0,0,1,.075.282c-.159-.03-.323-.065-.493-.1Zm.87.418c-.076-.012-.153-.023-.232-.036l.222-.15C155.249,60.161,155.233,60.24,155.2,60.334ZM52.871,65.4c-.024-.017-.059-.038-.091-.058L52.9,65.3Zm.063.358a1.645,1.645,0,0,1-.326.186c-.084-.041-.17-.086-.259-.134l.608-.338a.376.376,0,0,0-.045-.038l.132-.058c.24.037.189.185.024.369Z" transform="translate(0 0)"/>
        <path id="Pfad_5344" data-name="Pfad 5344" d="M.014,0,0,.014C0,.012,0,.007.014,0Z" transform="translate(48.453 52.785)"/>
        <path id="Pfad_5345" data-name="Pfad 5345" d="M0,.053V.047C.164-.034.106,0,0,.053Z" transform="translate(62.028 71.227)"/>
        <path id="Pfad_5346" data-name="Pfad 5346" d="M.057.106C-.038.042,0,.02.071,0,.1.027.1.061.057.106Z" transform="translate(56.856 72.37)"/>
        <path id="Pfad_5347" data-name="Pfad 5347" d="M.2,0C.236.039.131.071.009.1A.706.706,0,0,0,0,.009C.052.014.149,0,.2,0Z" transform="translate(61.865 72.118)"/>
        <path id="Pfad_5348" data-name="Pfad 5348" d="M.124,0,0,.08A.169.169,0,0,1,.124,0Z" transform="translate(59.648 73.053)"/>
        <path id="Pfad_5349" data-name="Pfad 5349" d="M.048.009c-.053.008-.074-.024,0,0Z" transform="translate(84.787 57.329)"/>
        <path id="Pfad_5350" data-name="Pfad 5350" d="M0,0A.387.387,0,0,1,.038.008C.055.1.071.176.089.235Z" transform="translate(124.529 63.341)"/>
        <path id="Pfad_5351" data-name="Pfad 5351" d="M0,.017.042,0C.032.052.032.1,0,.017Z" transform="translate(130.999 63.652)"/>
        <path id="Pfad_5352" data-name="Pfad 5352" d="M0,0A.317.317,0,0,0,.1.057.115.115,0,0,1,0,0Z" transform="translate(109.791 60.492)"/>
        <path id="Pfad_5353" data-name="Pfad 5353" d="M.049,0,.075.012A.782.782,0,0,0,0,.054Z" transform="translate(73.124 55.295)"/>
        <path id="Pfad_5354" data-name="Pfad 5354" d="M.134.19C.165.146.047.09,0,.068A.485.485,0,0,1,.48.059C.463.171.251.146.134.19Z" transform="translate(73.199 55.239)"/>
        <path id="Pfad_5355" data-name="Pfad 5355" d="M0,.032A.128.128,0,0,1,.053,0,.091.091,0,0,1,0,.032Z" transform="translate(73.281 55.428)"/>
        <path id="Pfad_5356" data-name="Pfad 5356" d="M.092.045C.062.028.028.017,0,0A.109.109,0,0,1,.092.045Z" transform="translate(111.309 54.079)"/>
        <path id="Pfad_5357" data-name="Pfad 5357" d="M.008,0,.016.215A.5.5,0,0,1,.008,0Z" transform="translate(55.32 52.376)"/>
        <path id="Pfad_5358" data-name="Pfad 5358" d="M0,.156A.473.473,0,0,1,.053,0H.07Z" transform="translate(136.929 64.177)"/>
        <path id="Pfad_5359" data-name="Pfad 5359" d="M.966.238c0,.025.02.05.017.076A2.853,2.853,0,0,1,0,.262L.007,0Z" transform="translate(144.196 64.277)"/>
        <path id="Pfad_5360" data-name="Pfad 5360" d="M.168,0H.216L0,.231Z" transform="translate(149.506 64.592)"/>
        <path id="Pfad_5361" data-name="Pfad 5361" d="M.032,0A.745.745,0,0,1,.426.113C-.025.109-.039.063.032,0Z" transform="translate(159.091 65.96)"/>
        <path id="Pfad_5362" data-name="Pfad 5362" d="M.421,0C.656.017.551.112.4.214.165.16,0,.127,0,.127.137.1.28.024.421,0Z" transform="translate(168.893 62.581)"/>
      </g>
    </g>
    <g id="Gruppe_726" data-name="Gruppe 726" transform="translate(752.076 3840.406) rotate(-114)">
      <path id="Pfad_5258" data-name="Pfad 5258" d="M.5,2.694C.319,1.848.158.911,0,0A16.024,16.024,0,0,1,.95,4.865,15.255,15.255,0,0,1,.5,2.694Z" transform="translate(194.922 73.393)"/>
      <path id="Pfad_5259" data-name="Pfad 5259" d="M0,.028V0L.012.064Z" transform="translate(194.909 73.329)"/>
      <path id="Pfad_5260" data-name="Pfad 5260" d="M0,.067C.014.043.028.02.041,0Z" transform="translate(136.832 78.623)"/>
      <path id="Pfad_5261" data-name="Pfad 5261" d="M119.586,99.945c.264-.005.519-.009.767-.012l1.375-.032c.737-.009,1.363-.131,1.926-.179.558-.073,1.051-.1,1.457-.2l1.79-.33a5.276,5.276,0,0,1,1.01-.158,3.292,3.292,0,0,0,.973-.209,13.975,13.975,0,0,0,1.691-.564l1.335-.523c.512-.2,1.06-.5,1.7-.8.361-.179.679-.321.92-.422a1.752,1.752,0,0,1,.466-.177c.128-.016-.1.266-1.017.764l.636-.326c.209-.124.42-.25.636-.376l1.315-.785c.452-.261.872-.585,1.313-.883s.884-.6,1.3-.938a28.307,28.307,0,0,0,2.38-2.066c.363-.358.714-.714,1.047-1.062s.617-.725.9-1.069a22.186,22.186,0,0,0,1.5-1.646l.739-.9a10.6,10.6,0,0,0,.723-.955c.452-.666.968-1.345,1.384-2.059s.874-1.436,1.256-2.206a39.4,39.4,0,0,0,3.626-10.272,45.248,45.248,0,0,0,.863-11.615,51.862,51.862,0,0,0-1.956-11.787,48.834,48.834,0,0,0-4.611-11.124,40.368,40.368,0,0,0-2.233-3.419,22.433,22.433,0,0,1,3.2.1,5.085,5.085,0,0,1,1.77-.287,48.667,48.667,0,0,1,12.085,2.435c-.381-.184-.755-.312-.41-.3A47.141,47.141,0,0,1,171.266,40a52.2,52.2,0,0,1,4.476,2.984l2.1,1.693c.7.562,1.331,1.21,2,1.808a50.448,50.448,0,0,1,12.267,17.834c.985,2.607.615.36,1.423,2.623a16.681,16.681,0,0,1,.652,2.29,8.254,8.254,0,0,1,.193,1.131c.048.363.094.705.137,1.017-.135-.34-.316-1.115-.312-.645a26.268,26.268,0,0,1,.7,2.6c-.012-.9-.262-2.522.324-.248l-.725-3.116c.211-.216.167.907.787,3.162l.255,1.926.232-.191c.2.594.459,1.116.661,1.586a7.68,7.68,0,0,0,.672,1.232,4.7,4.7,0,0,0,1.6,1.522,4.182,4.182,0,0,0,3.635.117,9.858,9.858,0,0,0,3.112-2.045,12.863,12.863,0,0,0,1.31-1.411l0-.875c-.557-1.926-1.009-3.851-1.732-5.689a48.358,48.358,0,0,0-4.491-13.2,66.64,66.64,0,0,0-6.562-10.272c-.418-.6-1.1-1.382-1.847-2.316-.388-.455-.765-.975-1.226-1.457l-1.4-1.51c-.923-1.054-1.98-2.033-2.938-2.976-.936-.968-1.894-1.776-2.642-2.486l-.014.323c-.468-.4-.955-.817-1.457-1.248l-1.607-1.237c-.544-.422-1.093-.845-1.641-1.267-.571-.39-1.14-.776-1.7-1.156l-1.63-1.1c-.539-.333-1.07-.627-1.563-.916-1-.558-1.843-1.09-2.532-1.4l.025.124c-.454-.206-1.09-.505-1.778-.84s-1.414-.741-2.1-1.021c-1.356-.61-2.4-1.163-2.02-1.283a17.694,17.694,0,0,0-2.7-.658l-1.8-.307c-.571-.115-1.187-.2-2.031-.353-.422-.078-.9-.176-1.459-.3s-1.2-.289-1.953-.4c.314.027.631.028.943.076-.863-.16-2.157-.317-3.761-.528-.8-.117-1.693-.128-2.642-.2-.952-.05-1.967-.142-3.037-.106a60.471,60.471,0,0,0-14.339,1.561c-.239.055-.473.117-.711.174-.751-.4-1.5-.78-2.23-1.127a57.3,57.3,0,0,0-8.205-3.05l.491.186c-1.609-.47-3.812-1.058-6.442-1.6-2.63-.578-5.675-.932-9.024-1.409a121.261,121.261,0,0,0-22.557-.482,131.072,131.072,0,0,0-22.217,3.723c-1.627.429-3.158.929-4.613,1.356-1.448.454-2.83.81-4.053,1.3-2.465.911-4.521,1.659-6.008,2.245l-2.474.769c-1.186.647-2.37,1.18-3.669,1.762s-2.651,1.342-4.25,2.251c-1.726.847-1.122.3-.337-.174-.691.406-1.409.8-2.123,1.173s-1.386.8-2.04,1.161c-1.3.75-2.439,1.409-3.158,1.935l.516-.191c-2.107,1.361-3.77,2.437-5.536,3.479-.877.526-1.77,1.063-2.717,1.678-.443.319-.895.663-1.365,1.033,1.333-2,2.5-3.748,2.97-4.462-.246.271-.367.08-.262-.261l.613-.618c.025.147-.11.34.051.291.3-.246.337-.755.732-.688-.188-.092.154-.581.106-.6.533-.124.875-1.8,1.694-1.779.833-.893-.163-.482.643-1.522l.42.218c-.005-.142,4.321-5.54,4.374-5.237a1.034,1.034,0,0,1,.037-.652c.851-.875,1.588-1.806,2.522-2.766-.119.069-.192.163-.209.018C37,17.627,39.577,14.236,42.4,10.862c.542-.633-.2-.406.266-.95.22-.42.758-.634,1.081-.847-.033.119-.191.3-.025.264a3.479,3.479,0,0,1,.454-.679c-.289.094-.723.356-.3-.2l-.629.716c-.22-.14.218-.172.6-.766L44.27,8l-.22-.142c.312-1.717-1.528-3.693-3.459-5.23A29.962,29.962,0,0,0,36.635,0l-.2.11L35.953,1.7a28.565,28.565,0,0,0-4.337,5.076,22.175,22.175,0,0,1-2.63,2.7l.227.133c-.875.9-2.3,1.948-2.851,2.476l.09.053c-.355.358-1.414,1.2-1.67.775-.67,1.031-.179,1.163-1.368,2.185l.106-.222c-.626.633-2.224,2.687-3.77,4.742s-3.036,4.11-3.566,4.665l.165-.055c-1.06.98-1.905,2.605-3.091,3.532-.7,1.163-2.706,4.135-4.695,7.165L5.694,39.253c-.695,1.042-1.333,2-1.879,2.816-.3.44-.569.844-.813,1.207-.229.36-.333.665-.48.93-1.728,3.72-.5.255-2.05,4.007-.048.133-.124.255-.159.337a.336.336,0,0,1-.1.159c-.037.023-.074.014-.106-.041a.423.423,0,0,1-.042-.113A1.448,1.448,0,0,1,.1,48.343a1.278,1.278,0,0,0-.094.551L0,49.447A5.788,5.788,0,0,0,.19,50.82a3.9,3.9,0,0,0,.61,1.3,7.4,7.4,0,0,0,1.732,2.575,3.225,3.225,0,0,0,.668.555l.9.464L6,56.679q.489.25.989.5a4.179,4.179,0,0,0,1.076.452l2.465.681,2.531.695c.589.129,1.067.211,1.607.317a81.982,81.982,0,0,0,11.03,1.265l-.136-.053c.888.064,2.387.1,4.214.168,1.808.035,3.924.062,6,.046,4.168-.03,8.182-.1,9.79-.167l.658.271c.663-.243,1.29-.067,2.2-.269.48.025.285.243.059.307.8-.2,1.645.041,2.081-.135l-.131-.1c1.233-.3,1.937.45,3.257.19l-.009-.051a3.327,3.327,0,0,1,1.627.25c.658-.085.067-.361.617-.45.218.337.8.158,1.384.158-.64-.067-1.365-.175-1.308-.468.794.073.19-.307,1-.129l.037.365c.347.112,1.017.076,1.118-.078a2.889,2.889,0,0,1-.787.034c.025-.337-.36-2.83-.836-5.315s-1.03-4.964-1.07-5.242c-1.21-.455-3.03.043-4.4-.571.356-.115-.891-.025-.436-.3a2.471,2.471,0,0,1-.872.078c.4.09.794.183.822.338l-2.887.044c-.968.018-1.941.035-2.853.124-1.083.172-1.487-.53-1.733-.514l.057.257-1.1.071c.188-.271-.023-.674.44-.81-.034-.152-.376-.027-.751-.051.131.043.42.23.19.3-.852.06-.291-.188-1.3-.273.011.051.7.367-.119.579-1.028.147-4.388.271-7.714.3-3.063.028-6.065-.1-7.328-.179.664-.51,1.336-1.035,2.022-1.568l.785-.608.826-.555c.553-.367,1.106-.728,1.659-1.078,1.1-.7,2.2-1.34,3.261-1.868-.982.721,2.63-1.529,1.437-.5a28.333,28.333,0,0,1,2.517-1.579,11.223,11.223,0,0,1-2.591,1.14c1.384-.828,2.8-1.671,4.223-2.525l4.461-2.293c1.473-.806,3.022-1.45,4.535-2.127q1.135-.51,2.254-1.014c.376-.167.743-.344,1.116-.5l1.129-.438a21.94,21.94,0,0,1,5.816-1.521l-.245-.195,3.69-1.163c-.59.457.192.647-1.34,1.239a13.163,13.163,0,0,0,2.531-.691c-.452.089-1.45.186-.686-.11,2.855-.891.989-.156,4.429-.868-.041-.043-2.435.184.335-.672.868-.23,2.237-.613,4-1.016l6.369-1.166,3.846-.455c1.338-.151,2.72-.362,4.149-.4l4.362-.241c.737-.06,1.482-.048,2.226-.039l2.24.019c3-.062,5.976.246,8.836.434.358.03.714.042,1.067.085l1.046.145,2.045.282c1.338.193,2.644.342,3.863.549,1.9.337,3.621.709,5.108,1.079l-1.911,1.131c-1.336.751-2.311,1.459-2.947,1.875l.523-.245a42.279,42.279,0,0,0-7.314,5.73,81.677,81.677,0,0,0-6.4,7c-.4.556-.849,1.258-1.352,2.072-.526.8-1.035,1.763-1.623,2.8a44.948,44.948,0,0,0-3.213,7.753,37.494,37.494,0,0,0-1.648,10.2A34.367,34.367,0,0,0,92.643,78.7a33.755,33.755,0,0,0,5.387,10.125,29.65,29.65,0,0,0,8.15,7.287,27.1,27.1,0,0,0,8.831,3.35l1.964.308c.626.055,1.223.085,1.788.122ZM25.719,50.287l-.973-.317.54-.308a1.582,1.582,0,0,0-.168-.069l.193-.149C25.446,49.72,25.632,50.285,25.719,50.287Zm96.188-19.652a.278.278,0,0,1-.108-.039ZM118.4,87.973c-.5-.025-.968-.11-1.372-.1-.2.009-.381,0-.532,0a.877.877,0,0,0-.377.094,5.985,5.985,0,0,0-1.186-.432,5.658,5.658,0,0,1-1.779-.835,2.168,2.168,0,0,1,.764.135c.289.082.62.147.938.25a4.924,4.924,0,0,0,1.714.3,15.066,15.066,0,0,1-2.995-1.1l-.466-.227a2.521,2.521,0,0,1-.477-.262c-.314-.2-.645-.4-.991-.608q-.489-.37-1.009-.762c-.356-.248-.666-.6-1.022-.893a20.033,20.033,0,0,1-3.78-4.929,22.647,22.647,0,0,1-2.375-6.547c-.119-.578-.17-1.161-.269-1.739-.043-.579-.083-1.157-.126-1.731.009-.569.016-1.136.025-1.7.06-.585.094-1.168.161-1.744a27.487,27.487,0,0,1,1.668-6.453,35.192,35.192,0,0,1,2.52-5.056c.856-1.388,1.627-2.47,2.173-3.19-.392.441-.555.6-.585.509a1.861,1.861,0,0,1,.408-.868c.312-.347.61-.7.927-1.046l.975-1.007c-.138.321-.64.9-.273.634a9.293,9.293,0,0,0,.626-.688l.61-.672a2.511,2.511,0,0,1,1.093-.84c-.23-.057,1.157-1.416,1.115-1.42a7,7,0,0,0,1.279-.973c.542-.427,1.131-.982,1.785-1.474s1.324-.975,1.928-1.363l.44-.269c.149-.074.294-.136.431-.193a3.16,3.16,0,0,1,.732-.216c1.74-.976,1.889-1.186,2.084-1.4s.415-.484,2.364-1.471l.45.31c.039-.025.4-.181,1.006-.439l1.078-.459.654-.28c.232-.094.484-.17.743-.26.516-.179,1.074-.37,1.662-.572.071-.023.142-.05.214-.074a24.74,24.74,0,0,1,2.281,2.219,26.829,26.829,0,0,1,4.542,7.39,29.373,29.373,0,0,1,1.776,5.613c-.119-.372-.222-.748-.353-1.118.188.8.363,1.544.535,2.27.133.734.324,1.434.436,2.171.135.732.276,1.482.379,2.293.14.81.206,1.682.316,2.648-.06-.8-.057-1.606-.16-2.408.569.851.782,2.85.782,5.2-.064-.482-.115-.964-.213-1.446-.131,1.287-.144,2.446-.183,3.77,0,.666-.08,1.359-.119,2.139-.039.385-.1.783-.158,1.209l-.092.652-.149.675.087-.716.044-.727c-.1.4-.177.863-.287,1.361s-.167,1.053-.323,1.583c.658-1.866-.027,1.374-.078,2.022-.005-.659-.3-.108-.622.732-.37.821-.81,1.925-1.094,2.4a1.836,1.836,0,0,1-.239.737,10.437,10.437,0,0,1-.615.98c-.424.693-.9,1.21-.817,1.388-.629.79-.386.071-.2-.261-.129.227-.262.448-.4.665-.165.23-.356.445-.542.666s-.383.441-.588.665l-.7.643a30.609,30.609,0,0,1-3.945,3,23.168,23.168,0,0,1-2.832,1.7,8.547,8.547,0,0,1-.766.413c-.158.067-.351.129-.973.342a12.8,12.8,0,0,1-1.324.36,7.043,7.043,0,0,1-1,.214c-.381.05-.8.156-1.28.2l-.826.324c-.179-.1-.354-.186-.526-.292a4.034,4.034,0,0,1-1.217.351A13.223,13.223,0,0,1,118.4,87.973Z" transform="translate(0 0)"/>
      <path id="Pfad_5262" data-name="Pfad 5262" d="M0,1.326A2.387,2.387,0,0,1,.757,0,2.837,2.837,0,0,1,0,1.326Z" transform="translate(44.187 7.309)"/>
      <path id="Pfad_5263" data-name="Pfad 5263" d="M.009.012,0,.016.012,0Z" transform="translate(44.176 8.634)"/>
      <path id="Pfad_5264" data-name="Pfad 5264" d="M0,0A1.719,1.719,0,0,1,.429.044Z" transform="translate(57.305 60.755)"/>
    </g>
  </g>
</svg>
