<svg xmlns="http://www.w3.org/2000/svg" width="55.48" height="86.646"><g data-name="Gruppe 1133"><path data-name="Pfad 32" d="M43.9 4.809C43.155 1.384 33.048.676 21.327 3.228S.709 10.628 1.455 14.052c.588 2.7 20.917 66.384 21.283 68.066.529 2.43 7.7 2.933 16.013 1.122s14.625-5.248 14.1-7.678C52.4 73.52 44.566 7.852 43.9 4.809z" fill="#fff" opacity=".685"/><path data-name="Pfad 35" d="M23.783 79.915c2.093-2.011 7.052-4.167 13.055-5.474 8.313-1.812 15.482-1.309 16.011 1.121" fill="none" stroke="#101010" stroke-linecap="round" stroke-linejoin="round" stroke-width="2"/><path data-name="Pfad 36" d="M44.496 5.123C43.749 1.697 33.643.989 21.922 3.542S1.305 10.942 2.05 14.365c.588 2.7 20.917 66.385 21.284 68.067.528 2.429 7.7 2.931 16.011 1.121s14.625-5.248 14.1-7.677c-.447-2.044-8.287-67.71-8.949-70.753z" fill="none" stroke="#101010" stroke-miterlimit="10" stroke-width="4"/><path data-name="Pfad 37" d="M41.367 5.348c.668 3.074-7.313 7.422-17.828 9.711-8.155 1.776-15.439 1.793-18.609.278" fill="none" stroke="#101010" stroke-linecap="round" stroke-linejoin="round" stroke-width="2"/><g data-name="Gruppe 33"><g data-name="Gruppe 32"><path data-name="Pfad 38" d="M25.402 32.518a.65.65 0 00.239.011 19.349 19.349 0 014.494.476 17.147 17.147 0 014.841 1.868 13.008 13.008 0 013.4 2.773 9.779 9.779 0 011.844 3.16 8.8 8.8 0 01.342 1.282 8.606 8.606 0 01.149 1.259 7.914 7.914 0 01-1.3 4.832 9.531 9.531 0 01-2.651 2.636 12.078 12.078 0 01-3.206 1.529 12.607 12.607 0 01-2.634.53 11.268 11.268 0 01-4.005-.314 8.4 8.4 0 01-3.117-1.555 7.493 7.493 0 01-2.373-3.378 7.55 7.55 0 01-.44-1.967 7.612 7.612 0 01.264-2.616 11.029 11.029 0 011.158-2.639 23.134 23.134 0 011.4-2.077c.425-.578.867-1.146 1.275-1.739a7.6 7.6 0 00.527-.866c.058-.118.109-.239.156-.363a1.225 1.225 0 00.01-.875 3.372 3.372 0 00-.728-1.194.548.548 0 01-.122-.17.413.413 0 01.166-.527c.026-.016.062-.019.074-.051zm.383 17.4c.052.041.087.072.124.1a6.869 6.869 0 001.928.915 8.955 8.955 0 003.666.281 9.97 9.97 0 001.44-.279 10.161 10.161 0 002.407-.987 8.32 8.32 0 002.3-1.91 6.376 6.376 0 001.4-2.923 7.506 7.506 0 00-.02-2.744 7.7 7.7 0 00-.583-1.875 9.169 9.169 0 00-2.85-3.478 13.514 13.514 0 00-4.065-2.091 18.355 18.355 0 00-4.136-.822.216.216 0 00-.148 0 .34.34 0 00.014.046 2.339 2.339 0 01.176 1.309.208.208 0 000 .092c.031.117.058.234.087.351.114.448.213.9.305 1.35.057.291.12.579.167.871a7.11 7.11 0 01.138 1.073.18.18 0 00.012.068c.076.171.051.248-.115.341-.222.128-.444.255-.66.4a3.208 3.208 0 00-.815.722 4.581 4.581 0 00-.372.578.279.279 0 01-.162.14.482.482 0 01-.561-.335.637.637 0 01.026-.366 2.043 2.043 0 01.312-.543c.117-.156.244-.3.371-.449a1.146 1.146 0 00.193-.432.194.194 0 00-.119.053 1.565 1.565 0 01-.275.192c-.119.076-.237.15-.357.222a.844.844 0 00-.414.7c0 .077-.019.154-.031.231a.255.255 0 01-.118.179.448.448 0 01-.393.112.346.346 0 00.125.2.192.192 0 01.072.185 3.419 3.419 0 01-.069.4c-.031.128-.064.254-.084.386a.481.481 0 00.03.262c.032.081.066.159.1.238a.834.834 0 01-.025.678.232.232 0 01-.358.1c-.052-.035-.1-.076-.151-.109a.269.269 0 00-.179-.055.357.357 0 01-.16.388c-.077.064-.153.133-.232.193-.2.146-.394.291-.592.435a.153.153 0 00-.076.141 6.954 6.954 0 00.138 1.168c.033.167.071.335.119.5.014.045.033.063.082.058a2.135 2.135 0 00.523-.1c.144-.052.167-.092.164-.243a.253.253 0 01.25-.288 2.323 2.323 0 01.246-.011 1.258 1.258 0 01.448.053.2.2 0 00.2-.021c.031-.022.064-.041.1-.064a8.668 8.668 0 00.8-.639 4.443 4.443 0 01.987-.673 1.547 1.547 0 01.552-.176.555.555 0 01.575.312.938.938 0 01.082.229c.026.138.047.277.064.415a.413.413 0 00.3.377 1.224 1.224 0 01.463.3 4.637 4.637 0 01.508.606.6.6 0 01.093.52 3.737 3.737 0 01-.118.356c-.069.2-.092.17.069.358a4.655 4.655 0 00.48.459 1.538 1.538 0 01.311.376.442.442 0 01.081.2c0 .115.069.144.16.159.027 0 .055.007.082.011a.263.263 0 01.227.367c-.011.033-.043.066-.027.113.053 0 .107.007.16.014a.317.317 0 01.331.309.335.335 0 00.029.141 1.072 1.072 0 01.42-.1c.229-.012.458-.03.686-.041a.453.453 0 00.21-.063.467.467 0 01.238-.087.172.172 0 01.181.231.321.321 0 01-.083.139 1.241 1.241 0 01-.2.16 3.479 3.479 0 01-.817.388 1.584 1.584 0 01-.95.057 1.533 1.533 0 00-.345-.042c-.3 0-.589.035-.885.045a3.554 3.554 0 01-.9-.072 24.106 24.106 0 01-1.541-.41 19.993 19.993 0 01-1.064-.346c-.089-.031-.092-.03-.123.057a.443.443 0 01-.257.27 1.333 1.333 0 01-.321.084" fill="#008fc3"/></g><path data-name="Pfad 39" d="M35.268 40.784c.045.014.068.025.1.031a2.4 2.4 0 01.9.415 2.63 2.63 0 00.714.36 2.22 2.22 0 01.5.224c.069.045.082.037.144-.03a.461.461 0 01.067-.063.152.152 0 01.218.033.386.386 0 01.061.124 6.14 6.14 0 01.351 1.835 6.379 6.379 0 01-.341 2.383 5.622 5.622 0 01-1.286 2.1.411.411 0 01-.275.134c-.058 0-.115.01-.174.011a.154.154 0 01-.166-.12 1.4 1.4 0 00-.237-.513c-.047-.072-.089-.146-.135-.217a.2.2 0 010-.229.806.806 0 00.077-.157.446.446 0 00-.057-.441 1.121 1.121 0 00-.21-.217 3.959 3.959 0 00-.473-.318.23.23 0 01-.129-.224c0-.32-.148-.441-.465-.4a1.931 1.931 0 00-.606.2 2.711 2.711 0 00-.688.453.468.468 0 01-.17.1c-.348.11-.7.219-1.043.334a.746.746 0 01-.433.02 9.122 9.122 0 01-1.018-.332.225.225 0 01-.148-.153.455.455 0 00-.066-.135.175.175 0 00-.143-.086c-.118 0-.162-.05-.171-.162a4.377 4.377 0 00-.188-.863 2.1 2.1 0 01-.122-.65.838.838 0 01.229-.58c.063-.064.128-.126.195-.182a.349.349 0 00.126-.311c0-.1-.014-.208-.015-.312a.49.49 0 01.192-.427c.47-.371.96-.713 1.458-1.043.114-.077.229-.148.345-.218a.744.744 0 01.126-.061.16.16 0 01.236.14.668.668 0 00.04.169.116.116 0 00.129.074 1.367 1.367 0 00.393-.1.494.494 0 01.352-.029.647.647 0 00.2.02.367.367 0 00.381-.309c.006-.031.007-.061.011-.092a.191.191 0 01.187-.2 1.611 1.611 0 00.469-.133.733.733 0 00.367-.343.477.477 0 00.006-.428.292.292 0 00-.449-.123.784.784 0 00-.174.171.223.223 0 01-.288.082c-.117-.042-.233-.087-.348-.13a.217.217 0 00-.078-.022.1.1 0 00-.1.041c-.016.032.014.06.031.083.033.047.072.091.11.135a.156.156 0 01.043.18.171.171 0 01-.164.091.351.351 0 01-.157-.042c-.255-.118-.511-.242-.778-.341a2.252 2.252 0 00-.653-.16.351.351 0 00-.16.021c-.042.02-.063.047-.027.091a.316.316 0 01.019.03.217.217 0 01-.162.332.293.293 0 01-.172-.02.118.118 0 00-.128.016.871.871 0 00-.433.67c-.016.176-.045.353-.064.531a.238.238 0 01-.162.208c-.246.1-.489.2-.737.29a.214.214 0 01-.3-.112 1.009 1.009 0 01-.118-.585c.006-.094.078-.16.195-.187.144-.036.288-.068.43-.1.181-.043.188-.057.151-.236 0-.024-.011-.045-.016-.068-.024-.138-.124-.186-.247-.2-.069-.011-.146-.011-.172-.089s.027-.133.077-.182a.927.927 0 00.175-.218.515.515 0 00.068-.336.207.207 0 01.078-.206.881.881 0 00.145-.151.082.082 0 00-.009-.123c-.1-.1-.1-.141-.019-.252.021-.029.042-.055.061-.084.031-.052.01-.092-.052-.091a.584.584 0 00-.171.035 1.094 1.094 0 01-.3.051.468.468 0 01-.248-.05.14.14 0 01-.05-.244c.031-.038.067-.076.1-.117.056-.076.058-.087-.006-.16a.418.418 0 01-.06-.487.27.27 0 01.175-.157c.207-.057.412-.11.619-.167a1.577 1.577 0 00.186-.067.178.178 0 00.12-.176 3.976 3.976 0 01.1-.7 1.083 1.083 0 01.084-.253.127.127 0 01.131-.076 8.068 8.068 0 013.248.879 8.119 8.119 0 011.664 1.248c.226.216.443.436.655.665a.171.171 0 010 .273c-.033.038-.069.073-.1.112a.259.259 0 01-.3.078c-.042-.011-.1-.055-.129-.015s.027.088.055.125a.734.734 0 00.378.258c.072.024.1.014.12-.062a.2.2 0 01.327-.107.951.951 0 01.407.577 2.821 2.821 0 01.055.9 1.367 1.367 0 01-.014.161.17.17 0 01-.272.124.615.615 0 01-.092-.069 6.091 6.091 0 00-.89-.616 1.988 1.988 0 00-.472-.195.326.326 0 00-.336.067c-.062.058-.135.1-.218.169" fill="#008fc3"/></g><path data-name="Pfad 34" d="M35.054 83.905a40.431 40.431 0 007.043-27.085c-1.554-16.185-8.667-44.2-8.667-44.2s4.808-1.977 6.285-3.8 3.287-3.492 2.577-5.8 1.533 2.173 2.179 5.656 8.013 64.254 8.013 64.254 1.264 4.106-1.291 5.766-7.414 3.259-10.239 3.927-5.9 1.282-5.9 1.282z" fill="#008fc3" opacity=".204"/></g></svg>