<svg xmlns="http://www.w3.org/2000/svg" width="41" height="41" viewBox="0 0 41 41">
  <g id="Gruppe_1282" data-name="Gruppe 1282" transform="translate(-219 -3844)">
    <g id="Ellipse_358" data-name="Ellipse 358" transform="translate(219 3844)" fill="#fff" stroke="#707070" stroke-width="1" opacity="0.111">
      <circle cx="20.5" cy="20.5" r="20.5" stroke="none"/>
      <circle cx="20.5" cy="20.5" r="20" fill="none"/>
    </g>
    <path id="Pfad_4909" data-name="Pfad 4909" d="M10.654,0c0,.072-.015,2.588-.008,3.734,0,.163-.048.2-.206.2a17.25,17.25,0,0,0-2.562.084.869.869,0,0,0-.712.855c-.031.825-.027,1.651-.042,2.477,0,.15.1.125.185.125H10.66L10.246,11.4H7.128c0,.092-.008,11.348-.01,11.415H2.853c0-.067,0-11.409,0-11.409H.014S.006,8.855,0,7.676c0-.163.048-.2.206-.2.814.007,1.628,0,2.442.007.174,0,.211-.056.211-.218,0-1.057,0-2.114.037-3.17a5.192,5.192,0,0,1,.545-2.211A2.99,2.99,0,0,1,5.249.342C6.593-.134,9.378,0,10.654,0Z" transform="translate(234.354 3853.028)" fill="#fff"/>
  </g>
</svg>
