<svg xmlns="http://www.w3.org/2000/svg" width="41" height="41" viewBox="0 0 41 41">
  <g id="Gruppe_1281" data-name="Gruppe 1281" transform="translate(-167 -3844)">
    <g id="Ellipse_357" data-name="Ellipse 357" transform="translate(167 3844)" fill="#fff" stroke="#707070" stroke-width="1" opacity="0.111">
      <circle cx="20.5" cy="20.5" r="20.5" stroke="none"/>
      <circle cx="20.5" cy="20.5" r="20" fill="none"/>
    </g>
    <g id="Gruppe_1136" data-name="Gruppe 1136" transform="translate(176.699 3853.369)">
      <path id="Pfad_4821" data-name="Pfad 4821" d="M14.832,6.017c2.871,0,3.211.011,4.345.063a5.952,5.952,0,0,1,2,.37A3.561,3.561,0,0,1,23.215,8.49a5.952,5.952,0,0,1,.37,2c.052,1.134.063,1.474.063,4.345s-.011,3.211-.063,4.345a5.952,5.952,0,0,1-.37,2,3.561,3.561,0,0,1-2.041,2.041,5.952,5.952,0,0,1-2,.37c-1.134.052-1.474.063-4.345.063s-3.211-.011-4.345-.063a5.952,5.952,0,0,1-2-.37,3.561,3.561,0,0,1-2.041-2.041,5.952,5.952,0,0,1-.37-2c-.052-1.134-.063-1.474-.063-4.345s.011-3.211.063-4.345a5.952,5.952,0,0,1,.37-2A3.561,3.561,0,0,1,8.49,6.449a5.952,5.952,0,0,1,2-.37c1.134-.052,1.474-.063,4.345-.063m0-1.938c-2.92,0-3.287.012-4.434.065a7.893,7.893,0,0,0-2.61.5A5.5,5.5,0,0,0,4.644,7.788a7.893,7.893,0,0,0-.5,2.61c-.052,1.147-.065,1.513-.065,4.434s.012,3.287.065,4.434a7.893,7.893,0,0,0,.5,2.61,5.5,5.5,0,0,0,3.145,3.145,7.893,7.893,0,0,0,2.61.5c1.147.052,1.513.065,4.434.065s3.287-.012,4.434-.065a7.893,7.893,0,0,0,2.61-.5,5.5,5.5,0,0,0,3.145-3.145,7.893,7.893,0,0,0,.5-2.61c.052-1.147.065-1.513.065-4.434s-.012-3.287-.065-4.434a7.893,7.893,0,0,0-.5-2.61,5.5,5.5,0,0,0-3.145-3.145,7.893,7.893,0,0,0-2.61-.5c-1.147-.052-1.513-.065-4.434-.065Z" transform="translate(-4.079 -4.079)" fill="#fff"/>
      <path id="Pfad_4822" data-name="Pfad 4822" d="M132.157,126.635a5.522,5.522,0,1,0,5.522,5.522A5.522,5.522,0,0,0,132.157,126.635Zm0,9.106a3.584,3.584,0,1,1,3.584-3.584A3.584,3.584,0,0,1,132.157,135.741Z" transform="translate(-121.404 -121.404)" fill="#fff"/>
      <circle id="Ellipse_110" data-name="Ellipse 110" cx="1.29" cy="1.29" r="1.29" transform="translate(15.203 3.723)" fill="#fff"/>
    </g>
  </g>
</svg>
