<svg xmlns="http://www.w3.org/2000/svg" width="293.265" height="207.858" viewBox="0 0 293.265 207.858">
  <g id="Gruppe_1211" data-name="Gruppe 1211" transform="translate(-2113.951 -673.137)">
    <path id="Pfad_10105" data-name="Pfad 10105" d="M.5,9.723l.357.071L9.006,1.717l.858,2.216L9.936,1.86l1-.143,16.583.143L26.376,2.5l.286,1.215-.929,5.361.143.5-1.573.786,1.072.5-13.009-.071-2.073,2.287V16.37l17.441,6.79.786,1-.214.214.572-.071V38.886h-.286l-8.935,8.22-1.715-1.144.071.929-.572.357L0,46.749l1.215-.715-.643-.715,1.215-3L2.931,40.6l-.5-.5.786-2.073-.5-.572,13.366.429,3.431-2.931V29.665L2.073,23.018.715,21.8l.357-.5L.5,21.517ZM57.111,1.717l-.071.143L65.4,10.438l-3.788,1.5,1.144-.071,2.573-.643.071,9.364-1.144-.429-.572-.143,1.5,1L57.9,28.236l-.214-.786-.929-.214.429,1.573-12.509.357-.143,17.3-.715-.429-1.43.929-6.648.071-.643.357.214-45.46L36.1,3.147l.5-1,6.719.572V2l-.286-.429Zm-12.366,18.3,8.434-.143,2.788-2.788V14.226l-3.645-3.5-7.434-.071ZM80.413,1.789,96.5,1.574l-1.215.5L95.71,4l-.286.572.357,2.216-.357.715.357.643-.286.929v1.644l-13.8.214.071-.357-.858-.572L80.7,19.73l10.15-.214,1.715.5-.643.715.286,3.074.572,3.074-.071,1.573-12.223.286-.214,9.221,13.3-.214.572.572.929.357.071,3.431.357.858.572,3.717-16.655.286-.286.357-4.789-.071-1.215.286-1.358-.5-1.072.786L71.55,1.932l2.645-.214.357.429,2.359-.357,2.931.572V2.289Zm29.878,44.817-.786.643-1.358-.572-1.072.715-3.931.071-.715-.5-.786.858.214-46.6.572.929.786-.715,1.287.357,5.5.071,1.358.572V4.648l.786-.786L127.16,28.879l.429-27.591.572.929.572-.715,1,.5,3.5-.5,2.645.286,1.287-.357-.929,46.247-.572-.786-1.43-.071-4.074-.5-.786.429-1.215-.357-1,.357-.286-.643V44.89l-.786-.071-14.8-24.66-.143,27.162ZM197.136.214,213.219,0,212,.5l.429,1.93L212.146,3l.357,2.216-.357.715.357.643-.286.929V9.149l-13.8.214.071-.357-.858-.572-.214,9.721,10.15-.214,1.715.5-.643.715.286,3.074L209.5,25.3l-.071,1.573-12.223.286-.214,9.221,13.3-.214.572.572.929.357.071,3.431.357.858.572,3.717-16.655.286-.286.357-4.789-.071-1.215.286-1.358-.5-1.072.786L188.272.357l2.645-.214.357.429,2.359-.357,2.931.572V.715ZM107.718,98.167h.071l-11.722,11.58v.071H96l-11.722-.357v.071l-3.788.5-.715-.715-1.287.786-2.859-.071-1,.572-.071-46.961.929.572,2.859-.286.5.286H84.2v.715L98,64.715l-.858.643.071,1.072-.572.929.929-.5.429-1L107.5,76.866l-.572.429.858.143Zm-10.15-2.073.357.071V79.583l-5.5-5.861-8.22.143v26.59l7.863.214,5.361-5.218Zm25.446-31.236,16.083-.214-1.215.5.429,1.93-.286.572.357,2.216-.357.715.357.643-.286.929v1.644l-13.8.214.071-.357-.858-.572L123.3,82.8l10.15-.214,1.715.5-.643.715.286,3.074.572,3.074-.071,1.573-12.223.286-.214,9.221,13.3-.214.572.572.929.357.071,3.431.357.858.572,3.717-16.655.286-.286.357-4.789-.071-1.215.286-1.358-.5-1.072.786L114.151,65l2.645-.214.357.429,2.359-.357,2.931.572v-.071Zm26.8,45.174-.5-.715-.858.715h-2.5l-1,.5V65l.858.214,1.787-.5,5.075-.643,1,.643,1.072-.643v45.174l-1,.214-.929.572Zm21.658-.357-.786.643-1.358-.572-1.072.715-3.931.071-.715-.5-.786.858.214-46.6.572.929.786-.715,1.287.357,5.5.071,1.358.572v2.216l.786-.786,15.011,25.018.429-27.591.572.929.572-.715,1,.5,3.5-.5,2.645.286,1.287-.357-.929,46.247-.572-.786-1.43-.071-4.074-.5-.786.429-1.215-.357-1,.357-.286-.643V107.96l-.786-.071-14.8-24.66-.143,27.162Zm43.387-44.817,16.083-.214-1.215.5.429,1.93-.286.572.357,2.216-.357.715.357.643-.286.929v1.644l-13.8.214.071-.357-.858-.572-.214,9.721,10.15-.214,1.715.5-.643.715.286,3.074.572,3.074-.071,1.573-12.223.286-.214,9.221,13.3-.214.572.572.929.357.071,3.431.357.858.572,3.717-16.655.286-.286.357-4.789-.071-1.215.286-1.358-.5-1.072.786L206,65l2.645-.214.357.429,2.359-.357,2.931.572v-.071Zm29.878,44.817-.786.643-1.358-.572-1.072.715-3.931.071-.715-.5-.786.858.214-46.6.572.929.786-.715,1.287.357,5.5.071,1.358.572v2.216l.786-.786,15.01,25.018.429-27.591.572.929.572-.715,1,.5,3.5-.5,2.645.286,1.287-.357-.929,46.247-.572-.786-1.43-.071-4.074-.5-.786.429-1.215-.357-1,.357-.286-.643V107.96l-.786-.071-14.8-24.66L245.6,110.39ZM2.573,127.141l.572.715h2.43l3,.429,1.787-.357-.071-.286,15.082-.143-.071.572,7.505,7.577v10.865l-1.93.072.715.786.858.071-3.145,3.217,3.5,3.574.071.357.143-.071v.286l-.071,10.364v.143h-.143l-6.219,6.5-1.644.858-1.5-1.287.071.858.5.643H12.151l-.715.572-4.074.143-.786-.786-.786.858H3.574l-1,.643Zm9.578,23.516v13.081l9.149.071,2.144-2.216.071-4-2.645-2.859H13.009Zm0-4.932h8.935l2.144-2-.071-4.646-2.287-2.43-8.72.214Zm37.026-17.8,16.083-.214-1.215.5.429,1.93-.286.572.357,2.216-.357.715.357.643-.286.929v1.644l-13.8.214.071-.357-.858-.572-.214,9.721,10.15-.214,1.715.5-.643.715.286,3.074.572,3.074-.071,1.573-12.223.286-.214,9.221,13.3-.214.572.572.929.357.071,3.431.357.858.572,3.717-16.655.286-.286.357-4.789-.071-1.215.286-1.358-.5-1.072.786.858-45.889,2.645-.214.357.429,2.359-.357,2.931.572v-.071Zm21.015,11.58.071-.214-.357-.214,11.937-11.151.071.572.929.286.143.429v-1.358H97.5l-.572.786.071,6.29-.786,1.358.929.858H85.989l-6.719,6.219.357,14.01,6.719,7.076,11.58-.5-.786.715.643,6.433.357,1.93-15.868.715.143-2.144-.643.786-.357.858L70.335,161.594l-.357.071-.5-22.015.429-.143Zm33.095-11.294,1.072-.286.715.786.643-.858,5.79-.071.572,1.144.858-.929v17.655h10.793l.286-19.013.715,1.144,1.573-.071.715.429,2.287-.286,2.716.357.929.858.572-.715-.214,17.226h1.93l-.643.5-.429,8.22-1,.357-.214,18.87-.858-.572h-1.93l-4.074-.357-1.715.357-.929-.286.214-18.013-10.722.071v18.084l-2.144.429-1.715-.357-3.145.143-1.144.357-.643-1.144-.858,1.287Zm47.39-.286,16.083-.214-1.215.5.429,1.93-.286.572.357,2.216-.357.715.357.643-.286.929v1.644l-13.8.214.071-.357-.858-.572-.214,9.721,10.15-.214,1.715.5-.643.715.286,3.074.572,3.074-.071,1.573-12.223.286-.214,9.221,13.3-.214.572.572.929.357.071,3.431.357.858.572,3.717-16.655.286-.286.357-4.789-.071-1.215.286-1.358-.5-1.072.786.858-45.889,2.645-.214.357.429,2.359-.357,2.931.572v-.071Zm44.031.071-.071.214,8.006,8.292h.214v.143l.143.143-.143.071.071,10.936-.214.214-7.148,6.362.071.214-1.287.858-1,.071.572.858,10.865,16.44-1.43-.357-.715.858-4.074-.286-2.144.643-1.715-1-.357.929-10.221-17.155.429-.286,5.289-.572-8.292.143V173.6l-.572-.858-2.216.429-4,.143h-1.644l-1.072.286-.143-46.1,1.5.286,6.862.929.286-.286-.357-.572Zm-4.289,18.584,2.859-2.573v-4.646l-.572.071-2.43-2.359-8.72-.071v15.511l.286-.214.357-5.218.429-.429Zm31.665,14.081-2.573.214-.858-.572-2.573.5h-1.715l-1.072-.929-.786.929V127.856l.929,1.287.929-1.358,5.718.071,1.072.286.929-.858Zm-9.578,5,1.287.429.572-.5,5.575-.286,1.43.643.715-.357v8.434l-.786-.715-.715.5-1.43-.071h-3l-.786.429-2.287-.715-.572.357Z" transform="translate(2115.754 706.834) rotate(-7)" fill="#fff" stroke="rgba(0,0,0,0)" stroke-width="1"/>
    <path id="Pfad_10104" data-name="Pfad 10104" d="M20.085,24.59l7.72-1-5.5,5.289-.143,1.144-3.145-1.144V24.447ZM9.793,15.584v.858L.572,20.516l1.573-2.287,1.215-3.074,1.072-1.144V13.44ZM15.582,37.1l2.5.071-.572.858.357,3.717-.5.5.071,2.931-1.43-1-.214-.715L14.51,42.174l-.572-1.93-.858-.929Zm3.431-2.931.786-.715.143.643,1.5.143,6.79,3.359v.357l-.143.143-9.078-2.073ZM.357,9.008l9.078,1.858.357-.5V12.3L8.577,13.583V12.439l-2.43-.715-.5.071-4-1.787-1,.071L0,9.365ZM9.364,6.649v-3.5l.214.429.5.214,2.645,5.218-.858,1L9.292,9.937l.286-.858Zm34.882,12.58-.071,9.149-4.861.071,1.072-.858-1.358-.071-.429-4.36.429-1.858-.643-.786.858-.429-1.072-.715ZM56.4,1.36,55.253,7.793l.5.572-1.072.715v.858H51.822l-.572-.572.643-.071,2.645-3.717-.572-.286L56.039,1.5l.5-.429ZM52.68,19.086l1.573-.071-.214.786,1.43,3.717.786,2.931-.786-.214-2.359-3.5-.5-1.715-1.287-.643ZM42.816,1.932,44.1,2l.357-.143-.071,8.006-1.573-.071.5-.643Zm12.652,15.3V16.3l1-1,.572.643,2.716,1,3.431,2.287-5.861-1.358-1-.786ZM56.54,11.51l4.575-.357L56.4,13.082l-.5.715-.429-.357V12.3h.715ZM76.625,37.242l3.145-.071-.143,8.292-.715.715-1.787.071.071-1.787,1.144-.572L77.125,43.1l-.071-5.218Zm3.574-18.3-.214,9.006H78.412v-.715l.643-.929-.715-.643.071-4.861.715-.858-.715-1ZM79.341,1.574l.572.071.643,1-.143,6.576-.286-.214-.5-.858L79.2,3l.715-.643Zm50.75,33.595-1.215.572.572,1.215L126.875,44.1h-.5l.286-16.011,3.217,5.361ZM110.863,3.862l-.071,15.511-3.717-6.147L108,13.3l-.143-2.073,1.573-2.931-.5-1.644,1.144.214-.143-2.216Zm82.484,31.806,3.145-.071-.143,8.292-.715.715-1.787.071.071-1.787,1.144-.572-1.215-.786-.071-5.218Zm3.574-18.3-.214,9.006h-1.573v-.715l.643-.929-.715-.643.071-4.861.715-.858-.715-1ZM196.064,0l.572.071.643,1-.143,6.576-.286-.214-.5-.858-.429-5.146.715-.643ZM91.564,99.883l1.644.071-.429,1.215,1.573,2.573-.5,1,1.144,1,.572,3.217-.071.071-1.072-.286-3.288-4-1.072-.429-.143-1.287-.929-.643ZM83.7,99.668l.071,9.006-2.931-.071.429-1.715-.357-1,.715-.786-.929-1.144.214-3.931-.715-.5Zm0-35.525v8.935H81.128l.5-.929-.5-1.287.5-4.217-.572-.715,1.072-1.787Zm8.22,8.792-2.716-2.859h1.072l1-1.5,1.215.143,3.645-2.144-1.787,3.288-.929,1.573.071,1.5Zm13.8,3.359.715.214L101.5,79.726l-1,.071-1.072,1.144-2-2.144V77.724l.786-.572,2.5,1,.929-.858.429.429h.071ZM97.425,96.166v-.786l3.145.214,6.647,1.787-2-.357-4.074.071-1.93-.715-.572.429Zm21.8,4.146,3.145-.071-.143,8.292-.715.715-1.787.071.071-1.787,1.144-.572-1.215-.786-.071-5.218Zm3.574-18.3-.214,9.006h-1.573V90.3l.643-.929-.715-.643.071-4.861.715-.858-.715-1Zm-.858-17.369.572.071.643,1-.143,6.576-.286-.214-.5-.858-.429-5.146.715-.643Zm69.334,33.595-1.215.572.572,1.215-2.573,7.148h-.5l.286-16.011,3.217,5.361ZM172.049,66.931l-.071,15.511-3.717-6.147.929.071-.143-2.073,1.573-2.931-.5-1.644,1.144.214-.143-2.216Zm39.027,33.381,3.145-.071-.143,8.292-.715.715-1.787.071.071-1.787,1.144-.572-1.215-.786-.071-5.218Zm3.574-18.3-.214,9.006h-1.573V90.3l.643-.929-.715-.643.071-4.861.715-.858-.715-1Zm-.858-17.369.572.071.643,1-.143,6.576-.286-.214-.5-.858-.429-5.146.715-.643Zm50.75,33.595-1.215.572.572,1.215-2.573,7.148h-.5l.286-16.011,3.217,5.361ZM245.315,66.931l-.071,15.511-3.717-6.147.929.071-.143-2.073,1.573-2.931-.5-1.644,1.144.214-.143-2.216ZM24.8,127.284v.143l-.715.786-.715,4.5.429.786-.715,1.287.071,1-2.788.071-3.431-3.574,1-.214.143-.858,5.146-3.788,1.358-.357ZM11.651,162.952V172.1H9.006l-.143-6.219.643-2.5-.715-.429Zm11.008-24.66v-2.073l.357.5,1.43-1.358.572.429,5.146-1.43,1.358.715.786-.214-.214.786-6.147,1.858-.5.643-.858-.071-1.072,1.072Zm-2.287,15.654-2.716-3,.429-.5,4.5-.929.5,4.432Zm-10.507-26.8.357-.071,1.43,2.43v6.576H9.578l.715-.643-.715-.572.286-.929L9.507,128.5l.572-.715Zm13.081,33.666,1.215-1.287v1.144l1.144.143.715.858,4.646,2.073,1.787.643-.143.143-.286-.214-1.215.143-.643-.357-5.933-.572-.5.214-.5-.715-.286,1.072ZM20.8,163.023h1.43l-.643.572.786.715.858,2.073-.357.572.071,3.645-1.5-1.43.286-.786-.786-.786-1.144-2.43-.929-.143Zm1.858-20.085.214-.143.5.357,2,.572,5,2v.071h-.929l.143.643-3.645-.786-2,.429-.357-.643H22.73Zm9.149,11.151.572-.286.143.214L26.3,155.661l-.5.858-1.93-.071-.357.929-.5-.572v-2.43l.357.929.715-.429,6.79-1.43Zm-3.074-4.217-1.858,1.93-.5-.786L22.8,149.442l1.215-.286,2-1.144.5-.429Zm-8.149-4.932h1.144l-.143,1.858,1.358,1.287-.357,1.287-2.645-1-.858-.858-1.43.286Zm-9.292,0h.357v4.932l-.071-.357-.5-.5.214-.572-.286-.429Zm34.1,18.441,3.145-.071-.143,8.292-.715.715-1.787.071.071-1.787,1.144-.572-1.215-.786-.071-5.218Zm3.574-18.3-.214,9.006H47.176v-.715l.643-.929L47.1,151.8l.071-4.861.715-.858-.715-1Zm-.858-17.369.572.071.643,1-.143,6.576-.286-.214-.5-.858-.429-5.146.715-.643ZM79.127,156.59l.071,2.43-1.358-.357-1,.786-7,1.358-.357-.429.286-.357,1.5-.572.643-1.43,2.216-1.644.858.357.286-1.287,1.858-1Zm-9.435-17.226v-.643h.357l.357.429.715-.286,7.577,1.215.071,2.5L77.2,144.01l-.786-1.858-1.144.071-4.646-2.859Zm15.8-3H83.13l-.786-.5.572-.715-.572-1.43-.286-3.86.5-.286-.071-1.144L85.06,134h1l1,.929Zm-3.574,34.453.143-1.215.643-1.358-.5-.858.357-2.073.786-.858-.715-.643,3.217-.143,1.644,1.715-1.358.429Zm41.243-16.94.071-9.006,9.578-.071-.143,9.078Zm-10.722-9.006v9.078h-8.363l.715-.429-.572-.786L104,151.587l1.644-6.719Zm34.453,18.513,3.145-.071-.143,8.292-.715.715-1.787.071.071-1.787,1.144-.572-1.215-.786-.071-5.218Zm3.574-18.3-.214,9.006h-1.573v-.715l.643-.929-.715-.643.071-4.861.715-.858-.715-1Zm-.858-17.369.572.071.643,1-.143,6.576-.286-.214-.5-.858-.429-5.146.715-.643Zm44.388.071-1.715,5.146.429.143-1.144,2.716.357.5h-2.144l-2.5-2.5,2.073-2,.429-.143.214-1.858.572.143,2-2.216,1.573-.286ZM189.919,145.8l2.573-.071-.286.715,1,1.5v.858l1.644,4.217.214.572-.572.5-1.287-.072-.858-1.287-2.859-4.217-2-.286,1.358-1.5Zm5.575-.071-2.287-1.358-.429.715v-1.858l1.144-1,.572.643,1.573.071-.357.572.786-.071,5.861,3.645-.143.143Zm5.432-10.293,1.215.286.214.143v.214l-6.076,1.93-1.93.357-1.573.214v-2.359l1.144-.357.5.572Zm-21.515-7.148.357-.357.929.071.357-.357v8.577l-2.359-.071.572-.572.143-5.289.572-1.5Zm1,23.8.643-.357v3.217h-.715l.643-1,.071-1Zm12.294,2.287.143.357-3.5.071Z" transform="translate(2116.347 707.553) rotate(-7)" stroke="rgba(0,0,0,0)" stroke-width="1" opacity="0.081"/>
    <g id="Gruppe_1211-2" data-name="Gruppe 1211" transform="translate(2258.814 687.512)">
      <g id="Gruppe_1131" data-name="Gruppe 1131" transform="translate(0 0)">
        <g id="Gruppe_13" data-name="Gruppe 13">
          <path id="Pfad_13" data-name="Pfad 13" d="M948.067,774.86c.116.1.193.163.278.221a15.474,15.474,0,0,0,4.34,2.07,20.24,20.24,0,0,0,8.257.658,22.472,22.472,0,0,0,3.245-.622,22.7,22.7,0,0,0,5.426-2.21,18.7,18.7,0,0,0,5.19-4.291,14.382,14.382,0,0,0,3.159-6.577,17.028,17.028,0,0,0-.031-6.183,17.551,17.551,0,0,0-1.306-4.224,20.629,20.629,0,0,0-6.39-7.864,30.457,30.457,0,0,0-9.146-4.727,41.3,41.3,0,0,0-9.315-1.882.531.531,0,0,0-.334,0,.961.961,0,0,0,.034.107,5.275,5.275,0,0,1,.389,2.95.455.455,0,0,0,0,.209c.069.262.13.526.194.788.253,1.009.471,2.025.679,3.045.127.654.272,1.3.375,1.961a15.843,15.843,0,0,1,.3,2.417.4.4,0,0,0,.031.153c.168.388.111.56-.263.77-.5.284-1,.569-1.486.885a7.155,7.155,0,0,0-1.841,1.626,10.1,10.1,0,0,0-.845,1.3.629.629,0,0,1-.366.315,1.087,1.087,0,0,1-1.263-.756,1.449,1.449,0,0,1,.06-.824,4.725,4.725,0,0,1,.716-1.224c.266-.351.553-.68.84-1.009a2.606,2.606,0,0,0,.438-.97.445.445,0,0,0-.269.117,3.48,3.48,0,0,1-.622.435c-.268.167-.532.336-.8.5a1.9,1.9,0,0,0-.938,1.581c-.011.173-.042.345-.07.518a.585.585,0,0,1-.267.4,1.01,1.01,0,0,1-.887.25.78.78,0,0,0,.279.46.435.435,0,0,1,.164.419,7.2,7.2,0,0,1-.16.9c-.069.29-.145.575-.188.871a1.082,1.082,0,0,0,.064.591c.073.18.149.357.219.53a1.887,1.887,0,0,1-.061,1.53.52.52,0,0,1-.673.3.512.512,0,0,1-.134-.076c-.121-.08-.221-.17-.341-.246a.616.616,0,0,0-.4-.124.8.8,0,0,1-.36.873c-.173.146-.345.3-.524.435-.441.331-.888.655-1.337.979a.339.339,0,0,0-.167.318,15.336,15.336,0,0,0,.3,2.631c.073.377.154.756.264,1.124.03.1.074.143.182.132a4.727,4.727,0,0,0,1.183-.225c.32-.116.377-.2.37-.545a.566.566,0,0,1,.479-.642.584.584,0,0,1,.087-.006,4.606,4.606,0,0,1,.554-.023,2.8,2.8,0,0,1,1.008.122.445.445,0,0,0,.453-.048c.071-.05.147-.093.219-.139a19.6,19.6,0,0,0,1.808-1.433,9.992,9.992,0,0,1,2.227-1.518,3.473,3.473,0,0,1,1.243-.393,1.247,1.247,0,0,1,1.3.705,2.073,2.073,0,0,1,.176.516q.09.465.147.936a.927.927,0,0,0,.671.852,2.748,2.748,0,0,1,1.041.687,10.279,10.279,0,0,1,1.148,1.366,1.348,1.348,0,0,1,.206,1.173c-.065.271-.172.53-.264.8-.158.466-.208.384.155.811a10.523,10.523,0,0,0,1.078,1.034,3.407,3.407,0,0,1,.7.849.97.97,0,0,1,.184.457c0,.26.152.326.36.357.06.008.122.02.182.028a.589.589,0,0,1,.559.62.561.561,0,0,1-.05.209c-.022.077-.093.147-.061.257.121.009.241.017.359.03a.719.719,0,0,1,.747.688v.01a.781.781,0,0,0,.063.318,2.4,2.4,0,0,1,.948-.216c.516-.029,1.03-.064,1.55-.091a1,1,0,0,0,.47-.141,1.072,1.072,0,0,1,.533-.195.387.387,0,0,1,.407.52.7.7,0,0,1-.185.312,2.784,2.784,0,0,1-.45.36,7.9,7.9,0,0,1-1.843.87,3.6,3.6,0,0,1-2.14.126,3.447,3.447,0,0,0-.777-.1c-.671-.012-1.329.076-1.995.1a8.05,8.05,0,0,1-2.027-.166c-1.167-.267-2.324-.59-3.47-.933-.81-.241-1.6-.5-2.394-.784-.2-.072-.209-.069-.278.126a1.013,1.013,0,0,1-.578.609,2.989,2.989,0,0,1-.725.188m-.776-39.222a1.432,1.432,0,0,0,.54.028,43.632,43.632,0,0,1,10.123,1.1,38.634,38.634,0,0,1,10.9,4.236,29.277,29.277,0,0,1,7.638,6.263,22.064,22.064,0,0,1,4.141,7.127,20.391,20.391,0,0,1,.765,2.89,19.421,19.421,0,0,1,.329,2.839A17.824,17.824,0,0,1,978.767,771a21.415,21.415,0,0,1-5.987,5.929,27.214,27.214,0,0,1-7.227,3.428,28.488,28.488,0,0,1-5.935,1.182,25.388,25.388,0,0,1-9.024-.728,18.915,18.915,0,0,1-7.009-3.519,17.534,17.534,0,0,1-6.287-12.045,17.076,17.076,0,0,1,.607-5.894,24.957,24.957,0,0,1,2.615-5.938,52.556,52.556,0,0,1,3.165-4.671c.963-1.3,1.961-2.583,2.883-3.911a17.327,17.327,0,0,0,1.188-1.947c.134-.268.25-.539.358-.819a2.782,2.782,0,0,0,.024-1.973,7.546,7.546,0,0,0-1.638-2.7,1.279,1.279,0,0,1-.27-.385.929.929,0,0,1,.369-1.186c.058-.038.138-.042.169-.116Z" transform="translate(-937.254 -735.637)" fill="#fff"/>
        </g>
        <g id="Gruppe_25" data-name="Gruppe 25" transform="translate(19.507 8.289)">
          <path id="Pfad_25" data-name="Pfad 25" d="M967.6,753.518a2.124,2.124,0,0,0,.215.071,5.376,5.376,0,0,1,2.034.94,5.958,5.958,0,0,0,1.607.816,4.958,4.958,0,0,1,1.122.506c.157.1.185.088.328-.064a.836.836,0,0,1,.152-.143.34.34,0,0,1,.477.06l.012.016a.869.869,0,0,1,.137.278,13.861,13.861,0,0,1,.781,4.141,14.387,14.387,0,0,1-.779,5.362,12.7,12.7,0,0,1-2.909,4.723.929.929,0,0,1-.619.3c-.134.01-.263.023-.4.024a.341.341,0,0,1-.367-.27,3.212,3.212,0,0,0-.533-1.161c-.1-.162-.2-.329-.3-.489a.442.442,0,0,1,.007-.516,1.931,1.931,0,0,0,.179-.357,1,1,0,0,0-.123-1,2.548,2.548,0,0,0-.473-.491,8.852,8.852,0,0,0-1.066-.716.527.527,0,0,1-.291-.509c0-.72-.328-.995-1.045-.907a4.374,4.374,0,0,0-1.367.442,6.089,6.089,0,0,0-1.548,1.015,1.035,1.035,0,0,1-.385.219c-.784.248-1.569.49-2.349.748a1.67,1.67,0,0,1-.974.042,20.714,20.714,0,0,1-2.306-.749.507.507,0,0,1-.333-.343,1.053,1.053,0,0,0-.149-.305.387.387,0,0,0-.32-.193c-.268-.012-.367-.114-.385-.367a9.823,9.823,0,0,0-.42-1.946,4.745,4.745,0,0,1-.272-1.464,1.9,1.9,0,0,1,.52-1.306,5.572,5.572,0,0,1,.442-.412.778.778,0,0,0,.284-.7c-.011-.236-.027-.47-.032-.707a1.1,1.1,0,0,1,.439-.957c1.06-.835,2.165-1.6,3.288-2.344.257-.171.517-.331.78-.489a1.6,1.6,0,0,1,.283-.136.363.363,0,0,1,.531.315,1.374,1.374,0,0,0,.088.382.259.259,0,0,0,.289.168,2.967,2.967,0,0,0,.887-.22,1.118,1.118,0,0,1,.791-.06,1.543,1.543,0,0,0,.443.046.828.828,0,0,0,.86-.694c.011-.068.019-.138.023-.207a.433.433,0,0,1,.418-.447h.007a3.7,3.7,0,0,0,1.057-.3,1.654,1.654,0,0,0,.83-.77,1.08,1.08,0,0,0,.015-.963.664.664,0,0,0-.867-.36.644.644,0,0,0-.143.081,1.711,1.711,0,0,0-.392.383.5.5,0,0,1-.646.183c-.264-.1-.525-.2-.784-.3a.514.514,0,0,0-.176-.051.24.24,0,0,0-.232.094c-.038.071.028.132.068.185a3.28,3.28,0,0,0,.248.3.352.352,0,0,1,.1.4.388.388,0,0,1-.37.2.767.767,0,0,1-.352-.1c-.579-.263-1.153-.546-1.755-.771a5.056,5.056,0,0,0-1.47-.363.737.737,0,0,0-.359.044c-.1.044-.144.1-.064.2a.274.274,0,0,1,.043.065.49.49,0,0,1-.151.676.473.473,0,0,1-.217.074.662.662,0,0,1-.385-.047.27.27,0,0,0-.289.036,1.964,1.964,0,0,0-.978,1.5c-.037.4-.1.794-.148,1.2a.531.531,0,0,1-.368.467c-.552.22-1.1.441-1.659.649a.482.482,0,0,1-.653-.2.405.405,0,0,1-.023-.052,2.284,2.284,0,0,1-.264-1.319.494.494,0,0,1,.436-.422c.325-.077.651-.152.975-.23.409-.1.431-.128.343-.532a1.476,1.476,0,0,0-.037-.153c-.053-.311-.274-.421-.553-.464-.157-.025-.331-.024-.389-.2s.063-.294.172-.407a2.072,2.072,0,0,0,.393-.495,1.165,1.165,0,0,0,.157-.757.471.471,0,0,1,.177-.468,1.907,1.907,0,0,0,.325-.341.185.185,0,0,0,0-.261l-.016-.014c-.217-.217-.217-.319-.042-.567a2.325,2.325,0,0,0,.138-.191c.07-.119.022-.207-.117-.208a1.3,1.3,0,0,0-.385.077,2.651,2.651,0,0,1-.672.114,1.063,1.063,0,0,1-.559-.115.316.316,0,0,1-.219-.388.312.312,0,0,1,.107-.162c.072-.086.153-.167.219-.26.126-.172.13-.2-.017-.361a.942.942,0,0,1-.135-1.1.607.607,0,0,1,.4-.354c.466-.126.928-.248,1.392-.372a3.456,3.456,0,0,0,.42-.152.4.4,0,0,0,.271-.4,9.078,9.078,0,0,1,.218-1.588,2.365,2.365,0,0,1,.193-.57.279.279,0,0,1,.3-.167,16.16,16.16,0,0,1,11.079,4.883c.506.487,1,.985,1.471,1.5a.381.381,0,0,1,.084.532.356.356,0,0,1-.08.081c-.076.086-.156.166-.232.251a.586.586,0,0,1-.664.177c-.1-.029-.224-.127-.29-.037s.06.2.122.283a1.636,1.636,0,0,0,.852.583c.161.055.22.031.269-.137a.457.457,0,0,1,.553-.333.47.47,0,0,1,.185.093,2.144,2.144,0,0,1,.915,1.3,6.324,6.324,0,0,1,.112,2.028,2.341,2.341,0,0,1-.032.364.383.383,0,0,1-.611.279,1.346,1.346,0,0,1-.206-.159,13.6,13.6,0,0,0-2-1.4,4.418,4.418,0,0,0-1.058-.442.736.736,0,0,0-.757.149c-.141.128-.305.234-.491.378" transform="translate(-954.883 -743.127)" fill="#fff"/>
        </g>
      </g>
      <g id="Gruppe_13-2" data-name="Gruppe 13" transform="translate(0 0)">
        <path id="Pfad_13-2" data-name="Pfad 13" d="M948.067,774.86c.116.1.193.163.278.221a15.474,15.474,0,0,0,4.34,2.07,20.24,20.24,0,0,0,8.257.658,22.472,22.472,0,0,0,3.245-.622,22.7,22.7,0,0,0,5.426-2.21,18.7,18.7,0,0,0,5.19-4.291,14.382,14.382,0,0,0,3.159-6.577,17.028,17.028,0,0,0-.031-6.183,17.551,17.551,0,0,0-1.306-4.224,20.629,20.629,0,0,0-6.39-7.864,30.457,30.457,0,0,0-9.146-4.727,41.3,41.3,0,0,0-9.315-1.882.531.531,0,0,0-.334,0,.961.961,0,0,0,.034.107,5.275,5.275,0,0,1,.389,2.95.455.455,0,0,0,0,.209c.069.262.13.526.194.788.253,1.009.471,2.025.679,3.045.127.654.272,1.3.375,1.961a15.843,15.843,0,0,1,.3,2.417.4.4,0,0,0,.031.153c.168.388.111.56-.263.77-.5.284-1,.569-1.486.885a7.155,7.155,0,0,0-1.841,1.626,10.1,10.1,0,0,0-.845,1.3.629.629,0,0,1-.366.315,1.087,1.087,0,0,1-1.263-.756,1.449,1.449,0,0,1,.06-.824,4.725,4.725,0,0,1,.716-1.224c.266-.351.553-.68.84-1.009a2.606,2.606,0,0,0,.438-.97.445.445,0,0,0-.269.117,3.48,3.48,0,0,1-.622.435c-.268.167-.532.336-.8.5a1.9,1.9,0,0,0-.938,1.581c-.011.173-.042.345-.07.518a.585.585,0,0,1-.267.4,1.01,1.01,0,0,1-.887.25.78.78,0,0,0,.279.46.435.435,0,0,1,.164.419,7.2,7.2,0,0,1-.16.9c-.069.29-.145.575-.188.871a1.082,1.082,0,0,0,.064.591c.073.18.149.357.219.53a1.887,1.887,0,0,1-.061,1.53.52.52,0,0,1-.673.3.512.512,0,0,1-.134-.076c-.121-.08-.221-.17-.341-.246a.616.616,0,0,0-.4-.124.8.8,0,0,1-.36.873c-.173.146-.345.3-.524.435-.441.331-.888.655-1.337.979a.339.339,0,0,0-.167.318,15.336,15.336,0,0,0,.3,2.631c.073.377.154.756.264,1.124.03.1.074.143.182.132a4.727,4.727,0,0,0,1.183-.225c.32-.116.377-.2.37-.545a.566.566,0,0,1,.479-.642.584.584,0,0,1,.087-.006,4.606,4.606,0,0,1,.554-.023,2.8,2.8,0,0,1,1.008.122.445.445,0,0,0,.453-.048c.071-.05.147-.093.219-.139a19.6,19.6,0,0,0,1.808-1.433,9.992,9.992,0,0,1,2.227-1.518,3.473,3.473,0,0,1,1.243-.393,1.247,1.247,0,0,1,1.3.705,2.073,2.073,0,0,1,.176.516q.09.465.147.936a.927.927,0,0,0,.671.852,2.748,2.748,0,0,1,1.041.687,10.279,10.279,0,0,1,1.148,1.366,1.348,1.348,0,0,1,.206,1.173c-.065.271-.172.53-.264.8-.158.466-.208.384.155.811a10.523,10.523,0,0,0,1.078,1.034,3.407,3.407,0,0,1,.7.849.97.97,0,0,1,.184.457c0,.26.152.326.36.357.06.008.122.02.182.028a.589.589,0,0,1,.559.62.561.561,0,0,1-.05.209c-.022.077-.093.147-.061.257.121.009.241.017.359.03a.719.719,0,0,1,.747.688v.01a.781.781,0,0,0,.063.318,2.4,2.4,0,0,1,.948-.216c.516-.029,1.03-.064,1.55-.091a1,1,0,0,0,.47-.141,1.072,1.072,0,0,1,.533-.195.387.387,0,0,1,.407.52.7.7,0,0,1-.185.312,2.784,2.784,0,0,1-.45.36,7.9,7.9,0,0,1-1.843.87,3.6,3.6,0,0,1-2.14.126,3.447,3.447,0,0,0-.777-.1c-.671-.012-1.329.076-1.995.1a8.05,8.05,0,0,1-2.027-.166c-1.167-.267-2.324-.59-3.47-.933-.81-.241-1.6-.5-2.394-.784-.2-.072-.209-.069-.278.126a1.013,1.013,0,0,1-.578.609,2.989,2.989,0,0,1-.725.188m-.776-39.222a1.432,1.432,0,0,0,.54.028,43.632,43.632,0,0,1,10.123,1.1,38.634,38.634,0,0,1,10.9,4.236,29.277,29.277,0,0,1,7.638,6.263,22.064,22.064,0,0,1,4.141,7.127,20.391,20.391,0,0,1,.765,2.89,19.421,19.421,0,0,1,.329,2.839A17.824,17.824,0,0,1,978.767,771a21.415,21.415,0,0,1-5.987,5.929,27.214,27.214,0,0,1-7.227,3.428,28.488,28.488,0,0,1-5.935,1.182,25.388,25.388,0,0,1-9.024-.728,18.915,18.915,0,0,1-7.009-3.519,17.534,17.534,0,0,1-6.287-12.045,17.076,17.076,0,0,1,.607-5.894,24.957,24.957,0,0,1,2.615-5.938,52.556,52.556,0,0,1,3.165-4.671c.963-1.3,1.961-2.583,2.883-3.911a17.327,17.327,0,0,0,1.188-1.947c.134-.268.25-.539.358-.819a2.782,2.782,0,0,0,.024-1.973,7.546,7.546,0,0,0-1.638-2.7,1.279,1.279,0,0,1-.27-.385.929.929,0,0,1,.369-1.186c.058-.038.138-.042.169-.116Z" transform="translate(-937.254 -735.637)" fill="#fff"/>
      </g>
      <g id="Gruppe_25-2" data-name="Gruppe 25" transform="translate(19.507 8.288)">
        <path id="Pfad_25-2" data-name="Pfad 25" d="M967.6,753.518a2.124,2.124,0,0,0,.215.071,5.376,5.376,0,0,1,2.034.94,5.958,5.958,0,0,0,1.607.816,4.958,4.958,0,0,1,1.122.506c.157.1.185.088.328-.064a.836.836,0,0,1,.152-.143.34.34,0,0,1,.477.06l.012.016a.869.869,0,0,1,.137.278,13.861,13.861,0,0,1,.781,4.141,14.387,14.387,0,0,1-.779,5.362,12.7,12.7,0,0,1-2.909,4.723.929.929,0,0,1-.619.3c-.134.01-.263.023-.4.024a.341.341,0,0,1-.367-.27,3.212,3.212,0,0,0-.533-1.161c-.1-.162-.2-.329-.3-.489a.442.442,0,0,1,.007-.516,1.931,1.931,0,0,0,.179-.357,1,1,0,0,0-.123-1,2.548,2.548,0,0,0-.473-.491,8.852,8.852,0,0,0-1.066-.716.527.527,0,0,1-.291-.509c0-.72-.328-.995-1.045-.907a4.374,4.374,0,0,0-1.367.442,6.089,6.089,0,0,0-1.548,1.015,1.035,1.035,0,0,1-.385.219c-.784.248-1.569.49-2.349.748a1.67,1.67,0,0,1-.974.042,20.714,20.714,0,0,1-2.306-.749.507.507,0,0,1-.333-.343,1.053,1.053,0,0,0-.149-.305.387.387,0,0,0-.32-.193c-.268-.012-.367-.114-.385-.367a9.823,9.823,0,0,0-.42-1.946,4.745,4.745,0,0,1-.272-1.464,1.9,1.9,0,0,1,.52-1.306,5.572,5.572,0,0,1,.442-.412.778.778,0,0,0,.284-.7c-.011-.236-.027-.47-.032-.707a1.1,1.1,0,0,1,.439-.957c1.06-.835,2.165-1.6,3.288-2.344.257-.171.517-.331.78-.489a1.6,1.6,0,0,1,.283-.136.363.363,0,0,1,.531.315,1.374,1.374,0,0,0,.088.382.259.259,0,0,0,.289.168,2.967,2.967,0,0,0,.887-.22,1.118,1.118,0,0,1,.791-.06,1.543,1.543,0,0,0,.443.046.828.828,0,0,0,.86-.694c.011-.068.019-.138.023-.207a.433.433,0,0,1,.418-.447h.007a3.7,3.7,0,0,0,1.057-.3,1.654,1.654,0,0,0,.83-.77,1.08,1.08,0,0,0,.015-.963.664.664,0,0,0-.867-.36.644.644,0,0,0-.143.081,1.711,1.711,0,0,0-.392.383.5.5,0,0,1-.646.183c-.264-.1-.525-.2-.784-.3a.514.514,0,0,0-.176-.051.24.24,0,0,0-.232.094c-.038.071.028.132.068.185a3.28,3.28,0,0,0,.248.3.352.352,0,0,1,.1.4.388.388,0,0,1-.37.2.767.767,0,0,1-.352-.1c-.579-.263-1.153-.546-1.755-.771a5.056,5.056,0,0,0-1.47-.363.737.737,0,0,0-.359.044c-.1.044-.144.1-.064.2a.274.274,0,0,1,.043.065.49.49,0,0,1-.151.676.473.473,0,0,1-.217.074.662.662,0,0,1-.385-.047.27.27,0,0,0-.289.036,1.964,1.964,0,0,0-.978,1.5c-.037.4-.1.794-.148,1.2a.531.531,0,0,1-.368.467c-.552.22-1.1.441-1.659.649a.482.482,0,0,1-.653-.2.405.405,0,0,1-.023-.052,2.284,2.284,0,0,1-.264-1.319.494.494,0,0,1,.436-.422c.325-.077.651-.152.975-.23.409-.1.431-.128.343-.532a1.476,1.476,0,0,0-.037-.153c-.053-.311-.274-.421-.553-.464-.157-.025-.331-.024-.389-.2s.063-.294.172-.407a2.072,2.072,0,0,0,.393-.495,1.165,1.165,0,0,0,.157-.757.471.471,0,0,1,.177-.468,1.907,1.907,0,0,0,.325-.341.185.185,0,0,0,0-.261l-.016-.014c-.217-.217-.217-.319-.042-.567a2.325,2.325,0,0,0,.138-.191c.07-.119.022-.207-.117-.208a1.3,1.3,0,0,0-.385.077,2.651,2.651,0,0,1-.672.114,1.063,1.063,0,0,1-.559-.115.316.316,0,0,1-.219-.388.312.312,0,0,1,.107-.162c.072-.086.153-.167.219-.26.126-.172.13-.2-.017-.361a.942.942,0,0,1-.135-1.1.607.607,0,0,1,.4-.354c.466-.126.928-.248,1.392-.372a3.456,3.456,0,0,0,.42-.152.4.4,0,0,0,.271-.4,9.078,9.078,0,0,1,.218-1.588,2.365,2.365,0,0,1,.193-.57.279.279,0,0,1,.3-.167,16.16,16.16,0,0,1,11.079,4.883c.506.487,1,.985,1.471,1.5a.381.381,0,0,1,.084.532.356.356,0,0,1-.08.081c-.076.086-.156.166-.232.251a.586.586,0,0,1-.664.177c-.1-.029-.224-.127-.29-.037s.06.2.122.283a1.636,1.636,0,0,0,.852.583c.161.055.22.031.269-.137a.457.457,0,0,1,.553-.333.47.47,0,0,1,.185.093,2.144,2.144,0,0,1,.915,1.3,6.324,6.324,0,0,1,.112,2.028,2.341,2.341,0,0,1-.032.364.383.383,0,0,1-.611.279,1.346,1.346,0,0,1-.206-.159,13.6,13.6,0,0,0-2-1.4,4.418,4.418,0,0,0-1.058-.442.736.736,0,0,0-.757.149c-.141.128-.305.234-.491.378" transform="translate(-954.883 -743.127)" fill="#fff"/>
      </g>
    </g>
  </g>
</svg>
