<svg xmlns="http://www.w3.org/2000/svg" width="215.712" height="77.95" viewBox="0 0 215.712 77.95">
  <path id="Pfad_10171" data-name="Pfad 10171" d="M-53.958-17.714l.17.034,3.876-3.842.408,1.054.034-.986.476-.068,7.888.068-.544.306.136.578-.442,2.55.068.238-.748.374.51.238-6.188-.034-.986,1.088v1.564l8.3,3.23.374.476-.1.1.272-.034v6.936H-40.6l-4.25,3.91-.816-.544.034.442-.272.17L-54.2-.1l.578-.34-.306-.34.578-1.428.544-.816-.238-.238.374-.986-.238-.272,6.358.2,1.632-1.394V-8.228l-8.3-3.162-.646-.578.17-.238-.272.1Zm26.928-3.808-.034.068,3.978,4.08-1.8.714.544-.034L-23.12-17l.034,4.454-.544-.2-.272-.068.714.476-3.468,3.434-.1-.374-.442-.1.2.748-5.95.17-.068,8.228-.34-.2-.68.442L-37.2.034-37.5.2l.1-21.624.374.578.238-.476,3.2.272v-.34l-.136-.2Zm-5.882,8.7,4.012-.068,1.326-1.326v-1.36l-1.734-1.666-3.536-.034Zm16.966-8.67,7.65-.1-.578.238.2.918-.136.272.17,1.054-.17.34.17.306-.136.442v.782l-6.562.1.034-.17-.408-.272-.1,4.624,4.828-.1.816.238-.306.34.136,1.462.272,1.462-.034.748-5.814.136-.1,4.386,6.324-.1.272.272.442.17.034,1.632.17.408L-8.5-.136-16.422,0l-.136.17L-18.836.136l-.578.136L-20.06.034l-.51.374.408-21.828,1.258-.1.17.2,1.122-.17,1.394.272v-.034ZM-1.734-.17l-.374.306-.646-.272-.51.34-1.87.034L-5.474,0l-.374.408.1-22.168.272.442.374-.34.612.17,2.618.034.646.272v1.054L-.85-20.5,6.29-8.6l.2-13.124.272.442.272-.34.476.238,1.666-.238,1.258.136.612-.17-.442,22-.272-.374-.68-.034L7.718-.306l-.374.2-.578-.17L6.29-.1,6.154-.408V-.986L5.78-1.02-1.258-12.75-1.326.17ZM30.192-5.644h.034L24.65-.136V-.1h-.034L19.04-.272v.034L17.238,0,16.9-.34l-.612.374L14.926,0,14.45.272l-.034-22.338.442.272,1.36-.136.238.136h2.55v.34l6.562-.1-.408.306.034.51-.272.442.442-.238.2-.476,4.522,5.236-.272.2.408.068ZM25.364-6.63l.17.034v-7.888l-2.618-2.788-3.91.068V-4.556l3.74.1L25.3-6.936Zm12.1-14.858,7.65-.1-.578.238.2.918-.136.272.17,1.054-.17.34.17.306-.136.442v.782l-6.562.1.034-.17-.408-.272-.1,4.624,4.828-.1.816.238-.306.34.136,1.462.272,1.462-.034.748L37.5-8.67l-.1,4.386,6.324-.1L44-4.114l.442.17.034,1.632.17.408.272,1.768L36.992,0l-.136.17L34.578.136,34,.272,33.354.034l-.51.374.408-21.828,1.258-.1.17.2,1.122-.17,1.394.272v-.034ZM-90.423,24.356h.034l-5.576,5.508V29.9H-96l-5.576-.17v.034l-1.8.238-.34-.34-.612.374-1.36-.034-.476.272L-106.2,7.934l.442.272,1.36-.136.238.136h2.55v.34l6.562-.1-.408.306.034.51-.272.442.442-.238.2-.476,4.522,5.236-.272.2.408.068Zm-4.828-.986.17.034V15.516L-97.7,12.728l-3.91.068V25.444l3.74.1,2.55-2.482Zm12.1-14.858,7.65-.1-.578.238.2.918-.136.272.17,1.054-.17.34.17.306-.136.442v.782l-6.562.1.034-.17-.408-.272-.1,4.624,4.828-.1.816.238-.306.34.136,1.462.272,1.462-.034.748-5.814.136-.1,4.386,6.324-.1.272.272.442.17.034,1.632.17.408.272,1.768L-83.623,30l-.136.17-2.278-.034-.578.136-.646-.238-.51.374.408-21.828,1.258-.1.17.2,1.122-.17,1.394.272V8.75ZM-70.4,30l-.238-.34-.408.34h-1.19l-.476.238V8.58l.408.1.85-.238,2.414-.306.476.306.51-.306V29.626l-.476.1-.442.272Zm10.3-.17-.374.306-.646-.272-.51.34-1.87.034-.34-.238-.374.408.1-22.168.272.442.374-.34.612.17,2.618.034.646.272V9.872l.374-.374,7.14,11.9.2-13.124.272.442.272-.34.476.238,1.666-.238,1.258.136.612-.17-.442,22-.272-.374-.68-.034-1.938-.238-.374.2-.578-.17-.476.17-.136-.306v-.578l-.374-.034-7.038-11.73-.068,12.92ZM-39.457,8.512l7.65-.1-.578.238.2.918-.136.272.17,1.054-.17.34.17.306-.136.442v.782l-6.562.1.034-.17-.408-.272-.1,4.624,4.828-.1.816.238-.306.34.136,1.462.272,1.462-.034.748-5.814.136-.1,4.386,6.324-.1.272.272.442.17.034,1.632.17.408.272,1.768L-39.933,30l-.136.17-2.278-.034-.578.136-.646-.238-.51.374.408-21.828,1.258-.1.17.2,1.122-.17,1.394.272V8.75ZM-25.245,29.83l-.374.306-.646-.272-.51.34-1.87.034-.34-.238-.374.408.1-22.168.272.442.374-.34.612.17,2.618.034.646.272V9.872l.374-.374,7.14,11.9.2-13.124.272.442.272-.34.476.238,1.666-.238,1.258.136.612-.17-.442,22-.272-.374-.68-.034-1.938-.238-.374.2-.578-.17-.476.17-.136-.306v-.578l-.374-.034-7.038-11.73-.068,12.92ZM.255,8.138l.272.34H1.683l1.428.2.85-.17-.034-.136L11.1,8.308l-.034.272,3.57,3.6v5.168l-.918.034.34.374.408.034-1.5,1.53,1.666,1.7.034.17.068-.034V21.3l-.034,4.93v.068h-.068l-2.958,3.094L10.9,29.8l-.714-.612.034.408.238.306H4.811l-.34.272-1.938.068-.374-.374-.374.408H.731l-.476.306ZM4.811,19.324v6.222l4.352.034,1.02-1.054.034-1.9-1.258-1.36H5.219Zm0-2.346h4.25l1.02-.952-.034-2.21L8.959,12.66l-4.148.1ZM22.423,8.512l7.65-.1-.578.238.2.918-.136.272.17,1.054-.17.34.17.306-.136.442v.782l-6.562.1.034-.17-.408-.272-.1,4.624,4.828-.1.816.238-.306.34.136,1.462.272,1.462-.034.748-5.814.136-.1,4.386,6.324-.1.272.272.442.17.034,1.632.17.408.272,1.768L21.947,30l-.136.17-2.278-.034-.578.136-.646-.238-.51.374L18.207,8.58l1.258-.1.17.2,1.122-.17,1.394.272V8.75Zm10,5.508.034-.1-.17-.1,5.678-5.3.034.272.442.136.068.2V8.478h6.9l-.272.374.034,2.992-.374.646.442.408h-5.3l-3.2,2.958.17,6.664,3.2,3.366,5.508-.238-.374.34.306,3.06.17.918-7.548.34.068-1.02-.306.374-.17.408-5.27-5.542-.17.034-.238-10.472.2-.068ZM48.161,8.648l.51-.136.34.374.306-.408,2.754-.034.272.544.408-.442v8.4h5.134L58.021,7.9l.34.544.748-.034.34.2,1.088-.136,1.292.17.442.408.272-.34-.1,8.194h.918l-.306.238-.2,3.91-.476.17-.1,8.976-.408-.272h-.918l-1.938-.17-.816.17-.442-.136.1-8.568-5.1.034v8.6l-1.02.2-.816-.17-1.5.068-.544.17-.306-.544-.408.612ZM70.7,8.512l7.65-.1-.578.238.2.918-.136.272.17,1.054-.17.34.17.306-.136.442v.782l-6.562.1.034-.17-.408-.272-.1,4.624,4.828-.1.816.238-.306.34.136,1.462.272,1.462-.034.748-5.814.136-.1,4.386,6.324-.1.272.272.442.17.034,1.632.17.408.272,1.768L70.227,30l-.136.17-2.278-.034-.578.136-.646-.238-.51.374L66.487,8.58l1.258-.1.17.2,1.122-.17,1.394.272V8.75Zm20.944.034-.034.1,3.808,3.944h.1v.068l.068.068-.068.034.034,5.2-.1.1-3.4,3.026.034.1-.612.408L91,21.636l.272.408,5.168,7.82-.68-.17-.34.408-1.938-.136-1.02.306-.816-.476-.17.442-4.862-8.16.2-.136,2.516-.272-3.944.068v8.5l-.272-.408-1.054.2-1.9.068h-.782l-.51.136L80.8,8.308l.714.136,3.264.442.136-.136-.17-.272Zm-2.04,8.84,1.36-1.224v-2.21l-.272.034-1.156-1.122-4.148-.034v7.378l.136-.1.17-2.482.2-.2Zm15.062,6.7-1.224.1-.408-.272-1.224.238H101l-.51-.442-.374.442V8.478l.442.612L101,8.444l2.72.034.51.136.442-.408Zm-4.556,2.38.612.2L101,26.43l2.652-.136.68.306.34-.17v4.012l-.374-.34-.34.238-.68-.034h-1.428l-.374.2-1.088-.34-.272.17Z" transform="translate(108.097 34.657) rotate(-7)" fill="#fff"/>
</svg>
