<svg xmlns="http://www.w3.org/2000/svg" width="521.397" height="450.383" viewBox="0 0 521.397 450.383">
  <g id="Gruppe_1324" data-name="Gruppe 1324" transform="translate(-833.594 -4191.069)">
    <g id="Gruppe_1322" data-name="Gruppe 1322">
      <path id="Pfad_10148" data-name="Pfad 10148" d="M136.072,2597.927l227.976-26.951-2.367,13.035-230.54,26.172Z" transform="translate(708.527 1813.29)" fill="#1878d8"/>
      <path id="Differenzmenge_3" data-name="Differenzmenge 3" d="M274.527,169.7,34.2,145.294l-.064-.208c-1.557-5.1-9.72-31.888-17.562-58.3-5.064-17.056-9.038-30.73-11.81-40.64C1.3,33.758-.289,27.25.043,26.8a.055.055,0,0,1,.045-.025H.133C4.108,26.777,228.56.268,230.826,0ZM127.45,58.7a40.354,40.354,0,0,0-9.878,1.219,39.519,39.519,0,0,0-22.287,15.1,42.86,42.86,0,0,0-7.037,15.485,47.637,47.637,0,0,0-.77,17.61,51.558,51.558,0,0,0,23.9,36.531,44.924,44.924,0,0,0,23.251,6.68,40.372,40.372,0,0,0,9.879-1.219A39.518,39.518,0,0,0,166.791,135a42.86,42.86,0,0,0,7.037-15.485,47.639,47.639,0,0,0,.77-17.61,51.553,51.553,0,0,0-23.9-36.53A44.922,44.922,0,0,0,127.45,58.7Z" transform="translate(838.346 4396.43)" fill="#60acf8" stroke="#141412" stroke-linejoin="round" stroke-width="7"/>
      <path id="Pfad_10150" data-name="Pfad 10150" d="M130.525,2610.839l6.677-12.189L364.29,2570.5l-2.609,14.212" transform="translate(707.82 1812.74)" fill="none" stroke="#000" stroke-linecap="round" stroke-linejoin="round" stroke-width="7"/>
      <path id="Schnittmenge_2" data-name="Schnittmenge 2" d="M194.59,124.543l-55.185,4.063a43.226,43.226,0,0,0,5.549-13.3,47.638,47.638,0,0,0,.77-17.61,51.554,51.554,0,0,0-23.9-36.53,46.745,46.745,0,0,0-11.192-4.941L203.037,0l42.1,163.5ZM0,123.55,59.088,87.595a47.788,47.788,0,0,0-.484,16.313,51.068,51.068,0,0,0,5.969,17.733,51.676,51.676,0,0,0,8.968,11.816l-68.99,5.08C3.594,135.4,1.993,130.134,0,123.55Z" transform="translate(867.22 4400.638)" fill="#0a6b91" opacity="0.145" style="mix-blend-mode: multiply;isolation: isolate"/>
      <path id="Pfad_10154" data-name="Pfad 10154" d="M239.3,2570.5l42.128,182.919" transform="translate(832.81 1812.74)" fill="none" stroke="#000" stroke-linecap="round" stroke-width="7"/>
    </g>
    <g id="Gruppe_1323" data-name="Gruppe 1323">
      <path id="Pfad_10153" data-name="Pfad 10153" d="M62.793,12.509A200.293,200.293,0,0,1,10.241,30.031c-3.989.758-7.559,1.379-9.085,1.811-1.792.51-1.512,3.9.924,3.708,5.036-.4,12.26.262,30.876,25.348,15.9,21.414,14.319,53.867,13.216,70.277-.685,10.183-6.728,18.616-9.375,22.471-.625.914.312,4.191,2.9,1.967S69.9,132.585,95.829,124.433c11.465-3.607,32.108-10.863,53.531-7.371,21.309,3.479,41.174,9.14,55.755,8.258,19.14-1.158,34.451-8.354,34.644-9.434.179-.983-1.792-1.176-4.83-3.952a51.358,51.358,0,0,1-11.562-17.1c-7.876-18.809-10.647-30-9-63.126.349-7.072-.993-17.844-1.742-18.515s-18.781,1.755-27.816-.312C169.639,9.412,156.938,3.948,134.131.988,106.205-2.633,79.851,4.26,62.793,12.509Z" transform="matrix(0.934, 0.358, -0.358, 0.934, 1127.913, 4194.323)" fill="#fff" stroke="#000" stroke-linecap="round" stroke-linejoin="round" stroke-width="5"/>
      <g id="Gruppe_1269" data-name="Gruppe 1269" transform="matrix(0.934, 0.358, -0.358, 0.934, 1113.277, 4213.821)">
        <path id="Pfad_10102" data-name="Pfad 10102" d="M.883,5.165C.975,5.486,7.358,20.5,13.925,41.027,20.919,62.878,26.966,85.1,31.787,104.318c7.982,31.809,61.132,311.261,61.15,311.417.175,1.925.74,4.651,2.978,4.292,3.143-.5,3.189-1.958,3.01-3.878-.014-.142-49.083-260.625-50.369-268.2-1.8-10.62-8.125-39.065-17.393-75.621A421.8,421.8,0,0,0,6.815,3.147C5.832.9,3.865-.772,1.531.367-1.066,1.635.3,3.157.883,5.165Z" transform="translate(0 0)"/>
      </g>
      <g id="Gruppe_1270" data-name="Gruppe 1270" transform="matrix(0.974, 0.225, -0.225, 0.974, 1193.879, 4255.094)">
        <g id="Gruppe_13" data-name="Gruppe 13" transform="translate(0 0)">
          <path id="Pfad_13" data-name="Pfad 13" d="M13.359,54.629c.145.149.241.259.348.355A21.654,21.654,0,0,0,19.384,58.6a28.316,28.316,0,0,0,11.361,2.316,32.672,32.672,0,0,0,12.531-2.46,26.159,26.159,0,0,0,7.944-5.077,20.135,20.135,0,0,0,5.511-8.6,23.831,23.831,0,0,0,1.011-8.6,24.508,24.508,0,0,0-1.094-6.091,28.868,28.868,0,0,0-7.537-12.016,42.6,42.6,0,0,0-11.9-8.127,57.86,57.86,0,0,0-12.62-4.193.742.742,0,0,0-.466-.052,1.53,1.53,0,0,0,.028.152,7.375,7.375,0,0,1,.038,4.165.628.628,0,0,0-.035.29c.052.376.09.752.134,1.128.18,1.446.314,2.9.425,4.348.065.931.151,1.856.186,2.785a22.153,22.153,0,0,1,.007,3.413.575.575,0,0,0,.017.217c.169.566.059.8-.5,1.025-.745.311-1.487.625-2.215.977a10.026,10.026,0,0,0-2.837,1.943,14.036,14.036,0,0,0-1.387,1.66.882.882,0,0,1-.563.376A1.524,1.524,0,0,1,15.8,26.918a2.011,2.011,0,0,1,.224-1.135,6.567,6.567,0,0,1,1.19-1.578c.428-.442.884-.849,1.339-1.259a3.643,3.643,0,0,0,.773-1.274.614.614,0,0,0-.393.118,4.866,4.866,0,0,1-.939.5c-.4.187-.8.377-1.2.556a2.66,2.66,0,0,0-1.573,2.036c-.045.239-.117.473-.186.708a.813.813,0,0,1-.439.514,1.42,1.42,0,0,1-1.277.2,1.079,1.079,0,0,0,.314.687.61.61,0,0,1,.152.611,9.793,9.793,0,0,1-.377,1.228c-.145.39-.3.773-.411,1.177a1.517,1.517,0,0,0-.011.832c.069.263.145.521.214.78a2.645,2.645,0,0,1-.345,2.115A.728.728,0,0,1,11.7,33.9c-.149-.131-.28-.276-.432-.4a.85.85,0,0,0-.539-.242,1.121,1.121,0,0,1-.648,1.153c-.266.173-.532.355-.8.514-.67.384-1.346.759-2.023,1.132a.473.473,0,0,0-.286.414,21.4,21.4,0,0,0-.028,3.706c.038.538.086,1.077.176,1.608.024.144.079.21.231.214a6.668,6.668,0,0,0,1.68-.11c.47-.107.559-.221.608-.694a.793.793,0,0,1,.9-.8,6.437,6.437,0,0,1,.77.062,3.905,3.905,0,0,1,1.38.341.615.615,0,0,0,.638.011c.107-.055.221-.1.328-.162a27.353,27.353,0,0,0,2.757-1.684,14,14,0,0,1,3.355-1.722,4.852,4.852,0,0,1,1.794-.335,1.747,1.747,0,0,1,1.681,1.2,2.919,2.919,0,0,1,.162.749c.031.442.045.883.045,1.326a1.3,1.3,0,0,0,.786,1.3A3.828,3.828,0,0,1,25.558,42.6,14.331,14.331,0,0,1,26.915,44.7,1.884,1.884,0,0,1,27,46.36c-.138.366-.331.708-.5,1.063-.3.618-.355.5.076,1.153A14.736,14.736,0,0,0,27.895,50.2a4.749,4.749,0,0,1,.825,1.3,1.371,1.371,0,0,1,.176.666c-.045.362.159.479.438.559.083.021.166.048.248.069a.827.827,0,0,1,.566,1.236c-.045.1-.159.19-.128.345.166.035.331.066.494.1a1,1,0,0,1,.918,1.1,1.084,1.084,0,0,0,.034.452,3.365,3.365,0,0,1,1.353-.138c.721.048,1.442.086,2.164.138a1.385,1.385,0,0,0,.677-.114,1.491,1.491,0,0,1,.779-.179.544.544,0,0,1,.476.793.983.983,0,0,1-.314.4,3.93,3.93,0,0,1-.687.424,10.982,10.982,0,0,1-2.709.894,5.023,5.023,0,0,1-3-.19,4.849,4.849,0,0,0-1.063-.269c-.924-.132-1.856-.121-2.784-.207a11.235,11.235,0,0,1-2.8-.576c-1.577-.57-3.127-1.215-4.662-1.888-1.077-.473-2.143-.967-3.193-1.5-.269-.135-.28-.132-.407.127a1.419,1.419,0,0,1-.907.749,4.28,4.28,0,0,1-1.039.138M18.974,0a1.983,1.983,0,0,0,.745.131A61.02,61.02,0,0,1,33.6,3.379a54.073,54.073,0,0,1,14.418,7.737,40.956,40.956,0,0,1,9.542,10,30.894,30.894,0,0,1,4.538,10.608,28.432,28.432,0,0,1,.569,4.145,27.134,27.134,0,0,1-.028,4,24.939,24.939,0,0,1-5.97,14.608A29.975,29.975,0,0,1,47.337,61.7a38.132,38.132,0,0,1-10.625,3.53,39.844,39.844,0,0,1-8.448.628A35.544,35.544,0,0,1,15.85,63.3,26.491,26.491,0,0,1,6.706,57.22,24.556,24.556,0,0,1,.025,39.414a23.927,23.927,0,0,1,1.85-8.086,34.951,34.951,0,0,1,4.651-7.806,73.894,73.894,0,0,1,5.194-5.949c1.56-1.643,3.164-3.248,4.672-4.942a24,24,0,0,0,1.985-2.5c.231-.348.438-.707.635-1.077a3.886,3.886,0,0,0,.372-2.737A10.584,10.584,0,0,0,17.57,2.3a1.771,1.771,0,0,1-.311-.58A1.3,1.3,0,0,1,17.984.131c.086-.041.2-.034.255-.131Z" fill="#008fc3"/>
        </g>
        <g id="Gruppe_25" data-name="Gruppe 25" transform="translate(27.667 13.741)">
          <path id="Pfad_25" data-name="Pfad 25" d="M18.946,16a2.99,2.99,0,0,0,.287.134A7.522,7.522,0,0,1,21.9,17.784a8.349,8.349,0,0,0,2.095,1.408,7,7,0,0,1,1.474.894c.2.169.241.151.462-.035a1.288,1.288,0,0,1,.235-.173.475.475,0,0,1,.666.19,1.234,1.234,0,0,1,.144.411,19.446,19.446,0,0,1,.38,5.88,20.137,20.137,0,0,1-2,7.323,17.775,17.775,0,0,1-4.845,6.066,1.308,1.308,0,0,1-.911.311c-.187-.01-.369-.013-.553-.034a.48.48,0,0,1-.469-.439,4.5,4.5,0,0,0-.541-1.7c-.117-.242-.224-.49-.338-.732a.622.622,0,0,1,.1-.718,2.716,2.716,0,0,0,.3-.459,1.407,1.407,0,0,0-.006-1.4,3.55,3.55,0,0,0-.573-.763,12.313,12.313,0,0,0-1.36-1.177.739.739,0,0,1-.318-.755c.128-1-.286-1.44-1.3-1.44a6.133,6.133,0,0,0-1.974.38,8.5,8.5,0,0,0-2.329,1.146,1.469,1.469,0,0,1-.573.238c-1.132.21-2.263.414-3.392.638a2.345,2.345,0,0,1-1.36-.107,29.009,29.009,0,0,1-3.057-1.439.717.717,0,0,1-.4-.535,1.443,1.443,0,0,0-.151-.449.546.546,0,0,0-.41-.324c-.369-.062-.49-.221-.473-.577A13.9,13.9,0,0,0,.17,26.635a6.659,6.659,0,0,1-.128-2.081,2.649,2.649,0,0,1,.946-1.725,7.924,7.924,0,0,1,.684-.5,1.092,1.092,0,0,0,.514-.921c.024-.328.042-.659.076-.987a1.539,1.539,0,0,1,.769-1.256c1.615-.977,3.282-1.856,4.969-2.7.386-.193.776-.369,1.166-.545a2.149,2.149,0,0,1,.418-.142.5.5,0,0,1,.684.528,1.948,1.948,0,0,0,.059.545.361.361,0,0,0,.372.283,4.136,4.136,0,0,0,1.27-.159,1.562,1.562,0,0,1,1.111.052,2.123,2.123,0,0,0,.607.138A1.156,1.156,0,0,0,15,16.355a2.5,2.5,0,0,0,.069-.283.605.605,0,0,1,.666-.549,5.144,5.144,0,0,0,1.519-.234,2.305,2.305,0,0,0,1.284-.932,1.507,1.507,0,0,0,.186-1.335.921.921,0,0,0-1.356-.559,2.431,2.431,0,0,0-.611.466.7.7,0,0,1-.932.145c-.348-.176-.694-.366-1.038-.545a.7.7,0,0,0-.235-.1.337.337,0,0,0-.338.09c-.066.093.017.19.062.269a5.054,5.054,0,0,0,.293.466.491.491,0,0,1,.066.58.544.544,0,0,1-.548.221,1.074,1.074,0,0,1-.473-.193c-.759-.469-1.508-.956-2.306-1.37a7.056,7.056,0,0,0-1.98-.756,1.052,1.052,0,0,0-.507,0c-.142.045-.217.121-.125.272a.415.415,0,0,1,.049.1.686.686,0,0,1-.638.98.934.934,0,0,1-.528-.132.379.379,0,0,0-.408,0,2.752,2.752,0,0,0-1.615,1.926c-.12.549-.28,1.091-.41,1.636a.744.744,0,0,1-.59.587c-.8.211-1.608.425-2.416.625a.675.675,0,0,1-.9-.469A3.205,3.205,0,0,1,1.1,15.382a.692.692,0,0,1,.684-.51c.462-.052.925-.1,1.387-.156.583-.066.614-.1.566-.679,0-.073-.018-.145-.025-.218-.021-.442-.317-.631-.69-.738-.214-.062-.455-.09-.507-.349s.137-.4.314-.538a2.876,2.876,0,0,0,.628-.614A1.625,1.625,0,0,0,3.8,10.554a.655.655,0,0,1,.325-.614,2.621,2.621,0,0,0,.51-.418.258.258,0,0,0,.024-.386c-.265-.338-.248-.48.038-.794.076-.079.155-.155.224-.241.117-.151.065-.283-.128-.3a1.845,1.845,0,0,0-.549.042,3.7,3.7,0,0,1-.953.045,1.5,1.5,0,0,1-.756-.255.442.442,0,0,1-.062-.783c.114-.107.241-.207.348-.324.2-.217.214-.252.038-.5a1.322,1.322,0,0,1,.006-1.549.851.851,0,0,1,.611-.425c.67-.1,1.332-.186,2-.28a5.1,5.1,0,0,0,.611-.138.559.559,0,0,0,.445-.507A12.71,12.71,0,0,1,7.109.954,3.291,3.291,0,0,1,7.475.195.39.39,0,0,1,7.913.012a25.432,25.432,0,0,1,9.818,4.017,25.541,25.541,0,0,1,4.741,4.638c.621.762,1.215,1.539,1.788,2.336a.533.533,0,0,1-.1.852c-.12.107-.245.2-.365.311a.819.819,0,0,1-.953.131c-.132-.055-.29-.214-.4-.1-.127.134.048.286.121.414a2.3,2.3,0,0,0,1.084.955c.214.1.3.08.4-.144a.64.64,0,0,1,1.066-.207,2.992,2.992,0,0,1,1.05,1.96,8.873,8.873,0,0,1-.183,2.843,3.493,3.493,0,0,1-.107.5.536.536,0,0,1-.9.283,2.008,2.008,0,0,1-.259-.256,18.93,18.93,0,0,0-2.546-2.274,6.129,6.129,0,0,0-1.4-.8,1.028,1.028,0,0,0-1.076.079c-.217.159-.462.272-.749.442" transform="translate(0 0)" fill="#008fc3"/>
        </g>
      </g>
    </g>
  </g>
</svg>
