<svg xmlns="http://www.w3.org/2000/svg" width="493.531" height="518.344"><g data-name="Gruppe 1299" opacity=".218"><g data-name="Gruppe 13"><path data-name="Pfad 13" d="M105.115 429.838c1.142 1.169 1.9 2.038 2.74 2.8a170.392 170.392 0 0044.667 28.449c28.457 12.574 58.411 17.976 89.39 18.221a257.076 257.076 0 0098.6-19.357c23.133-9.7 44.205-22.676 62.5-39.945 20.07-18.928 34.922-41.276 43.364-67.666 7.033-22.019 9.177-44.612 7.958-67.639a192.84 192.84 0 00-8.609-47.925c-11.455-36.715-32.121-67.694-59.3-94.547-27.315-26.964-59.029-47.6-93.623-63.946-31.77-14.991-64.982-25.633-99.3-33-1.136-.267-2.333-.919-3.664-.407a12.061 12.061 0 00.217 1.2c3.1 10.915 3.5 21.83.3 32.772a4.94 4.94 0 00-.279 2.289c.407 2.957.707 5.92 1.058 8.877 1.414 11.377 2.473 22.782 3.341 34.215.512 7.328 1.192 14.607 1.465 21.913.351 8.96 1.086 17.92.056 26.853a4.523 4.523 0 00.134 1.71c1.331 4.455.462 6.276-3.909 8.064-5.864 2.445-11.7 4.917-17.43 7.685-8.2 3.965-15.86 8.743-22.32 15.292a110.445 110.445 0 00-10.915 13.059 6.936 6.936 0 01-4.427 2.957c-5.379 1.114-12.14-4.1-12.792-9.963a15.819 15.819 0 011.765-8.932c2.361-4.728 5.758-8.637 9.367-12.413 3.369-3.475 6.955-6.677 10.536-9.907 2.963-2.69 4.4-6.332 6.081-10.024a4.831 4.831 0 00-3.091.924 38.306 38.306 0 01-7.39 3.909c-3.146 1.47-6.27 2.963-9.45 4.372-6.95 3.152-10.915 8.582-12.379 16.021-.356 1.877-.924 3.72-1.465 5.569a6.4 6.4 0 01-3.453 4.043c-3.174 1.548-6.27 3.208-10.046 1.548.434 2.227.841 3.993 2.473 5.4a4.8 4.8 0 011.2 4.811 76.993 76.993 0 01-2.963 9.662c-1.142 3.068-2.361 6.087-3.23 9.261a11.937 11.937 0 00-.084 6.543c.546 2.066 1.142 4.1 1.687 6.137a20.809 20.809 0 01-2.719 16.647 5.73 5.73 0 01-9.122 1.331c-1.169-1.03-2.2-2.172-3.4-3.146a6.691 6.691 0 00-4.238-1.9c.679 4.483-1.927 6.978-5.1 9.072-2.094 1.359-4.182 2.8-6.326 4.043-5.268 3.018-10.592 5.975-15.916 8.91a3.722 3.722 0 00-2.25 3.258 168.368 168.368 0 00-.217 29.164c.3 4.232.674 8.47 1.381 12.652.189 1.136.624 1.654 1.821 1.682a52.512 52.512 0 0013.22-.869c3.7-.841 4.4-1.737 4.784-5.457.434-4.266 2.768-6.41 7.056-6.326a50.476 50.476 0 016.059.49c3.72.512 7.574.869 10.859 2.684a4.838 4.838 0 005.023.084c.841-.434 1.737-.813 2.578-1.275a215.194 215.194 0 0021.7-13.254 110.13 110.13 0 0126.4-13.549 38.184 38.184 0 0114.117-2.634c6.354.217 11.054 3.5 13.226 9.45a22.966 22.966 0 011.275 5.892c.245 3.475.356 6.95.356 10.43-.056 4.639 1.815 8.169 6.187 10.208 4.294 2.01 7.551 5.3 10.458 8.9a112.758 112.758 0 0110.669 16.477 14.823 14.823 0 01.679 13.087c-1.086 2.879-2.606 5.569-3.965 8.364-2.361 4.862-2.8 3.909.6 9.072 3.013 4.589 6.761 8.632 10.4 12.758a37.366 37.366 0 016.486 10.219c.707 1.682 1.6 3.447 1.387 5.24-.356 2.851 1.247 3.77 3.447 4.4.652.161 1.3.379 1.955.54 4.778 1.442 6.438 5.107 4.455 9.723-.356.813-1.253 1.492-1.008 2.712 1.3.273 2.606.518 3.887.819 5.023 1.086 6.978 3.475 7.223 8.632.05 1.114-.3 2.255.267 3.558a26.476 26.476 0 0110.648-1.086c5.675.379 11.349.679 17.024 1.086a10.89 10.89 0 005.324-.9 11.733 11.733 0 016.131-1.409c3.369.351 5.029 3.119 3.748 6.243a7.736 7.736 0 01-2.467 3.152 30.921 30.921 0 01-5.407 3.336c-6.733 3.475-13.955 5.407-21.312 7.033a39.526 39.526 0 01-23.573-1.492 38.152 38.152 0 00-8.364-2.116c-7.273-1.036-14.607-.952-21.908-1.632a88.431 88.431 0 01-22-4.533c-12.407-4.483-24.6-9.562-36.682-14.852-8.476-3.72-16.862-7.607-25.121-11.784-2.116-1.064-2.2-1.036-3.2 1a11.169 11.169 0 01-7.139 5.892 33.658 33.658 0 01-8.175 1.086M149.293 0c1.849 1.008 3.937.785 5.864 1.03a480.163 480.163 0 01109.187 25.557c40.786 14.741 78.826 34.621 113.447 60.878 29.242 22.18 54.741 48.009 75.078 78.715 16.968 25.633 29.214 53.332 35.707 83.471a223.694 223.694 0 014.477 32.611 213.507 213.507 0 01-.217 31.469c-3.419 43.309-18.678 81.817-46.973 114.94-20.532 24.007-45.347 42.5-73.4 56.779a300.038 300.038 0 01-83.6 27.777 313.525 313.525 0 01-66.475 4.945c-33.669-1.114-66.386-7.251-97.671-20.07-27.176-11.16-51.478-26.663-71.954-47.869-24.653-25.529-40.324-55.912-48.059-90.478A185.922 185.922 0 01.193 310.12a188.268 188.268 0 0114.557-63.623c9.283-22.208 21.963-42.384 36.6-61.418 12.626-16.456 26.556-31.798 40.868-46.811 12.274-12.925 24.9-25.555 36.765-38.887a188.828 188.828 0 0015.615-19.686c1.815-2.74 3.447-5.563 5-8.47a30.576 30.576 0 002.924-21.538 83.285 83.285 0 00-14.278-31.631 13.932 13.932 0 01-2.445-4.567 10.246 10.246 0 015.7-12.463c.679-.323 1.576-.267 2.01-1.03z" fill="#fff"/></g><g data-name="Gruppe 25"><path data-name="Pfad 25" d="M366.766 233.984a23.556 23.556 0 002.255 1.058c8.008 2.662 14.8 7.412 20.961 13.009a65.7 65.7 0 0016.484 11.071 55.033 55.033 0 0111.594 7.033c1.576 1.331 1.9 1.192 3.636-.273a10.139 10.139 0 011.849-1.359 3.74 3.74 0 015.24 1.492 9.712 9.712 0 011.136 3.235 153.014 153.014 0 012.99 46.266 158.448 158.448 0 01-15.721 57.62 139.861 139.861 0 01-38.124 47.73 10.294 10.294 0 01-7.167 2.445c-1.47-.078-2.907-.106-4.349-.267-2.116-.273-3.531-1.47-3.692-3.453-.323-4.806-2.144-9.122-4.26-13.382-.924-1.9-1.765-3.859-2.662-5.758a4.893 4.893 0 01.785-5.647 21.376 21.376 0 002.389-3.614 11.073 11.073 0 00-.05-11.048 27.929 27.929 0 00-4.511-6 96.867 96.867 0 00-10.7-9.261 5.816 5.816 0 01-2.5-5.942c1.008-7.874-2.25-11.327-10.208-11.327a48.255 48.255 0 00-15.531 2.99 66.861 66.861 0 00-18.323 9.02 11.557 11.557 0 01-4.511 1.871c-8.9 1.654-17.809 3.258-26.691 5.023a18.455 18.455 0 01-10.7-.841 228.257 228.257 0 01-24.057-11.321 5.644 5.644 0 01-3.18-4.21 11.353 11.353 0 00-1.189-3.532 4.3 4.3 0 00-3.23-2.551c-2.907-.49-3.859-1.737-3.72-4.539.323-7.356-.841-14.579-1.982-21.83-.846-5.4-1.877-10.8-1.008-16.372a20.841 20.841 0 017.44-13.575 62.331 62.331 0 015.379-3.909 8.591 8.591 0 004.043-7.251c.189-2.578.329-5.185.6-7.763.484-4.238 2.116-7.551 6.053-9.885 12.708-7.685 25.823-14.607 39.1-21.206 3.041-1.52 6.109-2.907 9.177-4.288a16.911 16.911 0 013.286-1.114c3.263-.735 5.24.841 5.379 4.154a15.326 15.326 0 00.462 4.288 2.84 2.84 0 002.929 2.228 32.544 32.544 0 0010-1.253 12.292 12.292 0 018.743.412 16.709 16.709 0 004.778 1.086 9.1 9.1 0 0010.319-6.438 19.677 19.677 0 00.54-2.228c.679-2.957 2.122-4.26 5.24-4.316a40.477 40.477 0 0011.948-1.84c4.126-1.387 7.713-3.558 10.1-7.334A11.861 11.861 0 00365 210.58c-1.626-4.806-6.081-6.627-10.67-4.4a19.131 19.131 0 00-4.806 3.664c-2.311 2.283-4.483 2.634-7.334 1.142-2.74-1.387-5.457-2.879-8.169-4.288a5.545 5.545 0 00-1.849-.791 2.656 2.656 0 00-2.662.707c-.518.735.134 1.492.49 2.116a39.757 39.757 0 002.305 3.67c.98 1.437 1.548 2.957.518 4.561-1.008 1.548-2.578 1.871-4.316 1.737a8.449 8.449 0 01-3.72-1.52c-5.975-3.692-11.867-7.523-18.143-10.781-4.967-2.578-10.018-4.94-15.582-5.947a8.279 8.279 0 00-3.993.028c-1.114.356-1.71.952-.98 2.144a3.264 3.264 0 01.384.763c1.548 3.909-.763 7.468-5.023 7.713a7.351 7.351 0 01-4.154-1.036 2.983 2.983 0 00-3.208 0c-6.488 3.18-11.076 7.846-12.708 15.153-.947 4.316-2.2 8.582-3.23 12.869a5.854 5.854 0 01-4.644 4.617c-6.326 1.66-12.652 3.341-19.006 4.917-3.531.869-5.675-.273-7.061-3.692a25.22 25.22 0 01-1.114-14.774c.462-2.278 2.417-3.692 5.379-4.015 3.636-.412 7.278-.791 10.915-1.225 4.591-.52 4.84-.815 4.457-5.348-.028-.574-.139-1.142-.195-1.715-.162-3.475-2.495-4.967-5.43-5.808-1.682-.49-3.581-.707-3.987-2.745-.412-2 1.08-3.146 2.467-4.232a22.631 22.631 0 004.946-4.835 12.789 12.789 0 002.74-8.064 5.155 5.155 0 012.556-4.834 20.619 20.619 0 004.015-3.286 2.033 2.033 0 00.189-3.041c-2.088-2.662-1.955-3.776.3-6.248.6-.624 1.22-1.22 1.765-1.9.919-1.192.512-2.228-1.008-2.389a14.513 14.513 0 00-4.316.329 29.091 29.091 0 01-7.5.351 11.816 11.816 0 01-5.947-2.01c-2.656-1.765-2.846-3.965-.484-6.165.9-.841 1.9-1.626 2.74-2.55 1.6-1.71 1.682-1.982.3-3.965-2.823-4.1-2.389-8.119.05-12.19a6.7 6.7 0 014.817-3.345c5.265-.753 10.48-1.46 15.72-2.2a40.122 40.122 0 004.806-1.086 4.4 4.4 0 003.5-3.993 100 100 0 014.508-17.021 25.89 25.89 0 012.879-5.97 3.07 3.07 0 013.452-1.44c27.611 6.031 54.085 14.719 77.251 31.61 14.228 10.341 26.257 22.916 37.305 36.492a377.94 377.94 0 0114.067 18.383c1.982 2.74 1.765 4.533-.763 6.7-.947.841-1.927 1.6-2.874 2.445a6.446 6.446 0 01-7.5 1.03c-1.036-.434-2.283-1.682-3.124-.785-1 1.058.379 2.25.952 3.258 1.9 3.558 5.023 5.808 8.526 7.518 1.682.819 2.361.629 3.124-1.136 1.437-3.286 5-4.372 8.387-1.632 4.917 3.965 7.278 9.289 8.259 15.426 1.164 7.546-.195 14.958-1.442 22.37a27.493 27.493 0 01-.841 3.937c-1.03 3.4-4.238 4.4-7.061 2.228a15.786 15.786 0 01-2.038-2.01 148.952 148.952 0 00-20.028-17.891 48.227 48.227 0 00-11.026-6.27c-2.929-1.169-5.725-1.414-8.47.624-1.71 1.247-3.636 2.144-5.892 3.475" fill="#fff"/></g></g></svg>