<svg xmlns="http://www.w3.org/2000/svg" width="213.195" height="130.377" viewBox="0 0 213.195 130.377">
  <g id="Gruppe_1284" data-name="Gruppe 1284" transform="translate(-70.599 -2026.147)">
    <path id="Pfad_5015" data-name="Pfad 5015" d="M349.288,115.519s-21.208-15.843-15.029-24.44c6.011-8.364,14.9,3.66,14.9,3.66s4.835-8.626,9.8-6.955C371.91,92.14,349.288,115.519,349.288,115.519Z" transform="translate(-273.821 2067.985) rotate(-14)" fill="#fff"/>
    <path id="Pfad_5129" data-name="Pfad 5129" d="M342.527,103.823s-12.333-9.213-8.74-14.213c3.5-4.864,8.664,2.128,8.664,2.128s2.812-5.016,5.7-4.045C355.682,90.227,342.527,103.823,342.527,103.823Z" transform="matrix(0.985, 0.174, -0.174, 0.985, -46.154, 1939.816)" fill="#fff"/>
    <path id="Pfad_10172" data-name="Pfad 10172" d="M-32.912-5.644h.034L-38.454-.136V-.1h-.034l-5.576-.17v.034l-1.8.238-.34-.34-.612.374L-48.178,0l-.476.272-.034-22.338.442.272,1.36-.136.238.136h2.55v.34l6.562-.1-.408.306.034.51-.272.442.442-.238.2-.476,4.522,5.236-.272.2.408.068ZM-37.74-6.63l.17.034v-7.888l-2.618-2.788-3.91.068V-4.556l3.74.1,2.55-2.482Zm19.074,2.686-.034.034-.1.544.034.238h-7.888L-27.948.408l-.238-.782-.85.714-.1-.2-1.6-.2-.238-.306-.442.238-.544-.2L-32.4-.2-24.616-22l.2.306.476-.272,2.142.306.272.374.51-.034.986.2-.17.408L-12.648-.612l-.544.34-.034.408-.986-.2-2.142.1-.17.238L-16.9,0l-.2.2ZM-25.058-7.48l5.066-.034-2.55-6.8Zm18.5,7.31-.374.306-.646-.272-.51.34-1.87.034L-10.3,0l-.374.408.1-22.168.272.442.374-.34.612.17,2.618.034.646.272v1.054l.374-.374L1.462-8.6l.2-13.124.272.442.272-.34.476.238,1.666-.238,1.258.136.612-.17L5.78.34,5.508-.034l-.68-.034L2.89-.306l-.374.2-.578-.17L1.462-.1,1.326-.408V-.986L.952-1.02-6.086-12.75-6.154.17ZM14.824-7.344l-.34.34-.306-.476h-.136L14.008-.034,13.532-.2l-1.19.2-.68-.2L9.792.068,9.486.442l.068-22.1.17.17H10.2l3.06-.034.34-.136.17.544.34.272-.034,7.888,7.956-8.6.1.51.714-.272,1.02.952.374.136.85.748-.272.646.782-.17L16.864-9.554l.272-.17.68-.068.476-.34L26.112-.51,25.3-.272,25.16,0,22.032.068l-.646-.306-.374.17ZM32.708-21.488l7.65-.1-.578.238.2.918-.136.272.17,1.054-.17.34.17.306-.136.442v.782l-6.562.1.034-.17-.408-.272-.1,4.624,4.828-.1.816.238-.306.34.136,1.462.272,1.462-.034.748-5.814.136-.1,4.386,6.324-.1.272.272.442.17.034,1.632.17.408.272,1.768L32.232,0,32.1.17,29.818.136,29.24.272,28.594.034l-.51.374.408-21.828,1.258-.1.17.2,1.122-.17,1.394.272v-.034Zm-99.144,51.42-.782-.272-.442.2.238-21.726.578.238.816-.1.51.17h.68l1.734.544v-.34l-.646-.2h8.228l-.2.306.068,1.836-.34.68.34.544-.238.272.272.612H-62.9l-.068,4.25,6.222-.1-.408.544.442.476-.272.748v1.734l-.2.238.068.578-5.1.068-.816-.2-.136,9.112-.476-.272Zm29.614-21.59.34-.408.034,16.388-.238.068.068.748-4.828,4.692-.34-.068-.068.34-6.358.034h-.034V30.1l-4.726-5.27-.238-.646,2.38-.578-.408.034-1.9.238.238-15.2.442.2.374-.34,2.958.2.2-.2.646-.136-.238,14.722,2.278,2.584h2.55l2.618-2.346-.034-14.96.238.306.272-.17.952-.136ZM-43.452,2.8l.68.1,3.332-.034L-38.9,2.6l-.068,3.5-.476.1h-2.618l-.17-.17-.68.17-.544.306Zm-7.412.1.68.17L-47.5,2.9l.476.1.612-.136v3.06l-.578.272H-49.1l-1.054.136-.714.238Zm28.7,5.644-.034.1,3.808,3.944h.1v.068l.068.068-.068.034.034,5.2-.1.1-3.4,3.026.034.1-.612.408-.476.034.272.408,5.168,7.82-.68-.17-.34.408-1.938-.136-1.02.306-.816-.476-.17.442-4.862-8.16.2-.136,2.516-.272-3.944.068v8.5l-.272-.408-1.054.2-1.9.068h-.782l-.51.136-.068-21.93.714.136,3.264.442.136-.136-.17-.272Zm-2.04,8.84,1.36-1.224v-2.21l-.272.034-1.156-1.122-4.148-.034v7.378l.136-.1.17-2.482.2-.2Zm34.034,6.97H9.86L4.284,29.864V29.9H4.25l-5.576-.17v.034l-1.8.238-.34-.34-.612.374L-5.44,30l-.476.272L-5.95,7.934l.442.272,1.36-.136.238.136h2.55v.34l6.562-.1-.408.306.034.51L4.556,9.7,5,9.464l.2-.476,4.522,5.236-.272.2.408.068ZM5,23.37l.17.034V15.516L2.55,12.728l-3.91.068V25.444l3.74.1,2.55-2.482ZM17.1,8.512l7.65-.1-.578.238.2.918-.136.272.17,1.054-.17.34.17.306-.136.442v.782l-6.562.1.034-.17-.408-.272-.1,4.624,4.828-.1.816.238-.306.34.136,1.462.272,1.462-.034.748-5.814.136-.1,4.386,6.324-.1.272.272.442.17.034,1.632.17.408.272,1.768L16.626,30l-.136.17-2.278-.034-.578.136-.646-.238-.51.374L12.886,8.58l1.258-.1.17.2,1.122-.17,1.394.272V8.75ZM29.852,30l-.238-.34-.408.34h-1.19l-.476.238V8.58l.408.1.85-.238,2.414-.306.476.306.51-.306V29.626l-.476.1L31.28,30Zm10.3-.17-.374.306-.646-.272-.51.34-1.87.034L36.414,30l-.374.408.1-22.168.272.442.374-.34.612.17,2.618.034.646.272V9.872l.374-.374,7.14,11.9.2-13.124.272.442.272-.34.476.238,1.666-.238,1.258.136.612-.17-.442,22-.272-.374-.68-.034-1.938-.238-.374.2-.578-.17-.476.17-.136-.306v-.578l-.374-.034L40.63,17.25l-.068,12.92ZM60.792,8.512l7.65-.1-.578.238.2.918-.136.272.17,1.054-.17.34.17.306-.136.442v.782l-6.562.1.034-.17-.408-.272-.1,4.624,4.828-.1.816.238-.306.34.136,1.462.272,1.462-.034.748-5.814.136-.1,4.386,6.324-.1.272.272.442.17.034,1.632.17.408.272,1.768L60.316,30l-.136.17L57.9,30.136l-.578.136-.646-.238-.51.374L56.576,8.58l1.258-.1.17.2,1.122-.17,1.394.272V8.75Zm-95.166,29.83.34-.408L-34,54.322l-.238.068.068.748L-39,59.83l-.34-.068-.068.34-6.358.034H-45.8V60.1l-4.726-5.27-.238-.646,2.38-.578-.408.034-1.9.238.238-15.2.442.2.374-.34,2.958.2.2-.2.646-.136-.238,14.722,2.278,2.584h2.55l2.618-2.346-.034-14.96.238.306.272-.17.952-.136Zm7.922,21.488-.374.306-.646-.272-.51.34-1.87.034-.34-.238-.374.408.1-22.168.272.442.374-.34.612.17,2.618.034.646.272v1.054l.374-.374,7.14,11.9.2-13.124.272.442.272-.34.476.238,1.666-.238,1.258.136.612-.17-.442,22-.272-.374-.68-.034L-17,59.694l-.374.2-.578-.17-.476.17-.136-.306v-.578l-.374-.034-7.038-11.73-.068,12.92Zm19.89-16.864h-4.964l.578-.306-.476-.238.238-2.21.068-1.564,4.624-.034v-.476l.578.068.272.2.952-.068,2.074.2v.034l5.848-.034-.612.306.442.782-.272.918-.306.714v1.292l.2.34-4.692.034L-2.21,59.8l-.51.306L-3.74,59.8l-1.53.2-1.088-.1-.408.544ZM9.656,38.512l7.65-.1-.578.238.2.918-.136.272.17,1.054-.17.34.17.306-.136.442v.782l-6.562.1.034-.17-.408-.272-.1,4.624,4.828-.1.816.238-.306.34.136,1.462.272,1.462-.034.748L9.69,51.33l-.1,4.386,6.324-.1.272.272.442.17.034,1.632.17.408.272,1.768L9.18,60l-.136.17-2.278-.034-.578.136-.646-.238-.51.374L5.44,38.58l1.258-.1.17.2,1.122-.17,1.394.272V38.75Zm20.944.034-.034.1,3.808,3.944h.1v.068l.068.068-.068.034.034,5.2-.1.1-3.4,3.026.034.1-.612.408-.476.034.272.408,5.168,7.82-.68-.17-.34.408-1.938-.136-1.02.306L30.6,59.8l-.17.442-4.862-8.16.2-.136,2.516-.272-3.944.068v8.5l-.272-.408-1.054.2-1.9.068h-.782l-.51.136-.068-21.93.714.136,3.264.442.136-.136-.17-.272Zm-2.04,8.84,1.36-1.224v-2.21l-.272.034-1.156-1.122-4.148-.034v7.378l.136-.1.17-2.482.2-.2Zm20.74-.442-.476.374.476.578-.272,2.346-.238.646.408.408H38.726l.442-.612-.34-.408.34-1.836-.272-.612.272-.374-.408-.51ZM-75.854,72.286l.17.034,3.876-3.842.408,1.054.034-.986.476-.068,7.888.068-.544.306.136.578-.442,2.55.068.238-.748.374.51.238L-70.21,72.8l-.986,1.088v1.564l8.3,3.23.374.476-.1.1.272-.034v6.936h-.136l-4.25,3.91-.816-.544.034.442-.272.17-8.3-.238.578-.34-.306-.34.578-1.428.544-.816-.238-.238.374-.986-.238-.272,6.358.2,1.632-1.394V81.772l-8.3-3.162-.646-.578.17-.238-.272.1Zm20.128.68H-60.69l.578-.306-.476-.238.238-2.21.068-1.564,4.624-.034v-.476l.578.068.272.2.952-.068,2.074.2v.034l5.848-.034-.612.306.442.782-.272.918-.306.714v1.292l.2.34-4.692.034-.2,16.864-.51.306L-52.9,89.8l-1.53.2-1.088-.1-.408.544Zm27.846-4.624.34-.408.034,16.388-.238.068.068.748L-32.5,89.83l-.34-.068-.068.34-6.358.034H-39.3V90.1l-4.726-5.27-.238-.646,2.38-.578-.408.034-1.9.238.238-15.2.442.2.374-.34,2.958.2.2-.2.646-.136-.238,14.722,2.278,2.584h2.55l2.618-2.346-.034-14.96.238.306.272-.17.952-.136ZM-34.51,62.8l.68.1,3.332-.034.544-.272-.068,3.5-.476.1h-2.618l-.17-.17-.68.17-.544.306Zm-7.412.1.68.17,2.686-.17.476.1.612-.136v3.06l-.578.272h-2.108l-1.054.136-.714.238Zm21.658,10.064h-4.964l.578-.306-.476-.238.238-2.21.068-1.564,4.624-.034v-.476l.578.068.272.2.952-.068,2.074.2v.034l5.848-.034-.612.306.442.782-.272.918-.306.714v1.292l.2.34-4.692.034-.2,16.864-.51.306-1.02-.306-1.53.2-1.088-.1-.408.544ZM-9.01,89.048l-.85-.068-.17-.986L-.544,72.762H-9.35l.272-.442-.238-.952.068-2.108.2-.374-.476-.442,11.662.034.272-.442.17.34L4.828,69.8l.544.1.34.816L-3.4,85.716l8.568.034-.51.442.442.544-.51.1.578.34-.1,1.224-.476.272.34.51.136.884H-5.474l-.136-.306-.1-.238-.816,1.36-.51-.782-.408-.2-.51-.1ZM23.834,68.342l.34-.408.034,16.388-.238.068.068.748L19.21,89.83l-.34-.068-.068.34-6.358.034H12.41V90.1l-4.726-5.27-.238-.646,2.38-.578-.408.034-1.9.238.238-15.2.442.2.374-.34,2.958.2.2-.2.646-.136-.238,14.722,2.278,2.584h2.55l2.618-2.346L19.55,68.41l.238.306.272-.17.952-.136ZM31.756,89.83l-.374.306-.646-.272-.51.34-1.87.034L28.016,90l-.374.408.1-22.168.272.442.374-.34.612.17,2.618.034.646.272v1.054l.374-.374,7.14,11.9.2-13.124.272.442.272-.34.476.238,1.666-.238,1.258.136.612-.17-.442,22-.272-.374-.68-.034-1.938-.238-.374.2-.578-.17-.476.17-.136-.306v-.578l-.374-.034L32.232,77.25l-.068,12.92Zm21.25.17.1-.17-.238-.136-.374.136-4.964-5.474,1.972-.51L49.2,83.71l-1.632.34V73.816l.238.17v-.1l-.17-.136,5.678-5.3.034.306.272.374.1-.034-.068-.578,7.65-.136-.34.272.374.34-.306.17.238.442-.34,3.026.17.2-6.12.1L52.19,75.584V83.1l.238-.1,2.346,2.686h3.5l2.04-2.278h.1V80.956l-4.454-.034.34-.272v-1.8l.442-.306L56.61,78.3l.238-1.292-.34-.34h7.276l.646.612-.238.17.374,1.632v1.87h-3.3l.068.034.918.068.136.2h2.482V85l-.068.034.034.034-4.012,4.658h-.2L60.588,90Zm20.808-5.916-1.224.1-.408-.272-1.224.238h-.816l-.51-.442-.374.442V68.478l.442.612.442-.646,2.72.034.51.136.442-.408Zm-4.556,2.38.612.2.272-.238,2.652-.136.68.306.34-.17v4.012l-.374-.34-.34.238-.68-.034H70.992l-.374.2-1.088-.34-.272.17Z" transform="translate(185.595 2057.045) rotate(-7)" fill="#fff"/>
  </g>
</svg>
