<svg xmlns="http://www.w3.org/2000/svg" width="213.195" height="130.377"><g data-name="Gruppe 1284" fill="#fff"><path data-name="Pfad 5015" d="M22.44 69.425S-1.973 59.183 1.943 49.347c3.81-9.57 15.343-.053 15.343-.053s2.604-9.54 7.826-9.12c13.62 1.094-2.674 29.251-2.674 29.251z"/><path data-name="Pfad 5129" d="M202.57 75.534s-10.544-11.22-6.135-15.52c4.294-4.182 8.164 3.603 8.164 3.603s3.642-4.451 6.318-2.992c6.977 3.806-8.346 14.91-8.346 14.91z"/><path data-name="Pfad 10172" d="M81.641 29.307l.034-.004-4.863 6.146.004.036-.033.004-5.555.511.004.034-1.758.455-.379-.296-.562.446-1.356.13-.44.328-2.755-22.167.472.216 1.333-.3.253.105 2.53-.31.042.337 6.501-.899-.368.354.096.502-.216.471.41-.29.14-.496 5.127 4.645-.246.232.413.018zm-4.912-.39l.173.013-.961-7.83-2.938-2.448-3.873.544 1.541 12.554 3.725-.356 2.228-2.775zm19.26.341l-.03.038-.033.552.063.232-7.83.962-.853 3.667-.331-.747-.757.812-.124-.186-1.612-.004-.274-.274-.41.29-.564-.133-.42.181 5.068-22.586.236.28.44-.329 2.163.043.315.338.502-.096 1.003.078-.119.426 9.946 19.03-.499.404.016.409-1.003-.079-2.114.36-.14.258-.406-.226-.174.222zm-6.776-2.73l5.024-.652-3.36-6.438zm19.253 5l-.334.35-.674-.191-.465.4-1.852.26-.368-.194-.322.45-2.602-22.014.324.405.33-.383.628.095 2.602-.286.675.191.128 1.047.326-.417 8.537 10.943-1.4-13.05.323.405.228-.37.502.178 1.625-.44 1.265-.018.586-.243 2.246 21.885-.315-.338-.68.05h-1.952l-.347.243-.594-.098-.451.233-.173-.29-.07-.573-.375.012-8.415-10.785 1.507 12.832zm20.348-9.726l-.296.38-.361-.436-.135.016.873 7.395-.492-.107-1.157.344-.7-.116-1.823.494-.258.409-2.626-21.944.19.148.472-.058 3.033-.407.321-.176.235.52.37.228.928 7.833 6.849-9.505.161.494.676-.357 1.128.82.388.09.935.638-.191.675.755-.264-7.519 10.444.25-.202.666-.15.43-.396 8.935 8.598-.777.335-.106.287-3.096.448-.678-.225-.35.215zm16.027-16.218l7.581-1.031-.544.306.31.887-.102.287.297 1.025-.127.358.206.283-.081.455.095.777-6.5.899.012-.173-.438-.22.465 4.601 4.78-.688.838.137-.262.375.313 1.435.448 1.418.058.746-5.754.844.435 4.365 6.265-.87.303.237.46.115.232 1.616.218.384.486 1.721-7.847 1.097-.11.185-2.27.244-.557.206-.67-.158-.46.433-2.256-21.715 1.237-.252.193.178 1.093-.306 1.416.1-.004-.034zm-92.138 63.12l-.81-.175-.414.252-2.411-21.593.603.166.797-.199.527.107.675-.083 1.787.328-.041-.337-.666-.12 8.167-1.003-.161.329.291 1.814-.254.716.403.498-.203.3.345.574-7.226.887.45 4.227 6.164-.858-.339.59.497.418-.179.776.212 1.72-.17.262.138.565-5.054.689-.834-.1.975 9.062-.505-.212zm26.762-25.039l.288-.446 2.03 16.262-.227.096.158.734-4.22 5.246-.345-.026-.027.345-6.306.809-.034.004-.004-.036L65.445 62l-.315-.613 2.292-.863-.401.083-1.857.468-1.616-15.116.463.145.33-.383 2.96-.162.174-.223.625-.214 1.558 14.641 2.576 2.288 2.53-.311 2.313-2.648-1.857-14.844.274.275.25-.202.927-.251zm-7.256-4.692l.687.016 3.303-.44.504-.33.359 3.483-.46.157-2.599.319-.19-.148-.654.251-.502.37zm-7.344 1.002l.695.086 2.643-.496.485.041.591-.21.373 3.038-.54.34-2.095.258-1.03.263-.68.323zm29.173 2.104l-.021.104 4.26 3.45.1-.012.008.068.075.059-.063.042.668 5.157-.087.111-3.006 3.418.046.095-.558.48-.468.092.32.371 6.082 7.132-.696-.086-.288.447-1.94.101-.975.428-.868-.373-.115.46-5.82-7.507.182-.16 2.464-.576-3.906.548 1.036 8.437-.32-.372-1.022.327-1.877.299-.776.095-.49.197-2.74-21.758.725.048 3.294.041.118-.152-.202-.249zm-.947 9.023l1.2-1.38-.269-2.194-.265.067-1.285-.973-4.12.472.898 7.323.123-.116-.134-2.484.175-.223zm34.63 2.77l.03-.003-4.863 6.148.004.036-.034.004-5.555.511.004.034-1.757.455-.38-.296-.561.446-1.356.13-.44.328-2.756-22.167.472.216 1.333-.3.253.105 2.531-.31.042.337 6.5-.899-.367.354.096.502-.217.467.412-.288.14-.497 5.127 4.646-.246.232.414.018zm-4.914-.388l.173.013-.962-7.829-2.94-2.448-3.872.544 1.541 12.554 3.724-.356 2.229-2.775zm10.199-16.221l7.58-1.032-.544.307.31.886-.101.287.297 1.025-.128.359.206.283-.08.455.095.776-6.501.9.013-.174-.438-.22.464 4.602 4.78-.688.839.137-.263.375.314 1.434.448 1.418.057.747-5.754.843.435 4.366 6.265-.87.303.236.46.115.232 1.616.219.384.485 1.722-7.845 1.096-.114.185-2.265.244-.557.206-.67-.158-.461.434-2.255-21.715 1.236-.253.193.178 1.093-.306 1.417.1-.004-.031zm15.276 19.773l-.278-.308-.364.387-1.18.145-.444.294-2.64-21.496.418.05.814-.34 2.359-.598.51.245.469-.366 2.619 21.33-.46.157-.406.326zm10.202-1.424l-.334.35-.674-.192-.465.4-1.852.262-.364-.195-.322.45-2.602-22.015.324.406.33-.383.628.094 2.602-.285.675.19.128 1.047.326-.417 8.537 10.941-1.401-13.05.324.405.228-.37.502.178 1.624-.44 1.265-.018.587-.243 2.243 21.89-.316-.338-.68.049h-1.952l-.347.244-.594-.098-.452.226-.172-.287-.07-.573-.376.011-8.409-10.783 1.507 12.832zm17.888-23.674l7.581-1.032-.545.307.31.887-.101.286.297 1.026-.127.358.206.283-.081.455.095.776-6.5.9.012-.174-.438-.22.464 4.602 4.78-.688.839.137-.262.375.313 1.434.448 1.418.057.747-5.754.843.436 4.366 6.264-.87.303.237.46.115.232 1.615.219.385.485 1.721-7.847 1.097-.114.185-2.267.244-.557.206-.67-.158-.46.433-2.254-21.715 1.236-.252.193.177 1.093-.305 1.417.1-.004-.032zM85.551 73.143l.288-.446 2.03 16.262-.227.096.158.734-4.222 5.246-.346-.026-.026.346-6.306.808-.034.004-.004-.035-5.333-4.655-.315-.612L73.506 90l-.401.083-1.857.468-1.616-15.116.463.145.33-.383 2.96-.162.174-.223.625-.213 1.558 14.64 2.576 2.288 2.53-.31 2.313-2.648-1.857-14.845.274.275.249-.202.928-.25zm10.482 20.363l-.334.349-.675-.191-.464.4-1.852.261-.367-.195-.321.45-2.603-22.014.324.405.33-.383.628.094 2.603-.285.674.191.129 1.047.325-.417 8.537 10.94-1.4-13.05.323.406.229-.37.501.178 1.625-.44 1.265-.018.587-.243 2.242 21.89-.315-.339-.68.05-1.946-.003-.347.244-.595-.098-.451.226-.173-.287-.07-.573-.375.011-8.416-10.784 1.508 12.831zm17.686-19.163l-4.927.605.537-.374-.502-.178-.033-2.223-.123-1.56 4.585-.597-.058-.473.582-.003.295.166.936-.184 2.083-.054.004.034 5.8-.747-.57.378.534.723-.158.944-.216.746.157 1.282.24.313-4.653.606 1.858 16.775-.469.365-1.05-.179-1.494.385-1.092.033-.338.59zm15.554-6.397l7.581-1.031-.544.306.31.887-.102.287.297 1.025-.127.358.206.283-.081.455.095.777-6.5.899.012-.173-.438-.22.464 4.601 4.78-.687.84.136-.263.375.313 1.435.448 1.418.058.746-5.753.841.436 4.366 6.264-.87.303.237.46.115.232 1.615.219.385.485 1.721-7.848 1.099-.115.185-2.265.244-.557.206-.67-.158-.46.433-2.256-21.715 1.237-.252.193.178 1.093-.306 1.416.1-.004-.031zm20.792-2.519l-.021.104 4.26 3.45.1-.012.008.068.076.059-.064.042.668 5.157-.087.111-3.006 3.418.046.095-.558.48-.468.092.32.372 6.082 7.131-.696-.085-.288.446-1.94.101-.975.428-.866-.36-.115.458-5.82-7.506.182-.16 2.464-.576-3.907.548 1.036 8.437-.32-.372-1.021.327-1.878.299-.776.095-.49.197-2.74-21.758.726.048 3.293.04.119-.15-.202-.25zm-.947 9.023l1.2-1.38-.269-2.194-.265.067-1.285-.973-4.12.472.898 7.323.123-.116-.134-2.484.175-.223zm20.532-2.966l-.427.43.543.515.016 2.361-.158.67.455.356-10.394 1.276.364-.661-.387-.364.113-1.863-.344-.575.224-.404-.467-.457zM48.517 111.889l.173.013 3.379-4.285.533.996-.086-.983.464-.125 7.837-.894-.502.37.205.557-.128 2.585.097.228-.697.462.535.174-6.146.725-.846 1.2.191 1.552 8.632 2.195.429.426-.087.112.266-.067.845 6.884-.135.017-3.742 4.399-.876-.44.088.434-.25.202-8.267.775.532-.408-.345-.3.4-1.488.44-.876-.265-.207.251-1.025-.27-.24 6.336-.577 1.45-1.582-.307-2.496-8.623-2.127-.712-.495.14-.256-.258.132zm20.06-1.778l-4.926.605.536-.374-.501-.178-.033-2.223-.124-1.56 4.586-.597-.058-.473.582-.003.294.166.937-.184 2.083-.054.004.034 5.8-.747-.57.378.534.723-.158.944-.217.746.158 1.282.24.313-4.653.606 1.856 16.763-.469.366-1.044-.168-1.494.385-1.092.033-.339.59zm27.076-7.983l.287-.446 2.031 16.262-.228.096.159.734-4.216 5.245-.346-.026-.026.346-6.307.808-.033.005-.005-.036-5.333-4.655-.315-.612 2.292-.864-.4.084-1.857.467-1.617-15.115.463.144.33-.383 2.96-.162.175-.223.624-.213 1.558 14.641 2.576 2.287 2.531-.31 2.313-2.648-1.857-14.845.273.275.25-.202.928-.25zm-7.256-4.692l.687.016 3.303-.44.507-.336.359 3.482-.46.157-2.6.32-.189-.149-.654.252-.502.37zm-7.345 1.002l.696.086 2.645-.496.485.041.59-.21.373 3.038-.54.34-2.092.257-1.03.264-.68.323zm22.723 7.35l-4.927.605.537-.375-.502-.178-.033-2.222-.123-1.56 4.585-.598-.058-.473.582-.003.295.166.936-.184 2.083-.054.004.034 5.8-.747-.57.379.534.722-.158.944-.216.746.157 1.283.24.313-4.653.605 1.857 16.763-.47.366-1.049-.18-1.494.385-1.092.034-.339.59zm13.13 14.592l-.852.036-.288-.958 7.559-16.274-8.74 1.073.215-.472-.352-.916-.19-2.1.154-.396-.527-.38 11.58-1.388.216-.472.21.317 2.404 1.14.553.032.437.769-7.217 15.998 8.509-1.01-.453.5.505.487-.494.161.616.267.05 1.227-.44.328.4.465.243.861-10.464 1.285-.172-.287-.128-.224-.645 1.449-.601-.714-.43-.149-.518-.037zm30.076-24.554l.288-.446 2.03 16.261-.227.097.159.734-4.22 5.245-.346-.026-.026.346-6.307.809-.034.004-.004-.036-5.333-4.655-.315-.612 2.292-.864-.401.084-1.857.468-1.616-15.116.463.145.33-.384 2.96-.162.174-.222.625-.214 1.558 14.641 2.576 2.287 2.53-.31 2.313-2.648-1.856-14.836.274.274.25-.202.927-.25zm10.482 20.362l-.334.35-.674-.192-.465.4-1.852.262-.367-.195-.321.45-2.602-22.015.323.406.33-.383.628.094 2.603-.285.674.191.129 1.046.325-.417 8.537 10.942-1.4-13.051.323.406.229-.371.501.178 1.625-.44 1.265-.017.587-.244 2.242 21.89-.315-.338-.68.05h-1.952l-.347.243-.594-.098-.452.227-.172-.287-.07-.574-.376.012-8.409-10.784 1.507 12.832zm21.112-2.42l.079-.182-.253-.106-.355.181-5.594-4.828 1.895-.747-.316-.098-1.578.536-1.248-10.157.257.14-.012-.1-.185-.114 4.99-5.953.07.3.316.338.095-.046-.138-.565 7.577-1.068-.305.312.413.292-.283.206.29.41.031 3.044.194.178-6.063.845-2.444 2.972.916 7.46.224-.128 2.656 2.38 3.474-.427 1.747-2.51.1-.011-.3-2.434-4.424.509.304-.311-.22-1.787.402-.358-.16-.226.078-1.311-.379-.296 7.222-.887.716.529-.216.198.57 1.574.228 1.856-3.275.402.072.026.919-.045.16.182 2.463-.302.456 3.718-.063.042.038.03-3.415 5.112-.198.024-.002.276zm19.932-8.408l-1.203.248-.438-.22-1.186.385-.81.1-.56-.377-.317.484-1.91-15.555.513.554.36-.695 2.704-.298.523.073.389-.46zm-4.232 2.917l.632.124.24-.27 2.617-.458.712.221.316-.21.49 3.982-.413-.292-.309.278-.679.05-1.417.173-.347.244-1.121-.205-.25.202z"/></g></svg>