<svg xmlns="http://www.w3.org/2000/svg" xmlns:xlink="http://www.w3.org/1999/xlink" width="41" height="41" viewBox="0 0 41 41">
  <defs>
    <clipPath id="clip-path">
      <path id="Pfad_10120" data-name="Pfad 10120" d="M3284.806,1605.5a20.5,20.5,0,1,1-20.5,20.5,20.5,20.5,0,0,1,20.5-20.5Z" transform="translate(-3264.306 -1605.501)" fill="#fff"/>
    </clipPath>
  </defs>
  <g id="Gruppe_1219" data-name="Gruppe 1219" transform="translate(-3264.306 -1605.501)">
    <g id="Gruppe_1218" data-name="Gruppe 1218" transform="translate(3264.306 1605.501)">
      <path id="Pfad_10115" data-name="Pfad 10115" d="M3284.806,1605.5a20.5,20.5,0,1,1-20.5,20.5,20.5,20.5,0,0,1,20.5-20.5Z" transform="translate(-3264.306 -1605.501)" fill="#fff"/>
      <g id="Gruppe_1217" data-name="Gruppe 1217" clip-path="url(#clip-path)">
        <path id="Pfad_10116" data-name="Pfad 10116" d="M3284.806,1605.546a20.5,20.5,0,1,1-20.5,20.5,20.5,20.5,0,0,1,20.5-20.5Z" transform="translate(-3264.306 -1605.536)" fill="#fff" fill-rule="evenodd"/>
        <path id="Pfad_10117" data-name="Pfad 10117" d="M3202.109,1743.984h68.251v-13.667h-68.251v13.667Z" transform="translate(-3215.734 -1702.975)" fill="#fc0" fill-rule="evenodd"/>
        <path id="Pfad_10118" data-name="Pfad 10118" d="M3202.109,1619.212h68.251v-13.667h-68.251v13.667Z" transform="translate(-3215.734 -1605.535)" fill-rule="evenodd"/>
        <path id="Pfad_10119" data-name="Pfad 10119" d="M3202.109,1681.6h68.251v-13.667h-68.251V1681.6Z" transform="translate(-3215.734 -1654.255)" fill="red" fill-rule="evenodd"/>
      </g>
      <path id="Pfad_10121" data-name="Pfad 10121" d="M3284.806,1605.5a20.5,20.5,0,1,1-20.5,20.5,20.5,20.5,0,0,1,20.5-20.5Z" transform="translate(-3264.306 -1605.501)" fill="none"/>
    </g>
  </g>
</svg>
