<svg xmlns="http://www.w3.org/2000/svg" width="187.742" height="140.153"><path data-name="Pfad 10154" d="M3.672 60.604c4.884 2.511 9.733 5.079 14.599 7.622l35.54 18.563 43.425 22.684q18.812 9.827 37.616 19.646 5.636 2.94 11.266 5.887c1.56.814 4.241 2.97 6 3.139a4.145 4.145 0 011.056.556c1.62-3.351 2.488-6.72 4.061-10.092 1.34-2.884 1.817-2.79 4.633-3.396 6.122-1.317.06-6.205.623-10.364.775-5.696 9.208-2.001 9.345-8.973.093-4.96-3.775-8.097 2.65-10.66 2.295-.916 4.582-1.435 5.347-4.094.67-2.341.233-4.444 1.32-6.686.803-1.644 2.05-3.224 2.918-4.89L34.56 1.452c-1.087 2.084-2.575 4.192-3.143 6.471-.945 3.781-1.23 4.342-4.587 6.616-3.19 2.158-1.515 4.079-1.73 7.365-.252 3.84-2.466 2.722-5.37 3.874-7.339 2.908.118 12.624-3.672 17.27-1.498 1.833-4.14 1.564-5.613 3.483-1.874 2.442-.528 5.903-2.426 8.517-1.351 1.864-2.944 3.691-4.348 5.556z" fill="#008fc3" opacity=".339"/></svg>