<svg xmlns="http://www.w3.org/2000/svg" width="187.742" height="140.153" viewBox="0 0 187.742 140.153">
  <path id="Pfad_10154" data-name="Pfad 10154" d="M925.521,317.181c5.009,2.252,9.986,4.562,14.978,6.847q18.234,8.34,36.464,16.678l44.552,20.38q19.3,8.829,38.592,17.65,5.783,2.642,11.559,5.29c1.6.731,4.391,2.744,6.157,2.82a4.145,4.145,0,0,1,1.083.5c1.442-3.431,2.133-6.841,3.527-10.29,1.187-2.951,1.668-2.882,4.449-3.634,6.045-1.636-.265-6.2.08-10.383.476-5.728,9.09-2.48,8.862-9.449-.167-4.959-4.193-7.889,2.089-10.785,2.244-1.034,4.5-1.672,5.125-4.368.546-2.373,0-4.45.968-6.746.716-1.683,1.879-3.327,2.658-5.036L953.272,256.493c-.976,2.138-2.352,4.321-2.8,6.627-.746,3.825-1,4.4-4.234,6.847-3.072,2.322-1.3,4.152-1.343,7.445-.05,3.848-2.32,2.848-5.159,4.15-7.177,3.288.778,12.6-2.763,17.438-1.4,1.909-4.053,1.779-5.423,3.772-1.744,2.537-.219,5.923-1.977,8.633C928.321,313.337,926.826,315.245,925.521,317.181Z" transform="translate(-903.981 -304.58) rotate(3)" fill="#008fc3" opacity="0.339"/>
</svg>
