<svg xmlns="http://www.w3.org/2000/svg" width="55.48" height="86.646" viewBox="0 0 55.48 86.646">
  <g id="Gruppe_1133" data-name="Gruppe 1133" transform="translate(-564.585 -239.909)">
    <path id="Pfad_32" data-name="Pfad 32" d="M-76.3,37.357c-.745-3.425-10.852-4.133-22.573-1.581s-20.618,7.4-19.872,10.824c.588,2.7,20.917,66.384,21.283,68.066.529,2.43,7.7,2.933,16.013,1.122s14.625-5.248,14.1-7.678C-67.8,106.068-75.634,40.4-76.3,37.357Z" transform="translate(684.785 207.361)" fill="#fff" opacity="0.685"/>
    <path id="Pfad_35" data-name="Pfad 35" d="M-100.747,98.591c2.093-2.011,7.052-4.167,13.055-5.474,8.313-1.812,15.482-1.309,16.011,1.121" transform="translate(689.115 221.233)" fill="none" stroke="#101010" stroke-linecap="round" stroke-linejoin="round" stroke-width="2"/>
    <path id="Pfad_36" data-name="Pfad 36" d="M-75.819,37.61c-.747-3.426-10.853-4.134-22.574-1.581s-20.617,7.4-19.872,10.823c.588,2.7,20.917,66.385,21.284,68.067.528,2.429,7.7,2.931,16.011,1.121s14.625-5.248,14.1-7.677C-67.317,106.319-75.157,40.653-75.819,37.61Z" transform="translate(684.9 207.422)" fill="none" stroke="#101010" stroke-miterlimit="10" stroke-width="4"/>
    <path id="Pfad_37" data-name="Pfad 37" d="M-79.514,37.189c.668,3.074-7.313,7.422-17.828,9.711-8.155,1.776-15.439,1.793-18.609.278" transform="translate(685.466 208.068)" fill="none" stroke="#101010" stroke-linecap="round" stroke-linejoin="round" stroke-width="2"/>
    <g id="Gruppe_33" data-name="Gruppe 33" transform="translate(585.553 272.423)">
      <g id="Gruppe_32" data-name="Gruppe 32">
        <path id="Pfad_38" data-name="Pfad 38" d="M-98.583,59.1a.65.65,0,0,0,.239.011,19.349,19.349,0,0,1,4.494.476,17.147,17.147,0,0,1,4.841,1.868,13.008,13.008,0,0,1,3.4,2.773,9.779,9.779,0,0,1,1.844,3.16,8.8,8.8,0,0,1,.342,1.282,8.606,8.606,0,0,1,.149,1.259,7.914,7.914,0,0,1-1.3,4.832,9.531,9.531,0,0,1-2.651,2.636,12.078,12.078,0,0,1-3.206,1.529,12.607,12.607,0,0,1-2.634.53,11.268,11.268,0,0,1-4.005-.314,8.4,8.4,0,0,1-3.117-1.555,7.493,7.493,0,0,1-2.373-3.378A7.55,7.55,0,0,1-103,72.242a7.612,7.612,0,0,1,.264-2.616,11.029,11.029,0,0,1,1.158-2.639,23.134,23.134,0,0,1,1.4-2.077c.425-.578.867-1.146,1.275-1.739a7.6,7.6,0,0,0,.527-.866c.058-.118.109-.239.156-.363a1.225,1.225,0,0,0,.01-.875,3.372,3.372,0,0,0-.728-1.194.548.548,0,0,1-.122-.17.413.413,0,0,1,.166-.527c.026-.016.062-.019.074-.051ZM-98.2,76.5c.052.041.087.072.124.1a6.869,6.869,0,0,0,1.928.915,8.955,8.955,0,0,0,3.666.281,9.97,9.97,0,0,0,1.44-.279,10.161,10.161,0,0,0,2.407-.987,8.32,8.32,0,0,0,2.3-1.91,6.376,6.376,0,0,0,1.4-2.923,7.506,7.506,0,0,0-.02-2.744,7.7,7.7,0,0,0-.583-1.875A9.169,9.169,0,0,0-88.388,63.6a13.514,13.514,0,0,0-4.065-2.091,18.355,18.355,0,0,0-4.136-.822.216.216,0,0,0-.148,0,.34.34,0,0,0,.014.046,2.339,2.339,0,0,1,.176,1.309.208.208,0,0,0,0,.092c.031.117.058.234.087.351.114.448.213.9.305,1.35.057.291.12.579.167.871a7.11,7.11,0,0,1,.138,1.073.18.18,0,0,0,.012.068c.076.171.051.248-.115.341-.222.128-.444.255-.66.4a3.208,3.208,0,0,0-.815.722,4.581,4.581,0,0,0-.372.578.279.279,0,0,1-.162.14.482.482,0,0,1-.561-.335.637.637,0,0,1,.026-.366,2.043,2.043,0,0,1,.312-.543c.117-.156.244-.3.371-.449a1.146,1.146,0,0,0,.193-.432.194.194,0,0,0-.119.053,1.565,1.565,0,0,1-.275.192c-.119.076-.237.15-.357.222a.844.844,0,0,0-.414.7c0,.077-.019.154-.031.231a.255.255,0,0,1-.118.179.448.448,0,0,1-.393.112.346.346,0,0,0,.125.2.192.192,0,0,1,.072.185,3.419,3.419,0,0,1-.069.4c-.031.128-.064.254-.084.386a.481.481,0,0,0,.03.262c.032.081.066.159.1.238a.834.834,0,0,1-.025.678.232.232,0,0,1-.358.1c-.052-.035-.1-.076-.151-.109a.269.269,0,0,0-.179-.055.357.357,0,0,1-.16.388c-.077.064-.153.133-.232.193-.2.146-.394.291-.592.435a.153.153,0,0,0-.076.141,6.954,6.954,0,0,0,.138,1.168c.033.167.071.335.119.5.014.045.033.063.082.058a2.135,2.135,0,0,0,.523-.1c.144-.052.167-.092.164-.243a.253.253,0,0,1,.25-.288,2.323,2.323,0,0,1,.246-.011,1.258,1.258,0,0,1,.448.053.2.2,0,0,0,.2-.021c.031-.022.064-.041.1-.064a8.668,8.668,0,0,0,.8-.639,4.443,4.443,0,0,1,.987-.673,1.547,1.547,0,0,1,.552-.176.555.555,0,0,1,.575.312.938.938,0,0,1,.082.229c.026.138.047.277.064.415a.413.413,0,0,0,.3.377,1.224,1.224,0,0,1,.463.3,4.637,4.637,0,0,1,.508.606.6.6,0,0,1,.093.52,3.737,3.737,0,0,1-.118.356c-.069.2-.092.17.069.358a4.655,4.655,0,0,0,.48.459,1.538,1.538,0,0,1,.311.376.442.442,0,0,1,.081.2c0,.115.069.144.16.159.027,0,.055.007.082.011a.263.263,0,0,1,.227.367c-.011.033-.043.066-.027.113.053,0,.107.007.16.014a.317.317,0,0,1,.331.309.335.335,0,0,0,.029.141,1.072,1.072,0,0,1,.42-.1c.229-.012.458-.03.686-.041a.453.453,0,0,0,.21-.063.467.467,0,0,1,.238-.087.172.172,0,0,1,.181.231.321.321,0,0,1-.083.139,1.241,1.241,0,0,1-.2.16,3.479,3.479,0,0,1-.817.388,1.584,1.584,0,0,1-.95.057,1.533,1.533,0,0,0-.345-.042c-.3,0-.589.035-.885.045a3.554,3.554,0,0,1-.9-.072c-.518-.117-1.032-.259-1.541-.41-.357-.107-.713-.219-1.064-.346-.089-.031-.092-.03-.123.057a.443.443,0,0,1-.257.27,1.333,1.333,0,0,1-.321.084" transform="translate(103.017 -59.096)" fill="#008fc3"/>
      </g>
      <path id="Pfad_39" data-name="Pfad 39" d="M-90.393,66.655c.045.014.068.025.1.031a2.4,2.4,0,0,1,.9.415,2.63,2.63,0,0,0,.714.36,2.22,2.22,0,0,1,.5.224c.069.045.082.037.144-.03a.461.461,0,0,1,.067-.063.152.152,0,0,1,.218.033.386.386,0,0,1,.061.124,6.14,6.14,0,0,1,.351,1.835,6.379,6.379,0,0,1-.341,2.383,5.622,5.622,0,0,1-1.286,2.1.411.411,0,0,1-.275.134c-.058,0-.115.01-.174.011a.154.154,0,0,1-.166-.12,1.4,1.4,0,0,0-.237-.513c-.047-.072-.089-.146-.135-.217a.2.2,0,0,1,0-.229.806.806,0,0,0,.077-.157.446.446,0,0,0-.057-.441,1.121,1.121,0,0,0-.21-.217A3.959,3.959,0,0,0-90.615,72a.23.23,0,0,1-.129-.224c0-.32-.148-.441-.465-.4a1.931,1.931,0,0,0-.606.2,2.711,2.711,0,0,0-.688.453.468.468,0,0,1-.17.1c-.348.11-.7.219-1.043.334a.746.746,0,0,1-.433.02,9.122,9.122,0,0,1-1.018-.332.225.225,0,0,1-.148-.153.455.455,0,0,0-.066-.135.175.175,0,0,0-.143-.086c-.118,0-.162-.05-.171-.162a4.377,4.377,0,0,0-.188-.863,2.1,2.1,0,0,1-.122-.65.838.838,0,0,1,.229-.58c.063-.064.128-.126.195-.182a.349.349,0,0,0,.126-.311c0-.1-.014-.208-.015-.312a.49.49,0,0,1,.192-.427c.47-.371.96-.713,1.458-1.043.114-.077.229-.148.345-.218a.744.744,0,0,1,.126-.061.16.16,0,0,1,.236.14.668.668,0,0,0,.04.169.116.116,0,0,0,.129.074,1.367,1.367,0,0,0,.393-.1.494.494,0,0,1,.352-.029.647.647,0,0,0,.2.02.367.367,0,0,0,.381-.309c.006-.031.007-.061.011-.092a.191.191,0,0,1,.187-.2,1.611,1.611,0,0,0,.469-.133.733.733,0,0,0,.367-.343.477.477,0,0,0,.006-.428.292.292,0,0,0-.449-.123.784.784,0,0,0-.174.171.223.223,0,0,1-.288.082c-.117-.042-.233-.087-.348-.13a.217.217,0,0,0-.078-.022.1.1,0,0,0-.1.041c-.016.032.014.06.031.083.033.047.072.091.11.135a.156.156,0,0,1,.043.18.171.171,0,0,1-.164.091.351.351,0,0,1-.157-.042c-.255-.118-.511-.242-.778-.341a2.252,2.252,0,0,0-.653-.16.351.351,0,0,0-.16.021c-.042.02-.063.047-.027.091a.316.316,0,0,1,.019.03.217.217,0,0,1-.162.332.293.293,0,0,1-.172-.02.118.118,0,0,0-.128.016.871.871,0,0,0-.433.67c-.016.176-.045.353-.064.531a.238.238,0,0,1-.162.208c-.246.1-.489.2-.737.29a.214.214,0,0,1-.3-.112,1.009,1.009,0,0,1-.118-.585c.006-.094.078-.16.195-.187.144-.036.288-.068.43-.1.181-.043.188-.057.151-.236,0-.024-.011-.045-.016-.068-.024-.138-.124-.186-.247-.2-.069-.011-.146-.011-.172-.089s.027-.133.077-.182a.927.927,0,0,0,.175-.218.515.515,0,0,0,.068-.336.207.207,0,0,1,.078-.206.881.881,0,0,0,.145-.151.082.082,0,0,0-.009-.123c-.1-.1-.1-.141-.019-.252.021-.029.042-.055.061-.084.031-.052.01-.092-.052-.091a.584.584,0,0,0-.171.035,1.094,1.094,0,0,1-.3.051.468.468,0,0,1-.248-.05.14.14,0,0,1-.05-.244c.031-.038.067-.076.1-.117.056-.076.058-.087-.006-.16a.418.418,0,0,1-.06-.487.27.27,0,0,1,.175-.157c.207-.057.412-.11.619-.167a1.577,1.577,0,0,0,.186-.067.178.178,0,0,0,.12-.176,3.976,3.976,0,0,1,.1-.7,1.083,1.083,0,0,1,.084-.253.127.127,0,0,1,.131-.076,8.068,8.068,0,0,1,3.248.879A8.119,8.119,0,0,1-89.57,64.21c.226.216.443.436.655.665a.171.171,0,0,1,0,.273c-.033.038-.069.073-.1.112a.259.259,0,0,1-.3.078c-.042-.011-.1-.055-.129-.015s.027.088.055.125a.734.734,0,0,0,.378.258c.072.024.1.014.12-.062a.2.2,0,0,1,.327-.107.951.951,0,0,1,.407.577,2.821,2.821,0,0,1,.055.9,1.367,1.367,0,0,1-.014.161.17.17,0,0,1-.272.124.615.615,0,0,1-.092-.069,6.091,6.091,0,0,0-.89-.616,1.988,1.988,0,0,0-.472-.195.326.326,0,0,0-.336.067c-.062.058-.135.1-.218.169" transform="translate(104.693 -58.385)" fill="#008fc3"/>
    </g>
    <path id="Pfad_34" data-name="Pfad 34" d="M-91.343,116.318A40.431,40.431,0,0,0-84.3,89.233c-1.554-16.185-8.667-44.2-8.667-44.2s4.808-1.977,6.285-3.8,3.287-3.492,2.577-5.8,1.533,2.173,2.179,5.656,8.013,64.254,8.013,64.254,1.264,4.106-1.291,5.766-7.414,3.259-10.239,3.927S-91.343,116.318-91.343,116.318Z" transform="translate(690.982 207.496)" fill="#008fc3" opacity="0.204"/>
  </g>
</svg>
