<svg xmlns="http://www.w3.org/2000/svg" width="100.604" height="45.761" viewBox="0 0 100.604 45.761">
  <g id="Gruppe_1157" data-name="Gruppe 1157" transform="translate(-9340.816 -709.202)">
    <g id="Gruppe_13" data-name="Gruppe 13" transform="translate(9374.595 709.202)">
      <path id="Pfad_13" data-name="Pfad 13" d="M-11.829-48.371c.077.078.127.137.184.187a11.423,11.423,0,0,0,2.994,1.908,14.937,14.937,0,0,0,5.993,1.222A16.7,16.7,0,0,0-.224-45.22a16.782,16.782,0,0,0,4.176-1.132,13.8,13.8,0,0,0,4.19-2.678,10.621,10.621,0,0,0,2.907-4.536,12.571,12.571,0,0,0,.533-4.534,12.928,12.928,0,0,0-.577-3.213A15.228,15.228,0,0,0,7.03-67.652,22.474,22.474,0,0,0,.753-71.939,30.519,30.519,0,0,0-5.9-74.151a.391.391,0,0,0-.246-.027.808.808,0,0,0,.015.08,3.89,3.89,0,0,1,.02,2.2.331.331,0,0,0-.018.153c.027.2.047.4.071.6.095.763.166,1.527.224,2.294.034.491.08.979.1,1.469a11.685,11.685,0,0,1,0,1.8.3.3,0,0,0,.009.115c.089.3.031.421-.262.541-.393.164-.784.33-1.169.515a5.288,5.288,0,0,0-1.5,1.025,7.4,7.4,0,0,0-.732.875.465.465,0,0,1-.3.2.8.8,0,0,1-.858-.668,1.06,1.06,0,0,1,.118-.6,3.463,3.463,0,0,1,.628-.832c.226-.233.466-.448.706-.664a1.922,1.922,0,0,0,.408-.672.324.324,0,0,0-.207.062,2.568,2.568,0,0,1-.5.262c-.211.1-.42.2-.634.293a1.4,1.4,0,0,0-.83,1.074c-.024.126-.062.249-.1.373a.429.429,0,0,1-.231.271.749.749,0,0,1-.673.1.569.569,0,0,0,.166.362.322.322,0,0,1,.08.323,5.162,5.162,0,0,1-.2.648c-.077.206-.158.408-.217.621a.8.8,0,0,0-.006.439c.037.139.077.275.113.411a1.4,1.4,0,0,1-.182,1.116.384.384,0,0,1-.612.089c-.078-.069-.147-.146-.228-.211a.449.449,0,0,0-.284-.128.591.591,0,0,1-.342.608c-.14.091-.28.187-.424.271-.353.2-.71.4-1.067.6a.25.25,0,0,0-.151.218A11.287,11.287,0,0,0-15.215-56c.02.284.045.568.093.848.013.076.042.111.122.113a3.52,3.52,0,0,0,.886-.058c.248-.056.295-.116.321-.366a.418.418,0,0,1,.473-.424,3.384,3.384,0,0,1,.406.033,2.059,2.059,0,0,1,.728.18.324.324,0,0,0,.337.006c.056-.029.116-.055.173-.085a14.426,14.426,0,0,0,1.454-.889,7.383,7.383,0,0,1,1.77-.908,2.56,2.56,0,0,1,.946-.177.922.922,0,0,1,.887.634,1.54,1.54,0,0,1,.085.395c.016.233.024.466.024.7a.685.685,0,0,0,.415.684,2.019,2.019,0,0,1,.7.6,7.559,7.559,0,0,1,.715,1.105.994.994,0,0,1,.046.877c-.073.193-.175.373-.266.561-.158.326-.187.262.04.608a7.775,7.775,0,0,0,.7.855,2.505,2.505,0,0,1,.435.685.723.723,0,0,1,.093.351c-.024.191.084.253.231.295.044.011.087.025.131.036a.436.436,0,0,1,.3.652c-.024.055-.084.1-.068.182.087.018.175.035.261.055a.53.53,0,0,1,.484.579.572.572,0,0,0,.018.239,1.775,1.775,0,0,1,.714-.073c.38.025.761.046,1.141.073a.73.73,0,0,0,.357-.06.787.787,0,0,1,.411-.094.287.287,0,0,1,.251.419.519.519,0,0,1-.165.211,2.073,2.073,0,0,1-.363.224,5.793,5.793,0,0,1-1.429.472,2.65,2.65,0,0,1-1.58-.1,2.558,2.558,0,0,0-.561-.142c-.488-.069-.979-.064-1.469-.109a5.929,5.929,0,0,1-1.475-.3c-.832-.3-1.649-.641-2.459-1-.568-.249-1.13-.51-1.684-.79-.142-.071-.147-.069-.215.067a.749.749,0,0,1-.479.395,2.256,2.256,0,0,1-.548.073m2.962-28.816a1.045,1.045,0,0,0,.393.069A32.19,32.19,0,0,1-1.154-75.4a28.522,28.522,0,0,1,7.605,4.081,21.6,21.6,0,0,1,5.033,5.277,16.3,16.3,0,0,1,2.394,5.6,15,15,0,0,1,.3,2.186,14.313,14.313,0,0,1-.015,2.11,13.155,13.155,0,0,1-3.149,7.706,15.811,15.811,0,0,1-4.92,3.806,20.114,20.114,0,0,1-5.6,1.862,21.019,21.019,0,0,1-4.456.332,18.749,18.749,0,0,1-6.548-1.345A13.974,13.974,0,0,1-15.339-47a12.469,12.469,0,0,1-3.222-6.065,12.464,12.464,0,0,1-.3-3.327,12.621,12.621,0,0,1,.976-4.265,18.436,18.436,0,0,1,2.454-4.117,38.978,38.978,0,0,1,2.74-3.138c.823-.866,1.669-1.713,2.465-2.607a12.66,12.66,0,0,0,1.047-1.32c.122-.184.231-.373.335-.568a2.05,2.05,0,0,0,.2-1.444,5.583,5.583,0,0,0-.957-2.121.934.934,0,0,1-.164-.306.687.687,0,0,1,.382-.836c.046-.022.106-.018.135-.069Z" transform="translate(18.876 77.187)"/>
    </g>
    <g id="Gruppe_14" data-name="Gruppe 14" transform="translate(9433.169 747.681)">
      <path id="Pfad_14" data-name="Pfad 14" d="M-8.192-7.207c-.27-.53-.53-1.041-.8-1.582-.262.544-.519,1.052-.756,1.582Zm3.371,2.876c-.575,0-1.15-.006-1.724,0A.238.238,0,0,1-6.8-4.479c-.193-.395-.406-.779-.6-1.172A.238.238,0,0,0-7.656-5.8c-.87.006-1.744.006-2.616,0a.248.248,0,0,0-.268.159c-.193.4-.4.8-.6,1.192-.037.073-.071.124-.169.122-.57-.006-1.138,0-1.705,0a.053.053,0,0,1-.055-.029A.382.382,0,0,1-13-4.527q1.781-3.408,3.561-6.816a.229.229,0,0,1,.251-.156,3.056,3.056,0,0,0,.464,0,.2.2,0,0,1,.211.127c.173.339.353.675.532,1.012q1.52,2.886,3.043,5.774c.038.071.077.144.116.217Z" transform="translate(13.073 11.501)"/>
    </g>
    <g id="Gruppe_15" data-name="Gruppe 15" transform="translate(9340.816 747.676)">
      <path id="Pfad_15" data-name="Pfad 15" d="M0,0Q.494.006.989.009c.315,0,.632.006.948,0a.22.22,0,0,1,.237.144c.422.879.852,1.757,1.278,2.632.208.424.413.849.621,1.271a.952.952,0,0,0,.051.091.486.486,0,0,0,.108-.186C4.8,2.7,5.381,1.447,5.949.187A.252.252,0,0,1,6.218.006c.6.009,1.191,0,1.784.005a.3.3,0,0,1,.169.018c.015.066-.029.111-.055.16Q6.331,3.605,4.547,7.025a.233.233,0,0,1-.255.153,3.036,3.036,0,0,0-.444,0,.218.218,0,0,1-.239-.144C3.346,6.5,3.073,5.974,2.8,5.445Q1.464,2.832.127.218C.1.164.1.071,0,.078Z"/>
    </g>
    <g id="Gruppe_16" data-name="Gruppe 16" transform="translate(9383.715 747.606)">
      <path id="Pfad_16" data-name="Pfad 16" d="M-6.863-2.783a2.385,2.385,0,0,0-1.463.472,1.876,1.876,0,0,0-.2,2.905A2.349,2.349,0,0,0-5.3.59a1.854,1.854,0,0,0,.1-2.616,2.252,2.252,0,0,0-1.664-.757M-10.951-.768a3.446,3.446,0,0,1,1.558-2.9A4.149,4.149,0,0,1-6.515-4.42,4.116,4.116,0,0,1-3.841-3.158,3.341,3.341,0,0,1-2.858-.589,3.443,3.443,0,0,1-4.094,1.871,4.111,4.111,0,0,1-6.479,2.887,4.187,4.187,0,0,1-9.581,2,3.559,3.559,0,0,1-10.942-.362a.847.847,0,0,1-.009-.1V-.768" transform="translate(10.951 4.441)"/>
    </g>
    <g id="Gruppe_17" data-name="Gruppe 17" transform="translate(9393.712 747.707)">
      <path id="Pfad_17" data-name="Pfad 17" d="M-9.135-6.943c-.022-1.331-.006-2.661-.009-3.99,0-.14,0-.144.136-.144q.745,0,1.493,0c.137,0,.137,0,.14.14,0,.02,0,.04,0,.058v6.843c.006.075-.033.1-.106.1-.206,0-.413-.006-.619,0a.288.288,0,0,1-.2-.1l-1.822-1.6Q-11.4-6.75-12.672-7.867c-.038-.035-.08-.062-.127-.1a.175.175,0,0,0-.013.136,2.744,2.744,0,0,1,.022.406v3.277c0,.227.018.213-.206.213H-14.37c-.222,0-.2.018-.2-.213v-6.668c0-.046,0-.091,0-.137-.007-.087.022-.129.118-.125q.3.008.6,0a.272.272,0,0,1,.2.1q.986.888,1.975,1.773,1.2,1.081,2.412,2.161c.046.04.08.1.133.106" transform="translate(14.577 11.079)"/>
    </g>
    <g id="Gruppe_18" data-name="Gruppe 18" transform="translate(9415.159 747.608)">
      <path id="Pfad_18" data-name="Pfad 18" d="M-12.237-4.16c-.251-.111-.5-.226-.746-.331a7.484,7.484,0,0,0-1.95-.552,2.545,2.545,0,0,0-1.95.448,1.986,1.986,0,0,0-.857,1.675A1.848,1.848,0,0,0-17-1.484a2.627,2.627,0,0,0,1.873.6,3.653,3.653,0,0,0,1.008-.182c.055-.02.1-.049.161-.069a.221.221,0,0,0,.162-.248c-.009-.479,0-.956,0-1.434,0-.038,0-.078,0-.116.005-.137.005-.14.142-.142h1.551c.139.006.14.006.142.142q.008.581.007,1.163c0,.4,0,.788.006,1.183a.241.241,0,0,1-.109.225A5.3,5.3,0,0,1-15.013.691,4.713,4.713,0,0,1-17.259.285a3.724,3.724,0,0,1-2.09-2.248,3.245,3.245,0,0,1,.766-3.342,3.964,3.964,0,0,1,2.669-1.307,5.882,5.882,0,0,1,3.519.774.335.335,0,0,1,.2.351c-.015.4,0,.8-.005,1.2a.144.144,0,0,1-.035.125" transform="translate(19.526 6.639)"/>
    </g>
    <g id="Gruppe_19" data-name="Gruppe 19" transform="translate(9424.938 747.707)">
      <path id="Pfad_19" data-name="Pfad 19" d="M0-3.4v-1.86c0-.16,0-.162.158-.162q.738,0,1.473,0c.153,0,.156,0,.156.164v3.431a2.539,2.539,0,0,0,.14.874A1.573,1.573,0,0,0,3.346.139,2.167,2.167,0,0,0,4.17.079,1.615,1.615,0,0,0,5.35-1.272,2.828,2.828,0,0,0,5.4-1.852V-5.2c0-.235-.025-.217.22-.218.479,0,.956,0,1.435,0,.147,0,.151,0,.151.151,0,1.194.007,2.39,0,3.586A3.93,3.93,0,0,1,6.926-.245,3.061,3.061,0,0,1,4.855,1.641a4.371,4.371,0,0,1-2.579-.016A3.078,3.078,0,0,1,.118-.751,4.525,4.525,0,0,1,0-1.847C0-2.364,0-2.881,0-3.4" transform="translate(0 5.422)"/>
    </g>
    <g id="Gruppe_20" data-name="Gruppe 20" transform="translate(9374.461 747.596)">
      <path id="Pfad_20" data-name="Pfad 20" d="M-12.068-7.826v.746c0,.253-.009.5,0,.757a.272.272,0,0,1-.146.265,5.691,5.691,0,0,1-2.05.836,4.514,4.514,0,0,1-2.5-.168,3.711,3.711,0,0,1-2.283-2.23,3.484,3.484,0,0,1,.954-3.8,4.085,4.085,0,0,1,2.776-1.065,5.726,5.726,0,0,1,3.115.921c.063.042.131.075.129.173,0,.517,0,1.032,0,1.547-.085.018-.131-.038-.184-.068a6.674,6.674,0,0,0-2.316-.846,2.826,2.826,0,0,0-1.416.062,1.983,1.983,0,0,0-1.405,1.607,1.827,1.827,0,0,0,.562,1.656,2.178,2.178,0,0,0,1.693.628,6.17,6.17,0,0,0,2.863-.923.528.528,0,0,1,.2-.1" transform="translate(19.258 12.488)"/>
    </g>
    <g id="Gruppe_21" data-name="Gruppe 21" transform="translate(9361.306 747.681)">
      <path id="Pfad_21" data-name="Pfad 21" d="M-5.561-7.21h1.569L-4.8-8.794-5.561-7.21M-.613-4.336H-1.669c-.233,0-.466-.005-.7,0a.208.208,0,0,1-.224-.133c-.193-.388-.4-.768-.592-1.156a.279.279,0,0,0-.293-.186c-.865.011-1.729.007-2.6,0a.251.251,0,0,0-.268.161c-.195.4-.4.793-.6,1.192-.038.073-.075.122-.173.12-.57-.006-1.136,0-1.706,0a.049.049,0,0,1-.053-.029A.4.4,0,0,1-8.8-4.532q1.783-3.408,3.56-6.816a.233.233,0,0,1,.251-.156,2.855,2.855,0,0,0,.466,0,.2.2,0,0,1,.211.125c.149.295.306.582.459.875Q-2.288-7.533-.723-4.558c.031.062.06.126.109.222" transform="translate(8.874 11.506)"/>
    </g>
    <g id="Gruppe_22" data-name="Gruppe 22" transform="translate(9406.287 747.682)">
      <path id="Pfad_22" data-name="Pfad 22" d="M-6.835-4.548c-.266.555-.52,1.056-.752,1.578a9.354,9.354,0,0,0,1.54-.024C-6.3-3.5-6.558-4-6.835-4.548M-2.683-.115a.187.187,0,0,1-.138.025c-.53,0-1.06,0-1.589,0a.209.209,0,0,1-.222-.139c-.2-.4-.411-.79-.612-1.189a.23.23,0,0,0-.237-.146q-1.327.006-2.658,0a.223.223,0,0,0-.235.146c-.193.4-.4.783-.594,1.178A.223.223,0,0,1-9.2-.086c-.522-.007-1.046,0-1.571,0A.2.2,0,0,1-10.9-.108c-.016-.071.033-.12.062-.175Q-9.075-3.669-7.3-7.049c.013-.029.033-.056.044-.085a.171.171,0,0,1,.195-.12,4.276,4.276,0,0,0,.484,0,.223.223,0,0,1,.239.146c.248.482.5.961.755,1.441q1.409,2.676,2.818,5.35a.455.455,0,0,1,.085.2" transform="translate(10.907 7.257)"/>
    </g>
    <g id="Gruppe_23" data-name="Gruppe 23" transform="translate(9353.502 747.681)">
      <path id="Pfad_23" data-name="Pfad 23" d="M-13.64-.007a.734.734,0,0,1-.1.24Q-15.5,3.6-17.261,6.962a.6.6,0,0,0-.035.069.182.182,0,0,1-.208.131,3.209,3.209,0,0,0-.464,0,.231.231,0,0,1-.253-.151c-.357-.717-.726-1.427-1.09-2.141Q-20.5,2.533-21.7.2c-.029-.055-.077-.1-.066-.178.044-.04.1-.022.146-.022.575,0,1.15,0,1.726-.006a.236.236,0,0,1,.248.16q.909,1.884,1.828,3.763c.032.067.071.133.115.215a.751.751,0,0,0,.122-.218c.568-1.245,1.14-2.488,1.7-3.737A.261.261,0,0,1-15.59-.01c.588.009,1.176,0,1.764,0Z" transform="translate(21.766 0.011)"/>
    </g>
    <g id="Gruppe_24" data-name="Gruppe 24" transform="translate(9350.488 747.827)">
      <path id="Pfad_24" data-name="Pfad 24" d="M-2.619-5.873v3.315c0,.237,0,.209-.209.209H-3.991c-.186,0-.186,0-.186-.193q0-1.281,0-2.558V-9.113c0-.051,0-.1,0-.155,0-.073.025-.1.1-.1q.677,0,1.356,0c.078,0,.1.037.1.106,0,.053,0,.1,0,.155Z" transform="translate(4.179 9.372)"/>
    </g>
    <g id="Gruppe_25" data-name="Gruppe 25" transform="translate(9389.188 716.45)">
      <path id="Pfad_25" data-name="Pfad 25" d="M-16.776-14.164a1.579,1.579,0,0,0,.151.071,3.968,3.968,0,0,1,1.405.872,4.4,4.4,0,0,0,1.105.743,3.689,3.689,0,0,1,.777.472c.106.089.127.08.244-.018a.68.68,0,0,1,.124-.091.251.251,0,0,1,.351.1.651.651,0,0,1,.076.217,10.258,10.258,0,0,1,.2,3.1A10.622,10.622,0,0,1-13.4-4.835a9.376,9.376,0,0,1-2.556,3.2.69.69,0,0,1-.48.164c-.1-.005-.195-.007-.292-.018a.253.253,0,0,1-.248-.231,2.375,2.375,0,0,0-.286-.9c-.062-.128-.118-.259-.178-.386a.328.328,0,0,1,.053-.379,1.433,1.433,0,0,0,.16-.242.742.742,0,0,0,0-.741,1.872,1.872,0,0,0-.3-.4,6.494,6.494,0,0,0-.717-.621.39.39,0,0,1-.168-.4c.068-.528-.151-.759-.684-.759a3.235,3.235,0,0,0-1.041.2,4.482,4.482,0,0,0-1.229.6.775.775,0,0,1-.3.125c-.6.111-1.194.218-1.789.337a1.237,1.237,0,0,1-.717-.056,15.3,15.3,0,0,1-1.613-.759A.378.378,0,0,1-26-6.376a.761.761,0,0,0-.08-.237.288.288,0,0,0-.217-.171c-.195-.033-.259-.116-.249-.3a7.331,7.331,0,0,0-.133-1.463,3.513,3.513,0,0,1-.068-1.1,1.4,1.4,0,0,1,.5-.91,4.179,4.179,0,0,1,.361-.262.576.576,0,0,0,.271-.486c.013-.173.022-.348.04-.52a.812.812,0,0,1,.406-.663c.852-.515,1.731-.979,2.621-1.422.2-.1.41-.195.615-.287a1.134,1.134,0,0,1,.22-.075.266.266,0,0,1,.361.279,1.027,1.027,0,0,0,.031.287.19.19,0,0,0,.2.149,2.182,2.182,0,0,0,.67-.084.824.824,0,0,1,.586.028,1.12,1.12,0,0,0,.32.073.61.61,0,0,0,.692-.432,1.319,1.319,0,0,0,.036-.149.319.319,0,0,1,.351-.289,2.714,2.714,0,0,0,.8-.124,1.216,1.216,0,0,0,.677-.492.8.8,0,0,0,.1-.7.486.486,0,0,0-.715-.295,1.283,1.283,0,0,0-.322.246.371.371,0,0,1-.492.077c-.184-.093-.366-.193-.548-.287a.372.372,0,0,0-.124-.053.178.178,0,0,0-.178.047c-.035.049.009.1.033.142a2.666,2.666,0,0,0,.155.246.259.259,0,0,1,.035.306.287.287,0,0,1-.289.116.566.566,0,0,1-.249-.1c-.4-.248-.8-.5-1.216-.723a3.722,3.722,0,0,0-1.045-.4.555.555,0,0,0-.268,0c-.075.024-.115.064-.066.144a.219.219,0,0,1,.026.051.362.362,0,0,1-.337.517.493.493,0,0,1-.279-.069.2.2,0,0,0-.215,0,1.452,1.452,0,0,0-.852,1.016c-.063.289-.147.575-.217.863a.392.392,0,0,1-.311.309c-.424.111-.848.224-1.274.33a.356.356,0,0,1-.473-.248,1.691,1.691,0,0,1-.075-.99.365.365,0,0,1,.361-.269c.244-.028.488-.053.732-.082.308-.035.324-.055.3-.358,0-.038-.009-.077-.013-.115-.011-.233-.167-.333-.364-.389-.113-.033-.24-.047-.267-.184s.072-.211.165-.284a1.517,1.517,0,0,0,.332-.324.857.857,0,0,0,.184-.541.346.346,0,0,1,.171-.324,1.382,1.382,0,0,0,.269-.22.136.136,0,0,0,.013-.2c-.14-.178-.131-.253.02-.419.04-.042.082-.082.118-.127.062-.08.034-.149-.068-.16a.973.973,0,0,0-.289.022,1.95,1.95,0,0,1-.5.024.792.792,0,0,1-.4-.135.233.233,0,0,1-.032-.413c.06-.056.127-.109.184-.171.108-.115.113-.133.02-.266a.7.7,0,0,1,0-.817.449.449,0,0,1,.323-.224c.353-.051.7-.1,1.054-.147a2.69,2.69,0,0,0,.322-.073.3.3,0,0,0,.235-.268,6.7,6.7,0,0,1,.3-1.141,1.736,1.736,0,0,1,.193-.4.206.206,0,0,1,.231-.1,13.415,13.415,0,0,1,5.179,2.119,13.472,13.472,0,0,1,2.5,2.446c.328.4.641.812.943,1.232a.281.281,0,0,1-.051.449c-.063.056-.129.108-.193.164a.432.432,0,0,1-.5.069c-.069-.029-.153-.113-.209-.053s.025.151.064.218a1.21,1.21,0,0,0,.572.5c.113.055.158.042.209-.076a.338.338,0,0,1,.562-.109,1.578,1.578,0,0,1,.554,1.034,4.68,4.68,0,0,1-.1,1.5,1.843,1.843,0,0,1-.056.264.283.283,0,0,1-.473.149,1.058,1.058,0,0,1-.137-.135,9.986,9.986,0,0,0-1.343-1.2,3.233,3.233,0,0,0-.739-.42.542.542,0,0,0-.568.042c-.115.084-.244.144-.395.233" transform="translate(26.77 22.601)"/>
    </g>
  </g>
</svg>
